<svg width="64" height="65" viewBox="0 0 64 65" fill="none" xmlns="http://www.w3.org/2000/svg">
<mask id="path-1-inside-1_243_3997" fill="white">
<path d="M0 32.2451C0 14.572 14.3269 0.245117 32 0.245117C49.6731 0.245117 64 14.572 64 32.2451C64 49.9182 49.6731 64.2451 32 64.2451C14.3269 64.2451 0 49.9182 0 32.2451Z"/>
</mask>
<path d="M10.6464 31.8916C10.4512 32.0868 10.4512 32.4034 10.6464 32.5987L13.8284 35.7807C14.0237 35.9759 14.3403 35.9759 14.5355 35.7807C14.7308 35.5854 14.7308 35.2688 14.5355 35.0735L11.7071 32.2451L14.5355 29.4167C14.7308 29.2214 14.7308 28.9048 14.5355 28.7096C14.3403 28.5143 14.0237 28.5143 13.8284 28.7096L10.6464 31.8916ZM54 31.7451H11V32.7451H54V31.7451ZM1 32.2451C1 15.1243 14.8792 1.24512 32 1.24512V-0.754883C13.7746 -0.754883 -1 14.0197 -1 32.2451H1ZM32 1.24512C49.1208 1.24512 63 15.1243 63 32.2451H65C65 14.0197 50.2254 -0.754883 32 -0.754883V1.24512ZM63 32.2451C63 49.3659 49.1208 63.2451 32 63.2451V65.2451C50.2254 65.2451 65 50.4705 65 32.2451H63ZM32 63.2451C14.8792 63.2451 1 49.3659 1 32.2451H-1C-1 50.4705 13.7746 65.2451 32 65.2451V63.2451Z" fill="#F2F2F2" mask="url(#path-1-inside-1_243_3997)"/>
</svg>
