<svg width="838" height="68" fill="none" xmlns="http://www.w3.org/2000/svg"><path d="M827.968 18.003c-1.898 0-4.053.173-5.593-.028-3.129-.403-6.721-.33-9.645-.791-2.258-.345-4.721-.288-7.03-.633-3.129-.46-5.079-.028-6.721 1.18-.77.574-3.027.847-5.131.617-.872-.1-1.642-.301-2.514-.301-6.619-.03-13.237-.058-19.805-.015-2.411.015-4.258.748-7.029.546-.769.36-1.539.734-2.411 1.079-.77.302-2.258.604-3.13.388-4.053-.935-9.441 0-13.494-.834-.205-.043-1.437.259-2.052.446-1.027.316.256.445.769.618.821.302 2.001.388 3.335.402 1.847.03 3.746.044 5.593.116.667.028.564.2 0 .373-.77.23-.667.417.462.547.564.057 1.59.115 1.59.186 0 .331-.975.288-1.796.302-2.77.072-5.438 0-8.106.49-3.387.603-7.286 1.034-11.288.186-.616-.13-1.796-.072-2.771-.072h-9.44c-2.514 0-5.028-.029-7.081.475-3.489-.058-6.311.675-9.902.59-3.746-.102-7.542-.044-11.339-.058-4.31-.777-9.133-.389-13.699-.49-2.668-.057-4.977 0-6.67.662-1.027.403-2.617.417-4.259.388-1.18 0-2.36.015-3.54.029.051.288.718.446 1.642.446 14.161.028 28.322.043 42.483.057.872 0 1.949-.086 2.616-.23 1.334-.287 2.206-.115 3.079.158 1.077.345 2.103.59 3.796.202.616-.144 1.796-.101 2.72-.115 5.233-.101 10.672.215 15.649-.504 6.311-.014 12.57-.043 18.881-.043.924 0 2.001.015 2.668.158 1.642.36 3.489.36 5.387.345 3.438-.028 6.157.23 7.081 1.294.154.159.769.273 1.18.417.564.216.564.23 2.976.043.923-.072 1.796-.158 2.616.043 1.181.302 2.001.202 3.079-.086 1.334-.36.41-.56-.308-.834-.308-.129-.41-.359-.256-.488.564-.374 1.487-.159 2.103 0 .872.215 1.693.143 2.617.086l6.978-.086c1.231.258 2.257.072 3.437-.087 1.129-.143 3.079.159 3.438.547.359.359 0 .704-1.693.762a5.32 5.32 0 0 0-.872.086 2.868 2.868 0 0 0-.667.187c0 .029.307.158.513.158 2.462.057 4.925.1 7.388.172 1.077.03 1.642.59 3.078.216 2.104-.546 4.977 0 7.132-.417.462-.1 1.18-.287 1.488-.244 1.95.244 3.797.532 5.695.805 1.437-.446 2.566-.086 4.002.043 1.437.144 3.13.029 4.669.086.462 0 .873.187 1.283.273-.256.058-.462.144-.718.159-2.668.23-5.644-.116-8.21.316-2.616.46-5.541.143-8.26.302-.616.028-1.437-.043-1.847.057-3.027.719-6.619.417-10.005.431-11.031.044-22.062.044-33.042.072-.719 0-1.848.058-.975.46.615.288.975.633 1.077.978.154.417.77.633 2.258.647 2.514 0 5.028 0 7.542.043.462 0 1.334.201 1.283.288-.103.23-.513.46-.873.675-.102.043-.461.058-.769.072-.77.69-2.925.56-4.515.417-1.437-.13-2.463-.446-3.9.029-.769.259-1.847.474-2.976.604-1.898.215-1.898.316 0 .532 1.078.129 2.001.388 2.976.589l4.977.82c1.847.258 3.54.172 5.336-.087 1.078-.144 2.668-.33 3.489-.201 2.822.446 6.003.345 8.876.647.36.029.616.302.565.446-.051.143-.513.373-.924.388-1.847.086-3.694.1-5.541.187-.616.028-.513.215.103.388.615.158.667.316.154.402-2.412.403-5.747-.244-7.851.547-.923-.23-1.898-.46-2.822-.705-1.026-.259-2.308-.23-3.54-.215-1.693.028-1.385.56-2.103.69-2.566.488.872 1.322-1.591 1.797-.462.086-.154.503-.102.762 0 .072.307.158.513.215.41.115.872.058 1.18-.172.256-.158.256-.403.615-.46 1.334-.187 1.232.172 1.488.373.462.417 1.693.504 2.925.504 3.437.014 6.926 0 10.364 0 1.077 0 1.847.373 1.744.79-.102.374-.307.705-1.898.777-1.026.043-1.539.201-1.744.517-.206.345.513.575 2.514.518 3.335-.086 6.978.402 9.851-.46 4.361-.058 8.722-.173 12.673.517.872.159 1.18.403.975.662-.103.129-.821.316-1.232.302-1.949 0-3.54.115-5.182.46-1.642.345-3.848-.69-5.695.057-3.181-.287-6.721-.287-9.697-.633-5.541-.66-11.031-.33-16.573-.258-.41 0-.923.417-1.026.647-.154.244-.359.532.667.718l6.67.432c1.334-.489 3.335.503 4.567-.158 1.949.158 3.95.316 5.9.489.257.028.462.114.667.172-.256.058-.462.144-.718.172-.565.058-1.18.101-1.796.101-1.796 0-3.181 0-1.591.705.667.301-.872.316-1.59.316-9.133.014-18.266.014-27.398.029-2.515 0-5.029-.015-7.543 0-2.514 0-2.257.302-1.129.776.257.1-.872.417-1.077.661-.872.906-2.976 1.28-6.208 1.237-1.899-.015-3.797-.058-5.644-.015-4.259.1-8.722-.273-12.776.46-.41.072-1.693-.143-2.411-.287a7.641 7.641 0 0 0-2.617-.029c-1.026.158-.77.46-.359.69 1.026.604 2.104 1.208 3.181 1.797-3.643.13-3.797.173-2.411 1.15.615.446-.462.374-1.129.475-2.104.33-2.155.373-1.334.949.205.143.513.287.821.416-.565.044-1.18.173-1.693.13-.873-.058-2.155-.374-2.361-.316-2.822.79-5.079-.03-7.542-.187-.821-.044-1.95-.389-2.257-.317-3.028.619-7.337.13-10.159.877.41.705 2.052 1.064 4.463 1.093 2.463.029 4.772 0 7.235-.316 4.464-.575 6.105-.302 8.055.79.513.288.411.46-.256.647-1.129.317-2.309.662-3.951.288-1.334-.288-3.027-.547-4.259-.33-3.129.545-6.464.488-9.851.517-.359 0-.667.201-.975.302.257.057.462.158.719.172 2.462.058 4.925.086 7.388.144.205 0 .41.1.667.158-.257.058-.513.158-.77.158-3.643.043-7.388.36-10.877-.259-.256-.057-1.077.044-1.436.13-1.488.36-2.771.244-4.156-.072-1.181-.273-2.617-.245-3.028.144-.615.59-1.128.59-3.027.345-2.668-.345-2.873-.273-4.925.517-.821.317-1.437.173-2.104.015-1.334-.317-2.411-.849-4.515-.288-.308.086-1.334.1-1.745.014-4.361-.819-9.081-.287-13.647-.287-2.104.604-3.848.144-5.798-.13-1.385-.186-3.079.116-4.361.59-.924.345-1.847.848-3.079.92-2.668.158-5.541-.014-8.004.503-.359.072-1.59-.187-2.463-.258-1.128-.087-2.257-.159-3.386-.23-.154-.274-.718-.475-1.642-.49-5.028-.129-9.902-.028-14.212.878-1.591.33-2.822.072-3.233-.475-.205-.287-1.077-.445-2.103-.36-1.437.13-2.822.317-4.207.504-.821.1-.924.273-.308.374 1.077.172 2.206.302 3.283.445 1.078.144 2.155.302 3.233.46-.924.331-2.206.245-3.438.26-1.077 0-1.488.2-2.052.43-1.847.762-2.617.806-3.54.173-1.745-1.121-5.336-1.351-8.825-1.639-.667-.057-1.745.144-2.463.273-.616.115.308.575 1.539.777.513.086 1.18.13 1.642.23.513.115.308.603-.256.675-3.643.547-7.44.834-11.545.561-.41-.029-.667-.259-.872-.403-.308-.2 0-.388.718-.416 1.54-.072 3.079-.115 4.618-.13 1.078-.014 1.95-.144 1.898-.417 0-.23-.513-.503-1.077-.675-2.309-.619-5.028-.978-8.312-1.007-3.027-.028-6.208.115-8.927-.474-.308-.058-1.129.057-1.694.1.154.144.206.302.513.432.975.388.821 1.064 3.438 1.092.718 0 1.437.317 2.155.49.205.057.513.2.513.215-.41.1-.821.23-1.334.273-2.36.244-3.797-.403-5.798-.489-.051.489.154 1.05-2.668.992-.615 0-1.488-.043-1.795.043-1.694.475-3.079.432-4.413-.1-.872-.345-1.796-.36-2.976-.072-1.18.287-2.206.043-3.284-.115-2.565-.374-5.13-.417-7.798.043-2.155.374-4.515.79-7.286.273-.308-.057-1.129.072-1.591.158-2.565.489-5.387.475-7.85.058-3.899-.662-8.773.215-12.365-.705-1.231.245-2.411.518-2.822.95-.616 0-1.18.013-1.796.042-.461.015-4.874 0-5.541-.014-.923 0-1.898 0-2.771.057-.872.043-.974.187-.513.36 1.027.36.975.56-.923.604-2.668.071-4.515-.504-6.875-.676.359-.216 1.18-.503.974-.647-.564-.36-4.104-.302-4.874.029-.667.302 0-.101.565.215.41.26.718.503-.462.547-1.847.057-3.746 0-5.644 0-1.591 0-3.13 0-4.72.043-1.796.043-3.643-.1-5.388.259-1.744.345-3.078-.475-4.977-.26-.256.03-.667 0-.923.03-.924.114-1.488.301-1.385.589.307.978.359.978-1.847.978-2.207 0-4.875-.202-6.465.086-3.027.532-6.055.345-9.082.388-1.488.014-3.232.029-4.515-.144-1.642-.23-.616-.79-.872-1.207-.257-.374-.821-.662-1.745-.892-.359-.086-.923-.13-1.436-.158-.103 0-.462.13-.462.201-.103.173 0 .345-.103.532-.359 1.309-.513 1.337-4.617.762-1.591-.215-3.181-.431-4.772-.632 0-.072-.051-.173-.205-.216-2.36-.79-2.566-.834-4.772-.201-1.898.546-3.745.517-5.9.273-1.129-.13-2.771-.201-3.284-.446-1.283-.661-2.565-1.15-5.592-1.05-.308 0-.975-.23-1.027-.373-.256-.46-.923-.647-2.206-.273-1.847.517-3.437 1.02-6.208.33-.77-.186-3.027-.258-3.489-.114-2.104.69-4.259.23-5.644-.044-3.181-.632-6.824-.718-9.748-.36-3.079.375-6.003.346-9.082.375-2.514.029-5.028 0-7.542.029-.924 0-1.488.215-1.591.488-1.847.015-4.053.202-5.387-.028-3.489-.576-7.183-.417-10.826-.504-1.18-.028-2.258-.23-3.386-.36-.873-.1-1.847-.172-2.514.058-.154.058.513.26.615.417.308.331.565.662.667.992 0 .13-.564.273-.872.403-.205-.072-.513-.13-.564-.201-.821-1.079-3.438-1.352-6.978-1.265-1.847.043-3.694-.015-5.388.33-.564.115-1.898.115-2.514 0-1.693-.302-3.848-.546-5.233-.215-2.104.517-3.438-.274-4.772-.101-2.052.273-3.745.144-5.746 0-2.001-.144-4.31-.014-6.465.043-.872.029-.77.172-.205.374.513.187 1.129.489.923.675-.718.604-1.744.058-2.668 0-2.668-.172-5.746.115-8.004-.56-2.719.057-5.541-.273-8.209.23-.923.172-2.309.23-3.489.23-2.822.029-5.644 0-8.466 0-4.361.014-8.312-.762-12.775-.575-.257 0-.565-.072-.77-.13-.154-.043-.308-.129-.256-.158.153-.072.41-.158.667-.172.769-.058 2.154-.058 1.898-.33-.257-.274-1.283-.72-2.514-.547-1.283.187-1.95.273-3.079-.058-.718-.215-1.334-.647-2.668-.474-.513.072-.461.46-.615.719-.052.086.154.2 0 .258-.308.101-.975.26-1.129.23-1.334-.23-2.873-.546-4.156-.129-1.539.503-2.514-.388-3.797-.043-1.334.36-2.052.058-2.976-.173-1.282-.345-1.026-.79-1.334-1.222-.205-.273-1.231-.388-2.206-.316-.513.029-1.026.187-1.231.316-.206.159-.052.345-.103.518-.154.56-.256.489-3.489.906-1.796.244-3.438.46-5.182.143-2.925-.532-5.746-.618-8.722-.057-2.258-.13-4.515-.56-6.619.144-.205.057-1.334 0-1.693-.087-1.539-.416-3.387-.388-5.285-.373-2.514.014-5.028 0-7.542 0-1.796 0-2.925-.187-3.233-.72-.102-.23-.718-.287-1.282-.172-1.078.202-2.001.446-2.412-.187-.359-.575-2.257-1.006-2.052-1.682.103-.359-1.437-.503-2.822-.316-1.077.144-2.155.575-3.232.36-1.847-.389-4.002-.403-6.055-.59-.256-.029-.41-.115-.564-.172.513-.087 1.077-.159 1.59-.26.462-.086 1.334-.172 1.334-.258 0-.36-3.335-.891-4.361-.704-1.231.215-2.36.488-2.719.92-1.026-.144-2.001-.331-3.078-.403-1.232-.086-2.258.043-2.566.431-3.181-.388-5.439-1.466-9.748-1.063-2.361-.748-5.952-.317-8.671-.705-3.028-.431-6.003-.862-9.031-1.294-1.077-.158-2.206-.302-3.232-.489-.564-.1-1.129-.115-1.488.101-1.59 1.02-7.132.503-8.363 1.725-.257.273-3.848.259-4.105-.043-.872-.862-3.335-.82-5.592-1.02-.359-.03-.308-.432-.462-.662 3.284-.158 3.643-1.625 7.901-1.366.77.043.924-.158.513-.345-.41-.172-1.488-.388 0-.59a8.89 8.89 0 0 1 .873-.042c2.462.057 5.233-.245 7.234.258 2.771.69 4.361-.46 6.67-.244.564.058 1.026.201 1.539.302.565.115 1.129.057 1.232-.158.102-.144-.052-.446-.359-.46-3.182-.259-6.619-.288-9.646-.733-7.286.172-13.34-1.41-20.729-1.136-.256 0-.513-.1-.821-.115-2.975-.173-5.284-1.423-9.03-.46-1.334-.201-3.489-.316-3.9-.633-1.744-1.207-6.002-1.035-9.132-1.351-3.027-.302-6.773.201-9.8-.475-2.257.892-4.258.087-6.413-.043-1.847-.115-4.67.82-3.592 1.208 2.206.79 1.386 1.668 1.796 2.516.102.259.77.417 1.693.46.257.36 1.078.517 2.412.532 1.436 0 2.924 0 3.334.503 2.053.13 1.796.575 1.694 1.006-.103.417-.975.604-2.36.618-1.745.03-3.079-.215-4.002-.575-.873-.33-1.386-.762-2.207-1.107-.718-.287-1.898-.532-3.18-.373-.617.072-.976.388-1.284.604-.205.158 0 .373-.256.517-.257.13-.821.244-1.334.302-1.078.1-1.95-.086-2.052-.345-.257-.618 0-1.28-3.438-1.165a7.78 7.78 0 0 1-1.693-.158c-5.541-1.006-11.237-1.394-17.496-.445-.821.129-2.412-.044-3.54-.159-.821-.086-1.54-.302-2.207-.488-1.334-.345-2.822-.417-4.053-.03-2.155.677-4.156 1.022-7.03.245-1.025-.287-2.667-.417-4.104-.575-2.668-.273-3.848-.776-3.95-1.581-.052-.575.667-1.222-1.18-1.754-.77-.216.666-.388 1.128-.56.719-.26 1.488-.202 2.207 0 .923.244 1.641.517 1.744.89 0 .072.564.187.564.187.41-.086 1.027-.172 1.078-.273.616-1.423.359-1.524-4.207-2.228a176.703 176.703 0 0 1-5.542-.934c-.461-.087-.667-.274-1.026-.403.565-.058 1.129-.173 1.693-.173 1.54-.028 3.13 0 4.72-.028 2.104-.03 2.104-.044 2.669-1.064.513-.072 1.231-.115 1.334-.216.359-.316.051-.747.718-.992 1.283-.503 1.59-.862-.462-1.265-1.231-.244-2.206-.618-3.284-.92 2.412-.934-.256-.776-2.206-.877-1.129-.057-2.103-.345-3.283-.446-2.31-.2-4.156-.762-6.824-.661-.206 0-.462-.1-.719-.158.41-.1.77-.273 1.18-.288 4.054-.028 8.107-.014 12.16-.043.257 0 .873-.273.77-.302-.924-.345-2.514-.632-2.873-1.02-.616-.662-1.847-.82-4.002-.762-.924.028-1.899.014-2.72-.072-1.539-.173-.256-.374.052-.56.256-.145.461-.303.718-.447.924-.158 1.796-.402 2.77-.43 2.771-.073 2.925-.576 2.925-1.137 2.976-.129 5.08.49 7.44.805 2.668.346 4.72.36 6.619-.301 1.026-.36 2.36-.532 4.104-.504 1.847.03 3.746-.043 5.644-.043 2.155 0 2.36-.374 2.565-.862.257-.561.667-.647 1.796-.417 2.668.546 6.414-.144 8.774.647.205-.159.615-.302.615-.46 0-.302-.615-.446-1.744-.49-.564-.028-1.026-.157-1.59-.244.513-.086.923-.215 1.487-.244a36.937 36.937 0 0 1 2.822-.029c2.72.087 4.567-.158 5.644-.92.41-.287 2.566-.086 2.822.288.154.259 0 .532.154.79.103.115.77.187 1.18.26.051 0 .462-.116.616-.188 2-.949 4.053-1.064 5.541-.244 1.283.719 2.822 1.064 5.695 1.064 2.463 0 5.336-.273 7.286.201 2.822.676 4.566-.302 6.875-.187.873.043 1.796.086 2.668.158.873.072 1.642.216 2.514.273 1.18.087 1.848-.532 3.181-.23 1.027.23 2.412.202 3.387.36 3.489.517 7.234.445 10.928.46 1.591 0 3.13.029 4.721 0 1.18 0 3.181.13 3.335-.216.205-.374-1.745-.244-2.771-.316-2.36-.158-4.258-.633-7.029-.575-2.719.057-5.028-.56-8.004-.503-2.258.043-2.566-.245-1.18-1.05.616-.374-.103-.474-.872-.503-1.54-.058-3.13-.043-4.67-.086-.256 0-.513-.1-.77-.144.36-.1.72-.244 1.13-.273.923-.043 1.847-.015 2.822-.043.256 0 .718-.144.667-.173-.206-.115-.513-.302-.873-.316-1.231-.043-2.514-.029-3.745-.015-1.437 0-2.001.216-2.309.633-.872 1.136-2.104 1.452-5.182 1.466h-6.619l-8.67-.733c-2.156-.33-2.156-1.035-3.438-1.51-.462-.157-.308-.33.564-.359 1.54-.057 3.13 0 4.669-.057.924-.029 1.54-.23 1.54-.518-3.284-.388-6.209-.963-10.057-1.107-3.643-.143-7.08-.59-10.929-.474-1.795.043-3.694.086-5.438-.259-1.847-.374-3.13.431-5.08.273-1.18-.1-2.72.015-3.591-.158-2.31-.474-4.823-.33-7.286-.374-1.899-.043-3.797-.072-5.644 0-2.411.087-3.745-.546-6.106-.575-2.668-.029-2.668-.172-2.514-1.078.154-.934 2.514-1.423 6.055-1.164 3.13.23 6.105.33 8.568-.446.565-.187 1.59-.388 2.36-.374 3.387.058 6.875-.302 10.108.273 1.693.302 3.592.201 5.285-.115.513-.086 1.334-.215 1.693-.158 2.873.489 5.08 0 7.388-.33 1.385-.202 2.77-.389 4.105-.59 2.72-.417 6.105 0 8.67-.59 2.104.561 4.721.432 7.184.346 2.822-.101 4.874.186 6.516.79.718.26 1.54.159 2.309 0a7.48 7.48 0 0 1 3.386 0c.975.216 1.796.49 2.822.69.103.015.154.03.205.044 0-.03 0-.087.462-.13.205-.029.41-.172.308-.215-.565-.374-1.232-.748-1.847-1.122-.924-.187-2.001-.36-2.77-.59-1.797-.517-.976-1.178-.668-1.753.206-.345 2.053-.259 3.233-.33.872-.044 1.693-.188 2.462-.331.513-.087 1.13-.26 1.13-.389 0-.316-1.027-.302-1.9-.316-1.23 0-2.719 0-3.078-.402-.359-.36-1.077-.619-1.95-.863-.974-.273-2.103-.33-3.437-.302-1.437.029-2.206.201-2.463.618-.205.316-1.026.345-1.847.13-.667-.187-1.283-.403-2.052-.532-.719-.115-1.745-.202-2.514-.144-1.026.072-1.796.517-3.079.144-1.026-.302-3.18-.144-3.643-.705-.102-.158-.564-.302-.872-.445-.41.215-.82.416-1.18.632-.462.23-1.129.259-1.283.043-.564-.848-2.822-.877-4.925-.733-7.183.518-7.183.546-13.186.058-2.463-.202-4.875-.26-7.132.2-1.437.303-3.181.288-4.361.073-1.693-.302-3.387-.374-5.285-.432-1.231-.028-1.847-.474-.975-.805 1.334-.532 1.642-1.337 4.67-1.452 2.154-.747 5.027-.92 8.311-.877 3.438.043 6.927.115 10.364 0 3.592-.13 6.157.805 9.851.59 2.668-.158 3.643 1.064 6.311.92 2.617-.144 4.977-.777 7.696-.115.514.13.873.043 1.54-.072 2.616-.403 5.284-.36 7.952.043 1.437.216 1.18-.187 1.54-.388.256-.144.872-.417.974-.403 2.31.26 5.44.115 6.62.978 2.77.014 5.54.029 8.311.057 1.796.015 2.976-.172 3.13-.718 2.514-.46 5.131-1.18 8.158-.762 2.463.345 4.72.345 7.183.374 2.155.028 4.669-.101 6.362.172 3.027.489 6.157.431 9.03.33 2.976-.1 5.439.705 8.671.13 1.591-.273 4.259-.1 6.414-.072 2.565.043 4.258-.719 6.875-.517.154.2.308.416 1.334.345.308-.03.462-.216.667-.345.513-.058 1.129-.101 1.488-.216a7.577 7.577 0 0 1 4.053-.072l2.822.704c1.693-.56 3.13-.057 4.721.058 1.693.115 4.309-.762 3.642-1.208-.205-.129-.872-.273-1.385-.287-.923-.043-2.206-.086-2.719.043-1.899.474-3.233.316-4.515-.172-.873-.331-1.847-.403-2.976-.087-.77.216-1.693.187-2.514.058-1.232-.202-.462-.906-2.771-.906-1.539 0-3.13-.029-4.669-.043h-.872c-1.539-.647-2.309-.647-3.746 0-.615 0-1.231.029-1.898.043-.616.518-1.693.906-3.797 1.006-.154-.244-.718-.417-1.59-.474-.924-.058-1.899 0-2.771-.072-.462-.029-.975-.216-1.129-.36-.308-.273.257-.517 1.18-.589.873-.072 1.899 0 2.771-.072.41-.028.77-.187 1.129-.287-1.334-.345-1.078-1.05-3.079-1.208-1.077-.086-2.616-.029-3.54.144-2.411.446-4.361.388-6.773-.029a50.984 50.984 0 0 0-10.518-.719c-2.77.087-5.951-.2-8.312.087-3.027.359-5.746.632-8.722.187-2.668-.389-6.106-.302-8.107-1.093-.359-.144-2-.23-2.462-.13-1.488.331-2.566.302-3.797-.086-1.334-.431-2.72-.56-4.874-.273-3.13.403-6.516.475-9.698-.057a14.19 14.19 0 0 0-5.182.086c-1.026.216-1.488 0-2.309-.072-1.077-.115-2.257-.158-3.437-.23-.821-.733-3.797-1.093-4.361-1.898-.052-.1-1.694-.201-2.463-.158-1.18.058-2.206.288-3.386.374-2.104.158-4.413.36-6.26-.043-2.36-.503-4.361-.475-6.824-.043-1.231.215-1.231-.202-1.283-.417-.051-.432-.205-.877 2.053-.964 1.18-.043 2.36-.158 3.489-.287 3.078-.388 6.618-.201 9.646-.733 1.128-.201 3.078 0 4.617-.043 1.386-.015 2.412.1 3.284.402 1.231.431 2.565.719 4.412.23 1.642.245 3.284.46 4.875.733.615.115.872.087 1.539-.043.975-.187 2.206-.287 3.335-.445 3.027-.432 5.849-1.035 9.081-1.266 3.387-.244 5.85.834 9.236.935.872.029 1.796.1 2.617.216 1.334.187 3.232.316 3.796.632.873.475 1.078.518 3.079.36 4.874-.374 5.746-.26 14.93.733 1.334.144 2.309.13 3.335-.13 1.026-.258 2.207-.316 3.284-.028 1.231.33 2.771.417 4.361.345 2.155-.115 3.643.172 4.772.618 1.436.546 2.411.115 3.745-.029 1.18-.13 2.309.029 2.566.431 1.796 0 3.745.202 5.284-.2 1.591-.418 3.541-.288 5.388-.288 1.385 0 2.36.143 2.616.575.103.143.616.402.975.402 3.13.015 6.209 0 9.338-.014 2.053-.805 3.643.13 5.542.115.718 0 .974.273.461.345-1.898.273-3.899.503-5.849.762-.256.043-.461.115-.718.172.205.058.359.144.564.158 3.387.216 6.876.432 9.595-.43 1.744-.547 3.797-.518 6.003-.49h.923c.308.015.77.087.77.115 0 .13-.103.288-.41.389-.565.215-1.232.402-1.899.589-.718.187-.615.302.308.374 2.873.201 5.49.043 8.004-.403.359-.057 1.129.072 1.693.115-.154.144-.154.33-.513.417-.667.201-.667.302.154.374.924.072 1.693.043 2.617-.086 2.463-.36 2.565-.331 4.053.273.565.23 1.078.431 2.104.388.564-.029 1.077-.144 1.642-.201 3.899-.345 7.85-.518 11.647.1.923.144 2.001.26 2.565.087 1.847-.575 4.874-.302 6.773-.777 1.128-.287 2.308-.187 3.335.058 1.436.345 2.822.704 4.156 1.078 1.128.316 1.693-.029 2.206-.172 2.001-.576 1.898-.806-.462-1.165-1.744-.259-1.847-.345-.616-.661.616-.158 1.18-.432 2.309-.158 1.847.46 3.027 1.293 5.747 1.265 3.95-.029 7.901.316 11.954-.245 3.335-.46 7.286-.46 10.313.475.565.172 1.591.345 2.412.345 3.437.029 6.875 0 10.313 0 1.539-.676 3.386.144 4.617-.029 2.925-.417 5.234-.115 7.44.302 1.539.287 2.617.316 4.156.043.975-.172 2.309-.201 3.54-.244 1.591-.058 2.052-.317 2.001-.705 0-.172-.051-.36.051-.532.154-.244.462-.489.719-.733 1.436.173 1.026.532 1.077.848 0 .173-.102.36 0 .532.103.158.359.345.77.432.41.086 1.18.129 1.744.1.873-.043.975-.201.513-.36-.359-.143-.872-.287-.974-.445-.206-.259-.154-.546.872-.676 1.282-.158 3.95-.043 4.464.159.718.287 0-.101-.514.215-.359.216-1.231.388-.256.633 2.617.675 5.541 1.064 9.235 1.02 1.796-.028 2.976-.115 3.181-.69.103-.244.719-.273 1.334-.129.514.1 1.283.302 1.54.259 2.257-.36 5.541-.173 6.67-1.15.564-.49 2.257-.446 3.335.086.667.316.821.719 2.001.13.359-.188.102-.633 1.59-.331 1.745.345 4.31.33 5.388.948.41.23.513.59 1.18.676 1.385.201 2.001-.244 2.822-.445a12.234 12.234 0 0 1 3.437-.346c3.181.173 6.208.849 9.543.13 2.72.661 6.004.374 9.031.374 3.386 0 6.978.215 9.953-.49 2.771.087 5.593-.2 8.261.23.77.13 1.744.202 2.617.217 3.129.043 6.362.158 9.44.028 3.643-.143 6.619.417 9.954.49 2.514.057 5.028.028 7.542.028 2.207 0 4.413.029 6.619.014 2.514 0 5.387.173 7.491-.1 2.463-.317 4.412-.403 6.721-.072 5.285-.892 10.262-.1 15.033.36 4.67.445 9.133.43 13.597.057 1.539-.13 2.925-.245 4.515-.245 1.899 0 4.361.187 5.541-.086 2.361-.532 3.951.086 5.901.072.616 0 1.283.029 1.898-.029 6.362-.517 6.362-.546 13.289-.1 2.617-.604 5.08.474 7.594.057 1.436-.23 2.462-.158 4.053-.086 4.258.201 8.568.316 12.878-.187 3.181-.374 6.927-.374 10.057 0 2.154.259 4.207.316 6.31.302 4.31-.043 8.774.345 12.776-.432.205-.043.718-.043.924 0 2.924.734 6.977.159 9.799.575 3.387.504 6.722.36 10.057.403 3.437.043 6.926 0 10.415 0 2.104-.834 5.028-.043 7.44-.302 3.027-.316 6.157-.144 9.235-.23 1.232-.043 2.463-.086 3.592-.216 2.719-.345 5.336-.388 8.055.015 2.72.417 6.26.057 8.774.733.462.13 2.155.1 2.719-.043 2.463-.604 5.336-.374 8.107-.446 4.617-.13 9.44.302 13.75-.489 5.285 0 10.621-.33 15.649.446 2.771-.158 3.284.56 4.721.949 2.155-.489 4.874-.489 7.234-.374 3.951.173 7.132-.517 10.877-.517 6.311 0 12.571 0 18.881-.03 1.694 0 3.028.13 4.156.49 1.027.345 2.669.445 3.9.675 2.155.417 3.591.432 5.849.058 1.95-.316 4.259-.201 5.746.402 1.54.604 3.9.69 5.901.46 3.181-.359 6.516-.43 9.697-.675 6.208-.49 9.287-.504 16.265.057.923.072 1.744.13 2.616-.043 3.387-.719 7.337-.201 10.98-.33 1.847-.058 3.643-.058 5.336.33 1.283.302 3.643.33 4.208-.029 1.539-1.05 3.899-1.006 6.567-.532 1.334.23 1.59-.086 2.309-.172 1.539-.187 3.13-.244 4.412.043.975.216-1.898.532-.154.776 1.026.144 2.771 0 3.541.187 2.873.676 5.49 1.452 8.209 2.186-.462.388-1.078.761-1.334 1.164-.359.489 1.026.863 2.719.776 3.027-.144 5.798-.618 8.979-.517.205 0 .513-.086.718-.144.411-.115.154-.33-.615-.33-2.822.028-1.848-1.064-4.208-1.122-.051-.244-.051-.503-.256-.733-.205-.245-.667-.245-1.334-.13-.667.115-1.488.403-2.206.03-.719-.375-1.386-.763-1.847-1.165-.308-.274.307-.547 1.231-.604 1.796-.1 3.694-.086 5.541-.187 1.18-.058 2.258-.259 3.438-.33 1.334-.101 2.719.143 2.822.46.102.445.102.876.154 1.322.051.532-.924.776-2.72.863-.821.043-.975.258-.461.345 1.282.23 3.027.345 3.848.66 1.641.62 2.924.23 4.515.044.975-.13 1.744.072 1.59.36-.102.2-1.642.359-.205.632 3.694.733 8.466.374 12.314 1.02.616.116 2.257-.316 3.181-.244 1.744.144 3.335.446 4.874.734 1.693.301 1.642 1.02-.154 1.336-2.309.403-4.566.892-7.542.892l-.513-.13Zm-49.666 14.29.103.058.154-.043h-.257a2.863 2.863 0 0 0-.564-.345c0-.014-.565 0-.565.014-.154.288.462.317 1.129.331v-.014Zm-6.567 14.205s.359-.043.513-.072v-.158l-1.129.1s.359.115.616.13Zm-29.964 1.595.564-.143-.616-.13-.564.072.616.201Zm-1.18-1.984h.102v-.028c.924 0 1.847.014 2.72 0 2.565-.058 4.104.762 6.977.575 2.104-.144 4.362-.043 6.568-.058 2.514 0 5.028.015 7.491 0 2.411-.014 3.335-.575 2.309-1.294-.103-.072-.411-.129-.616-.187-.205.058-.616.116-.667.187-.308.46-.975.805-2.976.748-1.231-.029-2.616.086-3.694-.029-1.385-.144-2.514-.46-4.259-.446-4.361.058-8.722.058-13.083.116-.257 0-.513.23-.77.373h-.102v.03c-.872 0-1.745 0-2.617.014-.257 0-.667.158-.616.172.257.115.565.273.975.302 1.385.086 2.206-.072 2.258-.489v.014Zm-3.592 2.588c.462-.072.872-.158 1.334-.23-.872-.201-1.796-.417-2.719-.604 0 0-.513.115-.565.187-.102.087-.102.187 0 .259.154.23.924.403 2.001.388h-.051Zm-33.76 2.674c.769 0 1.128 0 1.436-.029.565-.057 1.078-.158 1.591-.23a38.84 38.84 0 0 0-1.591-.244 4.94 4.94 0 0 0-.923 0c-.873.072-1.693.173-2.514.259l2.001.244Zm-11.186-.13s.462.03.616 0c.462-.085.359-.2-.359-.272-.103 0-.411.086-.513.158 0 .029.154.086.256.13v-.015Zm-2.001 4.73c.206.087.77.116 1.232.159 0 .014 0 .043.051.057l.154-.043s-.154 0-.205-.014c-.154-.13-.257-.273-.565-.33-.513-.087-.974.042-.667.172Zm-7.696-4.298s6.568-.402 6.568-.417c.051-.057.154-.115.154-.187-.052-.244-2.617-.719-3.643-.675-1.539.057-3.181.56-3.335 1.035 0 .072.154.158.308.23l-.052.014Zm-3.078-.388.564-.158-.616-.13-.564.072.616.202v.014Zm-556.28 3.94c-.359.071-.462.258-.667.402-.872.014-1.796.014-2.668.057-.257 0-.616.158-.616.158.308.115.616.26 1.026.288 1.437.1 2.206-.086 2.258-.503.513-.072 1.18-.101 1.385-.202.308-.143-.205-.287-.718-.2Zm-50.59-1.338c.308-.057.41-.201.565-.33.102 0 .153 0 .256-.015l-.154-.043s0 .043-.051.072c-.462.043-.975.057-1.231.144-.36.129.102.273.666.186l-.05-.014Zm4.772-13.873c.462.072.923.187 1.436.201 1.13.043 2.001-.158 1.488-.302a5.391 5.391 0 0 0-1.488-.144c-.513.015-.923.159-1.385.245h-.051Zm-22.011 9.718.872-.402-.616-.431c-.359.071-1.128.158-1.077.2.154.216.564.432.82.633Zm-8.004-.143c.41-.03 1.129-.072 1.18-.144.154-.216.102-.446.051-.662h.205c0-.028.052-.043.103-.071.667 0 1.283-.044 1.129-.317 0-.014-.565-.043-.565-.014-.205.1-.359.23-.564.33h-.308v.072c-1.231.044-1.847.26-1.693.633 0 .072.36.187.462.173Zm-9.03-.403.615-.187-.667-.158s-.513.13-.513.172c0 .058.36.116.616.173h-.051Zm-16.778-14.06-.821.158s.41.13.564.13c.205 0 .36-.101.513-.144l-.308-.144h.052Zm1.95 2.645c-.924-.33-1.95-.661-3.643-.604-.462.015-1.078.158-1.232.273-.154.13-.051.36.257.46 1.129.346 2.668.274 4.156.202.256 0 .462-.1.718-.144-.102-.072-.102-.144-.256-.201v.014Zm.205 1.136c-.257-.173-.77-.144-1.334.029-1.18.345-2.72.273-4.207.316-.462 0-.873.158-1.334.244.513.072.974.187 1.487.23.565.043 1.18 0 1.796 0 .872 0 1.847.03 2.668-.029.462-.028.975-.2 1.129-.33.154-.144 0-.316-.256-.46h.05Zm1.334 8.353c-.257.215-.616.416-.77.632 0 .029.718.115 1.129.158.205-.143.564-.287.513-.417-.051-.129-.564-.258-.872-.373Zm18.932-11.228c-.307-.13-.923-.202-1.282-.317-.616-.172-1.027-.158-1.283.072-.103.072-.103.144-.154.201-.051.317.616.46 1.54.49.512.014 1.077-.058 1.59-.087-.103-.13-.103-.273-.36-.374l-.05.015Zm63.109 1.912c-.462-.159-1.898-.317-2.36-.23-1.385.23-2.309.416-3.899.028-1.18-.287-3.079-.23-4.362.058-1.282.287-2 .158-3.027-.1-2.104-.518-2.257-.533-4.31 0-1.744.46-2.411.359-2.822-.26-.102-.129-.82-.301-1.282-.316-1.54-.057-3.13-.029-4.72-.057-3.695-.044-7.338.057-10.93-.446-1.795-.244-5.13-.403-5.848.69-.206.273-1.54.316-2.412.23a28.952 28.952 0 0 1-3.232-.503c-2.412-.546-5.234-.489-8.056-.518-1.847-.028-2.77.216-3.232.734-.257.316-1.077.575-1.693.862-4.31.014-8.671.302-12.724-.431-.924-.173-2.412.13-2.36.56.05.633-.719.978-2.976 1.05-.257 0-.41.115-.616.172.256.058.513.144.77.144 1.23.015 2.462.072 3.642 0 1.334-.072 8.158-.057 9.646.043 1.18.072 2.514.115 3.694.058 1.386-.058 2.771-.316 4.156-.33 1.13 0 2.258.215 3.387.33.256.029.667.014.923-.015.565-.071 1.386-.129 1.488-.244.308-.23.41-.532-.564-.69-.77-.13-1.693-.187-2.463-.345-.564-.115-.257-.661.41-.676 1.847-.028 3.695-.1 5.542-.057.975.029 1.18.345 1.128.618 0 .288-2.411.475-.667.82.616.114 1.694.043 2.617.043v.043h.205c.206.158.36.373.565.388 2.155.072 4.31.144 6.464.115 2.002-.029 3.643.072 5.183.431.667.158 2.565-.029 2.36-.144-.257-.158-.77-.273-1.18-.416-.872-.288-1.899-.403-3.284-.389-3.386.015-6.773 0-10.159.015v-.043h-.205c0-.26-.103-.532.256-.748.616-.374 2.053-.316 3.284-.302.924 0 2.206-.072 2.77.058 2.412.575 5.285.445 8.056.474 2.77.029 5.746-.144 7.953.532 4.36-.043 8.773-.043 13.083-.187 1.18-.043 1.95-.057 3.181 0 3.028.158 6.209.13 9.287.158.308 0 .924-.244.821-.316-.359-.33-.77-.676-1.539-.934l.051.043Zm7.183.905c-1.077-.057-1.129.13-1.18.317l-.154.028s0 .043-.051.058c-.462.043-1.026.057-1.283.158-.359.13.154.273.718.187.308-.058.411-.216.565-.345.051 0 .154 0 .205-.015v-.071c.462-.043.872-.087 1.283-.158.051 0 0-.159-.052-.173l-.051.014ZM71.844 27.19c-.308.057-.41.201-.513.316-.103 0-.154 0-.257.015l.154.043s0-.043.051-.072c.462-.043.975-.072 1.18-.144.36-.144-.154-.273-.666-.172l.05.014Zm11.339.043c-.257.014-.565.259-.513.388 0 .13.513.245.82.36.257-.115.668-.23.77-.345.103-.202 0-.46-1.026-.403h-.051Zm7.645-6.944c-.308.058-.41.216-.565.345-.051 0-.154 0-.205.015l.154.043s0-.043.051-.058c.462-.043 1.026-.072 1.232-.158.359-.143-.154-.287-.667-.187Zm2.976-7.59s-.052.043-.103.071c-.616.03-1.334.03-1.129.331 0 .014.565.029.616 0 .205-.1.359-.216.513-.33.103 0 .205 0 .308-.015l-.205-.057Zm2.616 8.151c-.205.144-.564.288-.513.417.052.13.565.244 1.026.417.257-.259.513-.46.565-.676 0-.043-.719-.1-1.13-.158h.052Zm11.545-3.263-.616.186s.462.159.667.159c.256 0 .41-.115.616-.173l-.719-.158.052-.014Zm11.39 15.368-.616.172s.462.144.667.144c.257 0 .462-.1.667-.158l-.718-.158Zm28.424 3.71s-.41.1-.615.157l.667.173.615-.187s-.461-.158-.615-.144h-.052Zm7.902.632c-.205-.087-.667-.115-1.129-.144 0-.029 0-.058-.051-.072h-.308c-.205-.115-.359-.23-.564-.345 0-.014-.616.014-.616.029-.051.273.564.302 1.18.302 0 .014.051.043.103.057.102 0 .205.015.256.029.103.115.205.244.462.302.513.086.975-.029.667-.158Zm12.929.345c-.461-.115-.923-.23-1.436-.345-.565-.13-1.129-.072-1.283.172-.256.388.616.661 2.001.661.257-.028.564-.043.821-.086.564-.1.513-.244-.154-.402h.051Zm-26.834-32.42c-.256-.129-.41-.272-.615-.402h.102l-.205-.057.103.057c-2.104.302-4.259.59-6.67.604-.257 0-.462.1-.719.158.257.058.462.158.719.158 2.462.03 4.925.115 7.337.03 1.488-.058.308-.36 0-.547h-.052Zm5.593 4.127c.205.086.77.115 1.231.158 0 .029 0 .043.052.072l.154-.043s-.154 0-.257-.015c-.154-.129-.256-.273-.564-.33-.513-.1-.975.043-.667.172l.051-.014Zm4.669-3.278c-1.283-.23-2.668-.388-4.156-.604-.256.058-.923.144-.923.23 0 .532-.052 1.05-1.591 1.452.462.072 1.077.245 1.334.216 1.898-.244 3.745-.518 5.541-.834.205-.029.052-.402-.256-.46h.051Zm37.455 5.693c-2.309-.144-4.054-.79-6.722-.618v-.029c-.051 0-.153 0-.205-.014-.154-.13-.256-.273-.564-.33-.513-.087-.975.042-.667.172.256.086.769.115 1.18.158 0 .014 0 .043.051.057h.103c-.257.374-1.334.46-2.566.547-.769.057-.974.273-.461.345 1.898.244 3.796.517 5.797.675 1.642.13 2.874-.201 3.849-.546.513-.172.615-.36 0-.402l.205-.015Zm.154 48.765c-.462-.1-.975.043-.667.187.205.086.769.115 1.231.158 0 .014 0 .043.051.058h.154c.103.402 1.026.503 2.309.46.257 0 .718-.087.667-.115-.102-.115-.256-.288-.513-.302-.821-.043-1.642-.029-2.463-.043v-.044a.99.99 0 0 1-.205-.014c-.154-.13-.256-.288-.564-.36v.015Zm5.284-22.298c-.564-.043-1.18-.057-2.206-.086l-2.155.259c.872.072 1.693.172 2.566.215.564.03 1.18-.014 1.795-.057.257-.015.462-.115.719-.173-.257-.057-.462-.13-.77-.158h.051Zm8.928 23.017c-1.488-.417-3.284-.431-5.08-.201-.359.043-.461.215-.667.359h-.307c0 .029-.052.043-.103.072-.667 0-1.283.029-1.18.316 0 .015.564.043.616.029.205-.115.359-.23.564-.345h.308s.051-.043.102-.072c1.848-.057 3.335.187 4.772.489.359.072 1.385.014 1.693-.072.873-.259-.205-.431-.718-.575Zm4.566-.23-.513.072.565.23s.461-.115.461-.158c0-.058-.359-.101-.513-.144Zm7.799.057s-.256-.057-.308-.057c-.872.13-.821.244.052.33l.667-.172s-.257-.072-.411-.1Zm11.391.575s-.462-.143-.719-.143c-1.436-.03-2.873-.03-4.31-.043v-.044h-.154c0-.416-1.026-.532-2.308-.474-.206 0-.36.058-.514.115l-.461.172.359.101c.102.029.256.058.359.058.872.028 1.693.028 2.565.043v.043h.154c.154.388 1.078.517 2.36.474.873-.028 1.694-.086 2.515-.143.102 0 .153-.115.102-.144l.052-.015Zm86.607-5.39c-.872.114-.821.23.051.301.103 0 .36-.1.565-.158-.205-.057-.513-.158-.616-.144Zm19.035-15.901s-.359.115-.564.158c-.205.057-.308.115-.359.172 0 .144.359.288.564.446l.924-.316c-.154-.13-.359-.259-.513-.388l-.103-.058.051-.014Zm8.364 15.383c-.154-.087-.36-.345-.924-.518-.308-.1-1.129-.1-1.693-.072-.872.043-.872.158-.462.345.616.288 1.026.604 1.591.906.154.072.41.13.615.187.308-.144.667-.288.873-.431.102-.072 0-.173 0-.417Zm29.604-.503-.821.158s.411.129.565.129c.205 0 .359-.086.513-.144l-.257-.13v-.014Zm11.904-15.096c-.052-.1-.667-.172-1.026-.244-.052 0-.514.1-.565.172-.102.23-.051.446-.103.676h-.153c0 .014 0 .043-.052.072-.461.043-.975.072-1.18.158-.359.13.103.273.667.173.308-.058.411-.202.565-.331.102 0 .154 0 .256-.015v-.057c1.334-.029 1.95-.23 1.693-.604h-.102Zm4.463 15.8s1.027 0 1.334-.086c.667-.158 1.181-.36 1.745-.547-.308-.057-.513-.115-.821-.143-1.231-.144-2.411 0-2.668.33-.103.144.103.317.41.446Zm3.489-15.656c-.821-.057-1.795-.014-2.668-.014-.615-.015-1.231-.058-1.795 0a2.71 2.71 0 0 0-.975.301c-.052.03.256.144.41.216 1.18.46 2.771.59 4.721.489.923-.058 1.539-.173 1.744-.46.257-.36-.667-.46-1.437-.518v-.014Zm7.03.532c-.36 0-.667.172-1.027.273.565.058 1.078.158 1.642.144.411 0 .719-.173 1.129-.273-.616-.058-1.18-.159-1.744-.144Zm6.926 14.894-.256.043-.257.043.564.23.514-.158-.565-.144v-.014Zm2.976 7.375c-.513 0-1.077.1-1.591.158.36.086.719.245 1.129.259.513 0 1.026-.1 1.642-.173-.41-.086-.77-.244-1.129-.244h-.051Zm16.059.345.565-.144-.616-.13-.564.073.615.215v-.014Zm1.847-8.698c-1.334-.215-2.873-.258-4.104 0-.411.101-.616.504-.257.618 1.026.331 3.592.302 4.823 0 .103-.014.103-.057.154-.1 0-.043 0-.086.051-.115-.205-.144-.256-.36-.667-.417v.014Zm13.135 7.879c-.769-.087-1.59-.187-2.206.086-.103.043-.103.144 0 .158.513.058 1.026.1 1.539.144l1.334-.23s-.41-.13-.667-.158Zm4.977 3.623c-1.026-.058-1.95.158-1.436.301.307.101.974.173 1.436.159.257 0 .462-.044.667-.101.205-.043.411-.1.667-.144-.41-.072-.821-.201-1.283-.23l-.051.015Zm14.161-.403s-.256-.058-.359-.072c-1.693-.158-3.643-.043-5.131-.431-.462-.13-2.463.287-2.565.517 0 .058 0 .173.051.187 2.617.288 5.233.288 7.901.043a.433.433 0 0 0 .257-.072c.051-.028.154-.057.205-.086-.102-.029-.256-.057-.359-.086Zm20.523-3.22s-.41.1-.615.158c.256.057.461.158.718.158.256 0 .41-.115.616-.187-.257-.043-.462-.144-.719-.144v.015Zm18.83-.561a26.411 26.411 0 0 0-1.847-.058c-.923 0-1.898.015-2.822.03v-.03c-1.539.044-3.078.044-4.617.13-.36.014-.77.273-.77.417 0 .13.462.273.718.402 2.617-.733 5.901-.373 8.928-.445.41 0 .769-.187 1.18-.288-.257-.057-.462-.13-.77-.158Zm46.229-.877s-.257-.072-.411-.1c-.154-.03-.256-.058-.308-.058-.923.13-.872.244.052.33l.667-.172Zm4.258-.216c-.513 0-1.436.087-1.436.158-.154.317.872.26 1.539.302l1.334-.244c-.462-.072-.924-.201-1.437-.216Zm9.338 1.567v-.043l-.154-.029c-.102-.416-.102-.819-.307-1.221-.103-.26-.565-.245-1.334-.072-1.95.43-2.104.56-.514.963.616.144 1.386.23 2.104.345v.072h.205c.308.661 2.104.474 3.592.489v.043l.154-.043h-.205c-.206-.705-2.104-.475-3.592-.49l.051-.014Zm77.219-2.257c-.206-.244-.821-.36-1.847-.33-.924.028-1.642.1-1.642.43 0 .346 1.128.59 2.309.49.872-.087 1.334-.273 1.128-.575l.052-.015Zm29.758-36.286s-.616 0-.616.014c-.205.288.462.302 1.078.317 0 .014.051.043.103.057l.205-.057h-.308c-.154-.115-.308-.23-.513-.33h.051Zm8.312-10.725c-.872-.043-1.796 0-2.719 0v.043h-3.643c-.257 0-.77.115-.718.13.205.143.41.302.769.402 1.078.302 2.206.59 3.951.274.718-.144 1.59-.216 2.411-.346.513-.072 1.027-.172 1.488-.258-.513-.087-.975-.216-1.488-.245h-.051Zm18.06.59c-.923-.202-1.898-.547-2.873-.575-3.386-.072-6.772-.03-10.159 0-.667 0-1.488.43-1.18.618.257.144.667.345 1.078.345 2.155.029 4.309.014 6.464.014v.087c2.155-.044 4.259-.072 6.414-.13.256 0 .667-.086.718-.144 0-.057-.256-.158-.462-.215Zm7.594 0c-.718-.274-1.077-.619-1.693-.906-.616-.273-1.642-.187-2.412-.086-1.077.144-.923.46-.513.661.77.374 1.745.719 3.438.748.41-.015.718-.03.975-.043.872-.087.769-.173.205-.389v.015Zm28.373 1.121c-2.206-.532-3.335-1.193-3.643-1.984 0-.086-1.128-.216-1.539-.172-4.771.488-9.697.89-14.109 1.61-.616.1-.565.23.153.388 3.233.748 6.414 1.093 9.903 1.064 3.232.201 5.541-.72 8.773-.56.77.042 1.027-.202.462-.346Z" fill="#F2F2F2"/></svg>