<svg width="177" height="35" fill="none" xmlns="http://www.w3.org/2000/svg"><path fill-rule="evenodd" clip-rule="evenodd" d="M24.34 23.21c-.383-.537-1.398-3.01-1.76-3.355L9.272 26.181c.079-.333.976-1.76 1.208-2.172l3.622-6.352c.312-.553 4.567-8.12 4.842-8.44.179.178 3.267 6.031 3.653 6.77.303.577 3.525 6.454 3.633 6.855.071.063 4.283 7.84 4.36 8.149-2.56.095-5.293.018-7.872.017-2.627 0-5.252.014-7.879.014-3.867 0-2.704-.235-6.433 1.433L3.573 34.59c-.23.103-.528.207-.674.353l34.687.044c-.291-.717-8.52-16.068-9.293-17.47-1.535-2.78-3.145-6.068-4.669-8.765-.556-.984-4.517-8.59-4.69-8.751-.705 1.464-1.535 2.881-2.297 4.343L9.729 17.388c-1.533 2.94-3.068 5.757-4.613 8.688L.513 34.81c.442-.148 1.088-.475 1.534-.692 3.355-1.63 7.055-3.17 10.487-4.84l6.015-2.744c1.003-.444 1.998-.913 3.006-1.372.495-.227 2.793-1.214 3.028-1.43l-.243-.523Zm97.822 4.6 3.005.025c.36-2.299.159-10.3.052-13.355.306.319.192.095.382.635l.443 2.459.634 3.476c.252 1.391.829 5.84 1.341 6.627.569.307 2.478.294 3.115.043 1.072-1.635 1.499-11.837 2.516-13.353l.081 13.428 3.231.064c.429-2.008.157-17.173.142-20.715l-4.824.005c-1.013 1.898-1.56 11.153-2.513 13.892-.541-.706-2.414-12.15-2.616-13.887l-4.997.003.008 20.652Zm-29.432.028 3.06.006c.408-2.545-.346-12.294.347-13.073L98.5 27.795c4.445.548 3.365.12 4.226-5.025.227-1.36.447-2.717.676-4.08.177-1.049.408-3.585.92-4.19l-.002 13.31 3.251.045.104-20.684-4.956-.015-2.255 13.507c-.197.468-.024.191-.298.511L97.72 7.16l-5.01-.016.02 20.694ZM63.117 10.146c3.156-.125 3.514.017 3.506 3.242-.009 2.953-.712 3.1-3.509 3.02l.003-6.262ZM59.56 8.153c-.001 5.218-.19 14.99.053 19.686l3.414.004.079-8.392c2.832-.072 3.54.011 3.551 3.258.006 1.63-.346 3.813.421 5.134l3.407-.011c-.083-1.86-.066-7.044-.815-8.492-.601-1.162-.805-.844-1.558-1.633 2.012-1.845 2.058-1.76 2.067-5.46.017-5.81-4.459-5.427-10.627-5.072l.008.978Zm96.566 1.961c3.023-.184 3.46-.022 3.469 3.041.01 2.982-.381 3.594-3.566 3.2l.097-6.24Zm-3.638 17.667 3.552.036.034-8.393c4.769.042 3.025 1.491 3.79 8.398l3.545.034c0-.793-.249-1.87-.248-2.868.003-4.947.423-4.821-2.125-7.28 2.1-1.841 2.122-2.183 2.122-5.46 0-2.529-.841-4.23-3.012-4.84-1.286-.362-6.444-.478-7.662-.11l.004 20.483Zm-9.515-15.533c0-1.443.241-2.324 1.732-2.358 1.53-.036 1.909.868 1.909 2.357l-.001 10.464c0 2.425-1.013 2.67-3.143 2.12-.905-1.704-.497-9.739-.497-12.583Zm-.219-5.032c-4.531 1.533-3.355 5.845-3.355 12.539 0 2.667-.281 5.173 1.227 6.837 1.269 1.4 4.164 1.901 6.402 1.188 4.341-1.386 3.175-7.654 3.175-12.575 0-2.528.172-5.214-1.243-6.787-1.212-1.346-3.946-1.967-6.206-1.202Zm-91.35 4.158c.438.585 1.735 8.66 1.717 9.887l-3.325-.017 1.608-9.87Zm-5.817 16.483 3.028-.008.752-3.738h4.26l.708 3.753 3.482-.025c.008-1.654-3.243-19.887-3.697-20.667l-4.97-.022c-.391.96-3.658 19.84-3.563 20.708Zm64.678-.007 9.725.002-.009-2.967-6.07.003-.059-5.96 4.826-.13.052-2.915-4.849-.042-.028-5.585c1.67-.481 4.244.039 6.077-.209l.037-2.857-9.512-.055c-.521 1.45-.153 17.702-.19 20.714Zm58.276-.034 3.401.037c.291-1.553.044-4.36.087-6.063.052-2.049 3.722-10.998 4.457-14.654l-3.32.03-2.647 9.093-2.784-9.084-3.685-.04c.545 2.74 2.177 6.791 3.069 9.608.446 1.411 1.294 3.438 1.344 4.819.065 1.815-.214 4.598.078 6.254Zm-96.99-17.727 3.684.018.003 17.675 3.443.079.132-17.724 3.687-.034-.008-2.97-10.982.012.041 2.944Z" fill="#fff"/></svg>