<svg width="64" height="64" fill="none" xmlns="http://www.w3.org/2000/svg"><mask id="a" fill="#fff"><path d="M32 64C14.327 64 0 49.673 0 32 0 14.327 14.327 0 32 0c17.673 0 32 14.327 32 32 0 17.673-14.327 32-32 32Z"/></mask><path d="M31.646 53.354a.5.5 0 0 0 .708 0l3.181-3.182a.5.5 0 1 0-.707-.707L32 52.293l-2.828-2.828a.5.5 0 1 0-.707.707l3.181 3.182ZM31.5 10v43h1V10h-1Zm.5 53C14.88 63 1 49.12 1 32h-2c0 18.225 14.775 33 33 33v-2ZM1 32C1 14.88 14.88 1 32 1v-2C13.775-1-1 13.775-1 32h2ZM32 1c17.12 0 31 13.88 31 31h2C65 13.775 50.225-1 32-1v2Zm31 31c0 17.12-13.88 31-31 31v2c18.225 0 33-14.775 33-33h-2Z" fill="#F2F2F2" mask="url(#a)"/></svg>