<svg width="28" height="29" fill="none" xmlns="http://www.w3.org/2000/svg"><path fill-rule="evenodd" clip-rule="evenodd" d="M10.619 4.045c-.703.015-2.055.129-2.746.231-1.878.278-3.036.863-3.697 1.867-.444.674-.737 1.572-.921 2.818-.168 1.138-.224 2.122-.241 4.227L3 14.886h.216c.676 0 2.687-.1 3.665-.18 2.478-.205 3.88-.715 4.981-1.811 1.066-1.061 1.583-2.438 1.806-4.813.068-.726.194-3.236.194-3.866v-.19l-1.45.006c-.797.004-1.604.01-1.793.013Zm3.518.222c0 .768.123 3.124.206 3.952.266 2.662.931 4.104 2.39 5.183 1.014.749 2.296 1.129 4.398 1.303.913.075 3.023.18 3.638.181H25l-.016-1.711c-.015-1.602-.05-2.5-.128-3.268l-.044-.426c-.199-1.963-.767-3.365-1.652-4.077-1.256-1.012-3.273-1.377-7.615-1.377h-1.408v.24ZM3.014 16.9c.02 2.745.153 4.217.49 5.433.42 1.517 1.084 2.353 2.295 2.886.978.43 2.485.692 4.229.735.332.008.666.021.742.029.075.007.802.02 1.615.029l1.477.014v-.215c0-.727-.124-3.114-.207-3.972-.22-2.298-.754-3.671-1.84-4.736-1.034-1.013-2.339-1.502-4.632-1.735-.79-.08-3.198-.207-3.94-.207H3l.014 1.739Zm20.426-1.697c-3.284.135-4.69.364-5.91.962-1.303.64-2.215 1.698-2.699 3.134-.296.88-.463 1.928-.57 3.588a91.029 91.029 0 0 0-.124 2.907v.227h1.257c1.173 0 1.535-.01 3.002-.084 1.976-.1 3.369-.416 4.313-.977 1.237-.734 1.86-2.069 2.119-4.545.105-1.011.142-1.838.157-3.57l.014-1.684-.367.004c-.203.002-.739.02-1.192.038Z" fill="#fff"/></svg>