<svg width="176" height="35" fill="none" xmlns="http://www.w3.org/2000/svg"><path fill-rule="evenodd" clip-rule="evenodd" d="M23.826 23.21c-.383-.537-1.397-3.01-1.759-3.355l-13.31 6.326c.08-.333.976-1.76 1.209-2.172l3.622-6.352c.312-.553 4.567-8.12 4.842-8.44.178.178 3.267 6.031 3.653 6.77.303.577 3.524 6.454 3.632 6.855.072.063 4.283 7.84 4.361 8.149-2.56.095-5.294.018-7.873.017-2.627 0-5.251.014-7.878.014-3.867 0-2.705-.235-6.433 1.433L3.06 34.59c-.23.103-.529.207-.674.353l34.686.044c-.29-.717-8.52-16.068-9.293-17.47-1.535-2.78-3.144-6.068-4.668-8.765C22.554 7.767 18.593.161 18.42 0c-.705 1.464-1.534 2.881-2.297 4.343L9.216 17.388c-1.533 2.94-3.069 5.757-4.613 8.688L0 34.81c.441-.148 1.088-.475 1.534-.692 3.355-1.63 7.055-3.17 10.487-4.84l6.014-2.744c1.004-.444 1.998-.913 3.006-1.372.496-.227 2.793-1.214 3.029-1.43l-.244-.523ZM121.649 27.809l3.005.026c.36-2.299.159-10.3.051-13.355.307.319.193.095.383.635l.443 2.459.634 3.476c.252 1.391.829 5.84 1.34 6.626.57.308 2.479.295 3.116.044 1.072-1.635 1.499-11.837 2.516-13.353l.081 13.428 3.231.064c.429-2.008.156-17.173.142-20.716l-4.824.005c-1.013 1.898-1.56 11.154-2.514 13.892-.54-.705-2.414-12.15-2.615-13.886l-4.997.003.008 20.652ZM92.217 27.837l3.061.006c.407-2.544-.346-12.293.346-13.072l2.365 13.024c4.444.548 3.365.12 4.225-5.025.227-1.36.447-2.717.677-4.081.176-1.048.408-3.584.919-4.19l-.002 13.31 3.251.045.105-20.683-4.957-.015-2.255 13.507c-.197.468-.023.191-.298.51L97.207 7.16l-5.009-.015.019 20.693ZM62.604 10.146c3.156-.125 3.514.017 3.505 3.242-.008 2.953-.71 3.1-3.508 3.02l.003-6.262Zm-3.558-1.993c-.001 5.218-.19 14.99.053 19.685l3.413.005.08-8.392c2.832-.072 3.54.01 3.551 3.258.006 1.629-.346 3.813.421 5.134l3.407-.012c-.083-1.86-.066-7.043-.815-8.492-.601-1.16-.805-.843-1.558-1.632 2.011-1.846 2.057-1.761 2.067-5.46.016-5.81-4.459-5.428-10.627-5.072l.008.978ZM155.613 10.114c3.023-.184 3.46-.022 3.47 3.041.01 2.982-.381 3.594-3.566 3.2l.096-6.24Zm-3.637 17.667 3.551.036.035-8.393c4.768.042 3.024 1.491 3.789 8.398l3.545.034c.001-.793-.249-1.87-.248-2.868.003-4.947.423-4.821-2.124-7.28 2.099-1.841 2.122-2.183 2.122-5.46 0-2.529-.842-4.23-3.013-4.84-1.285-.362-6.444-.478-7.661-.11l.004 20.483ZM142.461 12.248c0-1.443.241-2.324 1.732-2.358 1.529-.036 1.908.868 1.908 2.357l-.001 10.464c0 2.425-1.013 2.67-3.143 2.12-.904-1.704-.496-9.739-.496-12.583Zm-.219-5.032c-4.532 1.533-3.355 5.845-3.356 12.539 0 2.667-.281 5.173 1.227 6.837 1.269 1.4 4.164 1.901 6.402 1.188 4.341-1.386 3.175-7.654 3.175-12.575 0-2.528.172-5.214-1.242-6.787-1.212-1.346-3.947-1.967-6.206-1.202ZM50.89 11.374c.439.585 1.735 8.66 1.718 9.887l-3.325-.017 1.608-9.87Zm-5.816 16.483 3.028-.008.752-3.738h4.26l.708 3.753 3.482-.025c.008-1.654-3.243-19.887-3.697-20.667l-4.97-.022c-.392.96-3.658 19.84-3.563 20.708ZM109.752 27.85l9.725.003-.009-2.968-6.07.003-.059-5.959 4.826-.13.052-2.916-4.849-.041-.028-5.586c1.67-.48 4.244.039 6.077-.209l.037-2.857-9.512-.054c-.521 1.449-.153 17.7-.19 20.714ZM168.027 27.816l3.402.037c.29-1.553.044-4.36.087-6.063.051-2.049 3.722-10.998 4.457-14.654l-3.32.03-2.647 9.093-2.784-9.084-3.685-.04c.545 2.74 2.177 6.791 3.068 9.608.447 1.411 1.295 3.438 1.345 4.819.064 1.815-.214 4.598.077 6.254ZM71.037 10.089l3.684.018.003 17.675 3.444.079.131-17.724 3.687-.034-.008-2.97-10.982.012.041 2.944Z" fill="#F2F2F2"/></svg>