<svg width="562" height="559" fill="none" xmlns="http://www.w3.org/2000/svg"><g opacity=".9"><path d="M101.346 374.52c-25.77-46.447-31.312-100.004-15.612-150.825 15.7-50.822 50.758-92.807 98.731-118.235 47.973-25.429 103.099-31.245 155.241-16.383 52.142 14.861 95.042 48.617 120.812 95.063 25.769 46.447 31.311 100.004 15.612 150.825-15.7 50.822-50.758 92.807-98.731 118.236-47.974 25.428-103.099 31.244-155.241 16.382-52.142-14.861-95.042-48.617-120.812-95.063Zm-2.644 1.401c54.06 97.437 179.478 133.183 280.117 79.839 100.639-53.344 138.402-175.585 84.343-273.021-54.06-97.437-179.478-133.183-280.117-79.839-100.64 53.344-138.402 175.585-84.343 273.021Z" fill="#D7C09A" opacity=".2"/><path d="M161.054 342.864c-35.505-63.989-10.612-144.554 55.489-179.587 66.102-35.033 148.769-11.475 184.274 52.514 35.505 63.989 10.612 144.554-55.489 179.587-66.102 35.033-148.768 11.475-184.274-52.514Zm-2.644 1.401c36.343 65.499 120.663 89.539 188.338 53.672 67.674-35.867 93.063-118.035 56.713-183.547s-120.663-89.54-188.338-53.673c-67.674 35.867-93.063 118.036-56.713 183.548Z" fill="#D7C09A" opacity=".2"/><path d="m512.799 270.534-82.847 20.052 58.596 61.906 24.251-81.958Z" fill="#D7C09A"/><path d="m456.631 242.623-9.785 33.918 34.3-8.372-24.515-25.546Z" stroke="#D7C09A" stroke-width="1.5" stroke-miterlimit="10"/></g></svg>