<svg width="83" height="553" fill="none" xmlns="http://www.w3.org/2000/svg"><path opacity=".5" fill-rule="evenodd" clip-rule="evenodd" d="M81 552.817H0v-35.33c0-7.103 1.17-13.336 3.585-18.638 2.342-5.303 5.772-9.467 10.306-12.409 4.554-2.957 9.933-4.393 16.049-4.393 6.048 0 11.389 1.439 15.939 4.393 4.53 2.941 7.996 7.1 10.41 12.398l.006.011.005.011c2.338 5.299 3.47 11.527 3.47 18.627v13.51H81v21.82Zm-23.23-19.82v-15.51c0-6.893-1.1-12.833-3.3-17.82-2.273-4.987-5.5-8.837-9.68-11.55-4.18-2.713-9.13-4.07-14.85-4.07-5.793 0-10.78 1.357-14.96 4.07-4.18 2.713-7.37 6.563-9.57 11.55C3.137 504.654 2 510.594 2 517.487v33.33h77v-17.82H57.77Zm-14.52-14.52c0-5.5-1.173-9.607-3.52-12.32-2.347-2.713-5.61-4.07-9.79-4.07-4.253 0-7.553 1.357-9.9 4.07-2.347 2.713-3.52 6.82-3.52 12.32v14.52h26.73v-14.52Zm-2 12.52v-12.52c0-5.265-1.13-8.812-3.033-11.012-1.902-2.199-4.572-3.378-8.277-3.378-3.791 0-6.492 1.187-8.387 3.378-1.902 2.2-3.033 5.747-3.033 11.012v12.52h22.73ZM81 473.325H0v-35.33c0-7.103 1.17-13.336 3.585-18.638 2.342-5.303 5.772-9.467 10.306-12.41 4.554-2.956 9.933-4.392 16.049-4.392 6.048 0 11.389 1.439 15.939 4.392l.007.005.006.004c3.875 2.56 6.941 6.04 9.212 10.383L81 399.294v24.132l-21.45 14.778v13.301H81v21.82Zm-23.45-19.82v-15.51c0-.281-.002-.56-.005-.838L79 422.375v-19.25l-24.684 17.201-.066-.151a32.244 32.244 0 0 0-.8-1.683c-2.141-4.178-5.028-7.467-8.66-9.867-4.18-2.713-9.13-4.07-14.85-4.07-5.793 0-10.78 1.357-14.96 4.07-4.18 2.713-7.37 6.563-9.57 11.55C3.137 425.162 2 431.102 2 437.995v33.33h77v-17.82H57.55Zm-14.19 0v-14.52c0-5.5-1.173-9.607-3.52-12.32-2.42-2.713-5.72-4.07-9.9-4.07-4.253 0-7.553 1.357-9.9 4.07-2.347 2.713-3.52 6.82-3.52 12.32v14.52h26.84Zm-24.84-2h22.84v-12.52c0-5.256-1.127-8.8-3.023-11-1.98-2.215-4.7-3.39-8.397-3.39-3.791 0-6.492 1.187-8.387 3.378-1.902 2.2-3.033 5.747-3.033 11.012v12.52Zm14.5-78.779v-35.75h13.86v35.75H64.7v-41.91H79v59.62H2v-58.19h14.3v40.48h16.72Zm-14.72-2v-40.48H0v62.19h81v-63.62H62.7v41.91H48.88v-35.75H31.02v35.75H18.3ZM81 318.637H0v-17.869l45.916-27.698L0 245.837v-17.764l81-.231v20.721l-40.974.088 32.834 19.55v10.291l-31.942 19.425H81v20.72Zm-47.22-18.72 37.08-22.55v-8.03l-38.076-22.671L79 246.567v-16.72l-77 .22v14.63l47.812 28.359L2 301.897v14.74h77v-16.72H33.78ZM81 213.579H0v-21.82h81v21.82ZM0 178.145v-21.82h44.46c7.142 0 11.8-1.478 14.477-3.973 2.73-2.544 4.203-6.178 4.203-11.187 0-5.009-1.473-8.643-4.203-11.187-2.678-2.494-7.335-3.973-14.477-3.973H0v-21.6h45.12c11.658 0 20.926 3.188 27.493 9.834 6.547 6.627 9.707 15.728 9.707 27.036 0 11.308-3.16 20.41-9.707 27.036-6.567 6.646-15.835 9.834-27.493 9.834H0Zm81-87.35H0V72.928l45.916-27.699L0 17.995V.23L81 0v20.721l-40.974.088L72.86 40.36V50.65L40.918 70.076H81v20.72Zm-47.22-18.72 37.08-22.55v-8.03l-38.076-22.67 46.216-.1V2.006l-77 .22v14.63l47.812 28.359L2 74.056v14.74h77v-16.72H33.78ZM79 211.58v-17.82H2v17.82h77Zm-7.81-44.674c6.087-6.16 9.13-14.703 9.13-25.63s-3.043-19.47-9.13-25.63c-6.087-6.16-14.777-9.24-26.07-9.24H2v17.6h42.46c7.333 0 12.613 1.503 15.84 4.51 3.227 3.007 4.84 7.223 4.84 12.65 0 5.427-1.613 9.643-4.84 12.65-3.227 3.007-8.507 4.51-15.84 4.51H2v17.82h43.12c11.293 0 19.983-3.08 26.07-9.24Z" fill="#F2F2F2"/></svg>