<svg width="1365" height="555" fill="none" xmlns="http://www.w3.org/2000/svg"><path fill-rule="evenodd" clip-rule="evenodd" d="M1219.79 244.48c-1.85-.468-2.51.39-4.5-.312.29 1.481-1.63 1.403-2.22 2.183-.44-1.014-1.48-1.404-2.29-2.027 0 1.091-3.4 1.949-3.77 1.403.3-1.169 3.62-.156 2.66-2.261-2.14 1.17-2.14-.389-.66-1.325-6.28.39-5.98.234-11.3 1.481-.37-1.091.96-2.104.14-2.806-.51 2.65-4.13-.156-6.49-.078.73-.156 1.84 0 1.92-.701-.89-1.325-1.41.312-2.15-1.169.74-.234 0-.78-.59-.858-.59 1.559-.14 1.871-.59 2.884-3.62.156-8.86-.156-11.67-2.728.74-.779 1.55-1.403 2.37-2.027.81-.233 1.69-.311 2.73.39-.3-.935.37-1.091.29-1.949 1.63-.545 3.4-.701 5.47-.389.81.156 1.85-.936 2.88-1.949l.3.312s-.15-.234-.15-.39c.37-.39.74-.779 1.11-1.091.29-.234.51-.624.73-1.014 1.41.234 2.74-.545 4.51.234-.3-1.013-.15-1.793.74-1.948.15 1.403 2.21 1.636 3.03.545 1.18.858-.23 1.559.81 2.261.07-1.247 2.73-1.325 2.73-1.793-.59 0-1.18 0-1.11-.78.74-1.013 1.33.234 2.96-.389.07-1.793-2.22-.546-2.73-1.559 2.88.156.29-1.481.29-1.481.96-1.949 2.81.389 3.18 1.481-.82-1.793 1.03-3.43-.96-3.664-.45 2.027-1.92-.623-3.33 1.403 0-1.091-.37-1.715-1.25-1.715-1.04 1.092 1.11 1.871-.67 2.417-4.13-.312-1.77-4.599 1.41-4.443-1.33-.858-1.11-.546-3.03-.078 1.4-1.715-1.11-.936-1.7-1.637 1.11-1.169 5.02-.312 5.17-2.105-3.1.312-5.91 1.014-7.39.468 1.63-2.65 5.62-1.715 8.94-3.508 0 1.092.37 1.715 1.26 1.715 1.03-1.091 3.61-1.013 4.72-2.026.52 1.948 3.25.701 4.07.389-.45-.389-.52-3.429-1.78-2.104.96-.312.08 1.325-.29 1.481-.67 0-1.04.389-1.41.701-.96-2.104-2.66 0-3.76-1.871 0 .858.66.936.74 1.793-5.32-.857-6.65-.234-10.05-.545-2.44 1.87-7.61 2.962-10.27 1.325-.07.857.89 1.091.23 1.403-1.19-1.481-2.52 0-4.44.078-.29-.858-.44-1.949-1.69-1.637.96 2.182-2.15 1.715-2.37.779 0 .39.08.936-.37 1.014-.74-1.325 2.14-2.027.67-2.417 0 1.014-2.14.39-1.78 1.637.67.234 1.04.858 1.26 1.715l-3.91.546c.96 1.559-.15 2.572 1.92 3.04 0-1.17-1.04-.858-.82-2.261 1.55 0 4.29-.701 4.14 1.325-.3-1.403 5.69.468 3.25-1.87.89 0 1.7.077 2.07.701.51 1.481 0 2.183 0 3.274 1.25 0 2.14.623 3.1 1.013-.81.078-.07 1.325-.81 1.481-1.33-.467-1.85 1.637-2.44.312 0-.857 1.55-.546 1.26-1.559-1.56.234-1.63-1.247-3.55-.468-.52 2.573-7.68 4.054-6.87.858-1.99 1.169-3.32 1.169-1.18 2.494-1.92-.701-5.02.234-4.28 1.481-.15-.857-1.7-.078-1.63-1.169.22-.935 2.96-.078 2.29-1.715-.22-1.325-3.32.857-3.55-.468 1.33 0 .15-1.87 1.78-1.637-.96 1.481.88 1.481 2.07.702-.82.935.14 1.637 1.62 1.169-1.55-1.403-1.03-1.948.59-2.884-2.88.39-5.83 0-8.42.156.96.078-1.48 1.091-1.25 2.027-3.62 1.091-4.81-.936-8.42.156 1.25-.858-1.11-1.793.22-2.417 0 1.403 3.99.858 4.06.39-.59 0-.37-.468-.15-.935-4.5 2.026-5.98-3.508-1.4-3.118 0 .779.29 1.403.74 1.792.96-.389 3.47.312 2.8-1.325-3.69 1.247-1.55-2.182-4.35-3.196-.59.312.37 1.949-1.19 2.495-1.18-1.091.08-2.728-.88-3.196-1.7.779-.59 2.027-1.11 2.962-1.92 0-3.55-1.325-1.26-2.183-1.18.234-2.06 0-2.58-.623.66-.078.37-.858.89-1.091a92.17 92.17 0 0 1 7.46-.312c.96.701 1.62 1.091 2.51.312.07-.078.14-.078.29-.156h.67c-.15 0-.22-.156-.3-.234.22-.156.37-.312.59-.39 1.11 0 2.07.312 2.74.935-.37-1.87 0-1.091 1.32-1.091 0-.545-.22-.857-.44-1.169.81-.078 1.55-.156 2.37-.078.36 1.013.59.624-1.04.624l.15.935s.15.546.52.39c.51-1.247 2.95-.468 3.91-.468-.3-.935-1.11-1.169-1.99-1.325.81.078 1.55.156 2.36.234.3.935 1.33 1.793 1.77 2.182-3.1 2.105-8.12-.156-10.34.858 1.04 1.013 3.33.545 4.21 1.793-3.62.389-5.02-1.949-7.24-1.871.52 2.416 2.74 2.728 4.44 3.663 1.1 2.651-4.07 1.17-4.95 3.976 2.51-.624 5.17-1.637 6.94-3.742 1.99 2.105 3.77 1.481 6.72 1.949-1.4-1.715-1.25-.156-.89-2.728-1.18-.468-1.69 1.403-1.92.234.3-1.17 2.37-1.092 2.66-2.261 1.18.702 1.55.857 3.03.078-.15-1.091-3.1-1.559-1.4-3.118 2.14 1.091.74-.234 2.88-.857 1.7.311.07 1.559 2.21 1.637-.44-1.481 2.22-2.807 3.25-1.871-.22.935-1.4.545-.29 1.481 1.18-2.183 3.4-.702 3.1-2.728 2.29 1.247 2.81-.858 5.47.233.44-1.247-.45-1.403.22-1.948 1.4 1.403 2.36-2.183 3.91-.546-.59.156-1.4.078-1.4.624 2.81-.858.15 1.793 2.22 1.637.81-3.04 8.19-3.898 6.57.545-1.04-.234-2.96.78-1.33 1.092 0-.702 1.11-.546 1.92-.702.74-2.416 1.4-3.897 3.62-2.806-.3.546-1.63 2.416-.15 2.806-.07-2.338 2 .312 3.03 0-.81-1.793.22-2.338 1.11-2.962-.37-.624-2.74-1.559-1.78-2.105 1.26-.156 1.63.624 2.44-.389l.22 1.87c3.55-3.04 6.21-1.637 10.27-1.481.3-1.714 1.85-.156 2.29-1.247-.44 0-2.29-.935-1.18-1.247 2.07-.624 2.95 1.949 4.5.312 0 1.091.37 1.715 1.26 1.715-.22-1.715 2.14-.624.66-2.495 1.11.858 1.92-.311 2.81-.857-7.31-1.091-14.4 1.949-22.31.312-.07.779.89 1.091.23 1.403-2.22.467-3.55-1.169-5.47-.234-.15 2.182 1.55-.546 1.63.701-1.48 1.793-3.48.936-5.77 1.248 0-.78-.51-1.403-1.18-1.715 1.78.156 2.51 1.871 3.92 0-1.26.234-3.47-1.014-3.99 0-.74-.39-1.63-.39-2 .234 1.19-.078.3 1.481-.29 1.481-1.55-.78-2.66 1.247-3.55-.468 1.55-.234 3.77 0 3.25-1.871-3.1.234-4.43.702-5.98-.156.22 1.014-.22 1.559-1.25 1.559-1.92-2.338-5.4 1.014-6.73 1.793-.81-1.169-2.06-1.715-3.32-2.416-.07.779.89 1.091.22 1.403-1.55.078-2.14-.936-3.17-1.481.07 1.403-.37 1.559-1.19 1.715-1.92-1.949-3.91-3.976-5.24-6.314-.52-.936-1.11-1.403-1.62-1.793 1.55-2.806 6.64-1.871 8.56-1.247 1.55 0-1.4-1.169.3-1.481 2.07.078 4.65.935 5.98.156.15.545.08 1.325.67 1.325 1.03-3.586 8.56 0 10.19-1.793-.52.078-1.26 0-.52-.39 1.7-.311 1.11 2.261 2.73 2.027.3-1.169-1.99-1.793-.81-2.261 1.33 1.481.67-.077 1.92-.701 1.04.935 2.81.546 2.66 1.559 3.18-3.586 7.83 0 10.78-1.013.37 1.714 2.22 1.481 3.7 1.87 0-1.715-2.44-.545-2.74-1.948 4.66.233 10.64-2.651 14.78-4.443.51 1.247-.82 1.091-.74 2.026 1.84.078.81-1.948 2.14-2.182 2.66 1.715 5.91 4.053 8.05.701-.74 0-1.77.39-1.99-.156 1.33-.156 4.8-2.962 6.79-.935-.37.701-.22 1.793-1.18 2.105-.37-.546-1.18-.702-2.07-.624.45 1.403-1.11 1.403-1.11 2.494 1.92.39.74-1.403 2.29-1.247.23 1.247-.66 1.013.3 1.871.52-1.091 3.69-1.715 2.58-2.728 1.56 1.87 4.95-1.559 7.02.389-.29 1.248-2.66-.857-2.29 1.248.96.156 2.73 0 3.92-.546 0-2.105-.89.546-1.11-.779-.67-2.027 4.43-2.105 3.03-3.274-2.51 2.182-6.95.545-7.09 2.416-1.26-1.091-3.48-1.091-4.36-2.65 1.77-.156 1.33-.39 4.28-1.091.59 1.325 4.51 4.131 3.99.389-1.62.624-2.22-.156-2.66-1.013 1.77.857 2-1.715 3.92-.546-.59-2.026-4.29 0-4.88.702 0-.624.52-.702.3-1.481-5.99 1.637-10.12.546-15.44-.624.22 2.417 3.47 1.092 3.91 3.196-.51 0-.51.468-.88.624-.3-1.481-1.85-1.325-3.62-.936 0-1.559-1.11-1.87-1.85-2.572-1.77 3.352-6.35 1.871-9.23 1.325-.07-.623.81-.545.81-1.091-3.1-.234-4.87.156-5.24 1.715 0-.936-2.88 1.481-3.47 0 .22-.312 1.77-1.715.22-1.949-.67 1.481-2.96 1.793-5.17 2.105-.3-1.092-.74-1.949-1.77-2.105-1.33.935 1.33 2.027-.15 2.884-1.41-1.715-4.36.156-6.21-2.026.45 1.169 0 1.714-1.25 1.558.07-.545.52-3.195-.22-1.87.59 1.637-3.55 1.637-3.4.467 3.99-.155 1.25-2.884 4.43-3.897 0 .468.44.468.59.857.15.936-1.25.78-.74 1.949 2.29 0 2.37 1.091 3.92-.546.96.858 1.77.624 1.25 2.183 1.85 0 .59-2.338 2.15-2.65 1.18-.156 1.55.623 2.95.078l.15 1.403c2.43-1.247 1.18 0 3.25-1.871 1.99.312 2.58 1.637 2.88 2.884.88-.468-.45-2.572.59-2.884 2.73-.234 3.84-1.325 5.91-.39.07.78-1.33.468-1.33 1.17l1.92-.312c.07-1.481-1.11-1.325-.3-2.339-5.09 2.027-9.75-.389-14.1 2.027-.52-.468-.82-1.169-.82-2.261-2.29.624-4.35 1.17-1.25 1.559-.67.312-1.11.858-1.85 1.17-.29-2.027-2.95-2.027-2.58-.624-.3-1.637-1.48 1.169-1.56-.312-.88-1.403 2.29-1.403 3.62-2.338-1.84-1.169-5.02.857-7.23 1.403 1.55-2.183-3.55.39-4.07-.858-.07-.779 3.03-1.325 1.19-2.026-1.7 1.637-4.14 1.169-5.47 3.507-3.32-2.806-8.05 3.82-12.34.234-.51 1.481-3.1 1.014-4.35.546 0-1.091 2.88-.156 1.7-2.105-1.63.39-2.66 1.17-3.18 2.261-1.03 0-1.11-1.091-2.14-1.169.07.467-.67 1.013-1.33 1.247.15-.234.29-.39.37-.702.15-.467.29-.935.37-1.481 0 0 .22.156.37.234v-.468c2.51-.155 3.39-1.87 3.17-4.365 0-.467-.59-1.403-.81-1.403-.22 0-.44.078-.66.156.29-.234.51-.545.44-1.091-.74.701-3.1.234-2.73 1.793.36 0 .73-.078 1.1-.156-.07.078-.22.156-.22.312 0 .389-.07.779-.15 1.169-2.51.156-6.05-.468-7.16 1.793-.3.156-.52.389-.81.545-.59-.234-1.18-.389-1.78-.623.3 2.338-2.95-.546-2.21 2.182 1.11 0 2.51-.701 2.88-.701-.3.311-.52.701-.81 1.091-.82-.156-1.7-.078-2.51.624.59 0 1.4-.234 1.55.233-.52 0-.52.468-.89.624-.96 0-.59-1.715-2.14-1.169 1.77 2.338-5.02.312-4.43 3.897-1.18-1.559-.89.39-2.96.39 0-.468-.44-.468-.59-.858-.15-.857 2.29-1.87.67-2.416-.15 1.169-3.18.234-2.74 1.793.74-.468 2.22.623 1.11.779-1.77.702-2.58-2.572-3.99-.389.52 0 1.26.623.59.857-2.58-1.169-3.98 0-6.42-.078 1.25-.779 3.32-.935 3.69-2.338-2.07.623-3.32.156-4.06-.858-.22 1.715 1.55 2.183-.15 2.806-.37-1.403-2.73-.156-3.18-1.481 1.04 1.559-1.32 2.573-.14 2.884 1.18-1.792.44 1.092 1.11.78-.3-.702 2.58-1.091 2.43-.312-1.25 0-3.39 1.403-2.29 1.715-.07-1.169 1.63-.312 1.55.312-.88 1.169-1.4 0-2.95.389-.37.936 1.62 1.326.22 1.871-2.95 0-5.24-1.169-8.86.156 1.55-1.325-2.81-1.559-1.33-2.65 1.4.546 4.21.935 4.8-1.091-2.36.779-6.5 1.403-8.42 0 2.95-.858 3.69-.546 5.98.233-.44-2.494.45-3.117.74-5.768-1.55-.156-3.32 1.715-2.73 1.715 1.33.468 1.33-2.026 1.92-.701 0 1.325-.74 2.26-2.14 2.572-1.26-1.403-2.07-.078-3.99-.468.51-1.87-1.41-.779-1.7-1.715.81-1.013 1.18-.155 2.44-.311-.74-2.884-1.92.156-3.4.389-.15-.779 0-1.481.29-1.948-.88.156-1.62.467-1.84 1.169 2.21.39.07 4.131-2.51 3.585-.82-1.013-1.11-.701-.74-2.26-.96 0-1.04.624-1.92.702-.08-1.715-2.07-1.014-2.29-2.573-1.77.78-2.37.234-2.73 1.715.59 1.325 1.77 0 2.06.702 0 .701-2.21 1.948-2.88.779-.15-1.481.96-2.572-1.33-2.65 1.41 2.338-.66.39-1.25 1.559.81.779 1.92 1.247 1.84 3.04-.44.078-.81 0-1.18.078-.44-.546-.81-1.014-1.25-1.559.29-.156.51-.39.66-.702-.44-.312-.96-.389-1.55-.389-.37-.39-.66-.858-1.03-1.248 0 0 .22.078.37 0 0-2.26.59-.701 1.92-.701-.23-1.013.22-1.559 1.25-1.559 1.26.857.89.545 2.59 1.091-.59-1.559-2.29-1.793-3.33-2.884.52 1.559-.81 1.637-1.18 2.494-.81 0-1.11-.623-1.55-1.169-.15-1.481-.59-2.884-1.11-4.209.37-.546 1.92-3.43 1.11-2.962-.37 1.325-2.22.312-2.51-.156-.37-.857-.74-1.715-1.04-2.65.3.078.6.156.74.312-1.1.389 1.41.701 1.19 1.714 1.99-.857 2.43-.233 4.87-.545-.22-2.494-2.22 0-4.51-.39-.22-1.871-1.47-2.572-2.73-3.118v-1.325c.08.156.15.312.3.546 1.18-.858.37-1.403.14-1.871 2.15.156 4.36.156 6.5.39 1.7.156 2.74-.624 3.4-1.949.74-.156 1.48-.39 2.22-.857.59.779-1.26 1.714.22 1.87-.67-1.637 2.14-.623 1.7-2.104-2.37.857-.52.312-.67-1.325l-3.1 1.169c.37-2.105-1.18-3.82-3.77-4.053h-1.03c0-.156.15-.234.15-.39-.44 0-.89.234-1.26.312-1.55 0-3.1.311-3.91 1.948-.15.312-.15.78-.22 1.17-.74.155-1.33.155-1.19-.858-1.32 1.403-3.1-1.481-3.84.935 2.44.936 2.96 2.183 3.84 4.054l-5.53-.234c1.1-.156 1.99-.234 3.02-.624-.07-.623.08-1.013.3-1.481-1.7.234-1.33-1.948-2.73-2.026.51 1.325.88 2.182.37 2.806-1.33-.234-2.52 1.715-3.4.39.51-.624 1.62-.702 2.88-.78-.81-1.715-3.77-3.586-5.69-2.182 1.26-.078 2.51-.234 2.59 1.091-6.43.078-14.04 3.196-15.07-2.417-.37.858-.89.39-1.4-.078l7.01.234c-.15 1.17.67 2.651 2.07 2.261-1.62-.702-1.18-1.403-.89-2.183 2.74.078 5.54.312 8.28.312.51 0 1.47-1.793 1.55-2.806 0-1.013-.52-2.728-1.26-3.04-.15 0-.29 0-.44-.078 0-.156.15-.312 0-.624-.59 0-1.04.078-1.48.234-1.03-.234-2.14-.312-3.25-.389h-.07s0-.156-.15-.234c-.74.467.96-1.325-1.63-1.247.6-.858 1.56-1.404 2.74-1.715 1.03.779-.22.857.29 2.338 2 0 1.48.078 3.4-.39 1.11-.701-1.18-1.637.22-2.416 1.04.857 2.22 1.559 3.7 1.949 1.99-3.118 6.35-1.715 9.6-2.105-.15 1.091 1.18 3.118 1.7 1.637-.89-.546-1.41-1.481-1.78-2.572 1.85.623 2.22 1.325 3.92 0 .22 2.416 2.44-.312 3.62 1.481.14-.702-.89-2.339.22-2.417h.96c.37 1.559-.59 2.261-.52 3.742 1.92.468-.15-2.105 1.77-1.637.23-1.325-.81-1.091-.73-2.261 2.14.234 4.43-1.714 6.86.156.3-1.87 1.85-1.091 2.74-1.715.81.234.15 2.261 1.7 1.715-.23-.857.44-1.091.22-1.948-.59 0-1.18 0-1.11-.858 1.11-3.429 6.06-1.481 8.64-1.559.67 0 4.43-2.728 3.03.546 1.18-.624 3.03-1.169 3.1 1.013-1.03-.156-1.55-.935-3.03-.545.15 1.403-1.03 1.714-1.1 2.962 2.14-.624-.6 1.403 1.55.701 1.47-.39-1.55-2.182.14-2.884.74.39 1.85.234 2.15 1.169-.67.234-.45 1.092-.82 1.481.96.156 3.62.78 3.92 0-.37-.779-2.29.312-2.51-.623-.15-.858.59-3.898.37-1.014 1.77-.078.07-2.728 2.66-2.26.29.779-.6 1.325.14 1.403 1.63-.156-.29-1.169 1.19-2.027 1.25.468 1.32 1.17 1.69 1.637 1.56-1.559 5.91.312 3.18-2.338.89.156 2.07 0 2.51.623-1.33.624-.44.78-.22 1.949 2.66-.624 4.36 0 6.43.078.51-1.169-1.48-1.559-.23-1.871.3 1.169.74-.779 1.92-.234.15.702 0 1.715.74 1.793 2-.312 4.29-1.403 4.95.312-.66.312-2.58-.234-2.36.779 2.14 1.17 3.17-1.636 4.87-.623l-.22-1.871c2-.156 3.47-2.104 4.06.858-2.14-.78-3.69 1.948-2.51 3.663 1.41-.156 3.18-.701 3.92 0 1.1-.779-1.04-1.247.22-1.949 1.77.546 5.83-2.416 8.2-1.559-.59-.857-2.59 0-2.66-1.558 3.17-1.949 7.53.623 9.82-.312-.81-.468-2.07-.312-2.58-1.092 2.21-.857 4.5.39 7.9-.078.66-.077.37-.857.81-1.013 2.07-.078 5.02 1.949 5.91 3.508.22-3.118-2.51-2.572-3.99-3.742 2.37-1.403 3.4 1.014 5.32-.701-.44-.702-2.36.39-2.14-1.169-3.92 1.247-8.13 2.884-11.23.545 3.32.546 1.11-.467 2.73-1.793 1.48 0 3.99 1.481 4.58.858-.37 0-.59-.312-.59-.858 1.41-1.247 4.36.702 3.84-.545-.81.156-1.25-.234-1.55-.702 4.21-1.559 6.72.312 9.09-2.104.74 3.04 7.31-1.247 8.12 1.715-4.8.701-7.31.389-10.63 1.403.96 1.091-1.48 1.013-2.22 1.714 2.81 1.949 6.28-1.091 8.57-2.104.07.623.74.545.66 1.325-1.84-.078-1.99 1.091-3.84.935.59.78.3 2.495 1.77 2.105 0-.858-.66-.935-.73-1.793l3.84-.468c1.4 3.04.22 2.962.37 6.08-.6 0-.74-.545-1.56-.233.67 3.273-2.14 4.053-3.69 5.69 1.85 1.169 1.55-1.949 4.21-1.481 0 .545-.74 1.169.22 1.403-.44-1.403 2.37-.468 1.7-2.105-1.18.234-2.07 0-2.58-.623.66-.078.37-.858.81-1.092 1.48-.623 1.62.546 2.58.624 0-.39-.14-.935.37-1.013 0-1.871-1.62.701-1.7-1.637 1.7-3.118-.44-6.47 4.14-5.768 1.48 2.26 3.32.857 5.91.077.07.624-.07 1.014-.3 1.481 1.11 0 5.4.78 5.25-1.247-.22-1.013-1.11.78-2.44.312.22-1.559-1.7-.39-1.7-1.637 4.14-1.091 4.8-.234 5.69 2.027 4.51-.624 6.94.39 13.29 0 .52-1.169-1.47-1.559-.29-1.871 1.7.546 2.14-.546 4.36-.623-.45.701-.37 1.169.66 1.325 1.4-1.793 2.59 1.325 2.81-1.325 1.25 0 1.55 1.247 2.29 2.026.44-.701.22-1.793.66-2.416-1.99-.234-4.36-.936-4.28-2.261-.96.624-4.06 1.793-4.8 1.17.59-1.404 3.99-2.105 6.65-1.949l-.23-1.793c1.48-.468 2.15.779 2.37-.779-2.14-1.559-3.03 3.585-6.65 1.87 2.58 0 .3-1.247 1.18-2.026-2.88.623-10.04-3.508-4.06-4.132.15-1.637-1.03-1.559-2.22-1.559.45 1.17 0 1.715-1.25 1.637-.15.858.96 2.651-.08 2.884-1.33-.155-2.95-.467-3.84 1.014-8.27-1.403-17.72 1.169-26.44 1.403 1.85-.624 1.92-.546 3.84-.546-.44-2.65 2.37-1.403 2.73-1.793-1.4-.233 1.48-.623-.22-1.403 3.77-.779 6.87-.234 9.01-2.728-3.76.468 1.11-3.118-1.33-2.65-1.47 3.04-4.87 2.806-7.68 1.559 0 .546.22 1.325-.29 1.481-1.77-1.481 1.7-1.871 2.58-2.728-1.84-.39-3.54-.936-5.54-1.092.3-.701.52-1.559 1.78-1.636 1.84.233 1.4.779 3.47 0 .07.623-.08 1.013-.3 1.481 1.41-.078 1.33-1.248 2.81-1.326l.29 2.339c1.04-1.949 2.96-3.118 5.32-4.053-3.25-.468-7.16-3.898-9.6-1.949-.3-.78-1.85-2.65-.89-3.196 2.15.779 2.22 1.325 4.44-.156 0 .624-.52.702-.3 1.481 3.84-.546 2.07 3.04 6.2 2.416.74-.857.96-2.104 2.07-2.65-1.18-.156-.37-2.182.15-2.416 1.03.857 1.92 1.013.89-.624 2.06.858 5.68-.389 7.09 1.325.14 1.092-.67 1.481-.08 2.884-2.36 1.637-6.87 1.326-10.04 1.871.15.858.52 1.481 1.18 1.715-.22-1.013.22-1.559 1.26-1.559.59 1.013.59 1.169.29 2.339 1.18-.234 2.36-.39 2.51.545l-1.92.312c.15 2.338 4.06 2.806 5.25 2.105-.74-.156-1.26-.546-1.63-1.17.67-.233.74-.857 1.33-1.091 1.92.078.81 1.559 1.77 2.105.82-1.403.59 1.013 1.11.779.3-.701.52-1.559 1.77-1.637.15.702 0 1.715.74 1.793 4.06-4.209 7.91 1.559 13-2.338.37 1.169 1.7 1.091 2.66 1.481-.37-1.715-1.55-2.417-2.07-3.976-2.07.39-6.57 1.247-7.97-.779 1.03-.234 2.88-1.403 3.91-.078 0-.702-.44-1.715.22-1.949 5.39.312 12.34-2.65 16.99-1.481-1.03 0-.44-2.026-1.33-2.182-1.48 2.104-3.99 1.87-5.83.389-2.96 1.949-8.35 1.793-11.45 2.573-.52-2.573-5.03-2.495-4.58-4.521-1.33-.078-3.77 1.169-4.43.156 1.33-.312 1.18-1.637 2.14-2.183-1.26-.234-2.22-.779-3.99-.39-.07-1.169.74-1.559-.74-1.793-3.91.624-8.49 1.949-12.85-.545.29-2.728 3.99-1.637 5.54-2.65-1.92-.624 2.29-.234 1.77-1.17-1.33.078-1.55-2.728-.44-3.273 1.11.233 1.84.857 1.84 2.572 1.19-.234 2.44-.468 2.22-1.715-2.66 1.169-.89-2.416-1.77-2.105-.15.702-.59 1.248-1.26 1.559-.51-2.65-2.66.078-3.32.936-1.7-1.169-6.58 2.572-9.31-.078 1.33-.78 2.44-1.325 3.77-1.014.22-1.948 1.48-3.04 3.4-3.819 1.1.78-.08.935-.22 1.949 1.32-.39 2.88-3.274 4.28-1.092-.81.156-2.66 1.637-1.7 1.637 2.44-1.715 4.65-4.832 7.09-5.3 0-.78-.29-1.403-.74-1.793 4.29-1.325 8.64-4.443 11.01-2.026 1.55-.546 4.58 0 5.24-1.248-1.77-.156-2.07-2.416-3.25-1.87 1.55-.858 2.59-2.027 3.47-3.352.67 1.325 3.47-.078 4.51.78.52 1.246-2.29 0-1.77 1.168 5.39 2.417 13.88-1.169 19.27 1.014-.88 1.48-4.35-.78-4.65 1.637 1.99.857 4.36 0 7.02.857.59 1.637-.45 2.183-2.15 2.183-.36-2.728-6.64-.39-5.02-3.976-2.14 1.403-4.87 2.027-6.79.468-.89.312-.15 1.87-1.7 1.637-.3-.858.52-1.013.74-1.559-2.29 2.338-11.45 1.793-14.55 4.443-.23-.857-.52-1.481-1.26-1.715-.15 1.091-1.4 1.481-1.62 2.572 1.69-.78 1.69.78 2.58 1.014.07-.702 2.22-1.949 2.81-.858.29 1.014-1.33.702-1.26 1.637.37 0 .96-.156 1.04.312-.37.156-.96.156-.89.624 2.14-.156 4.51-3.43 6.2-1.326-1.84-.233-.73 1.715-1.69 2.105-2.37-.78-5.77 1.325-6.58 1.87 3.03-.934 2.81 2.261 4.8 2.651-1.7.935-1.11-1.169-2.51-.546 0 2.729 1.55 3.43 3.03 4.288-1.33-.156-.81 1.091-1.26 1.559 1.33.545 3.99-.468 2.74 1.948 1.47 0 3.69-1.013 3.99.39-.82 1.091-4.07.39-3.62 2.416 7.68-6.625 12.63 5.379 20.23.39-.29 2.261 1.41 1.871 2.37 2.494-.59 1.793-1.7 3.196-2.81 4.677-1.03-.701-1.18.156-2.44.312-1.47-.623-.07-1.871-1.7-1.637.08.78.3 1.403.74 1.793-2.14.546-2.95 0-6.42 0-.59 1.715-1.92 1.871-.96 3.43 3.25-1.092 4.72.545 7.6-2.027-1.03 1.091 2.15 4.677 2.74 1.949-.74 0-1.78.389-2-.156 0-.702-.44-1.715.22-1.949 2 .156 3.18-1.871 3.48.468-.74-.468-1.85-.312-1.85.701 1.7-.156 0 .858 1.62 1.17 1.04-1.403 4.88-2.027 6.28-.858l.22 1.403c-2.29-.701-3.02 3.508-2.29 1.247 3.7.78 4.81-3.507 5.17-4.988 1.33-.39.67 1.637 1.7 1.637-.07-2.105 2.29-2.495 3.4-3.82-.74.312-1.85-1.481-.74-1.793 3.1.546 8.79-1.247 11.38.234-.3.858-1.41 1.715.29 1.871-.29-3.196 4.21.234 5.25-1.247.14-1.637-2.07-.312-1.78-2.105 2.44.078 1.41-2.338 3.03-2.806 2.22 1.403 8.35.078 10.19-1.091-1.03-1.481-2.58.935-3.54-.858.66-1.013.15-2.962.89-3.897.96.468 3.32-.702 4.21-1.559-1.92-.156-2.59-.779-.74-1.793-4.14-.312-6.21 1.715-10.56 1.637 0 .858-.08 1.559-.67 2.027-.44-.78-2.29.39-2.51-.546-.15-1.637 2.88-1.013 2.51-2.728-1.48-.156-5.54 2.338-5.46-.078l-2.44.39c.66 3.196-5.91 2.416-4.43-.234-2.29-.156-5.76 1.169-6.13-1.481 3.1.623 5.39.078 7.6-1.559-.96 0-1.03-1.17-2.51-.546.52 1.17-.88 1.014-1.25 1.559-.3-1.091-2.15-.156-2.59-1.013.22-1.559-.96-1.325-1.33-2.183 2.07-1.714 4.8-.156 6.87 0 0-1.792-2.88 0-3.18-1.403-.07-.78 1.33-.467 1.33-1.169-.66-1.013-3.39.702-3.98-.39 1.1-.78 3.17-.78 3.1-2.338 1.77.312 3.17 1.013 4.65 1.637-1.18-1.56 2.14-2.26 2.22-5.067-2.07 2.027-5.1 4.755-7.61 1.637-2.29.936-6.13 1.56-7.83.156 1.18-.702 2.14-1.481 2.59-2.728-1.26-1.87-3.62 1.87-5.32.78.59-.156 1.11-.312.81-1.092-1.4.078-1.55 1.091-2.22 1.715-.96-.156-2.73-1.949-1.4-3.118 6.2 1.013 11.3-1.247 17.8.702-3.62 1.403-8.2-1.637-9.53 1.87 2.07-1.559 3.33 1.014 4.29-1.091 2.14.468 2.73 2.494 4.58 1.247-1.63.702-.67-1.091-.23-1.403 1.63.312 1.48.312 3.48.39 0-2.495 4.43-1.793 4.28-4.443-4.28 3.352-9.75.78-13.89-.78-1.25.858 1.11 1.793-.14 2.417-.74-.156-1.26-.546-1.63-1.17 1.11-2.494-.52-1.714-2.07-3.975 2.59-1.169 1.92 1.949 3.7 1.87 1.18-.467 2.8-2.65 3.62-1.948.07.624-.82.546-.82 1.091.74.156 1.33.546 2.07.624-.29-1.013-.15-1.793.67-2.027.66 2.26 1.92 3.742 4.43 3.586 0-.857-.89-1.091-.22-1.403 1.77.78 4.5.39 6.13 1.403.66-1.637 2.21-.312 3.69-1.559.22 2.105 4.28-.78 4.58 1.17 0-.39.29-.624.89-.624 0-4.6-6.65-.546-8.28-2.962 2.74-.078 1.63-1.247.3-1.481 3.47-2.884 8.27 2.572 8.27-.312 1.26 0 4.65 1.949 4.06.78-2.36-.39-.44-.312-.81-2.261-.59-.935-2.88 1.48-3.91.156 0-.624 3.39-.858 1.77-1.247-2.07.623-2 .234-3.25 1.403-.81-.468-1.04-1.637-1.77-2.105-.74.468.44 2.26-1.19 2.105-1.4-4.833-7.23-1.17-10.26-3.118 6.5-2.417 13.07-1.793 17.72-2.728-.51 0-.73-.702-.14-.936l1.47-.234c0 1.092.37 1.793.82 2.26 1.69-1.324 2.21.78 4.06.78 3.47-1.637 12.85-1.87 16.03-1.09 2.36-.157 10.56-2.028 13.36.778 0-.701-.44-1.714.23-1.948 2.51.39 9.97.857 9.97.857.22-.623-.59-1.715.22-1.948 1.03.311 1.33 1.558 2.29 2.026 1.99-3.274 5.76 1.091 8.64-1.325-.89-2.182-2.22-.39-1.92.312-.89-.156-1.99.078-2.51-.546 2.07-.234-.15-.701-.22-1.403.66-.623 1.1-.701 1.92-.312-.52-3.663-5.1.39-7.24.624-2.36.312-1.7-3.274-4.36-2.65 0 .935.81.78 1.18 1.247-2.07.935-4.65 2.26-6.28.468 1.63-.546.15-2.027-1.25-1.715-.74 1.247-1.63.701-3.1 1.87.96-2.338-2.96 0-1.41-2.65-2.51.39-.66 1.481-2.14 2.183-1.55-1.715 0 .39-1.84.78-.37-.936-1.56-.702-.74-1.793-2.74 0-4.07 1.714-6.21.935-.37.701-.59 1.48-1.18 2.105-1.99-.312-4.06-.624-6.87.077-.29-3.585-7.46-2.26-9.97-4.599 0 .546.3 1.326-.29 1.481-1.26 0-1.41-2.572-2.59-1.013-.15 1.637 2.07.312 1.77 2.105-2.51.857-6.64 2.728-9.53 1.948 1.7.312 2.52-2.026 1.63-2.104-1.11.857-1.7 2.105-3.55 2.416.37-.701.23-1.793.6-2.494-2.66-.234-5.25 1.403-7.17 1.091 0-.545.44-.78.81-1.091 3.33-.935 8.94.546 10.49-2.105-3.32 1.17-7.9-.545-12.04 1.403-.22-2.572-6.28 1.793-7.97-1.169-4.73 2.728-13.67 2.105-17.51.624.37-.156.52-.468.37-1.014-1.18.234-2.22.624-2.73 1.326.59 0 1.18 0 1.11.78-3.33.467-4.36-.001-6.28.467.14-.702.51-1.247.66-2.027-2.8 1.013-3.1-1.17-5.91-.078.45 1.247 1.78 1.091.3 2.339-.08-1.325-1.55-.936-2.14-1.56-.82.858 1.1 1.793-.67 2.417-3.1.078-3.1.624-6.2 1.325 0-1.87-3.1-1.325-1.92-3.04-2.96.156-3.84-.857-5.17 1.247.51-1.48-1.26-1.714 0-3.273-.89 0-.96.701-1.85.701.37 1.013 1.48 2.338-.07 2.884-5.4-.234-12.12-1.17-15.44 1.715-.15-.78-.07-1.481.22-1.949l-2.44.312c.45 1.17 0 1.715-1.25 1.637.96-2.105-1.18-.702-1.33-2.65 1.99-1.481 4.14.156 6.94.467.74-2.884 7.17-2.494 8.13-1.169-2.29-2.728-9.38-1.793-11.38-.701-3.03-.78-5.76-2.027-9.53-1.949.52 1.17-.88 1.013-1.25 1.559-.15 1.48 1.03 1.247.88 2.728 1.92.39.74-1.403 2.29-1.247-.37 2.338 2.15.857 1.85 3.04-1.55 0-3.4-.624-4.8-.39-.37-.078-.74-.234-1.11-.39-.74.624-2.14 1.481-1.99 1.871l-.81.156c.36-.701.22-1.793.66-2.416-2.73.156.74 2.416-2.07 2.65-1.03-.702-1.25-1.793-1.99-.234-1.7-1.403.66-2.65-.45-3.274 0 .78-3.17 1.17-3.39.468-.3-1.013-.15-1.793.74-1.949-.45 2.417 2.8-.545 4.28-.545.66.623.89 1.792 1.77 2.104-.07-2.26 2.66-.545 3.33-.468-.82-2.962-3.48-1.948-4.66-2.182-.22-1.403 1.63-.546 2.14-2.183-1.92.702-3.84 2.183-4.87.234 0 1.248-3.4 0-2.14 2.183 1.48.468 2.29-1.56 2.88-.39-1.63 2.338-3.1.078-4.95-.312-.37 1.56 1.62.156 1.18 1.715-.52 0-.52.468-.88.624-2.59.467-3.11-.546-5.1-1.715-1.33.468.81.624.66 1.325-.66 0-1.03.39-1.4.624-.74-.312-1.62-.468-1.7-1.637-.29-1.17 1.85-.624 1.18-2.027-1.84.624-2.43.78-3.91 0-.96.546-.59 2.105-2.14 2.183-.96 0-1.11-1.092-2.07-1.17-.67.78-3.4 1.637-5.76.78-.37.935-1.48 1.403-2.14 2.182 2.43.156 3.32-1.013 4.43.39-.52.312-1.04.624-1.33 1.091 1.18-.078 1.4-.935 2.29-1.247-.22 2.962 3.03 0 3.54.936 0 .623-.59.935-.22 1.948 2.59-1.559 6.8-2.65 8.79-.234-.89-2.65 5.02-1.247 3.1 1.014 2.51-.312.67-1.403 2.14-2.183.3.858 1.19 1.014 1.26 2.183-4.14 2.962-7.02 1.325-11.3-.39-2.95 1.715-4.28.858-6.13 1.715l-.22-1.403c-.15 1.325-5.25 1.091-3.62 2.338.88-1.247 4.06-.78 4.43.39-1.92.468-3.32.312-4.87.234-.89-.156-1.85-.312-2.74-.702-.15-.467-.66-.545-1.4-1.169v.39c-1.03-.546-2.07-1.092-3.1-1.949-1.33-1.091-2.96-2.338-4.51-2.494-.96-.078-2.07.545-3.03 1.247-1.77-.156-3.62.234-4.95-1.247-.81 2.884-4.28-1.17-5.17 1.637 2.44.312 5.54.545 8.79.623-1.18.936-1.18 2.027-.59 3.04-1.25.156-2.43.468-3.69.936-1.18-1.715-3.91-1.481-5.39-.234-.08-.624.07-1.092.29-1.481-1.92.78-2.43-.156-3.02-1.014-1.7 1.481 2.14 1.481.81 2.26-1.33-.31-3.03-.155-3.62-1.402-3.4.234-10.56 2.338-13.59.857-.81.546-2.88 1.092-5.1 1.481-2.21-1.013-4.43-2.962-6.94-2.728-3.03.312-3.77-2.105-3.25-7.015.37-3.898 2.29-3.352 4.43-1.403 1.04.935 2 .701 2.59-.858.22-.545 0-1.247 0-1.87-.3-4.054-5.4-2.573-6.13-5.613-.89-3.897-2.74-7.794-5.77-8.886-4.28-1.559-5.39-3.82-5.02-8.028.3-3.742.3-7.483.3-11.147 0-2.182-1.26-3.508-3.1-3.741-3.4-.468-6.87-1.481-10.27.623-2.96 1.87-6.13 3.352-9.31 4.833-.29.156-1.7-1.403-1.77-2.26-.44-3.118-1.33-4.521-4.14-2.027-1.33 1.247-2.51 2.806-4.06 3.585-2.73 1.325-2.29-1.247-2.58-2.806-.15-.545-.23-1.169-.52-1.715-.74-1.637-2.07-1.714-2.29.156-.66 4.911-3.47 5.768-7.46 5.145-3.32-.468-7.46.623-7.53-5.145 0-.545-.45-1.247-.89-1.48-3.77-2.027-7.68-2.105-11.6-.624-.29.078-.59.935-.44 1.091.3.468.81 1.091 1.33 1.17 1.7.311 3.55.233 5.17.7.81.235 1.4 1.404 2.07 2.183-.44.39-.89 1.014-1.4 1.17-5.54 1.636-11.82-2.261-16.99 2.494-.22.156-1.11 0-1.41-.39-3.32-4.053-9.45-1.17-12.7-5.612-.15-.156-1.92.701-2.73 1.403-.22.156-.45.234-.59.312l.14-.156c-.59-.234-1.25-.234-1.99-.312-.96-.857-1.85-2.183-3.1-1.17-.22.157-.37.235-.59.39 0 0-.15 0-.22-.155v.311c-1.7 1.092-3.55 1.404-5.62 1.56-4.282.39-4.356.779-5.094 7.015 2.142 0 4.284.857 6.354-.858 6.87-5.846 11.59 1.248 17.13 3.274.08 0 0 .858-.14 1.17-.37.467-.89 1.09-1.41 1.09-2.36 0-4.8-.467-7.01 0-2.44.468-5.69-1.87-7.39 1.95 2.44 1.48 4.95 2.961 7.39 4.442 5.24-3.741 9.15 3.04 14.1 1.949.37-.078.89.78 1.33 1.17-.66.623-1.33 1.792-2.07 1.87-5.68.702-11.89-1.793-16.91 2.962-6.35-.156-12.704 1.013-18.982-1.715-5.244-2.26-10.636 3.508-16.028.234-.517-.312-.886-.857-1.329-1.247.369-.39.739-.936 1.182-1.092 1.108-.311 2.216-.467 3.323-.701 6.352-1.247 6.574-1.403 3.693-7.95-.664-1.56-1.107-2.261.739-2.573 1.625-.234 3.324-.156 4.949-.156 0 1.091.147 2.105.147 3.196 0 3.04 1.551 4.21 4.137 3.897 1.846-.233 2.732-1.636 2.806-3.585 0-1.091.148-2.183.296-3.274l3.249-.156v-3.43c-.96 0-1.994 0-3.028-.077-.147 1.09-.295 2.26-.443 3.351-2.216-.078-4.505-.234-6.721-.312.738-4.365 4.062-3.351 6.795-3.507 0-2.962.665-6.158-.222-8.808-.59-1.793-3.545-2.728-5.318-4.21-.59-.467-.517-1.87-.147-3.117h1.255c-.295-.312-.664-.468-1.034-.702.222-.546.517-.935.813-1.091 5.392-2.105 10.488-5.145 16.618-4.21.74.079 1.63-1.169 2.36-1.792-.44-.39-.81-1.091-1.33-1.247-3.69-1.092-7.382-2.729-11.149-2.807-1.92 0-4.062 2.495-6.351.858-7.46-5.378-15.806-3.04-23.857-3.352-3.102 1.949-6.131 2.884-9.159 3.118a22.918 22.918 0 0 1-3.028-1.793c-1.477-.234-.813 1.403-2.29 1.17 0-1.17-.96-.936-.738-2.261-1.404.78-3.177.78-3.915-.546-2.437 1.715-2.807-.234-4.727.546-.369-.156-.665-.234-1.034-.39v-.467h-1.404c-4.136-1.481-8.567-2.105-12.851-1.403-.148-.468-.517-.78-.517-1.404-2.881-.155-4.136 1.014-5.392-.857-8.051 1.715-14.994-2.572-23.487 1.403-.37-.623-.887-1.091-1.551-1.247-3.103 1.715-9.972 1.637-13.221 2.728-.665.935-1.108 1.949-1.625 2.962-1.33.156 1.034-1.403-1.034-.857-1.847.623 1.772 1.559.147 1.87-.369-.623-1.108-.78-1.994-.78.296 1.326-.665 1.482-1.846 1.56-1.034-1.637-2.29-2.962-3.25-2.962-.369.39-.96.701-1.108 1.17-.517 1.714-.96 3.429-.813 5.066-2.215 1.403-4.727 2.572-5.982 4.755-1.625 0-3.028.155-4.284.545-.222-.39-.369-.857-.443-1.403-3.841-1.793-7.091-6.781-12.113-1.637-1.33 1.325-4.432.546-6.648 1.17-1.551.39-1.846 1.558-1.034 2.416.37.39.887.701 1.404.935.96.546 1.994 1.014 3.028 1.481-.591.702-1.33 2.105-1.847 2.027-5.17-.78-10.635.234-15.953 0-.444-.234-.887-.312-1.478 0h-.443c.148-.312.37-.546.222-1.091-1.477.623-1.256.311-2.437-.234-.148.78.221 1.013.664 1.091-2.733-.468-5.465-1.481-8.05-3.508-.887-.701-3.324.312-4.728 1.17-3.323 1.87-3.545 0-3.988-2.729-.295-1.792-1.477-3.196-3.176-.857-.812 1.091-1.625 2.105-2.437 2.962-3.915-.702-8.199-.858-12.704.156 0-.936 1.255-.702.812-1.949-2.289.468-4.136 2.728-2.068 4.365-1.108.312-1.108-.78-2.437-.312l.147 2.183c-1.034-.39-2.141-.78-3.323-1.325-4.432-2.105-8.937-4.91-10.71 3.04-5.096.857-8.863 8.886-15.511 2.806-1.846-1.715-5.539-1.013-8.42-1.481-2.289-.39-5.096-.078-6.647-1.403-4.579-3.975-3.767.935-5.318 2.806-2.363 2.806-2.216-.624-2.807-1.87-.517-1.014-1.107-2.027-1.624-3.04-.665.857-1.404 1.714-1.995 2.65-1.846 3.273-2.215 3.43-3.323.311-.665-1.948-1.33-3.741-3.102-3.82-5.171-.233-10.562-2.104-15.363 1.638-2.29 1.793-4.358 1.013-6.278-.702-2.216-1.948-4.21-5.378-6.574-5.69-4.505-.546-9.676-2.572-13.738.624-5.17 4.053-11.965-.234-16.618 4.52-2.364-1.48-4.506-2.805-7.46-.545-.96.701-1.699-2.416-2.142-4.053-.148-.546-.591-1.247-1.108-1.403-6.869-2.183-13.886-1.403-20.903-1.325-.738 0-1.92 1.559-2.141 2.572-.591 2.806-1.995 4.287-4.801 4.209-2.955 0-6.352-1.17-8.79 0-8.494 3.897-17.135 2.416-25.777 2.338-3.028 0-5.613.468-8.346 2.027-1.994 1.17-4.505-3.274-7.312 0-1.847 2.105-4.284.468-6.131-1.17-2.511-2.182-2.954.313-3.175 1.794-.296 2.26-1.478 3.43-3.324 3.507-2.955.234-5.835 0-8.79 0-.443 0-1.329.936-1.255 1.092.369.857.812 2.182 1.477 2.338 1.699.39 3.545.234 5.244.468.517 0 .96.623 1.404 1.091.738.78.369 2.105-1.182 2.105-5.909 0-11.744-.468-17.653-.468-2.659 0-4.21-1.793-6.204-3.04-1.477-.935-3.324-1.17-4.801.39-2.29 2.416-3.841.312-5.909-.702-1.255-.623-3.471-.156-4.801.624-3.914 2.494-7.312 2.338-11.448.156-8.863-4.677-17.874-3.118-26.737.857-4.653 7.561-11.818 6.782-18.982 6.47-3.472-.156-7.238-.312-10.267.935-2.585 1.091-3.988.702-6.056-.701-2.955-2.105-5.835 2.65-7.829 1.325-7.682-4.989-16.102-2.027-24.079-3.274-8.272-1.325-15.954 1.715-23.413 4.833-4.137 1.715-9.085 2.26-11.818.233-5.539-3.975-11.301-2.962-16.988-3.43-5.909-.545-11.817-.545-17.726-.467-1.773 0-2.955 1.481-3.324 3.664-.148.857-1.255 1.559-1.994 2.338-.443-1.091-1.108-2.105-1.256-3.196-.295-2.182.887-4.833-2.068-6.002-3.545 4.287-5.909-1.247-9.085-1.247-8.272 0-16.544-.623-24.743-.857-.738 0-1.477 1.169-2.215 1.792.443.39.886 1.092 1.329 1.17 4.21.233 7.534 2.884 11.227 4.13 4.284 1.482 9.306.624 14.033.858 1.773 0 3.619 0 5.318.39.665.156 1.034 1.481 1.403 2.339 0 .155-.886 1.013-1.329 1.013-7.091 0-14.181-.624-21.198-.312-5.687.312-11.817-2.728-16.988 2.105-4.136-4.6-8.198-2.339-12.408 0-.443.233-1.403.233-1.699 0-5.392-5.3-12.113-3.586-18.391-4.288-1.551-.155-3.693-.935-4.432-2.182-.738-1.247-.443-3.274-.443-4.989-2.659.156-2.954 2.183-3.767 4.521-.738 2.26-2.585 1.403-3.176-.545-.443-1.56-.812-4.6-2.289-3.196-4.949 4.443-11.818-.78-16.545 4.131-.369.312-1.92-.234-2.659-.78-2.068-1.559-3.841-1.714-6.352-.623-8.789 3.741-16.988 3.508-23.118-5.456-.369-.468-.812-.936-1.182-1.326-1.846-1.948-1.846-1.948-5.539-.311-2.585 1.169-5.17 2.416-7.756 3.663-3.84-3.508-9.971-3.975-12.039-9.743-.369-.936.222-2.417.665-3.43.517-1.247 1.477-1.013 2.659.078.665.623 2.364 1.247 2.733.857 3.25-3.195 6.204-2.416 9.232.39.813.78 1.994 0 2.142-1.48.074-1.092-.369-2.261-.738-3.275-.222-.467-.887-1.013-1.33-1.013-9.971-.156-19.499-1.247-27.771-8.262-1.551-1.326-4.506-.624-6.869-.858-4.579-.546-9.38.234-13.443-3.196-.812-.701-2.88 2.339-2.215 3.664 1.698 3.663 5.17 6.703.812 11.224-1.773 1.793 1.256 2.26 2.659 2.65 1.699.546 2.511 1.793 2.659 3.586-6.426-1.247-11.67 4.365-18.022 3.586-.591-.078-1.403 1.247-2.068 1.87.96.546 1.92 1.248 3.028 1.715 2.733 1.092 2.881 3.586 2.807 6.08 0 3.196-1.477 4.989-3.915 4.989-5.908-.156-11.817-.702-17.652-.39-1.994.078-4.062 2.105-5.761 3.664-1.995 1.87-1.847 4.287-.37 6.625.887 1.403 2.142 3.508-.443 3.898-4.062.545-8.272.078-12.334.39-1.773.155-2.733 1.714-3.102 3.74-.296 1.794-1.625 2.807-3.398 3.04-.517 6.782-.739 7.094-7.238 7.25.295 3.196 3.102 4.677 4.505 7.171.517.858.665 1.949.739 2.962 0 .312-.96 1.014-1.404.936-5.096-.624-10.635 1.09-15.289-2.339-4.062-3.04-5.982-1.793-7.312 3.04-.738 2.728-2.511.39-3.914-.156-3.841-1.559-6.352-.623-8.716 2.962-.738 1.17-.59 2.027.96 2.573 1.478.545 3.841.623 3.25 2.806-.59 2.182-2.88 4.443 1.182 4.91 5.687.624 11.3.546 16.766-1.636 6.204 4.988 9.085.701 11.744-4.366l3.471-.233c.443-1.014.739-2.26 1.478-2.573a10.109 10.109 0 0 1 5.022-.857c3.398.234 6.795.935 10.193 1.403 2.29 5.145 7.755-2.572 9.971 2.728 3.397.468 6.869.858 10.266 1.56 1.034.233 1.847 1.48 2.807 2.182 2.29 1.636 2.068 3.663.295 5.612-3.397 3.819-7.607 2.494-11.522 2.416-3.102 0-3.619 1.949-4.284 4.443-.517 1.871-2.437 2.728-3.25.39-.738-2.338-.664-4.911-3.766-5.067-4.653-.233-9.307-.545-14.034-.701-5.244-.156-5.244-.078-7.386 6.937-.96 3.04-3.914 5.067-6.72 3.274-6.353-3.897-13.148-4.209-20.09-3.819-1.552.078-3.694.623-4.432 1.792-.813 1.326-.517 3.43-.665 5.223 1.182.935 2.585 1.637 3.176 2.884.59 1.325.148 3.43 2.142 3.352.517 0 1.181-1.793 1.55-2.884 1.404-3.82 4.506-3.118 7.091-2.651 3.62.702 6.279 4.677 10.415 4.132.073 1.715.073 3.429.443 5.144.37 1.793 1.33 1.871 2.659.624 2.511-2.417 4.062-.234 5.465 1.559.591.701.591 1.948.887 2.962-1.7.39-3.324 1.013-5.023 1.013-5.835 0-11.596.39-16.84-3.663-2.511-1.949-4.727-.624-7.312 2.806-2.142 2.806-1.846 5.144.443 8.184 1.551 2.105 3.546 2.884 5.835 3.586 1.625.468 1.256 2.728-.443 3.975-1.403.936-2.954 2.728-4.358 2.65-3.767-.233-6.647 2.027-9.897 2.962-3.84 1.17-8.198.39-12.26.546-1.7 0-3.472 2.416-2.807 3.819 2.437 5.145 2.806 12.55 11.152 11.537 1.551-.156 1.92 1.325.887 2.338-.813.858-1.7 1.715-2.511 2.65-3.25 3.976-3.029 5.301.812 8.497 1.625 1.325 4.727.234 5.17 3.429-4.431 3.43 1.477 6.314.443 9.588-.664 1.949-1.55 2.884-3.545 1.325-.665-.545-2.585-.701-2.585-.545-1.256 3.819-3.767 4.754-7.534 5.924-6.426 1.948-13.22 3.429-19.277 6.625-1.994 1.091-3.767 2.728-5.54 4.365-1.772 1.559-.886 6.236 1.108 5.924 5.318-.779 8.346 4.209 12.926 4.989.443 0 1.181 1.247 1.108 1.247-.591.78-1.33 1.949-2.069 2.027-2.363.312-4.727 0-7.09.156-3.545.234-5.17 3.351-3.324 6.158 2.29 3.507 5.909 5.768 6.648 10.6.369 2.573 3.767 1.871 6.056 1.949.443-1.325.739-2.962 2.585-2.26.591.234.739 1.481 1.108 2.416 2.142.39 3.25 1.715 3.472 3.975 3.914 2.417 7.533 5.223 12.63 4.288 4.653-.858 10.266 2.806 13.073-5.223 1.403-3.897 8.05.078 10.857-4.053 4.136 1.637 8.273 3.118 12.261 4.988.443.234.665.312.812.312-.221 0-.664.156-.664 1.403 0 1.014-.591 2.65-1.33 2.962-1.55.624-3.323.702-5.022.78-3.841.156-3.324 2.104-1.773 4.599.665 1.169.296 2.026-1.255 2.572-1.108.39-2.733.312-3.176 1.013-1.625 2.728 1.034 2.183 2.215 2.806 3.029 1.715 6.057 3.352 8.937 5.301.148 0 .148.078.296.156-.148.156-.296.389-.37 1.013 0 .39-.886 1.013-1.329 1.091-2.954.312-5.761.234-8.272-2.026-3.546-3.196-9.159-1.014-12.483-5.223 0-.078-2.215 2.183-2.732 1.871-3.398-1.871-6.426-3.586-5.761 2.884.369 3.586-2.733 5.222-3.546 8.029-.295.935.296 3.118.739 3.195 5.022.858 8.937 9.9 15.289 2.495.665-.78 3.914 1.481 3.767 1.559-5.318 2.416 3.25 8.028-2.29 10.601-2.511 1.169-3.988 4.053-4.875 7.327-.59 2.494-2.806 1.169-3.028-.624-.739-5.612-4.8-4.287-8.05-4.521-.518 0-1.7 1.871-1.626 1.949 4.136 4.911-1.403 6.002-3.028 8.496-1.182 1.871-.96 4.131.813 3.898 6.13-.78 11.005 3.585 16.618 4.365 6.426.857 12.925.701 19.425 1.013.517 0 1.108.234 1.625.546.517.312 1.182.779 1.182 1.169 0 .468-.443 1.169-.886 1.559-1.847 1.403-3.767 3.663-5.688 3.741-6.426.312-12.925-.233-19.425-.389-3.988-.078-9.454 7.015-7.386 10.678 3.472 6.236-.295 10.29-2.437 14.966-.517.078-1.034.156-1.477.39-.517.234-.96.546-1.404.936-2.856 2.39-2.93 4.521-.221 6.391 6.278 4.365 7.312 6.704 5.613 12.94-.443 1.714-1.256 1.637-2.511.623-1.182-1.013-2.66-1.715-3.989-2.494-.074-1.793.296-3.975-.443-5.301-.664-1.169-2.733-1.636-4.284-2.182-1.108-.39-2.29-.312-3.471-.39-5.466-.234-5.761 0-3.915 7.561.296 1.325 1.108 1.949 0 3.04-3.102 2.806-2.363 6.704-2.51 10.367-.075 2.65.738 5.145 3.692 4.911 7.165-.546 13.369 3.118 20.016 4.443 5.023 1.013 10.34.701 14.772 4.209.37.234 1.108 0 1.625-.156 1.625-.467 1.625-1.247.517-2.65-3.767-4.833-7.83-8.886-14.255-9.12-1.551 0-1.33-1.247-.221-2.65 2.51-2.962 5.244-4.287 9.158-3.976 3.028.234 3.028-.389.739-5.612-.222-.467-.074-1.091-.074-1.715 3.398-.779 3.84-3.429 3.693-6.469-.148-2.806 1.034-4.132 3.545-4.287 0 1.792-.37 3.819.37 5.144.664 1.169 2.732 2.027 4.283 2.183 5.244.467 10.784-.312 15.733 1.169 5.465 1.637 10.562 4.443 16.323 4.755.443 0 1.181.701 1.255 1.169.296 1.169.591 2.416.296 3.508-.37 1.637-1.33 1.637-2.512 1.013-1.181-.702-1.92-3.43-4.062-1.247-1.773 1.793-4.21 3.118-6.13 1.013-5.466-5.924-10.488-2.416-15.659.234-1.034.546-1.92 1.169-2.88 1.715.96.623 1.846 1.637 2.88 1.715 5.245.545 10.489.779 15.659 1.247.517 0 1.108.623 1.33 1.169.147.312-.296 1.013-.665 1.403-3.103 3.586-5.983 7.483-11.153 8.263-1.551.233-1.404 2.962.221 4.053 2.88 1.949 5.835 3.819 8.716 5.69 2.88 1.949 6.647 2.416 8.346 6.158.221.546.812 1.169.665 1.559-.148.468-.887 1.013-1.404 1.013-3.988.156-7.903.156-11.891.156-.148 1.091-.296 2.183-.37 3.352-.073 2.104-.96 3.352-2.954 3.585-1.994.234-3.176-.779-3.84-2.728l-1.109-3.274c-.812.39-1.92.468-2.363 1.092-.665.857-.517 2.728-1.256 3.196-2.585 1.481-2.29-1.17-2.585-2.495-.665-3.274-3.102-3.819-5.17-2.728-2.733 1.403-1.551 3.82-.517 6.158 2.511 5.69 2.364 5.69-1.256 9.198-1.92 1.871-2.954 1.793-3.988-1.715-.96-3.274-2.88-3.742-5.17-3.04-1.994.546-2.29 3.508-1.477 4.599 3.471 4.443 1.55 5.846-2.66 6.781-.664.156-1.255 1.949-1.403 3.04-.295 2.339-.295 4.677-.369 7.016 5.17.234 10.34.623 15.51.701 2.512 0 4.506.858 6.353 2.495 1.034.935 2.141.779 2.51-.858.444-1.793.592-3.663.37-5.456-.222-1.793-1.477-2.884-3.176-3.352 1.182-4.521 3.989-6.937 8.568-7.093 6.278-.234 11.596.935 12.778 8.886.073.623 1.33 1.091 2.068 1.481.147 0 .738-.78 1.034-1.325 1.108-2.105 3.619-4.833 3.028-6.158-1.846-4.209-2.364-6.47 3.176-6.002 2.807.234 5.687.234 8.568.312.369-.936.738-2.183 1.329-2.339 1.847-.468 2.142 1.014 2.364 2.417 4.062-1.092 7.829-5.613 12.334-.156 1.182 1.403 4.432.779 6.722 1.247 1.698.39 3.249 1.013 4.948 1.559-1.034 1.403-1.846 3.118-3.176 4.053-3.028 2.261-3.176 4.287-.738 7.249 1.034 1.247.738 3.508-1.034 4.755-1.478 1.091-6.352 1.403-11.818.857-1.847-.155-3.693.312-4.21 2.261-1.625 6.703-6.13 8.496-11.965 8.262-.444 0-.961.546-1.477.858-1.256.623-1.773 3.741-.813 4.911.739.935 1.699.935 2.733-.234 1.699-1.949 2.88-.702 3.988.623.813.936 1.847 1.871 2.142 2.962.369 1.715-4.358 4.911-5.982 4.054-1.035-.546-1.847-1.715-2.881-1.949-.96-.234-2.142.312-3.25.546.222 1.013 0 2.416.665 2.884 1.773 1.481 3.84 2.572 5.687 4.053.665.546 1.034 1.481 1.551 2.26-1.034.39-2.142.858-3.176 1.17-.517.156-1.182 0-1.772.078-1.108.233-2.364.389-3.176 1.091-.296.234.073 2.104.664 2.806a57.061 57.061 0 0 0 6.278 6.548c.739.701 2.142.701 3.324.779 13.147.702 13.221.702 16.766 3.586.887.701 2.216 2.338 1.921 2.884-.739 1.948-2.733 1.559-4.284 1.091-6.426-1.949-11.005-.312-12.261 5.846-1.034 4.911-5.835 7.873-5.096 13.485.221 1.715-1.773 2.728-3.62 3.196-2.215.624-4.21 2.416-6.425 2.884-3.989.858-4.063 3.82-4.063 6.937 0 3.04-.517 6.314 1.995 8.731.886.857 2.363 2.494 2.585 2.338 6.13-4.911 13.812.312 20.164-3.741 4.136-2.651 9.084-2.651 13.22.077 4.949 3.274 9.824 3.352 14.846 1.17 1.256-.546 2.068-1.248 2.955-.312 2.289 2.416 5.17 2.728 8.198 2.338 3.176-.467 5.466 2.105 7.977 2.729 1.92.467 4.506-3.04 7.017-4.366.591-.311 1.92.624 2.806 1.248 3.176 2.338 7.534 2.338 10.119 1.169 9.159-4.131 18.465-1.715 27.624-1.949 2.733 0 4.136 1.481 4.505 4.443.074.78 1.847 2.027 1.847 1.949 3.176-3.196 4.875-.312 6.943 1.637 3.619 3.507 3.693 3.429 5.244-3.04.295-1.091 1.034-3.118 1.403-3.04 2.068.234 1.773 2.26 2.216 3.819.443 1.637 1.625 2.183 2.511 1.014 6.574-8.964 15.437-10.134 25.186-8.731 2.881.39 5.909.39 8.864.312 3.766-.078 9.527.546 10.414.702 3.988.545 4.579 8.73 9.306 5.612 4.579-3.04 9.38.468 13.517-2.338.517-.312.96-.702 1.551-.936 4.579-1.871 9.158-1.948 13.368.624 4.358 2.728 9.011 3.352 13.295 1.169 3.398-1.715 6.647-2.027 10.119-1.871 5.318.156 10.562.156 15.88.312 4.136.078 8.272 0 12.334.468 4.875.545 8.347-4.989 13.443-3.118 2.733-2.183 5.539-3.43 8.641-.624 5.688-4.755 7.608 1.871 8.938 4.521 2.732 5.301 6.942.702 9.749 2.884 1.994 1.559 4.062 2.417 6.352.624 1.256-.936 2.216-1.715 4.358-.624 2.289 1.17 9.085-1.403 10.192-3.351.813-1.404.665-3.352.813-5.145 3.988 0 8.051-.78 11.374 2.728.665.78 2.364 1.403 3.102 1.013 1.995-1.091 4.284-2.416 5.318-4.287 1.33-2.416-1.329-2.182-2.659-2.728-.886-.39-1.477-1.403-2.142-2.104 1.034-.468 2.069-1.404 3.029-1.326 2.733.156 6.056-.623 6.869 3.742.221 1.091.886 2.806 1.625 2.962 8.346 2.183 16.175 7.249 25.26 5.456 3.323-.701 6.499-2.65 9.823-2.806 6.426-.39 13.073-.545 19.425.468 6.722 1.091 12.261-3.43 18.761-2.962 5.835.467 11.817.468 17.652.39 1.699 0 2.807-1.403 3.25-3.274 3.915 0 7.977.545 11.744-.234 2.511-.468 4.136-2.183 7.386-.624 2.954 1.481 1.329-4.988 4.357-5.69.444-.078.887-.234 1.33-.312 0-1.792.517-3.819-.222-5.144-.664-1.169-2.806-1.871-4.357-2.105-4.063-.467-8.273-.312-12.335-.779-3.398-.468-7.386 1.169-10.119-1.793-3.028-3.196-7.829 2.806-9.971-2.65-2.807.156-5.909-1.169-8.346 1.247-1.699 1.715-2.807.545-4.284-.39-2.954-1.871-3.914 1.403-5.318 2.884-1.846 1.949.739 2.884 1.625 4.131.739.936 1.773 2.339 2.659 2.339 5.17 0 10.488 2.494 15.437-.78.517-.311 1.329-1.013 1.477-.779.812.546 1.846 1.403 1.92 2.182a17.431 17.431 0 0 1-.221 5.535c-.37 1.559-1.477 2.026-2.364 1.247-7.312-6.08-17.283-.234-24.595-6.158-9.602 4.599-19.647 1.403-29.47 1.481-2.142 0-5.909.78-6.131-1.793-.221-2.728 3.324-1.948 5.392-2.026 3.324-.078 5.392-2.261 7.165-4.833 1.624-2.417 2.88-5.145 4.283-7.795 1.256-2.416-.073-5.145-2.732-5.378-2.364-.234-4.801-.936-7.017-.39-7.238 1.793-6.795-5.067-9.306-8.652-1.034-1.481-1.034-2.261.812-2.417 4.653-.389 9.38-.156 13.886-1.013 2.659-.468 5.244-4.209 7.829-1.169 2.807 3.351 5.244-1.169 7.312.312 2.659 1.87 4.727 2.962 7.829.935 3.398-2.105 7.165-3.975 11.005-4.911 2.438-.623 6.278-1.091 6.795 3.43.296 2.182 1.478 3.897 3.102 3.663 4.506-.701 7.091 3.352 10.858 4.288.443-1.014.886-2.417 1.477-2.495 3.398-.312 6.795-.545 10.193-.234 1.625.156 2.437 2.027 2.733 4.054.295 1.948 1.551 3.274 3.545 2.962.886-.156 1.699-.936 2.511-1.481-3.397-4.833-1.403-6.002 3.25-5.457 2.437.234 4.358-.545 4.727-3.507-3.619-1.403-6.278-5.223-10.784-4.365-.664.156-1.551-1.248-2.289-1.949 1.034-.468 2.068-1.325 3.102-1.325 4.727-.078 9.38 0 14.107.156 2.364 0 5.244 1.169 6.943.078 8.863-5.457 18.317-1.715 27.402-2.339 2.954-.234 5.909.078 8.789 0 .517 0 1.034-.467 1.478-.935.738-.78.443-2.027-1.034-2.261-2.586-.389-4.137-2.026-5.688-3.975-.738-.935-1.92-2.105-1.772-2.962.295-1.637 1.255-4.287 2.142-4.365 4.062-.468 8.346-.78 12.334 0 4.727 1.013 9.233-2.962 13.073-1.325 4.506 1.948 7.091-2.495 11.301-1.637 5.54 1.091 12.187 2.962 17.062-.78 7.238-5.534 11.891 2.962 17.874 2.261 2.289-.234 4.579-.468 6.795-1.013 1.625-.39 3.25-1.949 4.801-1.949 17.061.546 34.123.935 51.111 2.104 3.767.234 7.312 3.118 10.931 4.911.148 0-.295 2.105-.886 2.728-1.625 1.715-3.25 3.352-5.983 3.196-9.38-.467-18.834-.779-28.214-1.091-7.091-.234-14.108-.312-21.198-.546-2.216 0-3.102 3.43-5.909 1.949-8.789-4.521-18.17-2.806-27.328-2.416-.517 0-.96 1.559-1.403 2.572 3.988.935 9.675-1.949 10.561 5.69.074.78 1.625 1.949 2.586 2.027 7.459.857 15.067.39 22.01 4.521 1.92 1.169 3.693-3.586 5.983-1.559 3.028 2.884 6.647 2.026 9.971 2.728 1.551.312 4.284 1.325 4.284 2.183.369 7.171 5.539 4.91 9.158 5.612 4.727.935 9.38-7.249 14.181-.156.591-.936 1.551-1.793 1.773-2.806.369-2.183 1.551-3.274 3.545-3.196 1.034 0 2.068.779 3.102 1.169-3.176 4.131-2.585 5.846 2.807 5.924 11.227.234 22.453.312 33.606 1.637 10.932 1.247 22.38-2.26 32.868 3.819.222.156 1.182-.389 1.256-.701 1.255-7.483 6.869-5.378 11.152-5.3 17.653.467 35.379 1.481 53.032 1.714 8.051.078 16.397 3.508 24.078-2.026 8.346 1.87 15.806-2.884 23.857-3.43 1.551-.078 3.028-1.793 4.505-2.806.444 1.013 1.33 2.027 1.33 3.04 0 3.585-3.324 4.833-5.023 7.171-.59.78-.812 1.871-.96 2.806 0 .234.887.936 1.404 1.013 4.136.312 8.272.39 12.334.78.591 0 1.034 1.403 1.551 2.183-.517.389-.96 1.013-1.477 1.013-5.244 0-10.119 1.637-15.141 2.962-5.983 1.559-11.818 5.3-18.465 3.897-.665-.156-1.551 1.092-2.364 1.715 1.034.468 2.068 1.325 3.102 1.403 9.455.546 18.909.546 28.289 1.481 6.869.702 12.482-2.182 18.022-5.612 2.289-1.403 3.102-3.352.96-5.768-1.773-2.027-.739-6.236-4.358-6.86 0-2.026 1.256-3.741 2.881-3.429 6.13.935 10.635-4.677 16.692-4.054 1.329.156 1.403-1.325.148-2.572-1.551-1.559-.591-2.806.295-4.443 2.585-4.833 5.909 1.169 8.42-.857 1.625-1.403 2.881-1.17 4.21.389 1.182 1.403 2.511 2.573 3.691 3.976.96 1.169 1.55.935 2.73-.234 2.22-2.183 3.4-3.508 1.41-7.249-2.37-4.365 2.07-8.73 6.94-7.094 9.31 3.196 18.39 3.04 26.66-2.416 3.99-2.65 7.61-2.416 11.67-2.027 2.66.234 3.7 1.949 3.77 4.989 0 2.65-.81 4.677-2.51 6.626-2.44 2.728-2.51 2.806-4.95-1.637-1.11-2.027-2.66-2.183-3.17 0-.89 3.897-2.81 5.066-6.13 3.585-1.04-.467-1.85-1.481-2.74-2.26-2.36 3.196-7.97 1.403-9.16 6.47 5.32 4.287 11.23 5.69 17.43 2.338 2.89-1.559 5.62-1.325 8.5-1.325 4.13 0 8.27 0 12.41.156 3.03 0 4.13-2.027 4.13-4.755-.14-5.223 2.74-6.158 6.8-5.846.59 0 1.18 0 1.7-.156.51-.234.96-.702 1.4-1.091-.59-.702-1.11-1.715-1.85-2.105-1.25-.701-3.98-.39-2.73-2.806.89-1.793 2.44-4.989 5.1-3.274 2.8 1.793 4.95 2.65 7.97.702 2.44-1.559 5.4-2.339 7.83-3.898 2.51-1.637 4.21-.467 6.36.702 4.43 2.338 4.35 2.026 7.38-2.962 1.48-2.495 4.14-4.521.74-7.405.96-3.118 3.47-5.301 5.98-5.613 5.25-.623 10.56-.077 15.88-.077.52 0 .96-.702 1.48-1.014-.59-.701-1.03-2.026-1.7-2.104-2.88-.468-5.83-.468-8.79-.858-.44 0-.88-.779-1.33-1.169.59-.702 1.04-1.715 1.77-2.027 1.33-.545 3.4-.078 3.11-2.572 0-.546-8.13-4.131-8.79-3.663-3.99 2.806-5.69-2.807-9.16-2.573-1.55.156-1.7-1.559-.22-2.65 1.84-1.325 3.76-2.728 5.68-3.975.45-.312 1.19-.156 1.63-.468.52-.312.89-.779 1.33-1.247-.74-.78-1.4-1.871-2.29-2.183-2.14-.779-6.43.546-6.2-1.637.29-4.209 4.35-1.481 6.72-1.948 2.29-.39 4.72.156 7.09-.156 3.39-.39 6.42-5.223 6.57-9.744 0-2.026-.44-3.897-2.14-4.521-2.51-.857-4.29.39-4.95 3.04-2.81 0-5.69.078-8.49-.156-1.56-.156-4.29-.935-4.44-1.714-.22-1.871 1.92-1.949 3.4-2.417 1.7-.545 2.66-1.871 2.66-3.975 0-2.962.3-5.846-3.03-6.86-.81-4.91 2.07-7.872 5.17-10.756 2.29-2.105 4.51-4.21 7.76-3.43 7.75 1.715 14.84-1.481 22.08-3.118 2.74-.624 5.32-2.105 7.98-3.04s4.06 4.521 7.46 1.403c3.1-2.806 4.36 3.352 7.46 2.338 2.66-.857 4.73-4.053 7.9-2.806 1.48.546 3.69 2.807 4.06 2.495 4.07-3.742 9.09-1.559 13.52-2.806.52-.156.96-.702 1.48-1.092-.3-.467-.59-1.247-.96-1.247-4.58-.234-4.66-4.365-6.35-7.405-1.04-1.949-3.33-4.287-5.25-4.443-6.42-.546-12.85-.701-18.39-4.833-12.19.156-24.45-3.585-36.56 1.014-.3.078-1.26-1.248-1.63-2.027-.22-.468-.22-1.403 0-1.793 2-3.04 4.07-5.846 8.28-6.002 4.58-.156 9.6 1.871 13.51-2.026 3.11-3.118 6.5-6.47 10.79-4.366 4.21 2.105 6.42-5.222 11-1.247 2.44 2.105 5.62-2.884 9.46-1.948 3.47.857 5.09 5.378 9.23 4.598 1.55-.311 3.17-.233 4.73-.233-2.52-5.223-7.17-6.782-12.04-7.639-3.47-.624-7.17 0-10.57-.702-3.25-.701-6.27-2.728-9.52-3.663-2.22-.624-4.29-.234-6.06 2.104-3.4 4.521-10.49 6.548-12.63 2.728-2.81-4.988-6.35-6.079-10.71-7.249-.66-.156-1.03-2.026-1.33-3.118-1.11-3.663-2.95-6.469-6.72-7.327-.67 2.495-2.22 3.664-4.65 2.806-.89-.311-1.85-1.481-2.07-2.416-.59-2.728.66-4.209 3.1-4.599 0-.546.22-1.091.15-1.559-.44-5.846-1.63-7.015-5.98-4.521-2.66 1.559-4.07 1.325-5.47-1.091-.15-.234-.3-.468-.37-.702.59.078 1.26.312 1.85.702 0-.624.81-.546.88-1.013-.74-1.326-2.06-.312-3.1-.39-.59-1.091-1.18-2.261-1.18-3.43-.22-5.456-1.99-9.588-7.31-11.302-1.63-.546-2.74-1.637-2.81-3.508 1.92-.234 4.14-.468 6.43-1.559 0-.624-.37-1.013-.67-1.325 1.85-1.559 6.5-1.871 7.98 0 2.66-3.274 9.97-.78 14.25-2.183.45 1.793 1.41 1.403 1.48-.155.59.779.44 2.26 1.33 2.65 1.11-3.118 6.72.623 8.12-2.884 2.74 2.338 6.36.311 9.16 1.169.59-2.339 5.03-2.339 7.24-2.339 0-.857-.66-.935-.74-1.792 1.63.233.89-1.325 1.78-1.637 2.8-1.014 3.1 1.247 5.02-.156-.59.156-.3 2.884.15 1.403-.37-3.196 4.13-4.209 7.01-3.742-.59-1.87 1.78.234 2.37-1.247-.23-1.325-1.33-1.559-2.29-2.104-.15.545-.37 1.091-.82 1.559-2.06-.546-3.32-2.027-5.31-2.573 1.33-.156 2.95-.156 2.8-1.325-4.5.624-5.54 1.169-9.75 1.715 0-.468-.14-.701-.37-.935.37 0 .82-.234 1.41-.624.96-.701 1.99-1.403 3.03-1.871 5.09-2.416 5.54-2.65 3.02-7.483-1.69-3.273-1.55-5.69.74-8.184 1.18-1.247 1.04-2.183-.59-2.65-1.03-.234-2.73-.312-3.25.311-1.48 1.715-2.21 4.288-3.91 5.613-.82.701-3.03-.546-4.66-.936 1.78-1.793 2.29-3.04 2-3.975.66.234 1.33 0 1.33-.78-1.48.546-1.11-1.169-2.59-.623-.37-.234-.81-.468-1.33-.702 2.74-1.247 6.06-.311 9.46-2.26 1.03 1.247 3.32.935 4.72 1.715.37-2.105-.88-2.884.96-3.898 1.19 1.949 3.7 3.742.74 5.535.82-.078.45 1.247 1.19 1.247-.45-2.417 2.73-2.261 5.17-2.573-.67-2.026 2.88-2.572 3.32-1.403.29-1.013.96-1.792 2.73-1.792 2.22 2.182-1.03 2.572-1.03 3.429 1.33-.467 3.99.078 4.36-1.013-3.03-.234 2.36-1.013-.37-2.806-1.04 0-.3 1.091-1.78 1.637-.51-1.715.37-2.572 1.63-3.04 1.77.39 2.14 3.352 2.51 3.897 1.11-.857 3.54.702 4.8-1.559-2.22 1.559-5.91 0-4.8-2.182 1.99-.39.89 1.715 1.7 1.637.88-.702 4.36-2.027 3.62.935 1.99-.935 1.62-1.949.51-3.352 2.29-.467 2.22 1.325 1.26 2.183 1.33-.546 1.11.779 2.07.701.96-1.481-1.18-2.494-.52-3.741 1.04 0 1.18 1.091 1.7 1.637 1.7-.546 2.22-2.027 4.73-2.027 1.4 3.04 3.1-.39 5.31 2.105-.22-1.17-1.1-1.325.23-1.949 1.03 0 .66 1.637 1.7 1.637-.23-1.169-.37-2.261.66-2.416 0 .311.15.545.52.389 0 .702-1.18.546-.82 1.481 5.99-2.182 7.17-2.494 11.53.39.51-2.105 3.39-1.715 4.87-1.169-.59-1.403.59-1.559.67-2.417-2.29.78-1.33-1.169-1.33-2.182l-.3.078Zm-20.61-19.409c1.41 1.948 3.18-.546 4.73 1.715-2.73.311-3.91 1.325-5.39.701.07-.935 1.26-1.013.66-2.416Zm12.49-17.694c0 .545.22.779.59.857 0 .546-.96.468-.89 1.091-1.4.078-1.48-2.026.22-1.948h.08Zm-18.03-.936c0 .468-.51.468-.88.624 0 .545.22.779.59.857-.3 1.481-1.7 0-1.99-.234.29-.779 1.47-.857 2.28-1.247Zm42.77-17.694c0 1.637-1.26.78-.15 2.416l-.96.156c0-.389-.22-.389-.52-.389.67-.624.3-2.027 1.7-2.105l-.07-.078Zm-7.53-.857c-.74 2.416-5.47 1.948-6.73 1.403.89-2.183 5.91-1.247 6.73-1.403Zm-9.46 0c.08 1.169-1.48 1.169-2.8 1.325-.67-1.637 1.84-.936 2.8-1.325Zm-26.44-1.17c0 1.793-1.33.312-2.81 1.326-.66-1.637 1.85-.858 2.81-1.326Zm43.87-48.093c-1.62.467-2.8.233-2.66-1.481.67.467 1.78.311 2.96 0-.22.389-.37.857-.3 1.481Zm-1.77-5.379c.67 2.183 1.03 1.403 3.18 1.403.37.936-.15 1.247-.23 1.949-1.92-.702-2.14-.156-4.87.234 1.18-1.325 1.55-.78-.3-2.339.45-1.559.96-.389 2.29-1.247h-.07Zm-8.12 1.637c1.03 0 1.1 1.091 1.69 1.637 1.26-.935 2-.156 3.85-1.013.66 1.559-.52 1.715-1.33 1.169-.08 1.949 3.17-.39 2.73 1.949-1.7.389-2.44-.546-3.99-.39 0-.546.89-.468.81-1.091-1.47-.39-4.87-.39-3.76-2.261Zm.88 2.728c2.14.546.81 2.884 4.29 2.261-.15.467-.3.857-.82 1.091-2.36.312-2.21-2.572-4.72-2.183 0-.701 1.4-.389 1.33-1.169h-.08Zm-2.66-1.481c-1.03 2.183-5.91 1.325-7.75 1.092 1.33-2.885 4.43-.312 7.75-1.092Zm-9.82.468c.15 1.793.44.078 1.55.234-.52 2.806-2.36-.156-3.18 1.871-.96-.156.6-2.027 1.7-2.105h-.07Zm-2.44.312c-.66 1.169-2.95 2.572-4.13 2.026.66-2.728 2.21-1.169 4.13-2.026Zm29.92-36.324c-2-.624 2.29.234.44-.546.66-.623 2.36.39 3.4 0 0 .546-.82.546-1.41.702-.51.156-.22.935-.81 1.091-.29 1.013 0-1.403-1.62-1.169v-.078Zm2.58 4.365c0 .546.22.78.59.858-2.51 1.636-.37-3.04 1.7-1.637.22 1.013-1.7.467-2.36.779h.07Zm4.65 1.715c-.59.156-.44 1.481.23 1.403-2.22.935-.74-.702-2.29-2.027.73.546 2.29 0 3.02.546 0 .624-.88.624-.96.156v-.078Zm1.55-6.392c.23-1.948 2-.234 3.77-1.013.59 1.715-3.25 1.325-3.77 1.013Zm1.26-1.559c-2.29-.623-2.29-.701-4.21-1.793 0-1.559 1.99-.779 2.44.156 1.99-2.728 5.46-.935 8.05-2.104.66 1.948 1.77.156 3.17 1.403-1.77 1.715-7.38-.312-9.52 2.338h.07Zm10.93-2.494c-.07-1.17.45-1.87 1.63-2.105.51.468.81 1.17.81 2.26-1.11.313-1.85.157-2.44-.155Zm32.5-16.135c1.26.857.07 1.793.52 3.274-2.22 0-1.41-.78-3.92.155-.96-1.559 1.63-.545 1.26-1.636-.08-1.326-3.03 1.013-2.59-1.014 2-.312 3.25.39 4.8-.701l-.07-.078Zm38.11-11.069c-.07 1.17-1.62 1.325-2.66 1.793-.51-2.027 1.55-1.949 2.66-1.793Zm-18.54.468c-1.33 1.247-2.36.312-3.84.623l-.29-1.87c1.92-.312 3.17.234 4.13 1.247Zm-25.55 12.94c-.67-.469-1.77-.235-2.96 0-.07-1.56 3.18-2.729 2.96 0Zm-4.73-8.731c.67 1.325-2.95 1.715-2.73 1.325-.67-1.637 1.77-.935 2.73-1.325Zm-8.27-3.04c-.44 1.481-3.33.935-4.36.156-.29-2.728 3.62-1.013 4.36-.156Zm2.14 24.71c-.96.779-3.62.155-4.14-1.326 1.56 1.248 3.33-1.09 4.14 1.325Zm-2.88 20.734c-1.03 1.247-.52 1.559 0 3.273-2.59.39-3.18-1.247-4.28 1.092-2.15-.624-4.81-4.911-1.26-5.457-.37 2.417 4.14-.233 5.54 1.092Zm-3.1-4.288c.37 1.092-2.22 0-1.26 1.559-.59-.311-1.4-.389-2.51-.155-.96-2.807 2.66-2.105 3.69-1.481l.08.077Zm-2.37-16.68c0 1.09-2.36.545-3.32.935-.22-1.949 2.44-1.793 3.32-.935Zm-14.84-11.069 6.72-.935c.15 2.494 1.4 1.403 3.1.935 1.26.702-2.81.312-.66 2.027-1.78 0-2.44-1.403-3.99-.39l-.22-1.403c-1.55.312-2.37 1.247-4.36.624-.44.077-.3.623-.37 1.013-1.48-.078.3-1.013-.3-1.87h.08Zm-2.81.858c.59-1.871.96.857 1.55.701-.29 1.325-2.29 1.403-3.62 1.949-1.1-1.949 3.92-1.56 2.07-2.65Zm-11.82-.234c.59 1.559-.22 2.026-.59 2.884-1.47-.078-2.58-.702-2.8-2.417l3.39-.467Zm-4.28.623c-1.11 2.26 1.77.936 1.48 3.586-3.18-1.715-7.31-2.105-10.64-2.26 2.51-2.027 6.8.39 9.16-1.326Zm-12.41 9.354c.3-.858 1.33-1.247 2.73-1.325.23 1.403-2.29 1.637-2.73 1.325Zm2.51-6.47c-1.7-.312-.88-.78-2.95 0-.52-1.793 3.25-1.325 2.95 0ZM75.036 94.508v-.546c-.813-.39-1.625-.701-2.364-1.169-.147 0 0-1.169.148-1.169 1.92-.312 2.142.935 2.142 2.338.148 0 .221.156.37.156l-.37.39h.074Zm14.107-20.344-.295.701s-.813-.545-1.256-.78c-.443-.233-.739-.467-.665-.623.37-1.48 1.034-2.962 1.625-4.443.443.78.886 1.637 1.256 2.416l.221.39c-.295.78-.59 1.481-.886 2.26v.079Zm11.153 2.182c-.517.156-1.182 0-1.773 0-.59 0-1.255 0-1.772-.234-1.625-.701-3.324-1.325-2.807-3.82.148-.545.221-1.168.517-1.636 1.256-1.949 3.102-1.481 4.653-.857 1.034.467 1.921 1.48 2.659 2.416.739.857 1.182 2.027 1.773 3.04-1.108.39-2.142.857-3.25 1.17v-.079Zm-28.436 47.47c-1.477.234-3.028 0-4.506 0 0 .156-.073.234-.073.39l-.37-.39h.443c.37-2.572 1.92-3.507 4.358-3.039.443.077 1.256.779 1.256.935-.222.779-.591 2.104-1.108 2.104ZM22.374 233.957s-.739-.702-.887-1.169c0-.156 0-.312.148-.468.148-.156.295-.39.37-.546h.59c.222 0 .37 0 .517.156.813.702.517 1.481-.738 1.949v.078Zm10.93 139.76c-.147.39-.294.78-.368 1.17-.148.545-.37 1.013-.739 1.247-.96.623-1.847-.39-1.182-1.403.443-.624 1.477-.78 2.364-1.014a.61.61 0 0 1 .148-.389l.221.311s-.295 0-.37.078h-.073Zm20.534-13.641.96 1.17-1.182 1.013-1.034-.624 1.182-1.559h.074Zm-11.596-1.48c-2.437.155-4.136-.702-4.358-3.508h-.295l.221-.312v.312c1.551 0 3.176 0 4.727.39.444.078.739 1.481.887 2.26 0 .234-.813.858-1.33.858h.148Zm12.482 15.823v-.234c-2.142.39-4.284.624-6.352 1.325-3.471 1.091-4.505.234-4.136-3.819.074-1.169.517-2.339.887-3.43.147-.468.664-.857 1.034-1.247 1.994 3.508 7.976 1.871 8.567 7.249h.296l-.222.234-.074-.078Zm25.187-252.863 1.034 1.091-1.182.936-.96-.546 1.181-1.559-.073.078ZM52.287 235.828c0 1.013-.96 1.87-1.477 2.806-2.733-2.495-5.983-3.586-9.528-3.742-.591 0-1.034-1.325-1.551-2.104 1.034-.39 2.068-.936 3.102-1.17 1.108-.156 2.29 0 3.471.078 2.29 0 4.506.078 6.204 2.183 1.552 1.871 0-.624-.147 1.871l-.074.078Zm9.75-19.098c-.37-.467-.96-.935-.96-1.403 0-.467.738-.779 1.181-1.169l1.108 1.403-1.33 1.169Zm2.88-6.937c-4.506-.234-9.01-.702-13.516-1.325-.444 0-.739-1.637-1.108-2.65h-.37v-.312c-1.034 0-2.068.078-3.102 0-1.33-.234-3.545-.156-2.437-2.65.295-.624 1.994-.936 2.954-.78 1.773.312 2.585 1.637 2.585 3.508h.296c0 .078 0 .234.074.312 5.022.233 10.045.545 14.993.857.444 0 .887.702 1.33 1.091-.591.702-1.182 2.027-1.773 2.027l.074-.078Zm4.653 35.544c-2.437-2.338-2.29-4.91.591-7.093 2.88-2.183 6.13 3.664 8.642-.78 1.625 1.559 3.471 2.963 4.874 4.755 1.33 1.715-.443 5.379-2.51 5.535-1.183.078-2.29 0-3.25 0-3.029-.468-5.836-.156-8.347-2.573v.156Zm9.085 30.166s0 .857-.148 1.091c-.738.936-1.55.624-2.142-.779 0-.156.739-.78 1.182-.936.296-.077.739.39 1.034.546l.074.078Zm-13.738 86.6c-.443.624-1.477.78-2.364 1.013a.614.614 0 0 1-.147.39l-.296-.312s.296 0 .37-.078c.369-.935.59-2.026 1.181-2.416.96-.623 1.847.39 1.108 1.403h.148Zm3.545-21.981c-1.625-.156-3.102-3.196-4.653-4.989 1.034-.468 2.068-1.247 3.102-1.325 1.699-.078 3.398.234 5.097.624.517.078.96.701 1.698 1.325-1.772 1.637-3.619 4.521-5.244 4.443v-.078Zm9.824 27.048c-.517.156-1.034.545-1.404.467-.96-.233-2.142-.545-2.806-1.247-.96-1.013.812-2.494 2.88-2.026.96.234 1.773 1.091 2.66 1.637l-1.257 1.091-.073.078Zm-2.733-49.419c.37-.546.812-1.091 1.182-1.637l1.034 1.169-1.182 1.013-1.034-.545Zm8.124-17.461c-3.619 1.559-7.312 2.885-10.93 4.521-4.876 2.183-11.67-1.714-11.597-6.937 0-2.416.37-4.755.665-7.171 0-.468.739-.936 1.108-1.325.517.312 1.181.467 1.403.935 4.506 7.717 12.113 5.534 18.687 6.626.738.156 1.33 1.403 1.994 2.104-.443.39-.813.936-1.33 1.17v.077Zm12.335-116.61c-.37.468-.812 1.014-1.33 1.092-1.107.156-2.215 0-3.397 0-1.625 0-3.176-.156-4.8-.312v.312h-.37s0 .545-.148.779c-.221 1.091-.59 2.105-2.142 1.559-.443-.156-.59-1.559-.886-2.494h-.37v-.312c-5.687 0-11.226.624-16.323-3.819-1.846-1.637-5.982 0-8.42-1.248-3.766-1.948-4.579-7.716-9.306-9.197-.665-.234 4.801-4.443 6.352-3.352 2.807 2.026 5.244 2.26 7.755-.156 1.034-1.013 1.551-.312 2.807.39 3.915 2.104 2.142 8.106 6.721 9.821 3.62 1.403 6.87 3.975 10.193 6.08.222.156.222.857.222 1.481h.295c0 .078 0 .234.074.312l3.176.156v-.312h.37c.073-1.871 1.255-3.118 2.88-3.118 2.142 0 4.653-.857 6.425 1.247.222.234.296.858.148 1.091h.074Zm-29.47 258.554c-.222 2.728-1.625 3.975-4.21 3.273-1.699-.467-2.88-1.714-2.438-3.741.222-1.013.887-1.949 1.33-2.884.443.312.886.623 1.403.935 1.33.858 2.585 1.637 3.915 2.417v-.156l.295.311-.295-.155Zm20.164-18.474s-.739-.702-.887-1.169c-.073-.234.296-.702.517-1.014.37 0 .813-.156 1.034 0 .887.78.591 1.559-.664 2.183Zm13.738-32.738s-.517.078-.813.078h-.886c-1.108-.156-2.142-.234-3.25-.546-.443-.156-1.256-1.013-1.182-1.091.443-.78 1.034-2.027 1.699-2.105a13.244 13.244 0 0 1 4.949.234c.886.234 1.551 1.247 2.289 1.949-.96.545-1.846 1.091-2.806 1.559v-.078Zm42.765-344.14c-.517.156-1.035.468-1.552.623a3.681 3.681 0 0 1-1.551.312c-.738-.078-1.329-1.247-2.068-2.026 1.182-.312 2.216-.936 3.25-.78.369 0 .665.39.96.702.296.312.591.857.961 1.169Zm.443-14.576c-1.921.233-2.068-1.014-2.142-2.339-.148 0-.296-.156-.37-.234l.37-.39v.546c.812.39 1.625.702 2.363 1.17.148 0 0 1.169-.147 1.169l-.074.078Zm15.141-2.417c-1.846-.311-2.954-1.247-2.881-3.351-.295-2.183.887-3.118 2.733-3.43 1.847-.312 3.176.623 3.693 2.416.665 2.494-1.181 4.755-3.545 4.365Zm127.408 476.34c-1.624-.858-1.477-1.715.222-2.183.222 0 .665.78 1.034 1.17-.443.311-1.034 1.091-1.256.935v.078Zm261.834 30.711c.591.468.739 1.481 1.034 2.339.148 0 .295.078.443.156l-.295.311s-.074-.311-.148-.467c-.812-.312-1.773-.546-2.216-1.169-.591-.936.296-1.871 1.182-1.17Zm-203.115 1.637c-5.835-.156-11.596-.545-17.357-1.091-.517 0-.886-1.637-1.256-2.65h-.443v-.39c-1.034 0-2.068-.078-3.102-.156 0 .156 0 .234-.074.39h-.517c-.369.779-.738 1.637-1.182 2.338-.073.156-1.107-.156-1.107-.234-.074-1.948 1.107-2.026 2.289-2.104 0-.156.148-.234.222-.39h.443c.295-.935.517-2.26.96-2.338 1.92-.39 2.142 1.013 2.142 2.494h.369s.074.234.148.312c2.585-.312 5.613.701 6.869-3.196.369-1.247.591-4.755 2.881-2.183 2.88 3.118 6.795 1.248 9.675 3.352.739.546 1.108 2.105.96 3.118-.147 1.013-1.181 2.728-1.772 2.728h-.148Zm11.005-30.789c-.96 2.026-.812 5.3-3.988 4.988-1.551-.155-3.102-1.948-4.653-1.948-3.029 0-5.761 1.481-8.937-1.403-1.773-1.637-5.688-.702-8.568-.78-5.909-.234-11.818 0-17.579-.701-6.647-.858-13.738 1.481-19.868-2.884 6.204-3.196 12.704 0 16.618-.858 4.727.156 7.091.312 9.381.39 3.545.078 7.09.701 10.561.156 3.324-.468 6.426-2.728 9.75-3.04 3.102-.234 5.761-2.728 8.051-2.494 2.437.233 4.727 2.884 7.903 3.195 3.619.39 3.545.858 1.329 5.379Zm42.396 24.943c-.517-.078-1.034-1.871-1.034-2.884 0-3.274 2.511-3.196 4.727-3.274.443 0 .812.702 1.255 1.091.517 1.793-2.88 5.457-4.948 5.067Zm30.061 9.899v-.233c-.96.389-1.921.701-2.807 1.169-.96.468-2.29 1.793-2.659 1.481-1.403-1.013-2.659-2.339-3.545-3.898-.886-1.558 1.92-5.456 4.727-6.002 1.256-.233 3.471.858 4.136 2.105.739 1.325.222 3.352.222 5.145l.295-.156-.295.312-.074.077Zm36.413-8.652c-1.108 1.014-2.733 1.403-4.136 2.027l.147.312s-.221 0-.295.078c-.369.935-.591 2.026-1.182 2.494-.96.624-1.846-.39-1.182-1.403.444-.624 1.551-.78 2.438-1.091 0-.078 0-.234.148-.312h.073c-.96-2.494-1.994-4.911-2.954-7.327h-.517v-.234c-3.915 1.559-7.238 5.3-12.039 2.962-1.477-.702-1.699-1.403-.813-2.572 3.693-4.677 6.205-5.457 11.596-3.274.517.234.739 1.169.961 2.104 0 .234.147.468.221.702.148 0 .296-.156.369-.156l.148.39c2.068 0 4.136 0 6.204.234 1.034.078 1.995.701 3.029 1.091-.665 1.325-1.108 2.962-2.142 3.897l-.074.078Zm-13.147-14.42c.443-.702 1.108-2.105 1.329-2.105 1.477.39 2.881 1.17 4.284 1.793l-2.733 1.559-2.88-1.247Zm14.624 5.144c-2.216.78-4.505-.389-4.875-2.806-.147-.935.296-2.26.887-3.04.221-.311 1.92.156 2.511.702 1.182 1.169 1.994 2.65 2.954 4.053-.591.39-.96.858-1.477 1.091Zm-2.363-14.576c-3.989 0-8.568-.779-11.892 1.014-3.398 1.792-7.091.857-9.823 2.65-3.25 2.026-6.278 3.196-9.824 2.572-3.988-.701-6.721 1.481-9.232 4.209-3.102 3.43-5.983 2.65-9.159 0-.591-.467-3.324 2.105-4.136 1.637-2.437-1.481-5.096-3.352-4.875-7.015 0-1.013.813-2.728 1.477-2.884 2.216-.468 4.58-.234 6.869-.468 1.625-.234 3.25-.857 4.875-1.325-1.255-2.728-3.693-1.949-5.761-2.183h-1.034c-4.875-.623-8.346.39-12.261 2.651-4.874 2.884-10.636 4.365-16.692 3.585-6.426-.779-12.926-.701-19.351-1.091-1.551-.078-3.767 0-3.324-2.183.295-1.481 2.29-2.65 3.619-3.897.443-.39 1.034-.857 1.477-.857 8.125.156 16.249 1.247 23.931-2.884 8.346 1.636 15.584-3.04 23.34-4.599.96-.234 2.437-1.014 2.88-.624 4.136 4.053 6.943-2.494 11.079-1.247 4.358 1.325 9.307.623 14.034 1.013 1.107.078 2.437.39 3.176 1.169 2.142 2.417 3.693 1.014 5.835-.078 2.658-1.403 5.613-1.247 8.272.546.96.624 1.846 1.481 2.733 2.183 2.511-4.288 5.982 1.169 8.789-.858.665-.468 2.437-.545 2.733-.156 1.034 1.559 1.034 3.352-.37 4.911-2.068 2.183-4.062 4.287-7.385 4.287v-.078Zm9.897 25.333c-.739.936-1.477.702-2.068-.779 0-.156.664-.78 1.108-.936.221-.078.664.312.96.546 0 .39.147.935 0 1.169Zm12.851-16.836a3.306 3.306 0 0 1 1.404.857c.295.312.517.857.738 1.247-1.181.546-2.289 1.169-3.397 1.793-1.108.624-2.216 1.247-3.398 1.793-2.29 1.013-4.727 1.637-7.46 1.013-.517-.078-1.034-.546-1.403-.935-.295-.312-.443-.78-.665-1.17 4.653-1.792 8.568-6.079 14.181-4.598Zm634.453-99.228s.08.234.15.39c1.26.155 2.51.311 2.14 2.338 0 .156-1.1.312-1.18.156-.37-.78-.66-1.637-.96-2.494h-.44l.29-.39Zm31.39-46.457s.67.312 1.04.468v1.091l-2.14-.624c.37-.311.74-.701 1.18-.857l-.08-.078Zm-43.72 85.821c-1.77.311-3.25.779-4.65.779-.15 0-.37-.312-.52-.701-.22-.39-.37-.936-.59-1.248.44-.156.96-.389 1.48-.623.51-.156.96-.312 1.4-.234.89.156 1.62 1.091 2.88 2.027Zm1.77-54.408s.08-.234.08-.39l.37.39h-.45c-.29 2.572-1.84 3.741-4.28 3.196-.67-.156-1.11-1.403-1.55-2.183 0 0 .81-.935 1.25-1.013 1.55-.078 3.11 0 4.66 0h-.08Zm83.09-175.071s-.51-.624-.81-.935c.96-.702 1.85-1.17 2.29.779-.37.156-.96.156-1.48.156Zm-1.25-5.924c2.95.546-.52 1.559-1.85 1.169.3-.857.89-1.559 1.7-2.104 1.18.155 2.59.077 3.55.467-.52 2.261-1.7-.156-3.4.468Zm-3.62-.935c.66-1.715 2.07 0 1.7-2.105 2.14-.468 2.51.312 3.91-.546-.07 2.651-3.25 2.573-5.61 2.651Zm.15 4.676c.44.234 1.03.39 1.62.546-.66-.078-1.25-.156-1.92-.156 0-.156.15-.234.3-.312v-.078Zm-11.89.624c-.89 1.091.14 2.572 1.33 2.65-1.33-1.481-.82-2.728-.52-3.741 2.21-.234 5.02-1.092 5.54.701-.59.39-.81 1.092-.74 1.949 1.85.468.07-1.637 1.26-1.559.73-.156 1.84 0 1.92-.702-1.11-1.013-2 1.014-2.59-.623 1.77.156 1.77-.935 3.4-.935 0 1.091.81 1.325 1.18 2.026-.89 0-1.85.312-2.66 1.091a9.303 9.303 0 0 1-2.36 1.637c-2.51 1.248-5.17 1.092-7.31-.389-.37-.234-.67-.39-1.04-.624-.07-.312-.22-.546-.81-.624.74-.311 2.36-2.104 3.4-.935v.078Zm-63.01 46.457c3.18-1.247 6.73-1.793 10.27-2.416-1.85 4.443-7.31 4.676-10.27 2.416Zm-57.39-197.91c.45.156.89.234 1.33.312.15.234.3.546.3 1.013-1.26-.234-2.95 0-3.1-1.636.51.077.96.233 1.47.311Zm42.7 29.776c1.77-.233 3.32-.156 3.61 1.481-1.18-.935-1.62.546-3.39.39.66-1.013-.15-.546-.22-1.871Zm4.28 3.274-.22-1.871c1.84-.623 2.14 2.027.22 1.871Zm-26.15-31.569c-.66.312-1.1.78-.96 1.325-1.1-.935-.81-.701-1.7-2.182.89-.39 2.44-.234 3.62-.39-.29.39-.59.78-.88 1.17l-.08.077Zm-5.31-2.338c-1.41.078-.89 1.87-2.37.78.37-1.248 3.25-1.716 3.4 0-.81.233-.96-.234-1.11-.858l.08.078Zm-7.24 84.184s-.67 0-.96-.312h.07s.59.156.89.312Zm6.28-3.898s.14-.078.22-.078h-.22v.078ZM911.204 37.217c0-1.014.813-2.65 1.404-2.729 3.323-.312 6.721-.468 10.045-.234.664 0 1.477 1.56 1.92 2.573.295.545.074 1.403-.222 2.104-2.806 0-6.204.156-4.505-2.26-1.625 1.559-5.835 2.806-5.761.078-1.477.467-.148 2.104-.739 2.416-.664-.468-1.329-.857-2.068-1.091 0-.312-.074-.624-.074-.858Zm54.14 13.952s.665.702.96 1.091l-.591 1.014-.591-.468-.812-.857c.369-.312.738-.858 1.034-.78Zm1.994-8.262c-1.108.233-2.29 0-1.625 0-4.653 0-7.534.078-9.528-2.65-.665-.936-1.92-1.95-1.92-2.885 0-2.104 1.772-2.338 3.397-2.104 3.841.545 8.125-.546 10.932 3.585.591.936 1.181 1.949 1.772 2.884-1.034.468-1.994 1.092-3.102 1.247l.074-.077Zm1.403-20.267s0-.312.148-.546c.148-.155.296-.39.369-.623h.591c.222 0 .37 0 .517.078.887.78.665 1.637-.665 2.26-.147 0-.738-.701-.96-1.247v.078Zm-5.391 0s-.148.312-.222.39c-2.511 1.403-5.096 2.806-7.681 3.975-.961.39-2.585.546-3.324 0-.517-.39-1.034-.935-1.551-1.325 4.431-.312 8.789-1.091 12.851-2.962l-.073-.078Zm101.11 131.966c.45.701 1.11.857 1.63.935h-1.48c0-.234-.22-.467-.15-.857v-.078Zm-8.64 14.654c-.88-1.169-1.99-1.403-3.25-1.091-.15-.234-.22-.468-.29-.78 1.18-.467 2.73-.078 4.21-1.013.74.312 1.18 1.013 1.25 2.183-.88 0-.96.701-1.92.701Zm6.21-1.715c-.08 1.092-2.51.702-2.88.312.37-.701.14-1.871 1.77-1.637-.59.78-.22 1.481 1.11 1.247v.078Zm-3.55-.545h-.96c-.74-.936 1.18-2.027-.29-2.183-.37.702-.52 1.559-1.78 1.637-.14-2.027-2.21.546-3.39-.468v-.078c1.69-2.26 5.61-2.494 9.01-2.416 0-.546.44-.78.88-1.013.52-1.559-1.11-2.027-1.11-2.651.23-.078.45-.156.67-.156.44.39.44.312.89-.233h.44c.74.935 1.92 1.325 3.54 1.169.37.312.74.779 1.11 1.247-.22.078-.37.234-.59.624.52.467 1.77 0 1.63 1.247-2.29.467.59.078.14 1.403l-2.95.312c0 1.247.96 1.481 1.77 1.792-.44 0-.81.078-1.25.156-3.47-1.715-7.46-4.287-7.68-.156l-.08-.233Zm15.29 8.028c-.22 1.637-1.62.702-2.44.312 0-1.091 2.14-.546 2.44-.312Zm-3.32 1.325c1.18-.234 1.33.78 2.06 1.092-.51-.078-1.1-.156-1.62-.312-.15 0-.22-.156-.37-.234 0-.156-.07-.312 0-.546h-.07Zm7.16-1.792c-.44.311-.74.155-.96-.234 1.63 0 3.25.078 4.88-.234 1.4.701 3.17.312 3.61 1.871.74 0 1.11-.312 1.41-.624-.15.546-.3 1.013-.59 1.325-.08.078-.22.156-.37.234v-.468c-1.63 0-3.7-1.091-2.37.78.15-.78 1.11 0 1.78.078-1.33.857-2.81 1.013-4.51.935-.59-.623-1.4-1.169-1.77-1.403-.44.702-.15 1.091.37 1.403h-1.26c-.29-.701 0-2.027.22-2.338-1.62.857-2.8 1.169-3.54 1.948-.67-.078-1.4-.233-2.14-.389 1.84-1.325 3.91-1.949 5.02-2.962l.22.078Zm8.42-2.417s-.22-.156-.29-.234c.22-.234.29-.311.36-.467 0 .156-.14.389-.07.701Zm-1.18.39s.37.546 0 .701c-.22 0-.44-.078-.67-.155.23-.156.45-.312.67-.546Zm53.47 47.158c-.73-.623-1.55-1.013-2.36-1.325 1.18.312 2.95-.078 3.99.39-.37.468-.96.702-1.63.935Zm3.92-6.391c1.25-1.559 2.66-.78 5.24-1.637-.15 2.65-2.95.857-5.24 1.637Zm14.47 8.028c-3.1-1.247-1.55-1.637-4.8-2.65 2.81-.546 5.03-.468 4.8 2.65Zm-2.21-9.12c-1.48 0-2.29 1.559-2.96-.078-.59.156-.29.936-.29 1.481-1.48-.233-1.55-.233-2.96.39-.29-1.715.45-2.728 1.56-3.507-1.85 0-3.18-.234-5.1-1.248-1.33.624.89 1.17-.22 1.949-1.48.234-2-.701-3.1-1.013 1.55-.936 3.62-2.884 4.8-1.092 1.18-.233 1.55-2.104 2.43-.311 0-1.17 1.33-1.403 2.29-1.871 1.04.935 2 1.871 2.96 2.962.37.39.74.701 1.18.935-.07.312-.15.624-.07.858-1.33-1.092-2.66-2.105-4.73-2.183 1.11 1.871 3.4 2.339 5.39 3.04-.15 1.091-2.29.624-1.03-.312h-.15Zm-11.01-4.677c-.07-1.169 1.56-1.091 2.81-1.325.67 1.637-1.85.936-2.81 1.325Zm13.59-19.642c1.26 0 2.52.311 3.77.389.59 1.637-1.99 1.092-2.21 2.183-1.7-.234-.23-1.013-1.19-1.715-.07.078-.22.156-.37.234v-1.091Zm7.98 9.743c.08 1.169-1.62.312-1.92.234.59.935.37 1.013.74 2.26h-.22c-.52-.233-.96-.467-1.48-.779.22-.624 0-1.481-.07-2.26 1.55.155 1.33-1.014 2.88-.858.22.78-.67 1.325.15 1.403h-.08Zm-3.99 1.169c-.74-.467-1.4-1.091-1.99-1.792 1.25-.546 1.33.467 2.44.155-.08.546-.37 1.092-.45 1.637Zm-3.91-6.859v-.78c.81.156 1.55.234 2.14.156-.59.624-1.33.624-2.14.624Zm-17.65 7.483c0 .546.14 1.091.29 1.559-.52-.312-1.11-.468-1.7-.702.3-.311.81-.623 1.41-.857Zm10.48 6.859-1.7.234c-.22-.623 0-.935.37-1.169.45.312.89.624 1.33 1.013v-.078Zm25.85-20.812c.15.78-.44 1.014-.22 1.871 1.33-.546 1.78-3.04 3.7-1.871-2.29.78.29 2.417-2.22 1.715.67 1.481 3.03.858 3.77 2.339 0 1.013-2.07.467-2.88.857 0-1.403-1.26-1.247-1.33-2.65-.82 1.091-1.48 2.26-3.1 2.728-.52-2.494 2.36-2.416 0-4.209.51-.468 1.25-.78 2.36-.78h-.08Zm-4.65 2.495c0-.624 1.18-.546 1.92-.702-.59 1.637-.44 2.105-.52 3.352-1.77.701-1.69-.78-2.58-1.091 0-.702 2.95-1.092 1.26-1.559h-.08Zm-1.62 10.211c-.45 0-.96.156-1.41.389-.14-.779-.51-1.636.22-1.714.08.623.89.311 1.11.779.08.156 0 .312.08.546Zm-.74-9.354c.29 1.169-1.85.624-1.18 2.027-.96 0-.3-2.105-2.15-1.17 2 1.014-.14 1.715-.96.156.67-1.715 2.74-1.715 4.29-1.013Zm-3.1-1.013c.51-1.403.29-.546-1.04-.312 0-1.013 1.11-1.169 2.29-1.247l.15 1.403-1.48.156h.08Zm2.73-9.354c0 .468-.08 1.013-.08 1.481h-.22c.15.779 0 1.403-.22 1.871-1.55-1.014-3.4-2.651-4.58-2.728 1.63-.234 3.4 0 5.1-.624Zm-15.07 11.302v.156h-.22s.15-.078.22-.156Zm-10.27-.389c-.36-1.715 2.44 0 2.66-2.261.59.312 2.51 3.04 2.59.624.74.156 1.33.545 2.07.701-.3 1.871-3.33 1.715-4.58 2.962.37-1.793-2.59-1.247-5.62-1.169.23-.39.45-.857.3-1.481 1.48-.624 1.62.546 2.58.624Zm-2.29-2.495c.23 1.559-1.77 1.481-2.14 2.651-1.1-.546.22-1.17-.81-2.261 1.11.857 1.33-.39 2.95-.39Zm-2.95 3.664c-.66 0-1.4.078-1.4.623-1.78-.701 1.33-3.429 1.4-.623Zm.44 11.224c-.66 1.325-2.29-.701-2.66-1.559 1.41-.156 1.63 1.248 2.66 1.559Zm-4.65-1.247c-.81 1.014.07 1.169.3 2.339-1.55.233-1.85-.936-2.22-2.105l1.92-.234Zm-2.95.39c1.77.779-1.11 1.637-1.7 2.105 1.47 1.481 4.36-2.105 4.13 1.325 1.19 0 .96-1.014 2.37-.78 1.25-.312-.74-.701-.22-1.871 1.77 1.326 2.51 1.715 5.53.702.52 0 1.04.156 1.48.312-.29.156-.66.312-.88.623.73 0 1.4-.156 1.99-.311 1.48.389 2.81.935 4.06 1.714-2.21.39-4.8.156-6.5-.857-.59.156-.29.935-.29 1.481-5.32-.624-8.42 1.013-12.04-1.247-.81-2.183 1.62-1.871 2.07-3.118v-.078Zm-6.28 1.247 2.44-.312c.66 1.17.73 1.949.44 3.274-1.48.39-1.85-.623-3.47 0-.45-1.403.44-1.871.59-2.884v-.078Zm-3.18 2.261c.59 0 .52.779.67 1.325-1.11.311-1.92.156-2.51-.156-.15-1.715 1.92-.234 1.84-1.169Zm-1.77-14.343c.89 1.014-1.48 1.559-1.4.624-1.33.623.88 1.169-.23 1.948-1.03-.233-1.47-1.091-1.77-2.104l3.4-.39v-.078Zm-3.99 0c.15.858-1.33 3.43-.22 2.339 1.33.233-.81 1.559-1.4.623-.3-1.013-.08-1.793.73-1.948-.59-.702-1.4-.936-1.99-.234 0 .701.07 1.325.67 1.325 0 1.247-4.58-.624-2.07-.702-.45-.935-2.59.312-1.78 1.637-.44-.234-.88-.39-1.55-.312-.44-2.728.74-1.013.52-3.819 2.36-.468 4.36.546 7.02 1.013l.07.078Zm-5.91-3.507c.22.701-.37.857-.29 1.481-1.26.467-1.11-.78-2.07-.702-.22-1.013 1.7-.39 2.36-.779Zm-13-9.276s0 .389-.07.467c-.15-.389-.3-.779-.52-1.091.22 0 .37.156.59.624Zm-12.77-9.666c-2.89-.078-5.84-.39-8.72-.467 3.47-.624 6.94-.78 8.72.467Zm-6.73-11.38c.45-.312.74-.702.45-1.637.29.623.66 1.169.96 1.637h-1.48.07Zm38.93-9.588c-.22-1.013.22-1.559 1.25-1.559-3.17.156-1.92 1.014-5.68 1.637 0-.857-.74-.935-.74-1.793 2.44.546 4.28-1.948 6.72-1.247.07 1.481 0 2.806-1.55 3.04v-.078Zm2.88-.779c-1.18-.234-.81-2.806.66-2.417.89 1.637-1.25 1.014-.66 2.417Zm2.51-30.946c-1.92-3.507-10.56 1.248-14.33-.623-.22-1.247.52-1.715 1.33-1.091-.15-.39-.52-.39-.59-.858-1.11 1.871-6.35 3.82-8.12 1.481-2.22 1.949-4.73.78-7.76.936 0-.936 1.18-1.092 1.26-2.027.44.935 2.21 1.091 2.95.078-.22-.78-.96-.936-2.07-.702 1.7-1.403 4.65-.779 7.68-1.403-.51.702-.07.78.15 1.403.81-1.013 1.92-.545 2.44.156 2.07-2.26 11.74 0 10.12-5.456 3.76-.078 4.95-.312 8.49-2.417.74.702 2.07.702 2.66 1.559.37-1.559 3.1-2.104 5.61-1.87l.3.389c.74 1.014-.81 4.132-2.22 4.365-1.7.312-3.54.078-5.24.468-.15 0-.3.156-.37.234h-.07v.078c-.67.39-1.33.935-1.92 1.403a66.071 66.071 0 0 0 2.06 2.962c-.44.624-.66.78-2.43 1.013l.07-.078Zm65.81.312c.07 1.481-2.96 1.481-2.96-.078 1.19-.234 2.29-.389 2.96.078Zm-13.59-4.365h-.22.22Zm-19.28 8.185c-.44-1.949 1.63-1.481 2.81-1.325.66 1.636-1.85.935-2.81 1.325Zm9.38.156c-.52-2.105 2.07-1.559 3.25-1.404.59 1.715-2.21.858-3.25 1.404Zm5.84-.312c-2.44-.546-2-1.715-3.84-3.274 1.47-.546 1.1 1.169 2.51.624.74-.234-.52-.78.37-1.014-2.66-2.104-3.84 2.261-6.72.858-.45-.702 2.14-1.014 1.92-.234 1.32-1.793-4.66-.78-1.85-3.04-.89 0-.96.701-1.85.701.3.312.59.702.67 1.325-1.7 0-3.77-.701-3.77 1.404-.37-.234-.59-.39-.89-.468.74-.546 1.48-1.169 2.15-2.027 1.03-1.169 2.14-2.104 3.47-2.728v.312c.29.623 4.65-1.793 4.13 1.325 1.19-2.183 2.59-1.169 3.4-2.183.89 0 1.77.156 2.66.156-.15.078-.3.156-.37.312 1.55.156 2.66 1.013 3.69 1.871.3-.312-.14-1.325 0-2.183h2.96c.81.468 1.48 1.092 2.29 1.481-.96 1.092-2.81 1.559-3.55 2.806-1.03.39-1.03-.545-1.18-1.247-2.81 1.637-2.95.858-6.72 1.325.66 1.871 1.48 1.715.52 3.742v.156Zm2.51.623c-.37-.935-.08-1.481 0-2.026.22 0 .37-.078.59-.312.59.857.66 2.338 2.29 1.949.29 2.104-2.22.467-2.88.389Zm1.55-3.04c1.77-.935 1.11 1.17 2.51.624.37 1.247-2.73 1.793-2.51-.624Zm5.1 1.715c-.6.78-1.78 1.247-3.25 1.403.66-.779 2.06-2.182 3.25-1.403Zm.73 16.915c-.29 1.715-4.8 1.559-5.39.234 2.22-.624 3.4.078 5.39-.234Zm1.41 6.859c-.89-.311-1.26-1.325-1.33-2.65l-.96.156c-.67.312.29.546.22 1.403-.96 0-1.03-1.169-2.51-.624 0-.545.88-.467.81-1.091-.59-.935-1.48 1.325-3.32.936 1.77-2.573 4.8-2.261 6.64-1.793-1.1 1.871 1.26 2.494.52 3.741l-.07-.078Zm0-3.351c-.08-2.884 3.76-1.17 3.54.935-1.18-.312-1.55-1.715-3.54-.935Zm1.77-5.379c0-1.169 1.18-2.104 2.29-1.247.74 1.481-1.4.935-2.29 1.247Zm2.66 5.301c2.21.389 2.66-.468 5.32-.702-.96 1.481-4.66 3.508-5.32.702Zm1.18-2.027c-.07-.468-.66-.312-1.03-.312.74-1.559 1.77-1.559 1.55-3.04 1.03-.39 1.03.546 1.18 1.247 1.03-.623 1.33-1.792 3.18-1.87 1.77 3.897 4.87-.858 6.2 2.026.37-.156.44-.545.89-.623-.3-.702-1.56-.234-1.19-1.715 2.81-.468 1.92 3.507 4.66 1.715-4.21 2.884-10.27 0-15.44 2.494v.078Zm10.93-6.626c-1.84-1.792-7.46 2.105-8.79.702 2.14-2.339 6.65-1.013 8.5-2.494-.67 1.013.14.623.22 1.87l.07-.078Zm-9.08-1.636c1.03-1.17-.74-2.027.07-2.885 1.26-.311 2.29 3.43-.07 2.885Zm19.72.233c-1.48 1.17-3.55 1.871-3.92 3.82 1.85-.702 2.22-2.572 5.03-2.572-.15.701-.52 1.247-.74 1.948-1.11.39-1.18-.701-2.51-.078 1.99 1.949-4.29 2.884-6.21 1.325.22-1.714 1.4-.467 2.81-.857.66-.156 0-1.403.81-1.481-.22-1.013-2.07 0-2.95-.078-1.48-.624 0-1.871-1.7-1.637 0-1.013 2.14-.234 2.51.156.89-1.949 3.25-1.715 4.06-2.884 1.48.156 1.11 2.572 2.81 2.416v-.078Zm-2-28.996c.45.311 1.19.311 2 .156l.22 1.87c-1.85.702-1.7-1.091-2.22-2.026Zm.82 20.188c-2.44.546-2-3.04.66-2.416.22 1.169 0 1.949-.66 2.416Zm10.26-21.747c-.29 3.663-5.76 3.507-8.34 3.585-.45-1.948 1.33-2.416 1.99-3.585 2.95.468 4.58-.234 6.35 0Zm-20.09-25.022c.52-1.325 2.66-.155 2.59 1.092-1.85.857-1.33-1.17-2.59-1.091Zm-2.58 53.629c1.11-2.495 5.68-1.793 5.32-4.443 1.25.623 2.95.623 4.5.857.44-1.325 2.81-2.65 4.14-2.027-1.55 3.118-4.58 3.352-6.5 6.548-1.48-.234-2.81 0-3.4.468-.74-.624 1.85-2.261 3.62-2.339-2.14-2.104-5.91 1.403-8.13 2.027-.51-1.403-.22-1.871-.81-2.261.44-1.481 2.14.78 1.18 1.248l.08-.078Zm-1.55-.702.22 1.403c-2.88.468-3.25-2.26-.22-1.403Zm-1.7-9.198c.81.468-1.78.234-3.33.936-.44-2.339 2.37-1.403 3.33-.936ZM1049.25 44.31c.66-.234 1.4-.468 2.07-.702.66-.234 1.4-.39 2.14-.545.29 0 .74 1.325 1.11 2.104-.96.312-1.92.702-2.96 1.013l-2.44-1.87h.08Zm-18.24 14.498c.22-1.559 1.4-1.403 2.65-.234 1.7 1.715 3.92 3.196 6.13 1.403 2.52-1.87 5.1-2.572 8.13-2.416 4.06.234 9.01 1.559 12.11-.312 4.06-2.494 6.21-.624 9.09.935 5.02 2.729 9.97 6.86 15.8 1.637 3.11 2.884 5.91 0 8.87-.311 4.5-.39 9.38-1.248 13.59 1.714.66.468.81 2.26.66 3.274-.22 1.56-1.11 1.87-2.21 1.481-1.41-.468-2.07-3.43-4.21-1.247-2.15 2.105-4.29 4.21-6.58 6.08-.59 0-1.25-.156-2.07-.156 0 .857.59.935 1.19.935-2.81 2.26-5.91 4.132-9.46 5.223-2.29-2.806-3.91-2.494-5.39-1.17-2.14.546-4.65 1.17-2.95-1.169-1.41.078-.96 1.56-2.22 1.715l-.22-1.87c1.03 0 4.73-.312 2.73-1.248-.74 1.403-3.1.312-3.91 0-.52.702-3.33 1.403-5.17.78.59-.312 1.25-.624 1.84-.858.74-.311 1.33-.857 2-1.403.22.546.22 1.17-.15 1.637 2.44-.078.07-1.403 1.18-2.026.81.857 1.7 1.793 2.44.156-.59-.546-2.59-1.014-4.88-1.092-.37-.234-.74-.467-1.18-.623-2.88-1.092-5.32.311-7.83 1.403h-2.07c-1.69-1.871-3.02-1.403-4.28-.234-.66-.39-1.18-1.013-1.48-2.105-1.25.546-3.76.624-4.5-.857-1.55-.156-.81 1.403-2.29 1.247-2.88-.701-2.44-2.572-3.99-5.144.37 2.572-3.62 2.572-5.17 1.558 0-.623.81-.545.89-1.013-1.26-1.013-1.85.702-2.66 1.013-.45-.233-.89-.545-1.26-.779-.59-1.091 2.66-.78.89-1.325-1.26 1.013-2-.312-2.74.156-.07 0-.14-.078-.22-.156-.96-.702-1.25-3.196-1.03-4.755l-.07.156ZM779.734 480.74s-.665-.702-.813-1.091c-.074-.234.296-.624.443-.858.37 0 .813-.156 1.108 0 .813.624.591 1.403-.664 1.949h-.074ZM642.428 21.16c.295-.39.739-.858 1.034-1.248.222.468.517.857.812 1.325.296.468.518.858.591 1.325.296 1.949-1.181 3.664-2.142 2.728-.59-.623-1.034-1.948-.886-2.806.074-.468.369-.857.665-1.325h-.074ZM539.246 485.572c-.739.857-1.478.623-2.068-.702 0-.156.664-.779 1.107-.857.296-.078.665.311.961.545 0 .39.147.858 0 1.092v-.078Zm30.873 1.792c-3.176-3.507-7.386-3.195-11.522-3.507-4.062-.312-5.983-3.352-7.165-7.016-.147-.545-.147-1.325.074-1.87.591-1.637 1.404-1.637 2.585-1.014 3.398 1.871 6.722 4.132 10.341 5.223 3.397 1.013 5.17 1.481 6.13 2.182.96.702 1.182 1.715 1.33 3.664-.591.779-1.256 1.559-1.847 2.338h.074Zm7.903-3.585-1.625-1.325c.369-.39.813-.78 1.182-1.17l1.034 1.326-.591 1.169Zm30.283-.546c-1.404.936-2.955 2.105-4.506 2.183-3.471.234-6.943-.156-11.522-.312-2.29-.702-7.829 2.65-8.863-3.352-.813-4.755 4.284-6.625 6.943-9.587 1.034-1.17 1.846-.936 2.954-.312 2.659 1.403 3.324 7.015 7.903 4.209 3.324-2.027 4.136 3.741 7.312 2.65.443-.156 2.068 1.559 1.994 1.793-.443 1.091-1.255 2.105-2.141 2.728h-.074Zm172.906 16.603c-4.284 1.559-8.051 5.145-13 3.352-4.357-.156-5.613-2.183-4.874-7.327.295-2.183 1.477-3.274 3.25-3.508 1.698-.234 3.619-.312 5.17.234 1.551.546 2.733 2.494 4.21 2.728 1.329.156 2.511-2.728 4.358-1.247 1.329 1.091 2.289 2.728 3.397 4.131-.812.546-1.551 1.325-2.511 1.715v-.078Zm183.542 11.38c-.296.936-.591 2.027-1.182 2.417-.96.624-1.846-.39-1.182-1.403.444-.624 1.478-.78 2.364-1.014 0-.155.074-.233.148-.389l.221.234s-.221 0-.369.078v.077Zm6.278-23.618s-.591.702-.96.858c-3.176 1.247-6.426 3.118-9.676 3.196-4.062.155-7.755.857-11.227 3.04-4.8-5.301-6.499 1.714-9.675 2.806-1.034.389-1.847 0-2.142-1.559-1.108-5.846.665-8.419 5.761-8.419 2.954 0 5.835.546 8.715.312 2.068-.156 5.097-2.572 5.835-1.793 3.25 3.196 5.097-.779 7.534-1.013 1.182-.078 2.364 0 3.471.078 1.034.468 2.069.935 3.103 1.325-.296.312-.517.78-.813 1.169h.074Zm24.448 1.247c-.517.234-1.034.468-1.551.546-1.108.234-2.29 0-5.318-.156.147 0-1.551-.156-3.176-.623-1.773-.468-1.625-1.248-.37-2.651 2.438-2.806 3.324-3.04 6.648-1.169.96.546 2.142.702 3.102 1.247.369.234.738.546 1.108.936l1.034 1.091c-.517.234-1.034.468-1.477.701v.078Zm70.761-68.048s-.74-1.325-1.11-2.105c.96-.311 1.99-1.013 2.88-.857.89.156 1.7 1.091 2.95 2.027-1.84.389-3.25.779-4.72.857v.078Zm21.27.234-1.48-1.169s.37-.39.59-.546c.22-.156.37-.312.52-.312.37 0 .59.702.96 1.091l-.59 1.014v-.078Zm63.22-146.23c0 .545 0 1.247.22 1.87l-.14-.156c-1.7.468-2.22 1.793-3.7 2.339-1.33-1.247-3.84-.936-6.28-1.014 1.04-.077 1.93-.467 1.63-2.182 0-.156-1.03-.312-1.11-.156-.44.78-.74 1.559-1.03 2.416-.81 0-1.63-.311-2.37-.623-2.58-1.169-4.43-1.091-7.53.39-.52.233-1.18 0-1.7.155h-.15c0-.545-.14-1.091-.66-1.169 0 1.325-1.4.702-2.22 2.183-1.03-1.559-3.62-1.325-4.43-3.274 1.33-.702 4.88-1.949 3.1-3.586 1.92-.311 3.92-.701 5.77-1.169 5.53-1.403 11.67 0 17.57.312 1.78.156 2.88 1.559 3.11 3.741l-.08-.077Zm15.66-21.046c-1.25.078-.96-1.715-2.22-1.637.74-1.559 3.55.467 2.22 1.637Zm6.87-.936c-1.63-.156-4.14.702-4.58-.779 4.21.234 2.73-1.715 4.65-2.495.45 1.403-.66 1.793 0 3.274h-.07Zm16.62-6.392-.22-1.403c1.03 0 1.55-.311 1.33-1.091 1.03-.312 1.33.156 1.99.234 0 .546-.81.546-1.4.624-.89.311.22 2.104-1.78 1.636h.08Zm10.04.546c-1.25.546-1.1-.779-2.07-.701-1.1.389.67.623-.29 1.481-.44-.234-.89-.39-1.55-.234.29-.468.37-1.092.22-1.949-1.85 1.247-.52 1.793-3.4.935-.07-1.169 1.55-1.169 2.81-1.325-.44-.389-.96-.623-1.63-.701 1.11-1.637 2.29 1.091 4.51-.078-.59 1.559 1.48.39 3.03.078 1.18.545-.45 1.247.66 1.325.37 1.247-2.73 0-2.36 1.247l.07-.078Zm4.51-.078c-1.7 0-.52-1.793-.37-2.806l2.95-.39c-.59 1.248-1.4 2.339-2.58 3.196Zm13.51 0c-.36.858-1.99.78-2.8 1.325-1.18-1.559 2.8-1.559 1.18-2.026-.07-1.17 1.62-.39 1.99-.312-.22.468-1.25.857-.37 1.013Z" fill="#F2F2F2"/></svg>