<svg width="21" height="20" fill="none" xmlns="http://www.w3.org/2000/svg"><path fill-rule="evenodd" clip-rule="evenodd" d="M2.856.638a2.181 2.181 0 0 1 3.263.204l2.243 2.882a2.18 2.18 0 0 1 .394 1.868l-.684 2.737a.848.848 0 0 0 .223.804l3.071 3.072a.847.847 0 0 0 .805.222l2.737-.684a2.18 2.18 0 0 1 1.867.394l2.883 2.243a2.18 2.18 0 0 1 .204 3.263l-1.293 1.293c-.925.925-2.307 1.331-3.596.878a23.294 23.294 0 0 1-8.763-5.526A23.294 23.294 0 0 1 .685 5.527C.232 4.239.638 2.855 1.563 1.93L2.856.638Z" fill="#F2F2F2"/></svg>