<svg width="426" height="432" fill="none" xmlns="http://www.w3.org/2000/svg"><g opacity=".9"><path d="M198.07 413.619c-51.948-3.181-99.224-26.709-133.14-66.255C31.012 307.818 14.527 257 18.51 204.253c3.98-52.747 27.949-101.087 67.495-136.134 39.546-35.048 89.923-52.595 141.87-49.414 51.948 3.181 99.225 26.71 133.141 66.255 33.916 39.546 50.401 90.364 46.42 143.111-3.981 52.747-27.949 101.087-67.495 136.134-39.547 35.048-89.924 52.595-141.871 49.414Zm-.219 2.907c108.976 6.674 204.096-77.625 212.448-188.28 8.351-110.654-73.227-205.774-182.204-212.448C119.118 9.124 23.998 93.423 15.647 204.078 7.295 314.732 88.874 409.852 197.85 416.526Z" fill="#D7C09A" opacity=".2"/><path d="M203.019 347.967c-71.57-4.38-125.333-67.075-119.845-139.752 5.489-72.677 68.183-128.244 139.752-123.863 71.57 4.38 125.333 67.074 119.845 139.752-5.489 72.677-68.183 128.243-139.752 123.863Zm-.22 2.907c73.258 4.484 137.215-52.188 142.834-126.595S296.419 85.929 223.146 81.445C149.873 76.96 85.931 133.633 80.312 208.04c-5.62 74.407 49.214 138.349 122.487 142.834Z" fill="#D7C09A" opacity=".2"/><path d="m327.079 20.364-26.827 78.81 81.715-15.916-54.888-62.894Z" fill="#D7C09A"/><path d="m274.666 52.07 22.847 25.822 11.049-32.665-33.896 6.843Z" stroke="#D7C09A" stroke-width="1.5" stroke-miterlimit="10"/></g></svg>