<svg width="105" height="650" fill="none" xmlns="http://www.w3.org/2000/svg"><path opacity=".5" fill-rule="evenodd" clip-rule="evenodd" d="m13.18 25.611.004-.011c1.732-5.802 3.988-10.59 6.818-14.284l.964-1.259L38.05 17.76l-1.41 1.982c-2.216 3.116-4.076 6.82-5.563 11.134-1.4 4.349-2.097 8.719-2.097 13.117 0 3.41.321 6.002.894 7.857.662 1.98 1.484 3.206 2.337 3.91.89.731 1.87 1.083 3.019 1.083 1.435 0 2.438-.518 3.222-1.596l.017-.024.018-.023c1.044-1.351 1.94-3.22 2.626-5.692l.007-.025.007-.024c.785-2.57 1.504-5.44 2.153-8.617l.006-.026.006-.026a126.83 126.83 0 0 1 2.682-9.723l.004-.013c1.072-3.291 2.455-6.332 4.155-9.114 1.774-2.902 4.117-5.284 7.01-7.132l.017-.011.017-.01c3.04-1.859 6.805-2.714 11.163-2.714 4.778 0 9.156 1.28 13.083 3.846l.008.005c4.04 2.665 7.16 6.583 9.413 11.628 2.35 5.175 3.476 11.527 3.476 18.971 0 4.999-.606 9.924-1.816 14.771-1.145 4.876-2.909 9.227-5.314 13.028l-.894 1.414-17.197-6.99 1.134-1.985c1.977-3.46 3.41-6.893 4.314-10.3l.005-.02.005-.017c.98-3.43 1.463-6.765 1.463-10.01 0-3.313-.39-5.88-1.088-7.782-.727-1.983-1.6-3.16-2.483-3.798l-.022-.016-.022-.016c-.871-.666-1.903-1.019-3.185-1.019-1.33 0-2.363.496-3.24 1.62-.984 1.361-1.846 3.24-2.533 5.715a209.91 209.91 0 0 0-2.178 8.604c-.743 3.268-1.597 6.5-2.563 9.694-.998 3.377-2.349 6.47-4.06 9.27a20.96 20.96 0 0 1-7.026 7.033c-3.04 1.936-6.772 2.834-11.07 2.834-4.725 0-9.074-1.329-12.997-3.971-3.962-2.668-7.073-6.618-9.392-11.716-2.357-5.111-3.481-11.47-3.481-18.983 0-6.337.83-12.425 2.497-18.26l.003-.01Zm2.8 36.421c2.2 4.84 5.096 8.47 8.69 10.89 3.593 2.42 7.553 3.63 11.88 3.63 4.033 0 7.37-.843 10.01-2.53a18.962 18.962 0 0 0 6.38-6.38c1.613-2.64 2.897-5.573 3.85-8.8a141.101 141.101 0 0 0 2.53-9.57c.733-3.153 1.466-6.05 2.2-8.69.733-2.64 1.686-4.767 2.86-6.38 1.246-1.613 2.86-2.42 4.84-2.42 1.686 0 3.153.477 4.4 1.43 1.32.953 2.383 2.53 3.19 4.73.806 2.2 1.21 5.023 1.21 8.47 0 3.447-.513 6.967-1.54 10.56-.797 3.005-1.979 6.009-3.545 9.014a52.183 52.183 0 0 1-.965 1.766l13.53 5.5c2.273-3.593 3.96-7.737 5.06-12.43a58.737 58.737 0 0 0 1.76-14.3c0-7.26-1.1-13.31-3.3-18.15-2.127-4.767-5.023-8.36-8.69-10.78-3.593-2.347-7.59-3.52-11.99-3.52-4.107 0-7.48.807-10.12 2.42-2.64 1.687-4.767 3.85-6.38 6.49-1.614 2.64-2.934 5.537-3.96 8.69a124.886 124.886 0 0 0-2.64 9.57c-.66 3.227-1.394 6.16-2.2 8.8-.733 2.64-1.724 4.767-2.97 6.38-1.173 1.613-2.787 2.42-4.84 2.42a6.557 6.557 0 0 1-4.29-1.54c-1.247-1.027-2.237-2.64-2.97-4.84-.66-2.127-.99-4.95-.99-8.47 0-4.62.733-9.203 2.2-13.75 1.285-3.734 2.852-7.06 4.7-9.976.365-.577.742-1.138 1.13-1.684l-13.42-6.05c-2.64 3.447-4.803 7.993-6.49 13.64-1.614 5.647-2.42 11.55-2.42 17.71 0 7.333 1.1 13.383 3.3 18.15ZM12 101.604h62.48v-24.64H93v71.1H74.48v-24.64H12v-21.82Zm64.48 19.82v24.64H91v-67.1H76.48v24.64H14v17.82h62.48ZM12 138.584l81 36.103v20.195L12 231.1v-23.121l16.5-6.835v-33.023L12 161.26v-22.676Zm18.5 28.203v35.693L14 209.315v18.7l77-34.43v-17.6l-77-34.32v18.26l16.5 6.862Zm42.999 17.881-29.47-12.255v24.463l29.47-12.208Zm-27.47 9.214 22.253-9.217-22.252-9.254v18.471ZM12 234.004h81v17.687l-43.118 35.333H93v21.6H12v-17.575l43.15-35.445H12v-21.6Zm48.736 19.6L14 291.994v14.63h77v-17.6H44.285L91 250.744v-14.74H14v17.6h46.736ZM12 322.842h81v36.98c0 8.617-1.664 16.302-5.051 23.004-3.308 6.689-7.988 11.96-14.035 15.759-6.088 3.825-13.253 5.697-21.414 5.697-8.093 0-15.252-1.874-21.404-5.691l-.01-.006c-6.046-3.798-10.76-9.066-14.14-15.751l-.005-.008-.004-.008c-3.312-6.7-4.937-14.382-4.937-22.996v-36.98Zm74.16 59.09c3.227-6.38 4.84-13.75 4.84-22.11v-34.98H14v34.98c0 8.36 1.576 15.73 4.73 22.11 3.226 6.38 7.7 11.367 13.42 14.96 5.793 3.593 12.577 5.39 20.35 5.39 7.846 0 14.63-1.797 20.35-5.39 5.72-3.593 10.157-8.58 13.31-14.96Zm-45.305-2.609.014.008c3.238 1.916 7.091 2.911 11.63 2.911 4.621 0 8.465-.998 11.617-2.902l.02-.013.022-.012c3.24-1.851 5.717-4.486 7.453-7.958l.01-.02.011-.021c1.798-3.396 2.738-7.498 2.738-12.374v-14.28H30.63v14.28c0 4.884.906 8.994 2.639 12.395 1.81 3.483 4.329 6.125 7.573 7.978l.013.008ZM28.63 342.662h47.74v16.28c0 5.133-.99 9.57-2.97 13.31-1.907 3.813-4.657 6.747-8.25 8.8-3.52 2.127-7.737 3.19-12.65 3.19-4.84 0-9.057-1.063-12.65-3.19-3.593-2.053-6.38-4.987-8.36-8.8-1.907-3.74-2.86-8.177-2.86-13.31v-16.28ZM12 401.445l81 36.103v20.195l-81 36.219V470.84l16.5-6.835v-33.022L12 424.121v-22.676Zm18.5 28.203v35.694L14 472.177v18.7l77-34.43v-17.6l-77-34.32v18.26l16.5 6.861Zm42.999 17.882-29.47-12.255v24.462L73.5 447.53Zm-27.47 9.214 22.253-9.218-22.252-9.254v18.472ZM12 496.865h81v35.33c0 7.103-1.17 13.336-3.584 18.639-2.342 5.302-5.773 9.466-10.306 12.409-4.554 2.956-9.933 4.392-16.05 4.392-6.047 0-11.388-1.439-15.938-4.392l-.007-.005-.007-.004c-3.874-2.56-6.94-6.04-9.212-10.383L12 570.897v-24.133l21.45-14.778v-13.301H12v-21.82Zm23.45 19.82v15.51c0 .281.003.56.006.838L14 547.815v19.25l24.684-17.201.066.151c.254.576.52 1.137.8 1.683 2.141 4.178 5.028 7.467 8.66 9.867 4.18 2.714 9.13 4.07 14.85 4.07 5.793 0 10.78-1.356 14.96-4.07 4.18-2.713 7.37-6.563 9.57-11.55 2.273-4.986 3.41-10.926 3.41-17.82v-33.33H14v17.82h21.45Zm14.19 0v14.52c0 5.5 1.174 9.607 3.52 12.32 2.42 2.714 5.72 4.07 9.9 4.07 4.254 0 7.554-1.356 9.9-4.07 2.347-2.713 3.52-6.82 3.52-12.32v-14.52H49.64Zm24.84 2H51.64v12.52c0 5.257 1.128 8.801 3.025 11.002 1.98 2.214 4.699 3.388 8.396 3.388 3.791 0 6.492-1.186 8.387-3.378 1.902-2.199 3.033-5.746 3.033-11.012v-12.52ZM12 592.63h62.48v-24.64H93v71.1H74.48v-24.64H12v-21.82Zm64.48 19.82v24.64H91v-67.1H76.48v24.64H14v17.82h62.48Z" fill="#F2F2F2"/></svg>