<svg width="81" height="626" fill="none" xmlns="http://www.w3.org/2000/svg"><path opacity=".5" d="M3.1 14.172 1.184 13.6l-.004.011-.003.012 1.923.55ZM9.59.532l.822-1.823-1.446-.652-.964 1.259L9.59.532Zm13.42 6.05 1.63 1.16 1.41-1.983-2.218-1-.822 1.823Zm-5.83 11.66-1.891-.65-.006.018-.006.018 1.903.614Zm-1.21 22.22-1.91.593.006.02.007.02 1.897-.633Zm2.97 4.84 1.271-1.544-1.271 1.544Zm9.13-.88L26.487 43.2l-.017.023-.017.024 1.617 1.176Zm2.97-6.38-1.913-.584-.007.024-.007.025 1.927.535Zm2.2-8.8-1.948-.453-.006.026-.005.026 1.959.401Zm2.64-9.57-1.902-.619-.004.013 1.906.606Zm3.96-8.69L38.133 9.94l1.707 1.043Zm6.38-6.49-1.043-1.706-.017.01-.017.01 1.077 1.686Zm22.11 1.1 1.102-1.67-.008-.004-1.094 1.674Zm8.69 10.78-1.826.815.005.013 1.821-.828Zm1.54 32.45-1.94-.485-.004.014-.003.015 1.947.456Zm-5.06 12.43-.753 1.853 1.55.63.893-1.414-1.69-1.069Zm-13.53-5.5-1.736-.992-1.134 1.984 2.117.86.753-1.852Zm4.51-10.78-1.923-.55-.005.019-.005.018 1.933.513Zm.33-19.03 1.878-.688-1.878.688Zm-3.19-4.73-1.215 1.589.022.017.022.015 1.171-1.62Zm-9.24.99-1.583-1.223-.017.023-.017.024 1.617 1.176Zm-2.86 6.38-1.927-.535 1.927.535Zm-2.2 8.69-1.948-.453-.002.01 1.95.443Zm-2.53 9.57-1.914-.579-.004.013 1.918.566Zm-3.85 8.8 1.707 1.043-1.707-1.043Zm-6.38 6.38-1.043-1.706-.017.01-.017.01 1.077 1.686Zm-21.89-1.1-1.117 1.659 1.117-1.659Zm-8.69-10.89 1.82-.827-.004-.011-1.816.838Zm-1.3-18.15c0-5.983.783-11.701 2.343-17.16l-3.846-1.1C-.49 19.458-1.32 25.546-1.32 31.883h4Zm2.336-17.137c1.64-5.492 3.712-9.798 6.162-12.997L8.002-.684C5.172 3.011 2.917 7.798 1.184 13.6l3.832 1.145Zm3.752-12.39 13.42 6.05 1.644-3.646-13.42-6.05-1.644 3.646ZM21.38 5.423c-2.474 3.48-4.499 7.543-6.091 12.168l3.782 1.302c1.488-4.322 3.35-8.031 5.569-11.152l-3.26-2.318Zm-6.103 12.205c-1.529 4.738-2.297 9.529-2.297 14.364h4c0-4.404.698-8.78 2.103-13.136l-3.806-1.228ZM12.98 31.992c0 3.619.336 6.666 1.08 9.063l3.82-1.186c-.576-1.856-.9-4.456-.9-7.877h-4Zm1.093 9.103c.803 2.409 1.959 4.403 3.596 5.751l2.542-3.088c-.856-.705-1.68-1.938-2.344-3.928l-3.794 1.265Zm3.596 5.751a8.555 8.555 0 0 0 5.561 1.996v-4c-1.149 0-2.13-.352-3.019-1.084l-2.542 3.088Zm5.561 1.996c2.671 0 4.895-1.095 6.457-3.243l-3.235-2.353c-.784 1.078-1.786 1.596-3.222 1.596v4Zm6.423-3.197c1.449-1.875 2.534-4.259 3.314-7.068l-3.854-1.07c-.686 2.471-1.581 4.34-2.626 5.692l3.166 2.446Zm3.3-7.018c.828-2.711 1.576-5.707 2.246-8.984l-3.918-.802c-.65 3.176-1.369 6.047-2.154 8.617l3.826 1.169Zm2.235-8.932c.72-3.1 1.587-6.238 2.598-9.416l-3.812-1.213a126.797 126.797 0 0 0-2.682 9.723l3.896.906Zm2.594-9.404c.982-3.015 2.238-5.768 3.765-8.266l-3.414-2.086c-1.7 2.783-3.083 5.823-4.155 9.114l3.804 1.238Zm3.765-8.266c1.452-2.377 3.363-4.322 5.75-5.847l-2.154-3.371c-2.892 1.848-5.236 4.23-7.01 7.132l3.414 2.086Zm5.716-5.826c2.239-1.369 5.221-2.127 9.077-2.127v-4c-4.357 0-8.122.855-11.163 2.714l2.086 3.413Zm9.077-2.127c4.022 0 7.637 1.066 10.896 3.195l2.188-3.35C65.496 1.354 61.118.073 56.34.073v4Zm10.888 3.19c3.293 2.173 5.965 5.44 7.966 9.925l3.653-1.63c-2.253-5.048-5.375-8.967-9.415-11.634L67.228 7.26ZM75.2 17.2c2.047 4.503 3.121 10.25 3.121 17.322h4c0-7.447-1.126-13.8-3.48-18.977L75.2 17.2Zm3.121 17.322c0 4.677-.567 9.28-1.7 13.815l3.88.97a60.74 60.74 0 0 0 1.82-14.785h-4Zm-1.707 13.844c-1.056 4.505-2.664 8.435-4.803 11.817l3.38 2.138c2.408-3.805 4.173-8.16 5.317-13.042l-3.894-.913Zm-2.36 11.033-13.53-5.5-1.506 3.706 13.53 5.5 1.506-3.706Zm-12.547-2.655c2.13-3.727 3.705-7.48 4.707-11.259l-3.866-1.026c-.904 3.408-2.337 6.841-4.313 10.3l3.472 1.985Zm4.697-11.222c1.073-3.758 1.617-7.462 1.617-11.11h-4c0 3.246-.483 6.581-1.463 10.01l3.846 1.1Zm1.617-11.11c0-3.581-.416-6.66-1.332-9.158l-3.756 1.377c.697 1.901 1.088 4.47 1.088 7.781h4Zm-1.332-9.158c-.887-2.418-2.14-4.395-3.897-5.663l-2.342 3.242c.884.639 1.756 1.815 2.483 3.798l3.756-1.377Zm-3.853-5.63c-1.622-1.241-3.524-1.842-5.615-1.842v4c1.282 0 2.314.353 3.185 1.019l2.43-3.178Zm-5.615-1.842c-2.62 0-4.81 1.11-6.423 3.197l3.166 2.446c.88-1.14 1.918-1.643 3.257-1.643v-4Zm-6.457 3.244c-1.356 1.864-2.395 4.23-3.17 7.02l3.854 1.071c.692-2.49 1.56-4.376 2.55-5.739l-3.234-2.352Zm-3.17 7.02a214.223 214.223 0 0 0-2.221 8.773l3.896.906c.728-3.13 1.454-6 2.179-8.608l-3.854-1.07ZM45.37 36.83a139.186 139.186 0 0 1-2.494 9.434l3.828 1.158a143.224 143.224 0 0 0 2.566-9.706l-3.9-.886Zm-2.498 9.447c-.908 3.073-2.124 5.844-3.639 8.323l3.414 2.086c1.711-2.801 3.063-5.897 4.061-9.276l-3.836-1.133Zm-3.639 8.323a16.962 16.962 0 0 1-5.716 5.717l2.086 3.413a20.963 20.963 0 0 0 7.044-7.044L39.233 54.6Zm-5.75 5.738c-2.238 1.43-5.173 2.215-8.933 2.215v4c4.307 0 8.045-.9 11.087-2.845l-2.154-3.37Zm-8.933 2.215c-3.928 0-7.5-1.09-10.763-3.289l-2.234 3.318c3.923 2.642 8.272 3.971 12.997 3.971v-4Zm-10.763-3.289c-3.223-2.17-5.905-5.479-7.986-10.058L2.159 50.86c2.319 5.1 5.43 9.052 9.394 11.721l2.234-3.318ZM5.796 49.194c-2.04-4.421-3.116-10.16-3.116-17.312h-4c0 7.515 1.125 13.876 3.484 18.988l3.632-1.676ZM2 91.604v-2H0v2h2Zm62.48 0v2h2v-2h-2Zm0-24.64v-2h-2v2h2Zm14.52 0h2v-2h-2v2Zm0 67.1v2h2v-2h-2Zm-14.52 0h-2v2h2v-2Zm0-24.64h2v-2h-2v2Zm-62.48 0H0v2h2v-2Zm0-15.82h62.48v-4H2v4Zm64.48-2v-24.64h-4v24.64h4Zm-2-22.64H79v-4H64.48v4Zm12.52-2v67.1h4v-67.1h-4Zm2 65.1H64.48v4H79v-4Zm-12.52 2v-24.64h-4v24.64h4Zm-2-26.64H2v4h62.48v-4Zm-60.48 2v-17.82H0v17.82h4Zm-2 20.241.814-1.826L0 126.584v3.081h2Zm77 34.32h2v-1.298l-1.186-.529-.814 1.827Zm0 17.6.816 1.826 1.184-.529v-1.297h-2Zm-77 34.43H0v3.085l2.816-1.259L2 216.015Zm0-18.7-.765-1.847-1.235.511v1.336h2Zm67.98-28.16h2v-2.993l-2.765 1.146.765 1.847Zm0 7.04-.768 1.847 2.768 1.151v-2.998h-2ZM2 147.925H0v1.335l1.232.512.768-1.847Zm16.5-1.1.66-1.888-2.66-.93v2.818h2Zm13.53 4.73h2v-1.419l-1.34-.469-.66 1.888Zm0 39.6.674 1.883 1.326-.474v-1.409h-2Zm-13.53 4.84h-2v2.84l2.674-.957-.674-1.883ZM1.186 131.492l77 34.32 1.628-3.654-77-34.319-1.628 3.653ZM77 163.985v17.6h4v-17.6h-4Zm1.184 15.774-77 34.43 1.632 3.652 77-34.43-1.632-3.652ZM4 216.015v-18.7H0v18.7h4Zm-1.235-16.852 67.98-28.16-1.53-3.695-67.98 28.16 1.53 3.695Zm65.215-30.008v7.04h4v-7.04h-4Zm2.768 5.194-67.98-28.27-1.536 3.693 67.98 28.27 1.536-3.693ZM4 147.925v-18.26H0v18.26h4Zm13.84.788 13.53 4.73 1.32-3.776-13.53-4.73-1.32 3.776Zm12.19 2.842v39.6h4v-39.6h-4Zm1.326 37.717-13.53 4.84 1.348 3.766 13.53-4.84-1.348-3.766ZM20.5 195.995v-49.17h-4v49.17h4ZM2 224.004v-2H0v2h2Zm77 0h2v-2h-2v2Zm0 14.74 1.268 1.547.732-.6v-.947h-2Zm-55.44 45.43h-2v4.225l3.268-2.678-1.268-1.547Zm0-7.15v-2h-2v2h2Zm55.44 0h2v-2h-2v2Zm0 17.6v2h2v-2h-2Zm-77 0H0v2h2v-2Zm0-14.63-1.27-1.545-.73.6v.945h2Zm55.44-45.54h2v-4.231l-3.27 2.686 1.27 1.545Zm0 7.15v2h2v-2h-2Zm-55.44 0H0v2h2v-2Zm0-15.6h77v-4H2v4Zm75-2v14.74h4v-14.74h-4Zm.732 13.193-55.44 45.43 2.536 3.094 55.44-45.43-2.536-3.094ZM25.56 284.174v-7.15h-4v7.15h4Zm-2-5.15H79v-4H23.56v4Zm53.44-2v17.6h4v-17.6h-4Zm2 15.6H2v4h77v-4Zm-75 2v-14.63H0v14.63h4Zm-.73-13.085 55.44-45.54-2.54-3.09-55.44 45.54 2.54 3.09Zm52.17-47.085v7.15h4v-7.15h-4Zm2 5.15H2v4h55.44v-4Zm-53.44 2v-17.6H0v17.6h4Zm-2 71.238v-2H0v2h2Zm77 0h2v-2h-2v2Zm-4.84 57.09-1.785-.903-.004.008-.004.009 1.793.886Zm-13.31 14.96-1.064-1.694 1.064 1.694Zm-40.7 0-1.064 1.693.01.006 1.054-1.699Zm-13.42-14.96-1.793.886.004.008.004.009 1.785-.903Zm9.9-39.27v-2h-2v2h2Zm2.86 29.59-1.782.908.004.007.003.007 1.775-.922Zm8.36 8.8 1.019-1.721-.014-.008-.013-.008-.992 1.737Zm25.3 0-.992-1.737-.021.012-.021.013 1.034 1.712Zm8.25-8.8-1.768-.936-.01.021-.01.02 1.788.895Zm2.97-29.59h2v-2h-2v2ZM2 314.842h77v-4H2v4Zm75-2v34.98h4v-34.98h-4Zm0 34.98c0 8.099-1.562 15.151-4.625 21.207l3.57 1.806c3.39-6.704 5.055-14.393 5.055-23.013h-4Zm-4.633 21.224c-2.999 6.067-7.19 10.766-12.58 14.152l2.127 3.387c6.05-3.8 10.731-9.074 14.039-15.767l-3.586-1.772Zm-12.58 14.152c-5.353 3.363-11.755 5.084-19.287 5.084v4c8.161 0 15.327-1.872 21.414-5.697l-2.128-3.387ZM40.5 388.282c-7.454 0-13.862-1.719-19.296-5.09l-2.108 3.399c6.152 3.817 13.312 5.691 21.404 5.691v-4Zm-19.286-5.084c-5.394-3.388-9.627-8.093-12.7-14.169l-3.569 1.806c3.38 6.684 8.095 11.952 14.141 15.75l2.128-3.387ZM8.523 369.046C5.528 362.986 4 355.928 4 347.822H0c0 8.614 1.626 16.296 4.937 22.996l3.586-1.772ZM4 347.822v-34.98H0v34.98h4Zm10.63-17.16v16.28h4v-16.28h-4Zm0 16.28c0 5.38 1 10.141 3.078 14.218l3.564-1.816c-1.735-3.403-2.642-7.515-2.642-12.402h-4Zm3.085 14.232c2.15 4.14 5.202 7.363 9.143 9.614l1.984-3.473c-3.246-1.855-5.767-4.499-7.577-7.985l-3.55 1.844Zm9.116 9.599c3.948 2.337 8.528 3.469 13.669 3.469v-4c-4.54 0-8.393-.994-11.631-2.911l-2.038 3.442Zm13.669 3.469c5.206 0 9.796-1.129 13.684-3.478l-2.068-3.424c-3.152 1.904-6.996 2.902-11.616 2.902v4Zm13.642-3.454c3.947-2.255 6.97-5.486 9.047-9.642l-3.578-1.789c-1.736 3.472-4.214 6.107-7.453 7.958l1.984 3.473Zm9.026-9.6c2.161-4.084 3.202-8.855 3.202-14.246h-4c0 4.876-.94 8.978-2.738 12.374l3.536 1.872Zm3.202-14.246v-16.28h-4v16.28h4Zm-2-18.28H16.63v4h47.74v-4ZM2 392.527l.814-1.827L0 389.445v3.082h2Zm77 34.32h2v-1.299l-1.186-.528-.814 1.827Zm0 17.6.816 1.825 1.184-.529v-1.296h-2Zm-77 34.43H0v3.085l2.816-1.26L2 478.877Zm0-18.7-.765-1.848L0 458.84v1.337h2Zm67.98-28.16h2v-2.994l-2.765 1.146.765 1.848Zm0 7.04-.768 1.846 2.768 1.151v-2.997h-2ZM2 410.787H0v1.334l1.232.512.768-1.846Zm16.5-1.1.66-1.888-2.66-.93v2.818h2Zm13.53 4.73h2v-1.42l-1.34-.468-.66 1.888Zm0 39.6.674 1.883 1.326-.475v-1.408h-2Zm-13.53 4.84h-2v2.839l2.674-.956-.674-1.883ZM1.186 394.353l77 34.32 1.628-3.653-77-34.32-1.628 3.653ZM77 426.847v17.6h4v-17.6h-4Zm1.184 15.774-77 34.43 1.632 3.651 77-34.43-1.632-3.651ZM4 478.877v-18.7H0v18.7h4Zm-1.235-16.853 67.98-28.16-1.53-3.695-67.98 28.16 1.53 3.695Zm65.215-30.007v7.04h4v-7.04h-4Zm2.768 5.193-67.98-28.27-1.536 3.693 67.98 28.27 1.536-3.693ZM4 410.787v-18.26H0v18.26h4Zm13.84.788 13.53 4.73 1.32-3.776-13.53-4.73-1.32 3.776Zm12.19 2.842v39.6h4v-39.6h-4Zm1.326 37.716-13.53 4.84 1.348 3.767 13.53-4.84-1.348-3.767ZM20.5 458.857v-49.17h-4v49.17h4ZM2 486.865v-2H0v2h2Zm77 0h2v-2h-2v2Zm-3.41 51.15-1.82-.829-.005.011-.005.011 1.83.807Zm-9.57 11.55-1.089-1.677 1.089 1.677Zm-29.81 0-1.102 1.669.006.004.007.005 1.089-1.678Zm-9.46-11.55-1.83.808 1.83-.808Zm-3.3-41.25 1.424-1.404-3.424-3.472v4.876h2Zm7.81 7.92v2h4.781l-3.357-3.404-1.424 1.404Zm-29.26 0H0v2h2v-2Zm0 31.13-1.135-1.647-.865.597v1.05h2Zm27.94-19.25h2v-3.806l-3.135 2.159 1.135 1.647Zm0 19.03 1.143 1.641.857-.597v-1.044h-2ZM2 555.065H0v3.832l3.143-2.191L2 555.065Zm27.28-50.38-1.376-1.452-3.643 3.452h5.019v-2Zm8.36-7.92h2v-4.649l-3.376 3.197 1.376 1.452Zm3.52 34.76-1.513 1.309.01.011.01.012 1.493-1.332Zm23.32-34.76 1.366-1.461-3.366-3.147v4.608h2Zm8.47 7.92v2h5.067l-3.701-3.461-1.366 1.461ZM2 488.865h77v-4H2v4Zm75-2v33.33h4v-33.33h-4Zm0 33.33c0 6.679-1.102 12.323-3.23 16.991l3.64 1.659c2.418-5.305 3.59-11.542 3.59-18.65h-4Zm-3.24 17.013c-2.058 4.665-5.006 8.198-8.829 10.68l2.178 3.355c4.537-2.945 7.97-7.112 10.31-12.42l-3.659-1.615Zm-8.829 10.68c-3.806 2.47-8.4 3.747-13.871 3.747v4c6.116 0 11.495-1.436 16.049-4.392l-2.178-3.355Zm-13.871 3.747c-5.392 0-9.951-1.274-13.761-3.747l-2.178 3.355c4.55 2.953 9.891 4.392 15.939 4.392v-4Zm-13.748-3.738c-3.752-2.48-6.67-6.014-8.732-10.689l-3.66 1.615c2.338 5.298 5.727 9.464 10.188 12.411l2.205-3.337Zm-8.732-10.689c-2.062-4.674-3.13-10.326-3.13-17.013h-4c0 7.101 1.132 13.329 3.47 18.628l3.66-1.615Zm-3.13-17.013v-23.43h-4v23.43h4Zm-3.424-22.025 7.81 7.92 2.848-2.809-7.81-7.92-2.848 2.809Zm9.234 4.515H2v4h29.26v-4Zm-27.26 2v-17.82H0v17.82h4Zm-.865 32.777 27.94-19.25-2.27-3.294-27.94 19.25 2.27 3.294Zm24.805-20.897v19.03h4v-19.03h-4Zm.857 17.389-27.94 19.47 2.286 3.282 27.94-19.47-2.286-3.282ZM4 555.065v-19.25H0v19.25h4Zm26.655-48.928 8.36-7.92-2.75-2.904-8.36 7.92 2.75 2.904Zm4.985-9.372v22.44h4v-22.44h-4Zm0 22.44c0 5.735 1.216 10.401 4.007 13.629l3.026-2.617c-1.902-2.199-3.033-5.746-3.033-11.012h-4Zm4.027 13.652c2.858 3.204 6.737 4.738 11.393 4.738v-4c-3.704 0-6.425-1.179-8.407-3.401l-2.986 2.663Zm11.393 4.738c4.715 0 8.615-1.526 11.413-4.761l-3.026-2.617c-1.895 2.192-4.596 3.378-8.387 3.378v4Zm11.413-4.761c2.79-3.228 4.007-7.894 4.007-13.629h-4c0 5.266-1.13 8.813-3.033 11.012l3.026 2.617Zm4.007-13.629v-22.44h-4v22.44h4Zm-3.366-20.979 8.47 7.92 2.732-2.922-8.47-7.92-2.732 2.922Zm9.836 4.459H29.28v4h43.67v-4ZM2 582.63v-2H0v2h2Zm62.48 0v2h2v-2h-2Zm0-24.64v-2h-2v2h2Zm14.52 0h2v-2h-2v2Zm0 67.1v2h2v-2h-2Zm-14.52 0h-2v2h2v-2Zm0-24.64h2v-2h-2v2Zm-62.48 0H0v2h2v-2Zm0-15.82h62.48v-4H2v4Zm64.48-2v-24.64h-4v24.64h4Zm-2-22.64H79v-4H64.48v4Zm12.52-2v67.1h4v-67.1h-4Zm2 65.1H64.48v4H79v-4Zm-12.52 2v-24.64h-4v24.64h4Zm-2-26.64H2v4h62.48v-4Zm-60.48 2v-17.82H0v17.82h4Z" fill="#F2F2F2"/></svg>