<svg width="28" height="29" fill="none" xmlns="http://www.w3.org/2000/svg"><g clip-path="url(#a)"><path fill-rule="evenodd" clip-rule="evenodd" d="M23.073 5.195a1.75 1.75 0 0 1 2.406 1.897l-2.646 16.05c-.257 1.548-1.955 2.436-3.375 1.664-1.188-.645-2.952-1.639-4.539-2.676-.793-.52-3.223-2.182-2.925-3.365.257-1.011 4.34-4.812 6.674-7.072.916-.888.498-1.4-.584-.583-2.686 2.027-6.997 5.11-8.423 5.979-1.258.765-1.913.896-2.697.765-1.43-.238-2.757-.607-3.84-1.056-1.463-.606-1.392-2.618 0-3.203l19.95-8.4Z" fill="#fff"/></g><defs><clipPath id="a"><path fill="#fff" transform="translate(0 .026)" d="M0 0h28v28H0z"/></clipPath></defs></svg>