<svg width="838" height="67" fill="none" xmlns="http://www.w3.org/2000/svg"><path d="M10.032 49.29c1.898 0 4.053-.172 5.592.03 3.13.402 6.722.33 9.646.79 2.258.345 4.72.287 7.03.633 3.13.46 5.079.028 6.72-1.18.77-.574 3.028-.848 5.132-.618.872.101 1.641.302 2.514.302 6.618.03 13.237.058 19.804.015 2.412-.015 4.259-.748 7.03-.547.77-.359 1.539-.733 2.411-1.078.77-.302 2.258-.604 3.13-.388 4.053.934 9.44 0 13.494.834.205.043 1.436-.259 2.052-.446 1.026-.316-.256-.446-.77-.618-.82-.302-2-.388-3.334-.403-1.848-.028-3.746-.043-5.593-.115-.667-.028-.564-.2 0-.373.77-.23.667-.417-.462-.547-.564-.057-1.59-.115-1.59-.187 0-.33.975-.287 1.795-.301 2.771-.072 5.44 0 8.107-.49 3.386-.603 7.286-1.034 11.288-.186.615.13 1.796.072 2.77.072h9.441c2.514 0 5.028.029 7.081-.475 3.488.058 6.31-.675 9.902-.59 3.745.102 7.542.044 11.339.058 4.31.777 9.133.389 13.699.49 2.668.057 4.977 0 6.67-.662 1.026-.403 2.617-.417 4.259-.388 1.18 0 2.36-.015 3.54-.029-.051-.288-.718-.446-1.642-.446-14.161-.029-28.322-.043-42.483-.057-.872 0-1.949.086-2.616.23-1.334.287-2.207.115-3.079-.158-1.077-.345-2.104-.59-3.797-.202-.615.144-1.796.101-2.719.115-5.233.101-10.672-.215-15.649.504-6.31.014-12.57.043-18.881.043-.924 0-2.001-.015-2.668-.158-1.642-.36-3.49-.36-5.387-.346-3.438.03-6.158-.23-7.081-1.293-.154-.158-.77-.273-1.18-.417-.564-.216-.564-.23-2.976-.043-.923.072-1.796.158-2.617-.044-1.18-.301-2-.2-3.078.087-1.334.36-.41.56.308.834.308.129.41.359.256.488-.564.374-1.488.158-2.103 0-.873-.215-1.694-.143-2.617-.086l-6.978.086c-1.231-.258-2.258-.072-3.438.087-1.128.143-3.078-.158-3.437-.547-.36-.36 0-.704 1.693-.762.308 0 .616-.043.872-.086.257-.043.513-.115.667-.187 0-.028-.308-.158-.513-.158-2.463-.057-4.925-.1-7.388-.172-1.078-.03-1.642-.59-3.079-.216-2.103.546-4.977 0-7.131.417-.462.1-1.18.287-1.488.244-1.95-.244-3.797-.532-5.696-.805-1.436.446-2.565.086-4.002-.043-1.436-.144-3.13-.029-4.669-.086-.461 0-.872-.187-1.282-.273.256-.058.461-.144.718-.159 2.668-.23 5.644.116 8.21-.316 2.616-.46 5.54-.144 8.26-.302.615-.028 1.436.043 1.847-.057 3.027-.72 6.619-.417 10.005-.431 11.031-.044 22.062-.044 33.042-.072.718 0 1.847-.058.975-.46-.616-.288-.975-.633-1.077-.978-.154-.417-.77-.633-2.258-.647-2.514 0-5.028 0-7.542-.043-.462 0-1.334-.201-1.283-.288.103-.23.513-.46.872-.675.103-.044.462-.058.77-.072.77-.69 2.925-.56 4.515-.417 1.437.13 2.463.445 3.9-.029.77-.259 1.846-.474 2.975-.604 1.899-.215 1.899-.316 0-.532-1.077-.129-2-.388-2.976-.59l-4.976-.819c-1.848-.258-3.54-.172-5.337.087-1.077.143-2.667.33-3.488.201-2.822-.446-6.003-.345-8.877-.647-.359-.029-.615-.302-.564-.446.051-.143.513-.373.924-.388 1.847-.086 3.694-.1 5.54-.187.616-.028.514-.215-.102-.388-.616-.158-.667-.316-.154-.402 2.412-.403 5.747.244 7.85-.547.924.23 1.899.46 2.822.705 1.026.258 2.31.23 3.54.215 1.694-.028 1.386-.56 2.104-.69 2.566-.488-.872-1.322 1.59-1.797.462-.086.155-.503.103-.762 0-.072-.308-.158-.513-.215-.41-.115-.872-.058-1.18.172-.256.158-.257.403-.616.46-1.334.187-1.23-.172-1.487-.374-.462-.417-1.694-.503-2.925-.503-3.438-.014-6.927 0-10.364 0-1.078 0-1.847-.373-1.745-.79.103-.374.308-.705 1.899-.777 1.026-.043 1.539-.201 1.744-.517.205-.345-.513-.575-2.514-.518-3.335.086-6.978-.402-9.851.46-4.361.058-8.722.173-12.673-.517-.872-.159-1.18-.403-.975-.662.103-.13.821-.316 1.231-.302 1.95 0 3.54-.115 5.183-.46 1.641-.345 3.848.69 5.695-.057 3.18.287 6.721.287 9.697.632 5.541.662 11.031.331 16.572.26.41 0 .924-.418 1.027-.648.154-.244.359-.532-.667-.719l-6.67-.43c-1.335.488-3.335-.504-4.567.157-1.95-.158-3.95-.316-5.9-.488-.257-.03-.462-.116-.667-.173.256-.057.461-.144.718-.173.564-.057 1.18-.1 1.796-.1 1.795 0 3.18 0 1.59-.705-.667-.302.873-.316 1.59-.316 9.134-.014 18.266-.014 27.4-.029 2.513 0 5.027.015 7.541 0 2.514 0 2.258-.302 1.13-.776-.257-.1.871-.417 1.077-.661.872-.906 2.976-1.28 6.208-1.237 1.898.015 3.797.058 5.644.015 4.258-.101 8.722.273 12.776-.46.41-.072 1.693.143 2.411.287a7.641 7.641 0 0 0 2.617.029c1.026-.158.769-.46.359-.69a118.262 118.262 0 0 0-3.181-1.797c3.643-.13 3.797-.173 2.411-1.15-.615-.446.462-.374 1.129-.475 2.104-.33 2.155-.373 1.334-.949-.205-.143-.513-.287-.821-.417.565-.043 1.18-.172 1.693-.129.872.058 2.155.374 2.36.316 2.822-.79 5.08.03 7.543.187.821.043 1.949.388 2.257.317 3.027-.619 7.337-.13 10.159-.877-.41-.705-2.052-1.064-4.464-1.093-2.462-.029-4.771 0-7.234.316-4.464.575-6.106.302-8.055-.79-.513-.288-.411-.46.256-.647 1.129-.317 2.309-.662 3.951-.288 1.334.288 3.027.546 4.258.33 3.13-.546 6.465-.488 9.852-.517.359 0 .667-.201.974-.302-.256-.057-.461-.158-.718-.172-2.463-.058-4.925-.086-7.388-.144-.205 0-.411-.1-.667-.158.256-.058.513-.158.769-.158 3.643-.043 7.389-.36 10.878.259.256.057 1.077-.044 1.436-.13 1.488-.36 2.771-.244 4.156.072 1.18.273 2.617.244 3.027-.144.616-.59 1.129-.59 3.028-.345 2.668.345 2.873.273 4.925-.517.821-.317 1.437-.173 2.104-.015 1.334.317 2.411.848 4.515.288.308-.086 1.334-.1 1.744-.015 4.361.82 9.082.288 13.648.288 2.104-.604 3.848-.144 5.798.13 1.385.186 3.078-.116 4.361-.59.924-.345 1.847-.848 3.079-.92 2.668-.158 5.541.014 8.004-.503.359-.072 1.59.187 2.462.258 1.129.087 2.258.159 3.387.23.154.274.718.475 1.642.49 5.028.129 9.902.028 14.212-.878 1.59-.33 2.822-.072 3.232.475.206.287 1.078.445 2.104.36 1.436-.13 2.822-.317 4.207-.504.821-.1.924-.273.308-.374-1.078-.172-2.206-.302-3.284-.446a249.71 249.71 0 0 1-3.232-.46c.923-.33 2.206-.244 3.437-.258 1.078 0 1.488-.202 2.053-.432 1.847-.762 2.617-.805 3.54-.172 1.745 1.121 5.336 1.351 8.825 1.639.667.057 1.744-.144 2.463-.273.615-.115-.308-.575-1.539-.777-.514-.086-1.18-.13-1.642-.23-.513-.115-.308-.604.256-.675 3.643-.547 7.44-.834 11.544-.561.411.029.668.259.873.402.308.202 0 .389-.719.417a123.71 123.71 0 0 1-4.617.13c-1.078.014-1.95.143-1.899.417 0 .23.513.503 1.078.675 2.309.619 5.028.978 8.312 1.007 3.027.028 6.208-.115 8.927.474.308.058 1.129-.057 1.693-.1-.154-.144-.205-.302-.513-.432-.974-.388-.821-1.064-3.437-1.092-.719 0-1.437-.317-2.155-.49-.205-.057-.513-.2-.513-.215.41-.1.821-.23 1.334-.273 2.36-.244 3.797.403 5.798.489.051-.489-.154-1.05 2.667-.992.616 0 1.488.043 1.796-.043 1.693-.475 3.079-.432 4.413.1.872.345 1.796.36 2.976.072 1.18-.287 2.206-.043 3.283.115 2.566.374 5.131.417 7.799-.043 2.155-.374 4.515-.79 7.286-.273.308.057 1.129-.072 1.59-.158 2.566-.489 5.388-.475 7.85-.058 3.9.662 8.774-.215 12.366.705 1.231-.245 2.411-.518 2.822-.95.615 0 1.18-.014 1.795-.042.462-.015 4.875 0 5.542.014.923 0 1.898 0 2.77-.057.873-.044.975-.187.513-.36-1.026-.36-.974-.56.924-.604 2.668-.071 4.515.504 6.875.676-.359.216-1.18.503-.975.647.565.36 4.105.302 4.875-.029.667-.302 0 .1-.565-.215-.41-.26-.718-.504.462-.547 1.847-.057 3.745 0 5.644 0 1.59 0 3.13 0 4.72-.043 1.796-.043 3.643.1 5.387-.259 1.745-.345 3.079.475 4.977.26.257-.03.667 0 .924-.03.923-.115 1.488-.301 1.385-.589-.308-.978-.359-.978 1.847-.978s4.875.202 6.465-.086c3.027-.532 6.054-.345 9.082-.388 1.487-.014 3.232-.029 4.515.144 1.641.23.615.79.872 1.207.256.374.821.662 1.744.892.359.086.924.13 1.437.158.103 0 .462-.13.462-.201.102-.173 0-.345.102-.532.359-1.309.513-1.337 4.618-.762 1.591.215 3.181.431 4.772.632 0 .072.051.173.205.216 2.36.79 2.565.834 4.772.201 1.898-.546 3.745-.517 5.9-.273 1.129.13 2.771.201 3.284.446 1.282.661 2.565 1.15 5.592 1.05.308 0 .975.23 1.026.373.257.46.924.647 2.207.273 1.847-.517 3.437-1.02 6.208-.33.769.186 3.027.258 3.489.114 2.103-.69 4.258-.23 5.644.044 3.181.632 6.824.718 9.748.359 3.079-.374 6.003-.345 9.082-.374 2.514-.029 5.028 0 7.542-.029.923 0 1.488-.215 1.59-.488 1.848-.015 4.054-.202 5.388.028 3.489.575 7.183.417 10.826.504 1.18.028 2.257.23 3.386.359.872.1 1.847.173 2.514-.058.154-.057-.513-.258-.616-.416-.307-.331-.564-.662-.666-.992 0-.13.564-.274.872-.403.205.072.513.13.564.201.821 1.079 3.438 1.352 6.978 1.265 1.847-.043 3.694.015 5.387-.33.565-.115 1.899-.115 2.514 0 1.694.302 3.848.546 5.234.215 2.103-.517 3.437.274 4.771.101 2.053-.273 3.746-.144 5.747 0s4.31.014 6.465-.043c.872-.029.769-.173.205-.374-.513-.187-1.129-.489-.924-.676.719-.603 1.745-.057 2.668 0 2.668.173 5.747-.115 8.004.561 2.72-.057 5.542.273 8.21-.23.923-.172 2.309-.23 3.489-.23 2.822-.029 5.643 0 8.465 0 4.362-.014 8.312.762 12.776.575.257 0 .564.072.77.13.154.043.308.129.256.158-.154.072-.41.158-.667.172-.769.058-2.155.058-1.898.33.256.274 1.283.72 2.514.547 1.283-.187 1.95-.273 3.078.058.719.215 1.334.647 2.668.474.513-.072.462-.46.616-.719.051-.086-.154-.201 0-.258.308-.101.975-.26 1.129-.23 1.334.23 2.873.546 4.156.129 1.539-.503 2.514.388 3.797.043 1.334-.36 2.052-.058 2.975.173 1.283.345 1.027.79 1.334 1.222.206.273 1.232.388 2.207.316.513-.029 1.026-.187 1.231-.316.205-.159.051-.346.103-.518.154-.56.256-.489 3.489-.906 1.795-.244 3.437-.46 5.182-.144 2.924.532 5.746.619 8.722.058 2.258.13 4.515.56 6.619-.144.205-.057 1.334 0 1.693.086 1.539.417 3.386.389 5.285.374 2.514-.014 5.028 0 7.542 0 1.796 0 2.924.187 3.232.72.103.23.719.287 1.283.172 1.077-.202 2.001-.446 2.411.186.36.576 2.258 1.007 2.053 1.683-.103.359 1.436.503 2.822.316 1.077-.144 2.155-.575 3.232-.36 1.847.389 4.002.403 6.054.59.257.029.411.115.565.172-.513.087-1.078.159-1.591.26-.461.085-1.334.172-1.334.258 0 .36 3.335.891 4.361.704 1.232-.215 2.361-.488 2.72-.92 1.026.144 2.001.33 3.078.403 1.232.086 2.258-.043 2.566-.431 3.181.388 5.438 1.466 9.748 1.063 2.36.748 5.952.317 8.671.705 3.027.431 6.003.862 9.03 1.294 1.078.158 2.207.302 3.233.489.564.1 1.129.115 1.488-.101 1.59-1.02 7.131-.503 8.363-1.725.256-.273 3.848-.26 4.105.043.872.862 3.335.82 5.592 1.02.359.03.308.432.462.662-3.284.158-3.643 1.624-7.902 1.366-.769-.043-.923.158-.513.345.411.172 1.488.388 0 .59a8.823 8.823 0 0 1-.872.042c-2.463-.057-5.233.245-7.234-.258-2.771-.69-4.361.46-6.67.244-.565-.058-1.026-.201-1.54-.302-.564-.115-1.128-.057-1.231.158-.103.144.051.446.359.46 3.181.259 6.619.288 9.646.733 7.286-.172 13.34 1.41 20.728 1.136.257 0 .514.1.821.115 2.976.173 5.285 1.423 9.031.46 1.334.201 3.489.316 3.899.633 1.744 1.207 6.003 1.035 9.133 1.351 3.027.302 6.772-.201 9.8.475 2.257-.892 4.258-.087 6.413.043 1.847.115 4.669-.82 3.592-1.208-2.207-.79-1.386-1.668-1.796-2.516-.103-.259-.77-.417-1.693-.46-.257-.36-1.078-.518-2.412-.532-1.436 0-2.924 0-3.335-.503-2.052-.13-1.796-.575-1.693-1.006.103-.417.975-.604 2.36-.618 1.745-.03 3.079.215 4.002.575.872.33 1.386.761 2.206 1.106.719.288 1.899.532 3.182.374.615-.072.974-.388 1.282-.604.205-.158 0-.373.257-.517.256-.13.821-.245 1.334-.302 1.077-.1 1.949.086 2.052.345.257.618 0 1.28 3.438 1.165a7.79 7.79 0 0 1 1.693.158c5.541 1.006 11.236 1.394 17.496.445.821-.129 2.411.043 3.54.159.821.086 1.539.301 2.206.488 1.334.345 2.822.417 4.054.03 2.155-.677 4.156-1.022 7.029-.245 1.026.287 2.668.417 4.104.575 2.669.273 3.849.776 3.951 1.581.052.575-.667 1.222 1.18 1.754.77.216-.667.388-1.128.56-.719.26-1.488.202-2.207 0-.923-.244-1.642-.517-1.744-.89 0-.073-.565-.188-.565-.188-.41.087-1.026.173-1.077.274-.616 1.423-.359 1.524 4.207 2.228 1.899.287 3.746.604 5.541.934.462.087.667.274 1.027.403-.565.058-1.129.172-1.694.172-1.539.03-3.129 0-4.72.03-2.104.028-2.104.042-2.668 1.063-.513.072-1.231.115-1.334.216-.359.316-.051.747-.718.992-1.283.503-1.591.862.462 1.265 1.231.244 2.206.618 3.283.92-2.411.935.257.776 2.207.877 1.128.058 2.103.345 3.283.446 2.309.2 4.156.762 6.824.66.205 0 .462.102.718.16-.41.1-.769.272-1.18.287-4.053.028-8.106.014-12.16.043-.256 0-.872.273-.769.302.923.345 2.514.632 2.873 1.02.616.662 1.847.82 4.002.762.924-.028 1.898-.014 2.719.072 1.54.173.257.374-.051.56-.256.145-.462.303-.718.447-.924.158-1.796.402-2.771.43-2.77.073-2.924.576-2.924 1.137-2.976.129-5.08-.49-7.44-.805-2.668-.346-4.72-.36-6.619.301-1.026.36-2.36.532-4.104.504-1.847-.03-3.746.043-5.644.043-2.155 0-2.36.373-2.566.862-.256.561-.667.647-1.795.417-2.668-.546-6.414.144-8.774-.647-.205.158-.616.302-.616.46 0 .302.616.446 1.745.49.564.028 1.026.157 1.59.244-.513.086-.923.215-1.488.244-.923.043-1.898.057-2.822.029-2.719-.087-4.566.158-5.643.92-.411.287-2.566.086-2.822-.288-.154-.258 0-.532-.154-.79-.103-.115-.77-.187-1.18-.26-.052 0-.462.116-.616.188-2.001.949-4.053 1.064-5.541.244-1.283-.719-2.822-1.064-5.696-1.064-2.462 0-5.336.273-7.285-.201-2.822-.676-4.567.302-6.876.187-.872-.043-1.795-.086-2.668-.158-.872-.072-1.641-.216-2.514-.273-1.18-.087-1.847.531-3.181.23-1.026-.23-2.411-.202-3.386-.36-3.489-.517-7.234-.446-10.929-.46-1.59 0-3.129-.029-4.72 0-1.18 0-3.181-.13-3.335.216-.205.373 1.745.244 2.771.316 2.36.158 4.258.633 7.029.575 2.719-.057 5.028.56 8.004.503 2.257-.043 2.565.245 1.18 1.05-.616.374.103.474.872.503 1.539.057 3.13.043 4.669.086.257 0 .513.1.77.144-.359.1-.718.244-1.129.273-.923.043-1.847.015-2.822.043-.256 0-.718.144-.667.173.205.115.513.302.872.316 1.232.043 2.514.029 3.746.014 1.436 0 2.001-.215 2.309-.632.872-1.136 2.103-1.452 5.182-1.467h6.619l8.671.734c2.154.33 2.154 1.035 3.437 1.51.462.157.308.33-.564.359-1.539.057-3.13 0-4.669.057-.924.029-1.539.23-1.539.518 3.283.388 6.208.963 10.056 1.107 3.643.143 7.08.589 10.928.474 1.796-.043 3.695-.086 5.439.259 1.847.374 3.13-.431 5.08-.273 1.18.1 2.719-.015 3.591.158 2.309.474 4.823.33 7.286.374 1.898.043 3.797.072 5.644 0 2.411-.087 3.745.546 6.105.575 2.668.028 2.668.172 2.514 1.078-.154.934-2.514 1.423-6.054 1.164-3.13-.23-6.106-.33-8.568.446-.565.187-1.591.388-2.361.374-3.386-.058-6.875.302-10.107-.273-1.693-.302-3.592-.202-5.285.115-.513.086-1.334.215-1.693.158-2.873-.489-5.079 0-7.388.33-1.386.202-2.771.389-4.105.59-2.719.417-6.106 0-8.671.59-2.104-.561-4.72-.432-7.183-.346-2.822.101-4.874-.187-6.516-.79-.719-.26-1.539-.159-2.309 0a7.48 7.48 0 0 1-3.386 0c-.975-.216-1.796-.49-2.822-.69-.103-.015-.154-.03-.206-.044 0 .03 0 .087-.461.13-.206.029-.411.172-.308.216.564.373 1.231.747 1.847 1.12.923.188 2.001.36 2.771.59 1.795.518.974 1.18.667 1.754-.206.345-2.053.259-3.233.33-.872.044-1.693.188-2.463.331-.513.087-1.128.26-1.128.389 0 .316 1.026.302 1.898.316 1.231 0 2.719 0 3.078.402.36.36 1.078.619 1.95.863.975.273 2.104.33 3.438.302 1.436-.029 2.206-.201 2.463-.618.205-.317 1.026-.345 1.847-.13.667.187 1.282.403 2.052.532.718.115 1.744.202 2.514.144 1.026-.072 1.796-.517 3.079-.144 1.026.302 3.181.144 3.642.705.103.158.565.302.873.446.41-.216.821-.417 1.18-.633.461-.23 1.128-.259 1.282-.043.565.848 2.822.877 4.926.733 7.183-.518 7.183-.546 13.186-.057 2.463.2 4.874.258 7.132-.202 1.436-.302 3.181-.287 4.361-.072 1.693.302 3.386.374 5.285.432 1.231.028 1.847.474.975.805-1.334.532-1.642 1.337-4.669 1.452-2.155.747-5.029.92-8.312.877-3.438-.044-6.927-.115-10.364 0-3.592.129-6.157-.805-9.852-.59-2.668.158-3.642-1.064-6.31-.92-2.617.144-4.977.776-7.697.115-.513-.13-.872-.043-1.539.072-2.617.403-5.285.36-7.953-.043-1.436-.216-1.18.187-1.539.388-.256.144-.872.417-.975.403-2.309-.26-5.438-.115-6.618-.978-2.771-.014-5.542-.029-8.312-.058-1.796-.014-2.976.173-3.13.72-2.514.46-5.131 1.178-8.158.761-2.463-.345-4.72-.345-7.183-.373-2.155-.03-4.669.1-6.362-.173-3.027-.489-6.157-.431-9.031-.33-2.975.1-5.438-.705-8.671-.13-1.59.273-4.258.1-6.413.072-2.565-.043-4.259.719-6.875.517-.154-.2-.308-.417-1.334-.345-.308.03-.462.216-.667.345-.513.058-1.129.101-1.488.216a7.58 7.58 0 0 1-4.054.072c-.923-.23-1.847-.46-2.821-.705-1.694.561-3.13.058-4.721-.057-1.693-.115-4.31.762-3.643 1.208.206.129.873.273 1.386.287.923.043 2.206.086 2.719-.043 1.898-.474 3.232-.316 4.515.172.872.331 1.847.403 2.976.087.77-.216 1.693-.187 2.514-.058 1.231.202.462.906 2.771.906 1.539 0 3.129.029 4.669.043h.872c1.539.647 2.309.647 3.745 0 .616 0 1.232-.029 1.899-.043.615-.518 1.693-.906 3.797-1.006.153.244.718.417 1.59.474.924.057 1.898 0 2.771.072.461.029.975.215 1.129.36.307.272-.257.517-1.181.589-.872.072-1.898 0-2.77.072-.411.028-.77.187-1.129.287 1.334.345 1.077 1.05 3.078 1.208 1.078.086 2.617.029 3.541-.144 2.411-.446 4.361-.388 6.772.029 3.13.546 6.619.848 10.518.719 2.771-.087 5.952.2 8.312-.087 3.028-.36 5.747-.632 8.723-.187 2.668.389 6.105.302 8.106 1.093.36.144 2.001.23 2.463.13 1.488-.331 2.566-.303 3.797.086 1.334.431 2.719.56 4.874.273 3.13-.403 6.516-.475 9.697.057a14.19 14.19 0 0 0 5.182-.086c1.027-.216 1.488 0 2.309.072 1.078.115 2.258.158 3.438.23.821.733 3.797 1.093 4.361 1.898.051.1 1.693.2 2.463.158 1.18-.058 2.206-.288 3.386-.374 2.104-.158 4.413-.36 6.26.043 2.36.503 4.361.475 6.824.043 1.231-.215 1.231.202 1.282.417.052.431.206.877-2.052.963-1.18.044-2.36.159-3.489.288-3.078.388-6.619.201-9.646.733-1.129.201-3.078 0-4.617.043-1.386.015-2.412-.1-3.284-.402-1.232-.431-2.566-.72-4.413-.23-1.641-.245-3.283-.46-4.874-.733-.616-.116-.872-.087-1.539.043-.975.187-2.206.287-3.335.445-3.027.432-5.849 1.035-9.082 1.265-3.386.245-5.849-.833-9.235-.934-.872-.029-1.796-.1-2.617-.216-1.334-.187-3.232-.316-3.797-.632-.872-.475-1.077-.518-3.078-.36-4.874.374-5.746.26-14.931-.733-1.334-.144-2.308-.13-3.335.13-1.026.258-2.206.316-3.283.028-1.232-.33-2.771-.417-4.361-.345-2.155.115-3.643-.172-4.772-.618-1.437-.546-2.412-.115-3.746.029-1.18.13-2.308-.029-2.565-.431-1.796 0-3.745-.202-5.285.2-1.59.418-3.54.288-5.387.288-1.385 0-2.36-.143-2.617-.575-.102-.144-.615-.402-.975-.402-3.129-.015-6.208 0-9.338.014-2.052.805-3.642-.13-5.541-.115-.718 0-.975-.273-.462-.345 1.899-.273 3.9-.503 5.849-.762.257-.043.462-.115.719-.172-.205-.058-.359-.144-.565-.158-3.386-.216-6.875-.432-9.594.43-1.745.547-3.797.518-6.003.49h-.924c-.308-.015-.769-.087-.769-.115 0-.13.102-.288.41-.389.565-.215 1.232-.402 1.899-.589.718-.187.615-.302-.308-.374-2.874-.201-5.49-.043-8.004.403-.36.057-1.129-.072-1.694-.115.154-.144.154-.331.514-.417.667-.202.667-.302-.154-.374a11.4 11.4 0 0 0-2.617.086c-2.463.36-2.565.33-4.053-.273-.565-.23-1.078-.431-2.104-.388-.564.029-1.077.144-1.642.201-3.899.345-7.85.518-11.647-.1-.923-.144-2.001-.26-2.565-.087-1.847.575-4.874.302-6.773.777-1.129.287-2.309.187-3.335-.058a114.858 114.858 0 0 1-4.156-1.078c-1.129-.316-1.693.029-2.206.172-2.001.575-1.898.805.462 1.165 1.744.259 1.847.345.616.661-.616.158-1.181.431-2.309.158-1.847-.46-3.028-1.294-5.747-1.265-3.951.029-7.901-.316-11.955.245-3.335.46-7.285.46-10.312-.475-.565-.172-1.591-.345-2.412-.345-3.438-.029-6.875 0-10.313 0-1.539.676-3.386-.144-4.618.029-2.924.417-5.233.115-7.439-.302-1.539-.287-2.617-.316-4.156-.043-.975.172-2.309.201-3.54.244-1.591.058-2.053.317-2.001.705 0 .172.051.36-.052.532-.154.244-.461.489-.718.733-1.437-.173-1.026-.532-1.077-.848 0-.173.102-.36 0-.532-.103-.158-.36-.345-.77-.432-.411-.086-1.18-.129-1.745-.1-.872.043-.974.201-.513.36.36.143.873.287.975.445.205.259.154.546-.872.676-1.283.158-3.951.043-4.464-.159-.718-.287 0 .101.513-.215.359-.216 1.232-.388.257-.633-2.617-.675-5.541-1.064-9.236-1.02-1.795.028-2.975.114-3.181.69-.102.244-.718.273-1.334.129-.513-.1-1.282-.302-1.539-.259-2.257.36-5.541.173-6.67 1.15-.564.49-2.257.446-3.335-.086-.667-.316-.821-.719-2.001-.13-.359.188-.103.633-1.59.331-1.745-.345-4.31-.33-5.388-.949-.41-.23-.513-.589-1.18-.675-1.385-.201-2.001.244-2.822.445a12.234 12.234 0 0 1-3.437.346c-3.182-.173-6.209-.849-9.544-.13-2.719-.661-6.003-.374-9.03-.374-3.386 0-6.978-.215-9.954.49-2.77-.087-5.592.2-8.26-.23-.77-.13-1.745-.202-2.617-.217-3.13-.043-6.362-.158-9.441-.028-3.642.143-6.618-.417-9.953-.49-2.514-.057-5.028-.028-7.543-.028-2.206 0-4.412-.029-6.618-.014-2.514 0-5.388-.173-7.491.1-2.463.317-4.413.403-6.722.072-5.284.892-10.261.1-15.033-.36-4.669-.445-9.133-.43-13.596-.057-1.54.13-2.925.245-4.515.245-1.899 0-4.362-.187-5.542.086-2.36.532-3.95-.086-5.9-.072-.616 0-1.283-.029-1.898.029-6.363.517-6.363.546-13.289.1-2.617.604-5.08-.474-7.594-.057-1.436.23-2.463.158-4.053.086-4.259-.201-8.569-.316-12.878.187-3.182.374-6.927.374-10.057 0-2.155-.259-4.207-.316-6.311-.302-4.309.043-8.773-.345-12.775.431a3.31 3.31 0 0 1-.924 0c-2.924-.733-6.978-.158-9.8-.575-3.386-.503-6.721-.359-10.056-.402-3.438-.043-6.927 0-10.415 0-2.104.834-5.029.043-7.44.302-3.027.316-6.157.144-9.236.23-1.231.043-2.462.086-3.591.215-2.719.346-5.336.389-8.055-.014-2.72-.417-6.26-.057-8.774-.733-.462-.13-2.155-.1-2.719.043-2.463.604-5.336.374-8.107.446-4.618.13-9.441-.302-13.751.489-5.284 0-10.62.33-15.648-.446-2.771.158-3.284-.56-4.721-.949-2.155.489-4.874.489-7.234.374-3.951-.173-7.132.517-10.878.517-6.31 0-12.57 0-18.881.03-1.693 0-3.027-.13-4.156-.49-1.026-.345-2.668-.445-3.899-.675-2.155-.417-3.592-.432-5.849-.058-1.95.316-4.259.201-5.747-.402-1.539-.604-3.899-.69-5.9-.46-3.181.359-6.516.43-9.697.675-6.209.489-9.287.503-16.265-.057-.923-.072-1.744-.13-2.617.043-3.386.719-7.337.201-10.98.33-1.847.058-3.642.058-5.335-.33-1.283-.302-3.643-.33-4.208.029-1.539 1.05-3.9 1.006-6.567.532-1.334-.23-1.59.086-2.309.172-1.54.187-3.13.244-4.412-.043-.975-.216 1.898-.532.154-.776-1.027-.144-2.771 0-3.54-.187-2.874-.676-5.49-1.452-8.21-2.185.462-.389 1.077-.762 1.334-1.165.36-.489-1.026-.863-2.72-.776-3.026.143-5.797.618-8.978.517-.206 0-.513.087-.719.144-.41.115-.154.33.616.33 2.822-.028 1.847 1.064 4.207 1.122.052.244.052.503.257.733.205.245.667.245 1.334.13.667-.115 1.488-.403 2.206-.03.718.375 1.386.763 1.847 1.165.308.273-.308.547-1.231.604-1.796.1-3.694.086-5.541.187-1.18.057-2.258.259-3.438.33-1.334.101-2.72-.143-2.822-.46-.102-.445-.102-.876-.154-1.322-.051-.532.924-.776 2.72-.863.82-.043.974-.258.461-.345-1.283-.23-3.027-.345-3.848-.66-1.642-.62-2.924-.231-4.515-.044-.975.13-1.744-.072-1.59-.36.102-.2 1.641-.359.205-.632-3.694-.733-8.466-.374-12.314-1.02-.616-.116-2.258.316-3.181.244-1.745-.144-3.335-.446-4.874-.734-1.694-.302-1.642-1.02.153-1.337 2.31-.402 4.567-.89 7.543-.89l.513.129ZM59.698 35l-.103-.057-.154.043h.257c.154.13.359.244.564.345 0 .014.565 0 .565-.014.154-.288-.462-.317-1.13-.331V35Zm6.567-14.204s-.359.044-.513.072v.158l1.129-.1s-.36-.115-.616-.13Zm29.964-1.595-.564.143.615.13.565-.072-.616-.201Zm1.18 1.983h-.103v.03c-.923 0-1.847-.015-2.719 0-2.565.057-4.105-.763-6.978-.576-2.103.144-4.361.043-6.567.058-2.514 0-5.028-.015-7.491 0-2.412.014-3.335.575-2.309 1.294.103.072.41.129.616.187.205-.058.615-.116.667-.187.308-.46.975-.805 2.976-.748 1.231.029 2.616-.086 3.694.029 1.385.143 2.514.46 4.258.445 4.361-.057 8.723-.057 13.084-.115.256 0 .513-.23.77-.373h.102v-.03c.872 0 1.745 0 2.617-.014.256 0 .667-.158.615-.172-.256-.115-.564-.273-.974-.302-1.386-.086-2.207.072-2.258.489v-.015Zm3.592-2.587c-.462.072-.873.158-1.334.23.872.201 1.795.417 2.719.604 0 0 .513-.115.564-.187.103-.087.103-.187 0-.26-.154-.23-.923-.402-2.001-.387h.052Zm33.76-2.674c-.769 0-1.129 0-1.436.028-.565.058-1.078.159-1.591.23.513.087 1.026.173 1.591.245.256.029.667.029.923 0 .872-.072 1.693-.173 2.514-.259l-2.001-.244Zm11.185.13s-.461-.03-.615 0c-.462.085-.36.2.359.272.102 0 .41-.086.513-.158 0-.029-.154-.086-.257-.13v.015Zm2.001-4.73c-.205-.087-.769-.116-1.231-.159 0-.014 0-.043-.051-.057l-.154.043s.154 0 .205.014c.154.13.256.273.564.33.513.087.975-.042.667-.172Zm7.696 4.298s-6.567.402-6.567.417c-.051.057-.154.115-.154.187.052.244 2.617.718 3.643.675 1.539-.057 3.181-.56 3.335-1.035 0-.072-.154-.158-.308-.23l.051-.014Zm3.079.388-.564.158.615.13.565-.072-.616-.202v-.014Zm556.28-3.94c.359-.071.462-.258.667-.402.872-.014 1.796-.014 2.668-.057.257 0 .616-.158.616-.158-.308-.115-.616-.26-1.026-.288-1.437-.1-2.207.086-2.258.503-.513.072-1.18.1-1.385.202-.308.143.205.287.718.2Zm50.59 1.338c-.308.057-.411.201-.565.33-.102 0-.154 0-.256.015l.154.043s0-.043.051-.072c.462-.043.975-.057 1.231-.144.359-.129-.102-.273-.667-.187l.052.015ZM760.82 27.28c-.462-.072-.924-.187-1.437-.201-1.128-.043-2.001.158-1.488.302.36.1 1.027.172 1.488.143.513-.014.924-.158 1.386-.244h.051Zm22.011-9.718-.872.402.616.431c.359-.071 1.128-.158 1.077-.2-.154-.216-.564-.432-.821-.633Zm8.004.143c-.41.03-1.129.072-1.18.144-.154.216-.103.446-.051.662h-.206c0 .028-.051.043-.102.071-.667 0-1.283.043-1.129.317 0 .014.564.043.564.014.206-.1.36-.23.565-.33h.308v-.072c1.231-.044 1.847-.26 1.693-.633 0-.072-.359-.187-.462-.173Zm9.03.403-.615.187.667.158s.513-.13.513-.172c0-.058-.36-.116-.616-.173h.051Zm16.778 14.06.821-.158s-.411-.13-.565-.13c-.205 0-.359.101-.513.144l.308.144h-.051Zm-1.95-2.645c.924.33 1.95.661 3.643.604.462-.015 1.078-.159 1.231-.273.154-.13.052-.36-.256-.46-1.129-.346-2.668-.274-4.156-.202-.257 0-.462.1-.718.144.102.072.102.144.256.201v-.014Zm-.205-1.136c.257.173.77.144 1.334-.029 1.18-.345 2.719-.273 4.207-.316.462 0 .872-.158 1.334-.244-.513-.072-.975-.187-1.488-.23-.564-.044-1.18 0-1.795 0-.873 0-1.848-.03-2.668.028-.462.03-.975.202-1.129.331-.154.144 0 .316.256.46h-.051Zm-1.334-8.353c.257-.215.616-.416.77-.632 0-.029-.719-.115-1.129-.158-.205.143-.565.287-.513.417.051.129.564.258.872.373Zm-18.933 11.228c.308.13.924.202 1.283.317.616.172 1.026.158 1.283-.072.102-.072.102-.144.154-.202.051-.316-.616-.46-1.54-.488-.513-.015-1.077.057-1.59.086.103.13.103.273.359.374l.051-.015Zm-63.108-1.912c.461.159 1.898.317 2.36.23 1.385-.23 2.309-.417 3.899-.028 1.18.287 3.079.23 4.361-.058 1.283-.287 2.001-.158 3.028.1 2.103.518 2.257.533 4.309 0 1.745-.46 2.412-.359 2.822.26.103.129.821.301 1.283.316 1.539.057 3.13.028 4.72.057 3.695.043 7.337-.057 10.929.446 1.796.244 5.131.403 5.849-.69.205-.273 1.539-.316 2.412-.23 1.128.115 2.257.287 3.232.503 2.411.546 5.233.489 8.055.518 1.847.028 2.771-.216 3.233-.734.256-.316 1.077-.575 1.693-.862 4.31-.015 8.671-.302 12.724.431.924.173 2.412-.13 2.36-.56-.051-.633.719-.978 2.976-1.05.257 0 .411-.115.616-.173-.257-.057-.513-.143-.77-.143-1.231-.015-2.462-.072-3.643 0-1.334.072-8.158.057-9.645-.043-1.181-.072-2.515-.116-3.695-.058-1.385.058-2.77.316-4.156.33-1.128 0-2.257-.215-3.386-.33a4.951 4.951 0 0 0-.923.014c-.565.072-1.386.13-1.488.245-.308.23-.411.532.564.69.77.13 1.693.187 2.463.345.564.115.256.661-.411.676-1.847.028-3.694.1-5.541.057-.975-.029-1.18-.345-1.129-.618 0-.288 2.412-.474.667-.82-.615-.115-1.693-.043-2.616-.043v-.043h-.206c-.205-.158-.359-.374-.564-.388-2.155-.072-4.31-.144-6.465-.115-2.001.029-3.643-.072-5.182-.431-.667-.158-2.565.029-2.36.143.256.159.77.274 1.18.417.872.288 1.898.403 3.284.389 3.386-.015 6.772 0 10.159-.015v.043h.205c0 .26.103.532-.257.748-.615.374-2.052.316-3.283.302-.924 0-2.207.072-2.771-.058-2.411-.575-5.285-.445-8.055-.474-2.771-.029-5.747.144-7.953-.532-4.361.043-8.774.043-13.083.187-1.181.043-1.95.057-3.182 0-3.027-.158-6.208-.13-9.286-.158-.308 0-.924.244-.821.316.359.33.769.676 1.539.934l-.051-.043Zm-7.183-.905c1.077.057 1.128-.13 1.18-.317l.154-.028s0-.044.051-.058c.462-.043 1.026-.057 1.283-.158.359-.13-.154-.273-.719-.187-.308.058-.41.216-.564.345a.99.99 0 0 0-.205.014v.072c-.462.044-.873.087-1.283.159-.051 0 0 .158.051.172l.052-.014Zm42.226 11.659c.308-.058.41-.201.513-.316.103 0 .154 0 .257-.015l-.154-.043s0 .043-.052.072c-.461.043-.974.072-1.18.144-.359.144.154.273.667.172l-.051-.014Zm-11.339-.043c.256-.015.564-.259.513-.388 0-.13-.513-.245-.821-.36-.256.115-.667.23-.77.345-.102.201 0 .46 1.027.403h.051Zm-7.645 6.944c.308-.058.411-.216.564-.345.052 0 .154 0 .206-.015l-.154-.043s0 .043-.052.058c-.461.043-1.026.072-1.231.158-.359.144.154.287.667.187Zm-2.976 7.59s.052-.043.103-.072c.616-.028 1.334-.028 1.129-.33 0-.014-.565-.029-.616 0-.205.1-.359.215-.513.33-.103 0-.205 0-.308.015l.205.057Zm-2.617-8.151c.206-.144.565-.288.514-.417-.052-.13-.565-.244-1.027-.417-.256.259-.513.46-.564.676 0 .043.718.1 1.129.158h-.052Zm-11.544 3.263.616-.187s-.462-.158-.667-.158c-.257 0-.411.115-.616.173l.719.158-.052.014Zm-11.39-15.368.616-.173s-.462-.143-.667-.143c-.257 0-.462.1-.667.158l.718.158Zm-28.425-3.71s.411-.1.616-.157l-.667-.173-.616.187s.462.158.616.144h.051Zm-7.901-.632c.205.087.667.115 1.129.144 0 .029 0 .058.051.072h.308c.205.115.359.23.564.345 0 .014.616-.014.616-.029.051-.273-.564-.302-1.18-.302 0-.014-.051-.043-.103-.057-.102 0-.205-.015-.256-.029-.103-.115-.206-.244-.462-.302-.513-.086-.975.029-.667.158Zm-12.93-.345c.462.115.924.23 1.437.345.564.13 1.129.072 1.283-.172.256-.388-.616-.662-2.001-.662-.257.03-.565.044-.821.087-.565.1-.513.244.154.402h-.052Zm26.834 32.42c.257.128.411.272.616.402h-.103l.206.057-.103-.057c2.104-.302 4.259-.59 6.67-.604.257 0 .462-.1.718-.158-.256-.058-.461-.158-.718-.158-2.463-.03-4.926-.115-7.337-.03-1.488.058-.308.36 0 .547h.051Zm-5.592-4.127c-.205-.086-.77-.115-1.232-.158 0-.029 0-.043-.051-.072l-.154.043s.154 0 .257.015c.154.129.256.273.564.33.513.1.975-.043.667-.172l-.051.014Zm-4.669 3.278c1.282.23 2.668.388 4.156.604.256-.058.923-.144.923-.23 0-.532.052-1.05 1.591-1.452-.462-.072-1.078-.245-1.334-.216-1.899.244-3.746.518-5.541.834-.206.029-.052.402.256.46h-.051Zm-37.455-5.693c2.309.144 4.053.79 6.721.618v.029c.052 0 .154 0 .206.014.153.13.256.273.564.33.513.087.975-.042.667-.172-.257-.086-.77-.115-1.18-.158 0-.014 0-.043-.051-.057h-.103c.257-.374 1.334-.46 2.565-.547.77-.057.975-.273.462-.345-1.898-.244-3.797-.517-5.798-.675-1.642-.13-2.873.2-3.848.546-.513.172-.615.36 0 .403l-.205.014Zm-.154-48.765c.462.1.975-.043.667-.187-.205-.086-.77-.115-1.231-.158 0-.014 0-.043-.052-.058h-.154c-.102-.402-1.026-.503-2.308-.46-.257 0-.719.087-.667.115.102.115.256.288.513.302.821.043 1.642.029 2.462.043v.043c.052 0 .154 0 .206.015.154.13.256.287.564.36v-.015Zm-5.285 22.298c.565.043 1.18.057 2.207.086l2.155-.259c-.873-.072-1.694-.172-2.566-.215-.564-.03-1.18.014-1.796.057-.256.015-.461.115-.718.173.257.057.462.129.77.158h-.052Zm-8.927-23.017c1.488.417 3.284.431 5.079.201.359-.043.462-.215.667-.36h.308c0-.028.051-.042.103-.07.667-.001 1.282-.03 1.18-.317 0-.015-.565-.043-.616-.029-.205.115-.359.23-.564.345h-.308s-.051.043-.103.072c-1.847.057-3.335-.187-4.771-.489-.359-.072-1.386-.014-1.694.072-.872.259.206.431.719.575Zm-4.567.23.513-.072-.564-.23s-.462.115-.462.158c0 .058.359.101.513.144Zm-7.798-.057s.256.057.307.057c.873-.13.821-.244-.051-.33l-.667.172s.257.072.411.1Zm-11.391-.575s.462.143.719.143c1.436.03 2.873.03 4.309.043v.044h.154c0 .416 1.027.531 2.309.474.205 0 .359-.058.513-.115l.462-.173-.359-.1a1.566 1.566 0 0 0-.359-.058c-.872-.028-1.693-.028-2.566-.043v-.043h-.154c-.153-.388-1.077-.517-2.36-.474-.872.028-1.693.086-2.514.143-.102 0-.154.115-.102.144l-.052.015Zm-86.607 5.39c.872-.114.82-.23-.052-.301-.102 0-.359.1-.564.158.205.057.513.158.616.144Zm-19.036 15.901s.36-.115.565-.158c.205-.058.308-.115.359-.173 0-.143-.359-.287-.565-.445l-.923.316c.154.13.359.259.513.388l.103.058-.052.014Zm-8.363-15.383c.154.087.359.345.924.518.308.1 1.128.1 1.693.072.872-.043.872-.158.462-.345-.616-.288-1.027-.604-1.591-.906-.154-.072-.41-.13-.616-.187-.307.144-.667.288-.872.431-.102.072 0 .173 0 .417Zm-29.604.503.82-.158s-.41-.13-.564-.13c-.205 0-.359.087-.513.145l.257.13v.013Zm-11.904 15.096c.051.1.667.172 1.026.244.052 0 .513-.1.565-.172.102-.23.051-.446.102-.676h.154c0-.015 0-.043.051-.072.462-.043.975-.072 1.181-.158.359-.13-.103-.273-.667-.173-.308.058-.411.202-.565.331-.102 0-.154 0-.256.014v.058c-1.334.029-1.95.23-1.694.604h.103Zm-4.464-15.8s-1.026 0-1.334.086c-.667.158-1.18.36-1.744.547.308.057.513.115.821.143 1.231.144 2.411 0 2.668-.33.102-.144-.103-.317-.411-.446Zm-3.489 15.656c.821.057 1.796.014 2.668.014.616.015 1.232.058 1.796 0 .411-.043.718-.172.975-.302.051-.028-.257-.143-.41-.215-1.181-.46-2.771-.59-4.721-.489-.923.058-1.539.172-1.744.46-.257.36.667.46 1.436.518v.014Zm-7.029-.532c.359 0 .667-.173 1.026-.273-.564-.058-1.077-.158-1.642-.144-.41 0-.718.173-1.128.273.615.058 1.18.158 1.744.144Zm-6.926-14.894.256-.043.257-.043-.565-.23-.513.158.565.144v.014Zm-2.976-7.375c.513 0 1.077-.1 1.59-.158-.359-.087-.718-.245-1.128-.259-.514 0-1.027.1-1.642.172.41.087.769.245 1.128.245h.052Zm-16.06-.345-.564.144.616.129.564-.072-.616-.216v.015Zm-1.847 8.698c1.334.215 2.874.258 4.105 0 .41-.101.616-.504.256-.619-1.026-.33-3.591-.301-4.822 0-.103.015-.103.058-.154.101 0 .043 0 .086-.052.115.206.144.257.36.667.417v-.014ZM398.945 4.68c.77.087 1.591.187 2.207-.086.102-.043.102-.144 0-.158-.513-.058-1.026-.1-1.54-.144l-1.333.23s.41.13.666.158Zm-4.976-3.623c1.026.058 1.949-.158 1.436-.301-.308-.101-.975-.173-1.436-.159-.257 0-.462.044-.667.101-.206.043-.411.1-.667.144.41.072.821.201 1.282.23l.052-.015Zm-14.161.403s.256.058.359.072c1.693.158 3.643.043 5.131.431.461.13 2.462-.287 2.565-.517 0-.058 0-.173-.051-.187-2.617-.288-5.234-.288-7.902-.043a.432.432 0 0 0-.256.071c-.052.03-.154.058-.206.087.103.028.257.057.36.086Zm-20.523 3.22s.41-.1.615-.158c-.256-.057-.462-.158-.718-.158-.257 0-.411.115-.616.187.257.043.462.144.719.144V4.68Zm-18.83.561c.615.043 1.231.058 1.847.058.923 0 1.898-.015 2.822-.03v.03c1.539-.044 3.078-.044 4.617-.13.359-.014.77-.273.77-.417 0-.13-.462-.273-.718-.402-2.617.733-5.901.373-8.928.445-.411 0-.77.187-1.18.288.256.057.462.13.77.158Zm-46.229.877s.257.072.411.1c.153.03.256.058.307.058.924-.13.873-.244-.051-.33l-.667.172Zm-4.258.216c.513 0 1.436-.087 1.436-.159.154-.316-.872-.258-1.539-.301l-1.334.244c.462.072.923.201 1.437.216Zm-9.338-1.567v.043l.153.028c.103.417.103.82.308 1.222.103.26.565.245 1.334.072 1.95-.43 2.104-.56.513-.963-.615-.144-1.385-.23-2.103-.345v-.072h-.205c-.308-.661-2.104-.474-3.592-.489V4.22l-.154.043h.205c.205.705 2.104.475 3.592.49l-.051.014Zm-77.219 2.257c.205.244.821.36 1.847.33.924-.028 1.642-.1 1.642-.431 0-.345-1.129-.59-2.309-.489-.872.087-1.334.273-1.129.575l-.051.015ZM173.653 43.31s.615 0 .615-.015c.206-.287-.461-.301-1.077-.316 0-.014-.052-.043-.103-.057l-.205.057h.308c.154.115.308.23.513.33h-.051Zm-8.312 10.725c.872.043 1.795 0 2.719 0v-.043h3.643c.256 0 .77-.115.718-.13-.205-.144-.41-.302-.769-.402-1.078-.302-2.207-.59-3.951-.273-.718.143-1.591.215-2.412.345-.513.071-1.026.172-1.488.258.514.087.975.216 1.488.245h.052Zm-18.061-.59c.924.202 1.899.547 2.874.575 3.386.072 6.772.03 10.159 0 .667 0 1.487-.431 1.18-.618-.257-.144-.667-.345-1.078-.345-2.155-.029-4.31-.014-6.465-.014v-.087c-2.155.044-4.258.072-6.413.13-.257 0-.667.086-.718.144 0 .057.256.158.461.215Zm-7.593 0c.718.273 1.077.618 1.693.906.616.273 1.642.187 2.411.086 1.078-.143.924-.46.513-.661-.769-.374-1.744-.719-3.437-.748-.411.015-.719.03-.975.044-.872.086-.77.172-.205.388v-.015Zm-28.373-1.121c2.206.532 3.334 1.193 3.642 1.984 0 .086 1.129.215 1.54.172 4.771-.488 9.697-.891 14.109-1.61.616-.1.565-.23-.154-.388-3.232-.748-6.413-1.093-9.902-1.064-3.232-.201-5.541.719-8.774.56-.769-.042-1.026.202-.461.346Z" fill="#F2F2F2"/></svg>