<svg width="28" height="29" fill="none" xmlns="http://www.w3.org/2000/svg"><path fill-rule="evenodd" clip-rule="evenodd" d="M27.34 7.075c.209-.686 0-1.184-.918-1.184h-3.055c-.77 0-1.126.436-1.334.903 0 0-1.571 3.986-3.766 6.57-.712.748-1.038.997-1.423.997-.208 0-.475-.249-.475-.934V7.043c0-.81-.237-1.183-.89-1.183h-4.804a.753.753 0 0 0-.771.747c0 .778 1.097.966 1.216 3.145v4.736c0 1.028-.175 1.215-.564 1.215-1.038 0-3.558-4.017-5.07-8.594-.294-.907-.593-1.25-1.364-1.25H1.038C.148 5.86 0 6.296 0 6.764c0 .84 1.038 5.075 4.834 10.68 2.52 3.828 6.108 5.886 9.34 5.886 1.958 0 2.195-.468 2.195-1.246v-2.896c0-.934.178-1.09.8-1.09.445 0 1.246.249 3.055 2.086 2.076 2.18 2.431 3.177 3.588 3.177h3.055c.89 0 1.305-.468 1.067-1.37-.267-.904-1.275-2.211-2.58-3.768-.712-.871-1.78-1.837-2.105-2.304-.445-.623-.326-.872 0-1.432-.03 0 3.707-5.543 4.092-7.414" fill="#fff"/></svg>