<svg width="28" height="29" fill="none" xmlns="http://www.w3.org/2000/svg"><path d="m3.004 26.026 1.488-5.464A10.95 10.95 0 0 1 3 15.026c0-6.075 4.925-11 11-11s11 4.925 11 11c0 6.076-4.925 11-11 11a10.95 10.95 0 0 1-5.533-1.49l-5.463 1.49Zm7.026-16.16c-.142.008-.28.045-.408.11a1.42 1.42 0 0 0-.323.25c-.132.124-.207.232-.287.337a3.002 3.002 0 0 0-.622 1.845c.002.54.143 1.064.363 1.555.45.992 1.19 2.042 2.168 3.016.236.234.465.47.713.689a10.393 10.393 0 0 0 4.224 2.25l.626.096c.203.01.407-.005.611-.014a2.19 2.19 0 0 0 .917-.255c.144-.074.284-.155.421-.242 0 0 .047-.03.137-.099.149-.11.24-.188.363-.316.092-.095.171-.206.232-.333.085-.179.171-.521.206-.806.027-.218.019-.337.016-.41-.005-.118-.103-.24-.21-.292l-.64-.287s-.956-.417-1.54-.683a.545.545 0 0 0-.195-.045.529.529 0 0 0-.416.14v-.003c-.006 0-.08.063-.875 1.027a.384.384 0 0 1-.404.143 1.57 1.57 0 0 1-.21-.073c-.137-.057-.184-.079-.278-.12l-.005-.002a6.614 6.614 0 0 1-1.727-1.1c-.139-.12-.268-.253-.4-.38a6.927 6.927 0 0 1-1.121-1.395l-.065-.105a1.019 1.019 0 0 1-.113-.225c-.041-.162.067-.292.067-.292s.268-.292.392-.45c.104-.133.2-.27.29-.411.13-.21.17-.424.102-.59a91.584 91.584 0 0 0-.955-2.245c-.065-.147-.258-.253-.432-.274-.06-.006-.12-.013-.179-.017a3.724 3.724 0 0 0-.443.005Z" fill="#fff"/></svg>