<svg width="28" height="29" fill="none" xmlns="http://www.w3.org/2000/svg"><g clip-path="url(#a)"><path fill-rule="evenodd" clip-rule="evenodd" d="M14.5 4.026c1.069 0 2.165.028 3.227.073l1.256.06 1.2.071 1.126.076 1.027.08a4.752 4.752 0 0 1 4.368 4.28l.05.53.093 1.138A50.61 50.61 0 0 1 27 14.026c0 1.23-.065 2.514-.152 3.693l-.094 1.137-.05.532a4.752 4.752 0 0 1-4.369 4.278l-1.025.08-1.125.077-1.202.07-1.256.06a73.85 73.85 0 0 1-3.227.073 77.018 77.018 0 0 1-3.227-.072l-1.255-.06-1.202-.071-1.125-.078-1.027-.079a4.753 4.753 0 0 1-4.368-4.278l-.05-.532-.094-1.137A50.831 50.831 0 0 1 2 14.026c0-1.228.065-2.513.152-3.692l.094-1.138.05-.53a4.753 4.753 0 0 1 4.366-4.28l1.027-.08 1.125-.076 1.202-.071 1.255-.06a77.101 77.101 0 0 1 3.229-.073Zm-2.5 6.97v6.062a.75.75 0 0 0 1.125.65l5.25-3.032a.75.75 0 0 0 0-1.3l-5.25-3.03a.75.75 0 0 0-1.125.65Z" fill="#fff"/></g><defs><clipPath id="a"><path fill="#fff" transform="translate(0 .026)" d="M0 0h28v28H0z"/></clipPath></defs></svg>