<svg width="838" height="68" viewBox="0 0 838 68" fill="none" xmlns="http://www.w3.org/2000/svg">
<path d="M827.968 18.0035C826.07 18.0035 823.915 18.176 822.375 17.9747C819.246 17.5722 815.654 17.6441 812.73 17.184C810.472 16.839 808.009 16.8965 805.7 16.5515C802.571 16.0914 800.621 16.5227 798.979 17.7303C798.209 18.3054 795.952 18.5785 793.848 18.3485C792.976 18.2479 792.206 18.0466 791.334 18.0466C784.715 18.0178 778.097 17.9891 771.529 18.0322C769.118 18.0466 767.271 18.7798 764.5 18.5785C763.731 18.938 762.961 19.3117 762.089 19.6568C761.319 19.9587 759.831 20.2606 758.959 20.0449C754.906 19.1105 749.518 20.0449 745.465 19.2111C745.26 19.168 744.028 19.4699 743.413 19.6568C742.386 19.9731 743.669 20.1024 744.182 20.275C745.003 20.5769 746.183 20.6631 747.517 20.6775C749.364 20.7062 751.263 20.7206 753.11 20.7925C753.777 20.8213 753.674 20.9938 753.11 21.1663C752.34 21.3963 752.443 21.5832 753.572 21.7126C754.136 21.7701 755.162 21.8276 755.162 21.8995C755.162 22.2302 754.187 22.187 753.366 22.2014C750.596 22.2733 747.928 22.2014 745.26 22.6902C741.873 23.294 737.974 23.7253 733.972 22.8771C733.356 22.7477 732.176 22.8052 731.201 22.8052C728.072 22.8052 724.891 22.8052 721.761 22.8052C719.247 22.8052 716.733 22.7765 714.68 23.2796C711.191 23.2221 708.369 23.9553 704.778 23.8691C701.032 23.7684 697.236 23.826 693.439 23.8116C689.129 23.0352 684.306 23.4234 679.74 23.3228C677.072 23.2653 674.763 23.3228 673.07 23.9841C672.043 24.3866 670.453 24.401 668.811 24.3723C667.631 24.3723 666.451 24.3866 665.271 24.401C665.322 24.6885 665.989 24.8467 666.913 24.8467C681.074 24.8754 695.235 24.8898 709.396 24.9042C710.268 24.9042 711.345 24.8179 712.012 24.6742C713.346 24.3866 714.218 24.5591 715.091 24.8323C716.168 25.1773 717.194 25.4217 718.887 25.0336C719.503 24.8898 720.683 24.9329 721.607 24.9185C726.84 24.8179 732.279 25.1342 737.256 24.4154C743.567 24.401 749.826 24.3723 756.137 24.3723C757.061 24.3723 758.138 24.3866 758.805 24.5304C760.447 24.8898 762.294 24.8898 764.192 24.8754C767.63 24.8467 770.349 25.1055 771.273 26.1693C771.427 26.3275 772.042 26.4425 772.453 26.5862C773.017 26.8019 773.017 26.8162 775.429 26.6293C776.352 26.5575 777.225 26.4712 778.045 26.6725C779.226 26.9744 780.046 26.8738 781.124 26.5862C782.458 26.2268 781.534 26.0255 780.816 25.7524C780.508 25.623 780.406 25.393 780.56 25.2636C781.124 24.8898 782.047 25.1054 782.663 25.2636C783.535 25.4792 784.356 25.4074 785.28 25.3498L792.258 25.2636C793.489 25.5224 794.515 25.3355 795.695 25.1773C796.824 25.0336 798.774 25.3355 799.133 25.7236C799.492 26.083 799.133 26.4281 797.44 26.4856C797.132 26.4856 796.824 26.5287 796.568 26.5719C796.311 26.615 796.055 26.6869 795.901 26.7587C795.901 26.7875 796.208 26.9169 796.414 26.9169C798.876 26.9744 801.339 27.0175 803.802 27.0894C804.879 27.1182 805.444 27.6788 806.88 27.305C808.984 26.7587 811.857 27.3051 814.012 26.8881C814.474 26.7875 815.192 26.6006 815.5 26.6437C817.45 26.8881 819.297 27.1757 821.195 27.4488C822.632 27.0031 823.761 27.3626 825.197 27.4919C826.634 27.6357 828.327 27.5207 829.866 27.5782C830.328 27.5782 830.739 27.7651 831.149 27.8514C830.893 27.9089 830.687 27.9951 830.431 28.0095C827.763 28.2395 824.787 27.8945 822.221 28.3258C819.605 28.7858 816.68 28.4695 813.961 28.6277C813.345 28.6564 812.524 28.5846 812.114 28.6852C809.087 29.404 805.495 29.1021 802.109 29.1165C791.078 29.1596 780.047 29.1596 769.067 29.1884C768.348 29.1884 767.219 29.2459 768.092 29.6484C768.707 29.9359 769.067 30.281 769.169 30.626C769.323 31.0429 769.939 31.2586 771.427 31.2729C773.941 31.2729 776.455 31.273 778.969 31.3161C779.431 31.3161 780.303 31.5174 780.252 31.6036C780.149 31.8336 779.739 32.0637 779.379 32.2793C779.277 32.3224 778.918 32.3368 778.61 32.3512C777.84 33.0412 775.685 32.9119 774.095 32.7681C772.658 32.6387 771.632 32.3224 770.195 32.7969C769.426 33.0556 768.348 33.2713 767.219 33.4007C765.321 33.6163 765.321 33.7169 767.219 33.9326C768.297 34.062 769.22 34.3208 770.195 34.522L775.172 35.3415C777.019 35.6003 778.712 35.514 780.508 35.2552C781.586 35.1115 783.176 34.9246 783.997 35.054C786.819 35.4996 790 35.399 792.873 35.7009C793.233 35.7296 793.489 36.0028 793.438 36.1466C793.387 36.2903 792.925 36.5204 792.514 36.5347C790.667 36.621 788.82 36.6354 786.973 36.7216C786.357 36.7504 786.46 36.9373 787.076 37.1098C787.691 37.2679 787.743 37.4261 787.23 37.5123C784.818 37.9149 781.483 37.2679 779.379 38.0586C778.456 37.8286 777.481 37.5986 776.557 37.3542C775.531 37.0954 774.249 37.1242 773.017 37.1385C771.324 37.1673 771.632 37.6992 770.914 37.8286C768.348 38.3174 771.786 39.1513 769.323 39.6257C768.861 39.7119 769.169 40.1289 769.221 40.3876C769.221 40.4595 769.528 40.5458 769.734 40.6033C770.144 40.7183 770.606 40.6608 770.914 40.4308C771.17 40.2726 771.17 40.0282 771.529 39.9707C772.863 39.7838 772.761 40.1432 773.017 40.3445C773.479 40.7614 774.71 40.8477 775.942 40.8477C779.379 40.862 782.868 40.8477 786.306 40.8477C787.383 40.8477 788.153 41.2215 788.05 41.6384C787.948 42.0122 787.743 42.3428 786.152 42.4147C785.126 42.4578 784.613 42.616 784.408 42.9323C784.202 43.2773 784.921 43.5073 786.922 43.4498C790.257 43.3636 793.9 43.8524 796.773 42.9898C801.134 42.9323 805.495 42.8172 809.446 43.5073C810.318 43.6655 810.626 43.9099 810.421 44.1686C810.318 44.298 809.6 44.4849 809.189 44.4705C807.24 44.4705 805.649 44.5856 804.007 44.9306C802.365 45.2756 800.159 44.2405 798.312 44.9881C795.131 44.7006 791.591 44.7006 788.615 44.3555C783.074 43.6942 777.584 44.0249 772.042 44.0967C771.632 44.0967 771.119 44.5137 771.016 44.7437C770.862 44.9881 770.657 45.2756 771.683 45.4625L778.353 45.8938C779.687 45.405 781.688 46.397 782.92 45.7357C784.869 45.8938 786.87 46.052 788.82 46.2245C789.077 46.2532 789.282 46.3395 789.487 46.397C789.231 46.4545 789.025 46.5407 788.769 46.5695C788.204 46.627 787.589 46.6701 786.973 46.6701C785.177 46.6701 783.792 46.6701 785.382 47.3746C786.049 47.6765 784.51 47.6909 783.792 47.6909C774.659 47.7052 765.526 47.7052 756.394 47.7196C753.879 47.7196 751.365 47.7052 748.851 47.7196C746.337 47.7196 746.594 48.0215 747.722 48.4959C747.979 48.5966 746.85 48.9129 746.645 49.1573C745.773 50.063 743.669 50.4368 740.437 50.3936C738.538 50.3793 736.64 50.3361 734.793 50.3793C730.534 50.4799 726.071 50.1061 722.017 50.8393C721.607 50.9112 720.324 50.6955 719.606 50.5518C718.682 50.3793 717.81 50.3936 716.989 50.523C715.963 50.6812 716.219 50.9831 716.63 51.2131C717.656 51.8169 718.734 52.4207 719.811 53.0102C716.168 53.1395 716.014 53.1827 717.4 54.1603C718.015 54.6059 716.938 54.5341 716.271 54.6347C714.167 54.9654 714.116 55.0085 714.937 55.5835C715.142 55.7273 715.45 55.8711 715.758 56.0005C715.193 56.0436 714.578 56.173 714.065 56.1298C713.192 56.0723 711.91 55.7561 711.704 55.8136C708.882 56.6043 706.625 55.7848 704.162 55.6267C703.341 55.5835 702.212 55.2385 701.905 55.3104C698.877 55.9286 694.568 55.4398 691.746 56.1874C692.156 56.8918 693.798 57.2512 696.209 57.28C698.672 57.3087 700.981 57.28 703.444 56.9637C707.908 56.3886 709.549 56.6618 711.499 57.7544C712.012 58.0419 711.91 58.2144 711.243 58.4013C710.114 58.7176 708.934 59.0626 707.292 58.6889C705.958 58.4013 704.265 58.1425 703.033 58.3582C699.904 58.9045 696.569 58.847 693.182 58.8757C692.823 58.8757 692.515 59.077 692.207 59.1776C692.464 59.2352 692.669 59.3358 692.926 59.3502C695.388 59.4077 697.851 59.4364 700.314 59.4939C700.519 59.4939 700.724 59.5946 700.981 59.6521C700.724 59.7096 700.468 59.8102 700.211 59.8102C696.568 59.8533 692.823 60.1696 689.334 59.5514C689.078 59.4939 688.257 59.5946 687.898 59.6808C686.41 60.0402 685.127 59.9252 683.742 59.6089C682.561 59.3358 681.125 59.3645 680.714 59.7527C680.099 60.3421 679.586 60.3421 677.687 60.0977C675.019 59.7527 674.814 59.8246 672.762 60.6153C671.941 60.9316 671.325 60.7878 670.658 60.6297C669.324 60.3134 668.247 59.7815 666.143 60.3421C665.835 60.4284 664.809 60.4428 664.398 60.3565C660.037 59.5371 655.317 60.069 650.751 60.069C648.647 60.6728 646.903 60.2128 644.953 59.9396C643.568 59.7527 641.874 60.0546 640.592 60.529C639.668 60.8741 638.745 61.3772 637.513 61.4491C634.845 61.6073 631.972 61.4348 629.509 61.9523C629.15 62.0242 627.919 61.7654 627.046 61.6935C625.918 61.6073 624.789 61.5354 623.66 61.4635C623.506 61.1904 622.942 60.9891 622.018 60.9747C616.99 60.8453 612.116 60.946 607.806 61.8517C606.215 62.1823 604.984 61.9236 604.573 61.3773C604.368 61.0897 603.496 60.9316 602.47 61.0178C601.033 61.1472 599.648 61.3341 598.263 61.521C597.442 61.6217 597.339 61.7942 597.955 61.8948C599.032 62.0673 600.161 62.1967 601.238 62.3405C602.316 62.4842 603.393 62.6424 604.471 62.8005C603.547 63.1312 602.265 63.0449 601.033 63.0593C599.956 63.0593 599.545 63.2606 598.981 63.4906C597.134 64.2525 596.364 64.2957 595.441 63.6631C593.696 62.5417 590.105 62.3117 586.616 62.0242C585.949 61.9667 584.871 62.168 584.153 62.2973C583.537 62.4124 584.461 62.8724 585.692 63.0737C586.205 63.1599 586.872 63.2031 587.334 63.3037C587.847 63.4187 587.642 63.9075 587.078 63.9794C583.435 64.5257 579.638 64.8132 575.533 64.5401C575.123 64.5113 574.866 64.2813 574.661 64.1375C574.353 63.9363 574.661 63.7494 575.379 63.7206C576.919 63.6487 578.458 63.6056 579.997 63.5912C581.075 63.5768 581.947 63.4475 581.895 63.1743C581.895 62.9443 581.382 62.6711 580.818 62.4986C578.509 61.8804 575.79 61.521 572.506 61.4923C569.479 61.4635 566.298 61.6073 563.579 61.0178C563.271 60.9603 562.45 61.0753 561.885 61.1185C562.039 61.2622 562.091 61.4204 562.398 61.5498C563.373 61.9379 563.219 62.6136 565.836 62.6424C566.554 62.6424 567.273 62.9587 567.991 63.1312C568.196 63.1887 568.504 63.3324 568.504 63.3468C568.094 63.4475 567.683 63.5769 567.17 63.62C564.81 63.8644 563.373 63.2174 561.372 63.1312C561.321 63.62 561.526 64.1807 558.704 64.1232C558.089 64.1232 557.216 64.08 556.909 64.1663C555.215 64.6407 553.83 64.5976 552.496 64.0656C551.624 63.7206 550.7 63.7062 549.52 63.9938C548.34 64.2813 547.314 64.0369 546.236 63.8788C543.671 63.505 541.106 63.4618 538.438 63.9219C536.283 64.2957 533.923 64.7126 531.152 64.195C530.844 64.1375 530.023 64.2669 529.561 64.3532C526.996 64.842 524.174 64.8276 521.711 64.4107C517.812 63.7494 512.938 64.6263 509.346 63.7062C508.115 63.9506 506.935 64.2238 506.524 64.6551C505.908 64.6551 505.344 64.6695 504.728 64.6982C504.267 64.7126 499.854 64.6982 499.187 64.6838C498.264 64.6838 497.289 64.6838 496.416 64.7413C495.544 64.7845 495.442 64.9282 495.903 65.1008C496.93 65.4602 496.878 65.6614 494.98 65.7046C492.312 65.7764 490.465 65.2014 488.105 65.0289C488.464 64.8132 489.285 64.5257 489.079 64.3819C488.515 64.0225 484.975 64.08 484.205 64.4107C483.538 64.7126 484.205 64.31 484.77 64.6263C485.18 64.8851 485.488 65.1295 484.308 65.1726C482.461 65.2301 480.562 65.1726 478.664 65.1726C477.073 65.1726 475.534 65.1726 473.944 65.2158C472.148 65.2589 470.301 65.1151 468.556 65.4745C466.812 65.8196 465.478 65.0001 463.579 65.2158C463.323 65.2445 462.912 65.2158 462.656 65.2445C461.732 65.3595 461.168 65.5464 461.271 65.834C461.578 66.8116 461.63 66.8116 459.424 66.8116C457.217 66.8116 454.549 66.6103 452.959 66.8978C449.932 67.4297 446.904 67.2428 443.877 67.286C442.389 67.3003 440.645 67.3147 439.362 67.1422C437.72 66.9122 438.746 66.3515 438.49 65.9346C438.233 65.5608 437.669 65.2733 436.745 65.0432C436.386 64.957 435.822 64.9139 435.309 64.8851C435.206 64.8851 434.847 65.0145 434.847 65.0864C434.744 65.2589 434.847 65.4314 434.744 65.6183C434.385 66.9266 434.231 66.9553 430.127 66.3803C428.536 66.1646 426.946 65.949 425.355 65.7477C425.355 65.6758 425.304 65.5752 425.15 65.5321C422.79 64.7413 422.584 64.6982 420.378 65.3308C418.48 65.8771 416.633 65.8483 414.478 65.6039C413.349 65.4745 411.707 65.4027 411.194 65.1583C409.911 64.4969 408.629 64.0081 405.602 64.1088C405.294 64.1088 404.627 63.8788 404.575 63.735C404.319 63.2749 403.652 63.0881 402.369 63.4618C400.522 63.9794 398.932 64.4826 396.161 63.7925C395.391 63.6056 393.134 63.5337 392.672 63.6775C390.568 64.3676 388.413 63.9075 387.028 63.6344C383.847 63.0018 380.204 62.9155 377.28 63.2749C374.201 63.6487 371.277 63.62 368.198 63.6487C365.684 63.6775 363.17 63.6487 360.656 63.6775C359.732 63.6775 359.168 63.8931 359.065 64.1663C357.218 64.1807 355.012 64.3676 353.678 64.1375C350.189 63.5625 346.495 63.7206 342.852 63.6344C341.672 63.6056 340.594 63.4043 339.466 63.2749C338.593 63.1743 337.619 63.1024 336.952 63.3324C336.798 63.39 337.465 63.5912 337.567 63.7494C337.875 64.08 338.132 64.4107 338.234 64.7413C338.234 64.8707 337.67 65.0145 337.362 65.1439C337.157 65.072 336.849 65.0145 336.798 64.9426C335.977 63.8644 333.36 63.5912 329.82 63.6775C327.973 63.7206 326.126 63.6631 324.432 64.0081C323.868 64.1232 322.534 64.1232 321.918 64.0081C320.225 63.7062 318.07 63.4618 316.685 63.7925C314.581 64.3101 313.247 63.5193 311.913 63.6919C309.861 63.965 308.168 63.8356 306.167 63.6919C304.166 63.5481 301.857 63.6775 299.702 63.735C298.83 63.7637 298.932 63.9075 299.497 64.1088C300.01 64.2957 300.626 64.5976 300.42 64.7845C299.702 65.3883 298.676 64.842 297.752 64.7845C295.084 64.612 292.006 64.8995 289.748 64.2238C287.029 64.2813 284.207 63.9506 281.539 64.4538C280.616 64.6263 279.23 64.6838 278.05 64.6838C275.228 64.7126 272.406 64.6838 269.584 64.6838C265.223 64.6982 261.272 63.9219 256.809 64.1088C256.552 64.1088 256.244 64.0369 256.039 63.9794C255.885 63.9363 255.731 63.85 255.783 63.8212C255.936 63.7494 256.193 63.6631 256.45 63.6487C257.219 63.5912 258.604 63.5912 258.348 63.3181C258.091 63.0449 257.065 62.5992 255.834 62.7718C254.551 62.9587 253.884 63.0449 252.755 62.7143C252.037 62.4986 251.421 62.0673 250.087 62.2398C249.574 62.3117 249.626 62.6999 249.472 62.9587C249.42 63.0449 249.626 63.1599 249.472 63.2174C249.164 63.3181 248.497 63.4762 248.343 63.4475C247.009 63.2174 245.47 62.9012 244.187 63.3181C242.648 63.8213 241.673 62.9299 240.39 63.2749C239.056 63.6344 238.338 63.3325 237.414 63.1024C236.132 62.7574 236.388 62.3117 236.08 61.8804C235.875 61.6073 234.849 61.4923 233.874 61.5641C233.361 61.5929 232.848 61.751 232.643 61.8804C232.437 62.0386 232.591 62.2255 232.54 62.398C232.386 62.9587 232.284 62.8868 229.051 63.3037C227.255 63.5481 225.613 63.7637 223.869 63.4475C220.944 62.9155 218.123 62.8293 215.147 63.39C212.889 63.2606 210.632 62.8293 208.528 63.5337C208.323 63.5912 207.194 63.5337 206.835 63.4475C205.296 63.0305 203.448 63.0593 201.55 63.0737C199.036 63.0881 196.522 63.0737 194.008 63.0737C192.212 63.0737 191.083 62.8868 190.775 62.3549C190.673 62.1248 190.057 62.0673 189.493 62.1823C188.415 62.3836 187.492 62.628 187.081 61.9954C186.722 61.4204 184.824 60.9891 185.029 60.3134C185.132 59.954 183.592 59.8102 182.207 59.9971C181.13 60.1409 180.052 60.5722 178.975 60.3565C177.128 59.9684 174.973 59.954 172.92 59.7671C172.664 59.7383 172.51 59.6521 172.356 59.5946C172.869 59.5083 173.433 59.4364 173.946 59.3358C174.408 59.2495 175.28 59.1633 175.28 59.077C175.28 58.7176 171.945 58.1857 170.919 58.3726C169.688 58.5882 168.559 58.8614 168.2 59.2927C167.174 59.1489 166.199 58.962 165.122 58.8901C163.89 58.8039 162.864 58.9333 162.556 59.3214C159.375 58.9333 157.117 57.855 152.808 58.2576C150.447 57.51 146.856 57.9413 144.137 57.5531C141.109 57.1218 138.134 56.6905 135.106 56.2592C134.029 56.1011 132.9 55.9573 131.874 55.7704C131.31 55.6698 130.745 55.6554 130.386 55.8711C128.796 56.8918 123.254 56.3742 122.023 57.5962C121.766 57.8694 118.175 57.855 117.918 57.5531C117.046 56.6905 114.583 56.7337 112.326 56.5324C111.967 56.5036 112.018 56.1011 111.864 55.8711C115.148 55.7129 115.507 54.2465 119.765 54.5053C120.535 54.5484 120.689 54.3472 120.278 54.1603C119.868 53.9878 118.79 53.7721 120.278 53.5708C120.535 53.5421 120.894 53.5277 121.151 53.5277C123.613 53.5852 126.384 53.2833 128.385 53.7865C131.156 54.4765 132.746 53.3264 135.055 53.5421C135.619 53.5996 136.081 53.7433 136.594 53.844C137.159 53.959 137.723 53.9015 137.826 53.6858C137.928 53.5421 137.774 53.2402 137.467 53.2258C134.285 52.967 130.848 52.9383 127.821 52.4926C120.535 52.6651 114.481 51.0837 107.092 51.3569C106.836 51.3569 106.579 51.2562 106.271 51.2418C103.296 51.0693 100.987 49.8186 97.2412 50.7818C95.9072 50.5805 93.7522 50.4655 93.3418 50.1492C91.5973 48.9416 87.3388 49.1141 84.209 48.7979C81.1818 48.4959 77.4363 48.9991 74.4092 48.3234C72.1516 49.2148 70.1506 48.4097 67.9957 48.2803C66.1486 48.1653 63.3267 49.0998 64.4041 49.4879C66.6104 50.2786 65.7895 51.1556 66.1999 52.0038C66.3025 52.2626 66.9695 52.4207 67.8931 52.4638C68.1496 52.8233 68.9705 52.9814 70.3046 52.9958C71.7412 52.9958 73.2291 52.9958 73.6395 53.499C75.6919 53.6283 75.4353 54.074 75.3327 54.5053C75.2301 54.9222 74.3579 55.1091 72.9726 55.1235C71.2281 55.1522 69.8941 54.9078 68.9705 54.5484C68.0983 54.2178 67.5852 53.7865 66.7643 53.4414C66.046 53.1539 64.8659 52.9095 63.5832 53.0677C62.9675 53.1395 62.6084 53.4558 62.3005 53.6715C62.0953 53.8296 62.3005 54.0453 62.044 54.189C61.7874 54.3184 61.223 54.4334 60.71 54.4909C59.6325 54.5916 58.7603 54.4047 58.6577 54.1459C58.4011 53.5277 58.6576 52.8664 55.22 52.9814C54.6556 52.9958 53.9886 52.9239 53.5269 52.8233C47.9856 51.8169 42.2904 51.4287 36.0309 52.3776C35.21 52.507 33.6194 52.3345 32.4906 52.2194C31.6697 52.1332 30.9514 51.9175 30.2844 51.7306C28.9504 51.3856 27.4625 51.3137 26.2311 51.7019C24.0761 52.3776 22.0751 52.7226 19.2019 51.9463C18.1757 51.6588 16.5339 51.5294 15.0973 51.3712C12.4293 51.0981 11.2492 50.5949 11.1466 49.7898C11.0952 49.2148 11.8136 48.5678 9.96647 48.0359C9.19685 47.8202 10.6335 47.6477 11.0953 47.4752C11.8136 47.2164 12.5832 47.2739 13.3015 47.4752C14.225 47.7196 14.9433 47.9928 15.046 48.3666C15.046 48.4384 15.6104 48.5534 15.6104 48.5534C16.0208 48.4672 16.6365 48.3809 16.6878 48.2803C17.3035 46.857 17.047 46.7564 12.4806 46.0519C10.5822 45.7644 8.73508 45.4481 6.93931 45.1175C6.47754 45.0312 6.27232 44.8443 5.91317 44.7149C6.47755 44.6574 7.04193 44.5424 7.60632 44.5424C9.14555 44.5137 10.7361 44.5424 12.3267 44.5137C14.4303 44.4849 14.4303 44.4705 14.9946 43.4498C15.5077 43.3779 16.226 43.3348 16.3287 43.2342C16.6878 42.9179 16.38 42.4866 17.047 42.2422C18.3297 41.739 18.6375 41.3796 16.5852 40.9771C15.3538 40.7327 14.379 40.3589 13.3015 40.057C15.713 39.1225 13.045 39.2806 11.0953 39.18C9.96648 39.1225 8.99163 38.835 7.81155 38.7343C5.5027 38.5331 3.65561 37.9724 0.987604 38.073C0.782373 38.073 0.525827 37.9724 0.269287 37.9149C0.67975 37.8142 1.0389 37.6417 1.44937 37.6274C5.50269 37.5986 9.55602 37.613 13.6093 37.5842C13.8659 37.5842 14.4816 37.3111 14.379 37.2823C13.4554 36.9373 11.8649 36.6497 11.5057 36.2616C10.89 35.6003 9.65863 35.4421 7.5037 35.4996C6.58016 35.5284 5.60531 35.514 4.78439 35.4277C3.24515 35.2552 4.52784 35.0539 4.83569 34.8671C5.09222 34.7233 5.29745 34.5652 5.55399 34.4214C6.47753 34.2632 7.34977 34.0188 8.32462 33.9901C11.0952 33.9182 11.2492 33.415 11.2492 32.8544C14.225 32.725 16.3287 33.3432 18.6888 33.6594C21.3568 34.0045 23.4091 34.0189 25.3075 33.3575C26.3337 32.9981 27.6677 32.8256 29.4122 32.8544C31.2592 32.8831 33.1576 32.8112 35.056 32.8112C37.211 32.8112 37.4162 32.4374 37.6214 31.9486C37.878 31.388 38.2884 31.3017 39.4172 31.5317C42.0852 32.078 45.8307 31.388 48.1908 32.1787C48.3961 32.0205 48.8065 31.8768 48.8065 31.7186C48.8065 31.4167 48.1908 31.2729 47.0621 31.2298C46.4977 31.2011 46.0359 31.0717 45.4715 30.9854C45.9846 30.8992 46.3951 30.7698 46.9595 30.741C47.883 30.6979 48.8579 30.6835 49.7814 30.7123C52.5007 30.7985 54.3478 30.5541 55.4253 29.7922C55.8357 29.5046 57.9906 29.7059 58.2472 30.0797C58.4011 30.3385 58.2472 30.6116 58.4011 30.8704C58.5037 30.9854 59.1707 31.0573 59.5812 31.1292C59.6325 31.1292 60.043 31.0142 60.1969 30.9423C62.1979 29.9934 64.2502 29.8784 65.7382 30.6979C67.0209 31.4167 68.5601 31.7618 71.4333 31.7618C73.8961 31.7618 76.7693 31.4886 78.719 31.963C81.541 32.6387 83.2854 31.6611 85.5943 31.7761C86.4665 31.8193 87.3901 31.8624 88.2623 31.9343C89.1345 32.0061 89.9041 32.1499 90.7764 32.2074C91.9565 32.2937 92.6235 31.6755 93.9575 31.9774C94.9836 32.2074 96.369 32.1787 97.3438 32.3368C100.833 32.8544 104.578 32.7825 108.272 32.7969C109.863 32.7969 111.402 32.8256 112.993 32.7969C114.173 32.7969 116.174 32.9262 116.328 32.5812C116.533 32.2074 114.583 32.3368 113.557 32.2649C111.197 32.1068 109.299 31.6324 106.528 31.6899C103.809 31.7474 101.5 31.1292 98.5239 31.1867C96.2663 31.2298 95.9585 30.9423 97.3438 30.1372C97.9595 29.7634 97.2412 29.6628 96.4716 29.634C94.9323 29.5765 93.3418 29.5909 91.8025 29.5478C91.546 29.5478 91.2895 29.4471 91.0329 29.404C91.3921 29.3034 91.7512 29.1596 92.1617 29.1309C93.0852 29.0877 94.0088 29.1165 94.9836 29.0877C95.2402 29.0877 95.7019 28.944 95.6506 28.9152C95.4454 28.8002 95.1376 28.6133 94.7784 28.5989C93.547 28.5558 92.2643 28.5702 91.0329 28.5845C89.5963 28.5845 89.0319 28.8002 88.7241 29.2171C87.8518 30.3529 86.6204 30.6691 83.542 30.6835C81.3357 30.6835 79.1295 30.6835 76.9232 30.6835L68.2522 29.9503C66.0973 29.6196 66.0973 28.9152 64.8146 28.4408C64.3528 28.2827 64.5067 28.1101 65.379 28.0814C66.9182 28.0239 68.5088 28.0814 70.048 28.0239C70.9716 27.9951 71.5872 27.7938 71.5872 27.5063C68.3035 27.1181 65.379 26.5431 61.5309 26.3993C57.888 26.2556 54.4504 25.8099 50.6023 25.9249C48.8065 25.968 46.9081 26.0112 45.1637 25.6661C43.3166 25.2923 42.0339 26.0974 40.0842 25.9393C38.9041 25.8386 37.3649 25.9537 36.4927 25.7811C34.1838 25.3067 31.6697 25.4505 29.2069 25.4074C27.3085 25.3642 25.4102 25.3355 23.5631 25.4074C21.1516 25.4936 19.8176 24.861 17.4574 24.8323C14.7894 24.8035 14.7894 24.6598 14.9433 23.7541C15.0973 22.8196 17.4574 22.3308 20.9977 22.5896C24.1275 22.8196 27.1033 22.9202 29.5661 22.1439C30.1305 21.957 31.1566 21.7557 31.9263 21.7701C35.3126 21.8276 38.8015 21.4682 42.0339 22.0433C43.7271 22.3452 45.6255 22.2445 47.3186 21.9282C47.8317 21.842 48.6526 21.7126 49.0118 21.7701C51.885 22.2589 54.0912 21.7701 56.4001 21.4394C57.7854 21.2382 59.1707 21.0513 60.5047 20.85C63.2241 20.4331 66.6104 20.85 69.1758 20.2606C71.2794 20.8213 73.8961 20.6919 76.3589 20.6056C79.1808 20.505 81.2331 20.7925 82.875 21.3963C83.5933 21.6551 84.4142 21.5545 85.1838 21.3963C86.3126 21.1375 87.4927 21.1375 88.5701 21.3963C89.545 21.612 90.3659 21.8851 91.3921 22.0864C91.4947 22.1008 91.546 22.1151 91.5973 22.1295C91.5973 22.1008 91.5973 22.0433 92.0591 22.0001C92.2643 21.9714 92.4696 21.8276 92.3669 21.7845C91.8025 21.4107 91.1355 21.0369 90.5198 20.6631C89.5963 20.4762 88.5188 20.3037 87.7492 20.0737C85.9534 19.5561 86.7744 18.8948 87.0822 18.3198C87.2875 17.9747 89.1345 18.061 90.3146 17.9891C91.1868 17.946 92.0078 17.8022 92.7774 17.6585C93.2905 17.5722 93.9062 17.3997 93.9062 17.2703C93.9062 16.954 92.88 16.9684 92.0078 16.954C90.7764 16.954 89.2885 16.954 88.9293 16.5515C88.5701 16.1921 87.8518 15.9333 86.9796 15.6889C86.0048 15.4157 84.876 15.3582 83.542 15.387C82.1054 15.4157 81.3357 15.5882 81.0792 16.0051C80.874 16.3214 80.053 16.3502 79.2321 16.1345C78.5651 15.9476 77.9494 15.732 77.1798 15.6026C76.4615 15.4876 75.4353 15.4013 74.6657 15.4588C73.6396 15.5307 72.8699 15.9764 71.5872 15.6026C70.5611 15.3007 68.4061 15.4588 67.9444 14.8982C67.8418 14.74 67.38 14.5963 67.0721 14.4525C66.6617 14.6681 66.2512 14.8694 65.8921 15.0851C65.4303 15.3151 64.7633 15.3438 64.6094 15.1282C64.045 14.28 61.7874 14.2512 59.6838 14.395C52.5007 14.9125 52.5007 14.9413 46.4977 14.4525C44.0349 14.2512 41.6234 14.1937 39.3659 14.6538C37.9293 14.9557 36.1848 14.9413 35.0047 14.7256C33.3116 14.4237 31.6184 14.3519 29.72 14.2943C28.4886 14.2656 27.8729 13.8199 28.7452 13.4893C30.0792 12.9573 30.387 12.1523 33.4142 12.0373C35.5691 11.2897 38.4424 11.1172 41.7261 11.1603C45.1637 11.2034 48.6526 11.2753 52.0903 11.1603C55.6818 11.0309 58.2472 11.9654 61.9414 11.7497C64.6094 11.5916 65.5842 12.8136 68.2522 12.6698C70.8689 12.5261 73.2291 11.8935 75.9484 12.5548C76.4615 12.6842 76.8206 12.5979 77.4876 12.4829C80.1043 12.0804 82.7724 12.1235 85.4404 12.526C86.877 12.7417 86.6205 12.3391 86.9796 12.1379C87.2362 11.9941 87.8518 11.721 87.9545 11.7353C90.2633 11.9941 93.3931 11.8504 94.5732 12.7129C97.3438 12.7273 100.114 12.7417 102.885 12.7704C104.681 12.7848 105.861 12.5979 106.015 12.0516C108.529 11.5916 111.146 10.8728 114.173 11.2897C116.636 11.6347 118.893 11.6347 121.356 11.6635C123.511 11.6922 126.025 11.5628 127.718 11.836C130.745 12.3248 133.875 12.2673 136.748 12.1666C139.724 12.066 142.187 12.8711 145.419 12.296C147.01 12.0229 149.678 12.1954 151.833 12.2241C154.398 12.2673 156.091 11.5053 158.708 11.7066C158.862 11.9078 159.016 12.1235 160.042 12.0516C160.35 12.0229 160.504 11.836 160.709 11.7066C161.222 11.6491 161.838 11.606 162.197 11.4909C163.48 11.1172 164.814 11.0596 166.25 11.4191C167.174 11.6491 168.097 11.8791 169.072 12.1235C170.765 11.5628 172.202 12.066 173.793 12.181C175.486 12.296 178.102 11.4191 177.435 10.9734C177.23 10.844 176.563 10.7002 176.05 10.6859C175.127 10.6427 173.844 10.5996 173.331 10.729C171.432 11.2034 170.098 11.0453 168.816 10.5565C167.943 10.2258 166.969 10.1539 165.84 10.4702C165.07 10.6859 164.147 10.6571 163.326 10.5277C162.094 10.3265 162.864 9.622 160.555 9.622C159.016 9.622 157.425 9.59325 155.886 9.57887C155.578 9.57887 155.27 9.57887 155.014 9.57887C153.475 8.93193 152.705 8.93193 151.268 9.57887C150.653 9.57887 150.037 9.60762 149.37 9.622C148.754 10.1395 147.677 10.5277 145.573 10.6283C145.419 10.3839 144.855 10.2114 143.983 10.1539C143.059 10.0964 142.084 10.1539 141.212 10.0821C140.75 10.0533 140.237 9.86641 140.083 9.72264C139.775 9.44949 140.34 9.20509 141.263 9.1332C142.136 9.06132 143.162 9.1332 144.034 9.06132C144.444 9.03256 144.804 8.87443 145.163 8.77379C143.829 8.42876 144.085 7.72432 142.084 7.56617C141.007 7.47992 139.468 7.53741 138.544 7.70993C136.133 8.1556 134.183 8.09811 131.771 7.68119C128.642 7.13488 125.153 6.83298 121.253 6.96237C118.483 7.04863 115.302 6.76109 112.941 7.04862C109.914 7.40803 107.195 7.68119 104.219 7.23552C101.551 6.84736 98.1134 6.9336 96.1124 6.1429C95.7533 5.99913 94.1114 5.91288 93.6496 6.01352C92.1617 6.34417 91.0842 6.31542 89.8528 5.92726C88.5188 5.49596 87.1335 5.36657 84.9786 5.6541C81.8488 6.05664 78.4625 6.12851 75.2814 5.59658C73.4856 5.29468 71.6899 5.3522 70.0993 5.68286C69.0732 5.89851 68.6114 5.68286 67.7905 5.61098C66.713 5.49596 65.5329 5.45283 64.3528 5.38095C63.5319 4.64775 60.556 4.28835 59.9917 3.48326C59.9403 3.38263 58.2985 3.282 57.5289 3.32512C56.3488 3.38263 55.3226 3.61264 54.1426 3.6989C52.0389 3.85704 49.7301 4.05832 47.883 3.65578C45.5228 3.1526 43.5218 3.18136 41.0591 3.61265C39.8277 3.8283 39.8277 3.41137 39.7764 3.19572C39.725 2.76443 39.5711 2.31876 41.8287 2.2325C43.0088 2.18937 44.1888 2.07436 45.3176 1.94498C48.3961 1.55681 51.9363 1.74371 54.9635 1.21178C56.0923 1.01051 58.042 1.21178 59.5812 1.16866C60.9665 1.15428 61.9927 1.26929 62.8649 1.5712C64.0963 2.00249 65.4303 2.29 67.2774 1.8012C68.9192 2.0456 70.5611 2.26126 72.1516 2.53442C72.7673 2.64943 73.0239 2.62067 73.6909 2.49129C74.6657 2.30439 75.8971 2.20376 77.0259 2.04562C80.053 1.61433 82.875 1.01051 86.1074 0.780487C89.4937 0.536087 91.9565 1.61431 95.3428 1.71494C96.215 1.7437 97.1386 1.8156 97.9595 1.9306C99.2935 2.1175 101.192 2.24689 101.756 2.56317C102.629 3.0376 102.834 3.08073 104.835 2.92258C109.709 2.5488 110.581 2.6638 119.765 3.65578C121.099 3.79954 122.074 3.78517 123.1 3.52639C124.126 3.26762 125.307 3.21011 126.384 3.49763C127.615 3.82829 129.155 3.91456 130.745 3.84268C132.9 3.72766 134.388 4.01518 135.517 4.46085C136.953 5.00716 137.928 4.57586 139.262 4.43209C140.442 4.30271 141.571 4.46085 141.828 4.86339C143.624 4.86339 145.573 5.06467 147.112 4.66212C148.703 4.2452 150.653 4.3746 152.5 4.3746C153.885 4.3746 154.86 4.51836 155.116 4.94965C155.219 5.09341 155.732 5.35219 156.091 5.35219C159.221 5.36657 162.3 5.3522 165.429 5.33782C167.482 4.53274 169.072 5.46721 170.971 5.45284C171.689 5.45284 171.945 5.72599 171.432 5.79788C169.534 6.07103 167.533 6.30105 165.583 6.55983C165.327 6.60295 165.122 6.67483 164.865 6.73234C165.07 6.78984 165.224 6.8761 165.429 6.89048C168.816 7.10612 172.305 7.32177 175.024 6.45918C176.768 5.91288 178.821 5.94164 181.027 5.97039C181.335 5.97039 181.694 5.97039 181.95 5.97039C182.258 5.98476 182.72 6.05665 182.72 6.0854C182.72 6.21479 182.617 6.37291 182.31 6.47355C181.745 6.6892 181.078 6.87609 180.411 7.06299C179.693 7.24989 179.796 7.36491 180.719 7.43679C183.592 7.63806 186.209 7.4799 188.723 7.03423C189.082 6.97673 189.852 7.10612 190.416 7.14925C190.262 7.29301 190.262 7.47992 189.903 7.56617C189.236 7.76744 189.236 7.86807 190.057 7.93995C190.981 8.01184 191.75 7.98309 192.674 7.8537C195.137 7.49429 195.239 7.52304 196.727 8.12685C197.292 8.35688 197.805 8.55816 198.831 8.51503C199.395 8.48627 199.908 8.37126 200.473 8.31376C204.372 7.96872 208.323 7.79619 212.12 8.41438C213.043 8.55814 214.121 8.67315 214.685 8.50064C216.532 7.92558 219.559 8.19874 221.458 7.72432C222.586 7.43679 223.766 7.53741 224.793 7.78181C226.229 8.12685 227.615 8.48626 228.949 8.86005C230.077 9.17633 230.642 8.8313 231.155 8.68754C233.156 8.11248 233.053 7.88246 230.693 7.52305C228.949 7.26427 228.846 7.178 230.077 6.86172C230.693 6.70358 231.257 6.43043 232.386 6.70358C234.233 7.16362 235.413 7.99747 238.133 7.96872C242.083 7.93996 246.034 8.285 250.087 7.72432C253.422 7.26427 257.373 7.26427 260.4 8.19874C260.965 8.37126 261.991 8.54376 262.812 8.54376C266.249 8.57252 269.687 8.54376 273.125 8.54376C274.664 7.86807 276.511 8.68754 277.742 8.51503C280.667 8.09811 282.976 8.4 285.182 8.81692C286.721 9.10445 287.799 9.1332 289.338 8.86005C290.313 8.68753 291.647 8.65878 292.878 8.61565C294.469 8.55814 294.93 8.29936 294.879 7.91119C294.879 7.73868 294.828 7.55179 294.93 7.37927C295.084 7.13487 295.392 6.89048 295.649 6.64608C297.085 6.8186 296.675 7.17801 296.726 7.49429C296.726 7.66681 296.624 7.85369 296.726 8.02621C296.829 8.18435 297.085 8.37125 297.496 8.45751C297.906 8.54377 298.676 8.58691 299.24 8.55816C300.113 8.51503 300.215 8.35688 299.753 8.19874C299.394 8.05498 298.881 7.91119 298.779 7.75306C298.573 7.49428 298.625 7.20677 299.651 7.07738C300.933 6.91924 303.601 7.03425 304.115 7.23552C304.833 7.52305 304.115 7.13488 303.601 7.45116C303.242 7.66681 302.37 7.83933 303.345 8.08373C305.962 8.75942 308.886 9.14758 312.58 9.10444C314.376 9.07569 315.556 8.98944 315.761 8.41438C315.864 8.16998 316.48 8.14123 317.095 8.285C317.609 8.38563 318.378 8.58689 318.635 8.54376C320.892 8.18435 324.176 8.37124 325.305 7.39364C325.869 6.90484 327.562 6.94799 328.64 7.47992C329.307 7.7962 329.461 8.19874 330.641 7.6093C331 7.42241 330.743 6.97675 332.231 7.27865C333.976 7.62368 336.541 7.60929 337.619 8.22748C338.029 8.4575 338.132 8.81692 338.799 8.90318C340.184 9.10445 340.8 8.65878 341.621 8.45751C342.647 8.21311 343.776 8.05496 345.058 8.11246C348.239 8.28498 351.266 8.96069 354.601 8.24187C357.321 8.90319 360.605 8.61565 363.632 8.61565C367.018 8.61565 370.61 8.8313 373.585 8.12685C376.356 8.21312 379.178 7.92559 381.846 8.35688C382.616 8.48627 383.59 8.55815 384.463 8.57252C387.592 8.61565 390.825 8.73067 393.903 8.60128C397.546 8.45752 400.522 9.01819 403.857 9.09008C406.371 9.14758 408.885 9.11884 411.399 9.11884C413.606 9.11884 415.812 9.14758 418.018 9.1332C420.532 9.1332 423.405 9.30573 425.509 9.03258C427.972 8.7163 429.921 8.63004 432.23 8.96069C437.515 8.06935 442.492 8.86006 447.263 9.3201C451.933 9.76577 456.396 9.75139 460.86 9.3776C462.399 9.24821 463.785 9.1332 465.375 9.1332C467.274 9.1332 469.736 9.3201 470.916 9.04695C473.277 8.51502 474.867 9.13321 476.817 9.11884C477.433 9.11884 478.1 9.14758 478.715 9.09008C485.077 8.57253 485.077 8.54376 492.004 8.98943C494.621 8.38562 497.084 9.46387 499.598 9.04695C501.034 8.81693 502.06 8.88881 503.651 8.96069C507.909 9.16196 512.219 9.27697 516.529 8.77379C519.71 8.40001 523.456 8.40001 526.586 8.77379C528.74 9.03257 530.793 9.09008 532.896 9.07571C537.206 9.03258 541.67 9.42074 545.672 8.64441C545.877 8.60128 546.39 8.60128 546.596 8.64441C549.52 9.37761 553.573 8.80254 556.395 9.21946C559.782 9.72263 563.117 9.57887 566.452 9.622C569.889 9.66513 573.378 9.622 576.867 9.622C578.971 8.78816 581.895 9.57888 584.307 9.3201C587.334 9.00382 590.464 9.17633 593.542 9.09008C594.774 9.04695 596.005 9.00383 597.134 8.87444C599.853 8.5294 602.47 8.48627 605.189 8.88881C607.909 9.30573 611.449 8.9463 613.963 9.622C614.425 9.75138 616.118 9.72263 616.682 9.57887C619.145 8.97506 622.018 9.20509 624.789 9.1332C629.406 9.00381 634.229 9.43512 638.539 8.64441C643.824 8.64441 649.16 8.31375 654.188 9.09008C656.959 8.93193 657.472 9.65076 658.909 10.0389C661.064 9.55013 663.783 9.55011 666.143 9.66513C670.094 9.83764 673.275 9.14757 677.02 9.14757C683.331 9.14757 689.591 9.14759 695.901 9.11884C697.595 9.11884 698.929 9.24822 700.057 9.60763C701.084 9.95266 702.726 10.0533 703.957 10.2833C706.112 10.7002 707.548 10.7146 709.806 10.3408C711.756 10.0245 714.065 10.1395 715.552 10.7434C717.092 11.3472 719.452 11.4334 721.453 11.2034C724.634 10.844 727.969 10.7721 731.15 10.5277C737.358 10.0389 740.437 10.0245 747.415 10.5852C748.338 10.6571 749.159 10.7146 750.031 10.5421C753.418 9.82327 757.368 10.3408 761.011 10.2114C762.858 10.1539 764.654 10.1539 766.347 10.5421C767.63 10.844 769.99 10.8728 770.555 10.5134C772.094 9.46387 774.454 9.50698 777.122 9.98141C778.456 10.2114 778.712 9.89516 779.431 9.8089C780.97 9.62201 782.561 9.5645 783.843 9.85203C784.818 10.0677 781.945 10.3839 783.689 10.6283C784.715 10.7721 786.46 10.6284 787.23 10.8152C790.103 11.4909 792.72 12.2673 795.439 13.0005C794.977 13.3886 794.361 13.7624 794.105 14.165C793.746 14.6538 795.131 15.0275 796.824 14.9413C799.851 14.7975 802.622 14.3231 805.803 14.4238C806.008 14.4238 806.316 14.3375 806.521 14.28C806.932 14.165 806.675 13.9493 805.906 13.9493C803.084 13.9781 804.058 12.8855 801.698 12.828C801.647 12.5836 801.647 12.3248 801.442 12.0947C801.237 11.8503 800.775 11.8504 800.108 11.9654C799.441 12.0804 798.62 12.3679 797.902 11.9941C797.183 11.6203 796.516 11.2322 796.055 10.8296C795.747 10.5565 796.362 10.2833 797.286 10.2258C799.082 10.1252 800.98 10.1396 802.827 10.0389C804.007 9.98142 805.085 9.78014 806.265 9.70825C807.599 9.60762 808.984 9.85203 809.087 10.1683C809.189 10.614 809.189 11.0453 809.241 11.4909C809.292 12.0229 808.317 12.2673 806.521 12.3535C805.7 12.3967 805.546 12.6123 806.06 12.6986C807.342 12.9286 809.087 13.0436 809.908 13.3599C811.549 13.9781 812.832 13.5899 814.423 13.403C815.398 13.2736 816.167 13.4749 816.013 13.7624C815.911 13.9637 814.371 14.1218 815.808 14.395C819.502 15.1282 824.274 14.7688 828.122 15.4157C828.738 15.5307 830.379 15.0994 831.303 15.1713C833.047 15.3151 834.638 15.617 836.177 15.9045C837.87 16.2064 837.819 16.9252 836.023 17.2415C833.714 17.6441 831.457 18.1329 828.481 18.1329L827.968 18.0035ZM778.302 32.2937L778.405 32.3512L778.559 32.308H778.302C778.148 32.1787 777.943 32.0637 777.738 31.963C777.738 31.9487 777.173 31.963 777.173 31.9774C777.019 32.2649 777.635 32.2937 778.302 32.308V32.2937ZM771.735 46.4976C771.735 46.4976 772.094 46.4545 772.248 46.4257V46.2676L771.119 46.3682C771.119 46.3682 771.478 46.4832 771.735 46.4976ZM741.771 48.0934L742.335 47.9496L741.719 47.8203L741.155 47.8921L741.771 48.0934ZM740.591 46.1095H740.693V46.0807C741.617 46.0807 742.54 46.0951 743.413 46.0807C745.978 46.0232 747.517 46.8426 750.39 46.6558C752.494 46.512 754.752 46.6126 756.958 46.5982C759.472 46.5982 761.986 46.6126 764.449 46.5982C766.86 46.5839 767.784 46.0232 766.758 45.3044C766.655 45.2325 766.347 45.175 766.142 45.1175C765.937 45.175 765.526 45.2325 765.475 45.3044C765.167 45.7644 764.5 46.1095 762.499 46.0519C761.268 46.0232 759.883 46.1382 758.805 46.0232C757.42 45.8794 756.291 45.5631 754.546 45.5775C750.185 45.635 745.824 45.635 741.463 45.6925C741.206 45.6925 740.95 45.9226 740.693 46.0663H740.591V46.0951C739.719 46.0951 738.846 46.0951 737.974 46.1095C737.717 46.1095 737.307 46.2676 737.358 46.282C737.615 46.397 737.923 46.5551 738.333 46.5839C739.718 46.6701 740.539 46.512 740.591 46.0951V46.1095ZM736.999 48.6972C737.461 48.6253 737.871 48.5391 738.333 48.4672C737.461 48.2659 736.537 48.0503 735.614 47.8634C735.614 47.8634 735.101 47.9784 735.049 48.0503C734.947 48.1365 734.947 48.2372 735.049 48.309C735.203 48.5391 735.973 48.7116 737.05 48.6972H736.999ZM703.239 51.3712C704.008 51.3712 704.367 51.3712 704.675 51.3425C705.24 51.285 705.753 51.1843 706.266 51.1125C705.753 51.0262 705.24 50.9399 704.675 50.8681C704.419 50.8393 704.008 50.8393 703.752 50.8681C702.879 50.9399 702.059 51.0406 701.238 51.1268L703.239 51.3712ZM692.053 51.2418C692.053 51.2418 692.515 51.2706 692.669 51.2418C693.131 51.1556 693.028 51.0406 692.31 50.9687C692.207 50.9687 691.899 51.055 691.797 51.1268C691.797 51.1556 691.951 51.2131 692.053 51.2562V51.2418ZM690.052 55.9717C690.258 56.058 690.822 56.0867 691.284 56.1298C691.284 56.1442 691.284 56.173 691.335 56.1874L691.489 56.1442C691.489 56.1442 691.335 56.1442 691.284 56.1298C691.13 56.0005 691.027 55.8567 690.719 55.7992C690.206 55.7129 689.745 55.8423 690.052 55.9717ZM682.356 51.6731C682.356 51.6731 688.924 51.2706 688.924 51.2562C688.975 51.1987 689.078 51.1412 689.078 51.0693C689.026 50.8249 686.461 50.3505 685.435 50.3936C683.896 50.4511 682.254 50.9543 682.1 51.4287C682.1 51.5006 682.254 51.5869 682.408 51.6588L682.356 51.6731ZM679.278 51.285L679.842 51.1268L679.226 50.9975L678.662 51.0693L679.278 51.2706V51.285ZM122.998 55.2241C122.639 55.296 122.536 55.4829 122.331 55.6267C121.459 55.641 120.535 55.641 119.663 55.6842C119.406 55.6842 119.047 55.8423 119.047 55.8423C119.355 55.9573 119.663 56.1011 120.073 56.1298C121.51 56.2305 122.279 56.0436 122.331 55.6267C122.844 55.5548 123.511 55.526 123.716 55.4254C124.024 55.2816 123.511 55.1379 122.998 55.2241ZM72.4082 53.8871C72.716 53.8296 72.8186 53.6858 72.9726 53.5565C73.0752 53.5565 73.1265 53.5565 73.2291 53.5421L73.0752 53.499C73.0752 53.499 73.0752 53.5421 73.0239 53.5708C72.5621 53.614 72.049 53.6283 71.7925 53.7146C71.4333 53.844 71.8951 53.9878 72.4595 53.9015L72.4082 53.8871ZM77.1798 40.0138C77.6416 40.0857 78.1033 40.2007 78.6164 40.2151C79.7452 40.2582 80.6174 40.057 80.1044 39.9132C79.7452 39.8126 79.0782 39.7407 78.6164 39.7694C78.1033 39.7838 77.6929 39.9276 77.2311 40.0138H77.1798ZM55.1687 49.7323L56.0409 49.3298C55.8357 49.186 55.6305 49.0423 55.4253 48.8985C55.0661 48.9704 54.2965 49.0566 54.3478 49.0998C54.5017 49.3154 54.9122 49.531 55.1687 49.7323ZM47.1647 49.5886C47.5751 49.5598 48.2935 49.5167 48.3448 49.4448C48.4987 49.2291 48.4474 48.9991 48.3961 48.7835C48.4474 48.7835 48.4987 48.7835 48.6013 48.7835C48.6013 48.7547 48.6526 48.7403 48.7039 48.7116C49.3709 48.7116 49.9866 48.6685 49.8327 48.3953C49.8327 48.3809 49.2683 48.3522 49.2683 48.3809C49.0631 48.4816 48.9091 48.611 48.7039 48.7116H48.3961C48.3961 48.7116 48.3961 48.7691 48.3961 48.7835C47.1647 48.8266 46.549 49.0423 46.7029 49.416C46.7029 49.4879 47.0621 49.6029 47.1647 49.5886ZM38.1345 49.186L38.7502 48.9991L38.0832 48.841C38.0832 48.841 37.5701 48.9704 37.5701 49.0135C37.5701 49.071 37.9293 49.1285 38.1858 49.186H38.1345ZM21.3568 35.1258L20.5359 35.284C20.5359 35.284 20.9464 35.4134 21.1003 35.4134C21.3055 35.4134 21.4594 35.3127 21.6134 35.2696L21.3055 35.1258H21.3568ZM23.3065 37.7711C22.383 37.4404 21.3568 37.1098 19.6637 37.1673C19.2019 37.1817 18.5862 37.3254 18.4323 37.4405C18.2784 37.5698 18.381 37.7999 18.6888 37.9005C19.8176 38.2455 21.3568 38.1736 22.8448 38.1018C23.1013 38.1018 23.3065 38.0011 23.5631 37.958C23.4605 37.8861 23.4605 37.8142 23.3065 37.7567V37.7711ZM23.5117 38.9069C23.2552 38.7343 22.7421 38.7631 22.1778 38.9356C20.9977 39.2806 19.4584 39.2087 17.9705 39.2519C17.5087 39.2519 17.0983 39.41 16.6365 39.4963C17.1496 39.5682 17.6113 39.6832 18.1244 39.7263C18.6888 39.7694 19.3045 39.7263 19.9202 39.7263C20.7924 39.7263 21.7673 39.7551 22.5882 39.6975C23.05 39.6688 23.5631 39.4963 23.717 39.3669C23.8709 39.2231 23.717 39.0506 23.4605 38.9069H23.5117ZM24.8458 47.2596C24.5892 47.4752 24.2301 47.6765 24.0761 47.8921C24.0761 47.9209 24.7945 48.0071 25.2049 48.0503C25.4102 47.9065 25.7693 47.7627 25.718 47.6334C25.6667 47.504 25.1536 47.3746 24.8458 47.2596ZM43.7784 36.0316C43.4705 35.9022 42.8548 35.8303 42.4957 35.7153C41.88 35.5428 41.4695 35.5571 41.213 35.7871C41.1104 35.859 41.1104 35.9309 41.0591 35.9884C41.0077 36.3047 41.6747 36.4485 42.5983 36.4772C43.1114 36.4916 43.6758 36.4197 44.1888 36.391C44.0862 36.2616 44.0862 36.1178 43.8297 36.0172L43.7784 36.0316ZM106.887 37.9436C106.425 37.7855 104.989 37.6273 104.527 37.7136C103.142 37.9436 102.218 38.1305 100.628 37.7423C99.4474 37.4548 97.549 37.5123 96.2663 37.7999C94.9836 38.0874 94.2653 37.958 93.2392 37.6992C91.1355 37.1817 90.9816 37.1673 88.9293 37.6992C87.1848 38.1593 86.5178 38.0586 86.1074 37.4405C86.0048 37.3111 85.2864 37.1385 84.8247 37.1242C83.2854 37.0667 81.6949 37.0954 80.1044 37.0667C76.4102 37.0235 72.7673 37.1242 69.1758 36.621C67.38 36.3766 64.045 36.2185 63.3267 37.3111C63.1214 37.5842 61.7874 37.6273 60.9152 37.5411C59.7864 37.4261 58.6576 37.2536 57.6828 37.0379C55.2713 36.4916 52.4494 36.5491 49.6275 36.5204C47.7804 36.4916 46.8568 36.736 46.3951 37.2536C46.1385 37.5698 45.3176 37.8286 44.7019 38.1161C40.392 38.1305 36.0309 38.418 31.9776 37.6848C31.054 37.5123 29.5661 37.8142 29.6174 38.2455C29.6687 38.8781 28.8991 39.2231 26.6415 39.295C26.385 39.295 26.2311 39.41 26.0258 39.4675C26.2824 39.525 26.5389 39.6113 26.7955 39.6113C28.0269 39.6257 29.2582 39.6832 30.4383 39.6113C31.7723 39.5394 38.5963 39.5538 40.0842 39.6544C41.2643 39.7263 42.5983 39.7694 43.7784 39.7119C45.1637 39.6544 46.549 39.3956 47.9343 39.3813C49.0631 39.3813 50.1919 39.5969 51.3206 39.7119C51.5772 39.7407 51.9876 39.7263 52.2442 39.6975C52.8086 39.6257 53.6295 39.5682 53.7321 39.4531C54.04 39.2231 54.1426 38.9212 53.1677 38.7631C52.3981 38.6337 51.4746 38.5762 50.7049 38.418C50.1406 38.303 50.4484 37.7567 51.1154 37.7423C52.9625 37.7136 54.8096 37.6417 56.6567 37.6848C57.6315 37.7136 57.8367 38.0299 57.7854 38.303C57.7854 38.5906 55.374 38.7775 57.1184 39.1225C57.7341 39.2375 58.8116 39.1656 59.7351 39.1656C59.7351 39.1656 59.7351 39.1944 59.7351 39.2088H59.9404C60.1456 39.3669 60.2995 39.5825 60.5047 39.5969C62.6597 39.6688 64.8146 39.7407 66.9695 39.7119C68.9705 39.6832 70.6124 39.7838 72.1516 40.1432C72.8186 40.3014 74.717 40.1145 74.5118 39.9995C74.2553 39.8413 73.7422 39.7263 73.3317 39.5826C72.4595 39.295 71.4333 39.18 70.048 39.1944C66.6617 39.2088 63.2754 39.1944 59.889 39.2088V39.1656C59.889 39.1656 59.7351 39.1656 59.6838 39.1656C59.6838 38.9068 59.5812 38.6337 59.9404 38.418C60.556 38.0443 61.9927 38.1018 63.2241 38.1161C64.1476 38.1161 65.4303 38.0443 65.9947 38.1736C68.4062 38.7487 71.2794 38.6193 74.05 38.6481C76.8206 38.6768 79.7965 38.5043 82.0027 39.18C86.3639 39.1369 90.7764 39.1369 95.0862 38.9931C96.2663 38.95 97.036 38.9356 98.2673 38.9931C101.295 39.1513 104.476 39.1225 107.554 39.1513C107.862 39.1513 108.478 38.9069 108.375 38.835C108.016 38.5043 107.605 38.1593 106.836 37.9005L106.887 37.9436ZM114.07 38.8493C112.993 38.7918 112.941 38.9787 112.89 39.1656L112.736 39.1944C112.736 39.1944 112.736 39.2375 112.685 39.2519C112.223 39.295 111.659 39.3094 111.402 39.41C111.043 39.5394 111.556 39.6832 112.12 39.5969C112.428 39.5394 112.531 39.3813 112.685 39.2519C112.736 39.2519 112.839 39.2519 112.89 39.2375V39.1656C113.352 39.1225 113.762 39.0794 114.173 39.0075C114.224 39.0075 114.173 38.8493 114.121 38.835L114.07 38.8493ZM71.8438 27.19C71.5359 27.2475 71.4333 27.3913 71.3307 27.5063C71.2281 27.5063 71.1768 27.5063 71.0742 27.5207L71.2281 27.5638C71.2281 27.5638 71.2281 27.5207 71.2794 27.4919C71.7412 27.4488 72.2542 27.4201 72.4595 27.3482C72.8186 27.2044 72.3055 27.075 71.7925 27.1757L71.8438 27.19ZM83.1828 27.2332C82.9263 27.2475 82.6184 27.4919 82.6697 27.6213C82.6697 27.7507 83.1828 27.8657 83.4907 27.9807C83.7472 27.8657 84.1577 27.7507 84.2603 27.6357C84.3629 27.4344 84.2603 27.1757 83.2341 27.2332H83.1828ZM90.8277 20.2893C90.5199 20.3468 90.4172 20.505 90.2633 20.6344C90.212 20.6344 90.1094 20.6344 90.0581 20.6487L90.212 20.6919C90.212 20.6919 90.212 20.6487 90.2633 20.6344C90.7251 20.5912 91.2895 20.5625 91.4947 20.4762C91.8538 20.3325 91.3408 20.1887 90.8277 20.2893ZM93.8036 12.6986C93.8036 12.6986 93.7522 12.7417 93.7009 12.7704C93.0852 12.7992 92.3669 12.7992 92.5722 13.1011C92.5722 13.1155 93.1366 13.1299 93.1879 13.1011C93.3931 13.0005 93.547 12.8855 93.7009 12.7704C93.8035 12.7704 93.9062 12.7705 94.0088 12.7561L93.8036 12.6986ZM96.4203 20.85C96.215 20.9938 95.8559 21.1376 95.9072 21.2669C95.9585 21.3963 96.4716 21.5113 96.9333 21.6838C97.1899 21.4251 97.4464 21.2238 97.4977 21.0081C97.4977 20.965 96.7794 20.9075 96.3689 20.85H96.4203ZM107.965 17.5866L107.349 17.7734C107.349 17.7734 107.811 17.9316 108.016 17.9316C108.272 17.9316 108.426 17.8166 108.632 17.7591L107.913 17.6009L107.965 17.5866ZM119.355 32.955L118.739 33.1275C118.739 33.1275 119.201 33.2713 119.406 33.2713C119.663 33.2713 119.868 33.1707 120.073 33.1131L119.355 32.955ZM147.779 36.6641C147.779 36.6641 147.369 36.7647 147.164 36.8223L147.831 36.9948L148.446 36.8079C148.446 36.8079 147.985 36.6497 147.831 36.6641H147.779ZM155.681 37.2967C155.476 37.2104 155.014 37.1817 154.552 37.1529C154.552 37.1242 154.552 37.0954 154.501 37.081H154.193C153.988 36.966 153.834 36.851 153.629 36.736C153.629 36.7216 153.013 36.7504 153.013 36.7648C152.962 37.0379 153.577 37.0667 154.193 37.0667C154.193 37.081 154.244 37.1098 154.296 37.1242C154.398 37.1242 154.501 37.1386 154.552 37.1529C154.655 37.2679 154.757 37.3973 155.014 37.4548C155.527 37.5411 155.989 37.4261 155.681 37.2967ZM168.61 37.6417C168.149 37.5267 167.687 37.4117 167.174 37.2967C166.609 37.1673 166.045 37.2248 165.891 37.4692C165.635 37.8574 166.507 38.1305 167.892 38.1305C168.149 38.1018 168.456 38.0874 168.713 38.0443C169.277 37.9436 169.226 37.7999 168.559 37.6417H168.61ZM141.776 5.22281C141.52 5.09342 141.366 4.94965 141.161 4.82027H141.263L141.058 4.76277L141.161 4.82027C139.057 5.12217 136.902 5.4097 134.491 5.42408C134.234 5.42408 134.029 5.52471 133.772 5.58222C134.029 5.63972 134.234 5.74036 134.491 5.74036C136.953 5.76911 139.416 5.85538 141.828 5.76912C143.316 5.71161 142.136 5.4097 141.828 5.22281H141.776ZM147.369 9.34884C147.574 9.4351 148.139 9.46386 148.6 9.50698C148.6 9.53574 148.6 9.55012 148.652 9.57887L148.806 9.53574C148.806 9.53574 148.652 9.53575 148.549 9.52137C148.395 9.39199 148.293 9.24821 147.985 9.1907C147.472 9.09007 147.01 9.23384 147.318 9.36323L147.369 9.34884ZM152.038 6.07101C150.755 5.84099 149.37 5.68285 147.882 5.4672C147.626 5.52471 146.959 5.61097 146.959 5.69723C146.959 6.22916 146.907 6.7467 145.368 7.14925C145.83 7.22113 146.445 7.39366 146.702 7.36491C148.6 7.12051 150.447 6.84735 152.243 6.53107C152.448 6.50232 152.295 6.12852 151.987 6.07101H152.038ZM189.493 11.7641C187.184 11.6203 185.439 10.9734 182.771 11.1459C182.771 11.1459 182.771 11.1315 182.771 11.1172C182.72 11.1172 182.618 11.1171 182.566 11.1028C182.412 10.9734 182.31 10.8296 182.002 10.7721C181.489 10.6859 181.027 10.8152 181.335 10.9446C181.591 11.0309 182.104 11.0596 182.515 11.1028C182.515 11.1171 182.515 11.1459 182.566 11.1603H182.669C182.412 11.5341 181.335 11.6203 180.103 11.7066C179.334 11.7641 179.129 11.9797 179.642 12.0516C181.54 12.296 183.438 12.5692 185.439 12.7273C187.081 12.8567 188.313 12.526 189.288 12.181C189.801 12.0085 189.903 11.8216 189.288 11.7785L189.493 11.7641ZM189.647 60.529C189.185 60.4284 188.672 60.5722 188.98 60.7159C189.185 60.8022 189.749 60.8309 190.211 60.8741C190.211 60.8884 190.211 60.9172 190.262 60.9316H190.416C190.519 61.3341 191.442 61.4348 192.725 61.3916C192.982 61.3916 193.443 61.3054 193.392 61.2766C193.29 61.1616 193.136 60.9891 192.879 60.9747C192.058 60.9316 191.237 60.946 190.416 60.9316C190.416 60.9172 190.416 60.9028 190.416 60.8885C190.365 60.8885 190.262 60.8884 190.211 60.8741C190.057 60.7447 189.955 60.5865 189.647 60.5147V60.529ZM194.931 38.2312C194.367 38.188 193.751 38.1737 192.725 38.1449L190.57 38.4037C191.442 38.4756 192.263 38.5762 193.136 38.6193C193.7 38.6481 194.316 38.6049 194.931 38.5618C195.188 38.5474 195.393 38.4468 195.65 38.3893C195.393 38.3318 195.188 38.2599 194.88 38.2312H194.931ZM203.859 61.2479C202.371 60.8309 200.575 60.8166 198.779 61.0466C198.42 61.0897 198.318 61.2622 198.112 61.406C198.01 61.406 197.907 61.406 197.805 61.406C197.805 61.4348 197.753 61.4491 197.702 61.4779C197.035 61.4779 196.419 61.5066 196.522 61.7942C196.522 61.8085 197.086 61.8373 197.138 61.8229C197.343 61.7079 197.497 61.5929 197.702 61.4779H198.01C198.01 61.4779 198.061 61.4348 198.112 61.406C199.96 61.3485 201.447 61.5929 202.884 61.8948C203.243 61.9667 204.269 61.9092 204.577 61.8229C205.45 61.5641 204.372 61.3916 203.859 61.2479ZM208.425 61.0178L207.912 61.0897L208.477 61.3197C208.477 61.3197 208.938 61.2047 208.938 61.1616C208.938 61.1041 208.579 61.061 208.425 61.0178ZM216.224 61.0753C216.224 61.0753 215.968 61.0178 215.916 61.0178C215.044 61.1472 215.095 61.2622 215.968 61.3485L216.635 61.176C216.635 61.176 216.378 61.1041 216.224 61.0753ZM227.615 61.6504C227.615 61.6504 227.153 61.5066 226.896 61.5066C225.46 61.4779 224.023 61.4779 222.586 61.4635C222.586 61.4635 222.586 61.4348 222.586 61.4204H222.432C222.432 61.0035 221.406 60.8885 220.124 60.946C219.918 60.946 219.764 61.0035 219.61 61.061C219.457 61.1185 219.303 61.176 219.149 61.2335C219.149 61.2335 219.354 61.291 219.508 61.3341C219.61 61.3629 219.764 61.3916 219.867 61.3916C220.739 61.4204 221.56 61.4204 222.432 61.4348C222.432 61.4491 222.432 61.4635 222.432 61.4779H222.586C222.74 61.8661 223.664 61.9954 224.946 61.9523C225.819 61.9236 226.64 61.866 227.461 61.8085C227.563 61.8085 227.614 61.6935 227.563 61.6648L227.615 61.6504ZM314.222 56.2592C313.35 56.3742 313.401 56.4893 314.273 56.5611C314.376 56.5611 314.633 56.4605 314.838 56.403C314.633 56.3455 314.325 56.2449 314.222 56.2592ZM333.257 40.3589C333.257 40.3589 332.898 40.4739 332.693 40.517C332.488 40.5745 332.385 40.632 332.334 40.6895C332.334 40.8333 332.693 40.9771 332.898 41.1352L333.822 40.8189C333.668 40.6895 333.463 40.5601 333.309 40.4308L333.206 40.3732L333.257 40.3589ZM341.621 55.7417C341.467 55.6554 341.261 55.3966 340.697 55.2241C340.389 55.1235 339.568 55.1235 339.004 55.1522C338.132 55.1954 338.132 55.3104 338.542 55.4973C339.158 55.7848 339.568 56.1011 340.133 56.403C340.287 56.4749 340.543 56.5324 340.748 56.5899C341.056 56.4461 341.415 56.3024 341.621 56.1586C341.723 56.0867 341.621 55.9861 341.621 55.7417ZM371.225 55.2385L370.404 55.3966C370.404 55.3966 370.815 55.526 370.969 55.526C371.174 55.526 371.328 55.4398 371.482 55.3823L371.225 55.2529V55.2385ZM383.129 40.1432C383.077 40.0426 382.462 39.9707 382.103 39.8988C382.051 39.8988 381.589 39.9995 381.538 40.0713C381.436 40.3014 381.487 40.517 381.435 40.747C381.384 40.747 381.333 40.747 381.282 40.747C381.282 40.7614 381.282 40.7902 381.23 40.8189C380.769 40.862 380.255 40.8908 380.05 40.9771C379.691 41.1064 380.153 41.2502 380.717 41.1496C381.025 41.0921 381.128 40.9483 381.282 40.8189C381.384 40.8189 381.436 40.8189 381.538 40.8045V40.747C382.872 40.7183 383.488 40.517 383.231 40.1432H383.129ZM387.592 55.9429C387.592 55.9429 388.619 55.9429 388.926 55.8567C389.593 55.6985 390.107 55.4973 390.671 55.3104C390.363 55.2529 390.158 55.1954 389.85 55.1666C388.619 55.0229 387.439 55.1666 387.182 55.4973C387.079 55.641 387.285 55.8136 387.592 55.9429ZM391.081 40.287C390.26 40.2295 389.286 40.2726 388.413 40.2726C387.798 40.2582 387.182 40.2151 386.618 40.2726C386.207 40.3157 385.899 40.4451 385.643 40.5745C385.591 40.6033 385.899 40.7183 386.053 40.7902C387.233 41.2502 388.824 41.3796 390.774 41.279C391.697 41.2215 392.313 41.1064 392.518 40.8189C392.775 40.4595 391.851 40.3589 391.081 40.3014V40.287ZM398.111 40.8189C397.751 40.8189 397.444 40.9914 397.084 41.0921C397.649 41.1496 398.162 41.2502 398.726 41.2358C399.137 41.2358 399.445 41.0633 399.855 40.9627C399.239 40.9052 398.675 40.8045 398.111 40.8189ZM405.037 55.7129L404.781 55.7561L404.524 55.7992L405.088 56.0292L405.602 55.8711L405.037 55.7273V55.7129ZM408.013 63.088C407.5 63.088 406.936 63.1887 406.422 63.2462C406.782 63.3324 407.141 63.4906 407.551 63.505C408.064 63.505 408.577 63.4043 409.193 63.3324C408.783 63.2462 408.423 63.088 408.064 63.088H408.013ZM424.072 63.4331L424.637 63.2893L424.021 63.1599L423.457 63.2318L424.072 63.4475V63.4331ZM425.919 54.7353C424.585 54.5197 423.046 54.4766 421.815 54.7353C421.404 54.836 421.199 55.2385 421.558 55.3535C422.584 55.6842 425.15 55.6554 426.381 55.3535C426.484 55.3391 426.484 55.296 426.535 55.2529C426.535 55.2098 426.535 55.1666 426.586 55.1379C426.381 54.9941 426.33 54.7785 425.919 54.7209V54.7353ZM439.054 62.6136C438.285 62.5274 437.464 62.4267 436.848 62.6999C436.745 62.743 436.745 62.8437 436.848 62.858C437.361 62.9155 437.874 62.9587 438.387 63.0018L439.721 62.7718C439.721 62.7718 439.311 62.6424 439.054 62.6136ZM444.031 66.2365C443.005 66.179 442.081 66.3946 442.595 66.5384C442.902 66.639 443.569 66.7109 444.031 66.6965C444.288 66.6965 444.493 66.6534 444.698 66.5959C444.903 66.5528 445.109 66.4953 445.365 66.4521C444.955 66.3803 444.544 66.2509 444.082 66.2221L444.031 66.2365ZM458.192 65.834C458.192 65.834 457.936 65.7764 457.833 65.7621C456.14 65.6039 454.19 65.7189 452.702 65.3308C452.24 65.2014 450.239 65.6183 450.137 65.8483C450.137 65.9058 450.137 66.0208 450.188 66.0352C452.805 66.3228 455.421 66.3228 458.089 66.0784C458.192 66.0784 458.295 66.0496 458.346 66.0065C458.397 65.9777 458.5 65.949 458.551 65.9202C458.449 65.8915 458.295 65.8627 458.192 65.834ZM478.715 62.6136C478.715 62.6136 478.305 62.7143 478.1 62.7718C478.356 62.8293 478.561 62.9299 478.818 62.9299C479.074 62.9299 479.228 62.8149 479.434 62.743C479.177 62.6999 478.972 62.5993 478.715 62.5993V62.6136ZM497.545 62.0529C496.93 62.0098 496.314 61.9954 495.698 61.9954C494.775 61.9954 493.8 62.0098 492.876 62.0242V61.9954C491.337 62.0386 489.798 62.0386 488.259 62.1248C487.899 62.1392 487.489 62.398 487.489 62.5417C487.489 62.6711 487.951 62.8149 488.207 62.9443C490.824 62.2111 494.108 62.5705 497.135 62.4986C497.545 62.4986 497.904 62.3117 498.315 62.2111C498.058 62.1536 497.853 62.0817 497.545 62.0529ZM543.774 61.176C543.774 61.176 543.517 61.1041 543.363 61.0753C543.209 61.0466 543.107 61.0178 543.055 61.0178C542.132 61.1472 542.183 61.2622 543.107 61.3485L543.774 61.176ZM548.032 60.9603C547.519 60.9603 546.596 61.0466 546.596 61.1185C546.442 61.4348 547.468 61.3773 548.135 61.4204L549.469 61.176C549.007 61.1041 548.545 60.9747 548.032 60.9603ZM557.37 62.5274C557.37 62.5274 557.37 62.4986 557.37 62.4842L557.216 62.4555C557.114 62.0386 557.114 61.636 556.909 61.2335C556.806 60.9747 556.344 60.9891 555.575 61.1616C553.625 61.5929 553.471 61.7223 555.061 62.1248C555.677 62.2686 556.447 62.3548 557.165 62.4699V62.5417C557.165 62.5417 557.319 62.5417 557.37 62.5417C557.678 63.2031 559.474 63.0162 560.962 63.0305C560.962 63.0449 560.962 63.0593 560.962 63.0737L561.116 63.0305C561.116 63.0305 561.013 63.0305 560.911 63.0305C560.705 62.3261 558.807 62.5561 557.319 62.5417L557.37 62.5274ZM634.589 60.2703C634.383 60.0259 633.768 59.9109 632.742 59.9396C631.818 59.9684 631.1 60.0402 631.1 60.3709C631.1 60.7159 632.228 60.9603 633.409 60.8597C634.281 60.7734 634.743 60.5865 634.537 60.2846L634.589 60.2703ZM664.347 23.9841C664.347 23.9841 663.731 23.9841 663.731 23.9985C663.526 24.286 664.193 24.3004 664.809 24.3147C664.809 24.3291 664.86 24.3579 664.912 24.3723L665.117 24.3147C665.117 24.3147 664.912 24.3147 664.809 24.3147C664.655 24.1997 664.501 24.0847 664.296 23.9841H664.347ZM672.659 13.2592C671.787 13.2161 670.863 13.2592 669.94 13.2592V13.3024C668.708 13.3024 667.528 13.3024 666.297 13.3024C666.04 13.3024 665.527 13.4174 665.579 13.4318C665.784 13.5755 665.989 13.7337 666.348 13.8343C667.426 14.1362 668.554 14.4237 670.299 14.1075C671.017 13.9637 671.889 13.8918 672.71 13.7624C673.223 13.6905 673.737 13.5899 674.198 13.5036C673.685 13.4174 673.223 13.288 672.71 13.2592H672.659ZM690.719 13.8487C689.796 13.6474 688.821 13.3024 687.846 13.2736C684.46 13.2017 681.074 13.2449 677.687 13.2736C677.02 13.2736 676.199 13.7049 676.507 13.8918C676.764 14.0356 677.174 14.2369 677.585 14.2369C679.74 14.2656 681.894 14.2512 684.049 14.2512V14.3375C686.204 14.2943 688.308 14.2656 690.463 14.2081C690.719 14.2081 691.13 14.1218 691.181 14.0643C691.181 14.0068 690.925 13.9062 690.719 13.8487ZM698.313 13.8487C697.595 13.5755 697.236 13.2305 696.62 12.943C696.004 12.6698 694.978 12.7561 694.208 12.8567C693.131 13.0005 693.285 13.3168 693.695 13.518C694.465 13.8918 695.44 14.2369 697.133 14.2656C697.543 14.2512 697.851 14.2368 698.108 14.2225C698.98 14.1362 698.877 14.05 698.313 13.8343V13.8487ZM726.686 14.97C724.48 14.4381 723.351 13.7768 723.043 12.9861C723.043 12.8998 721.915 12.7704 721.504 12.8136C716.733 13.3024 711.807 13.7049 707.395 14.4238C706.779 14.5244 706.83 14.6538 707.548 14.8119C710.781 15.5595 713.962 15.9045 717.451 15.8758C720.683 16.077 722.992 15.1569 726.224 15.3151C726.994 15.3582 727.251 15.1138 726.686 14.97Z" fill="#F2F2F2"/>
</svg>
