<svg width="177" height="35" viewBox="0 0 177 35" fill="none" xmlns="http://www.w3.org/2000/svg">
<path fill-rule="evenodd" clip-rule="evenodd" d="M24.3397 23.2102C23.9569 22.6728 22.9421 20.2007 22.5809 19.8552L9.27102 26.1807C9.3498 25.8479 10.2469 24.421 10.479 24.0092L14.1012 17.6567C14.4131 17.1037 18.6681 9.53711 18.9429 9.21757C19.1216 9.39476 22.2099 15.2482 22.5965 15.9864C22.8991 16.5641 26.1208 22.4414 26.2288 22.8416C26.3004 22.9048 30.5116 30.6822 30.5898 30.9906C28.0291 31.0864 25.2957 31.009 22.7167 31.0082C20.0898 31.0079 17.4651 31.0216 14.8381 31.0216C10.9713 31.0216 12.1338 30.7865 8.40525 32.4553L3.57315 34.5888C3.34264 34.6917 3.0449 34.7962 2.89914 34.9418L37.5856 34.9864C37.2945 34.2687 29.0662 18.9176 28.293 17.5166C26.7578 14.7357 25.1485 11.4483 23.6242 8.75139C23.0677 7.76695 19.1065 0.160886 18.9333 0C18.2287 1.46385 17.3995 2.88133 16.6366 4.34326L9.72914 17.3878C8.19608 20.3271 6.6605 23.1451 5.11647 26.0759L0.513428 34.8111C0.954747 34.663 1.60141 34.3361 2.04726 34.1193C5.40207 32.4884 9.10249 30.9487 12.5341 29.2791L18.5487 26.5351C19.5525 26.0908 20.5469 25.6223 21.5548 25.1626C22.0505 24.9365 24.3477 23.9491 24.5829 23.7322L24.3397 23.2102Z" fill="white"/>
<path fill-rule="evenodd" clip-rule="evenodd" d="M122.162 27.8091L125.167 27.8351C125.527 25.5365 125.326 17.5346 125.219 14.4801C125.525 14.799 125.411 14.575 125.601 15.1154L126.044 17.5738C126.262 18.7676 126.466 19.883 126.678 21.0501C126.93 22.4413 127.507 26.8895 128.019 27.6765C128.588 27.9838 130.497 27.9712 131.134 27.7201C132.206 26.0854 132.633 15.8833 133.65 14.367L133.731 27.795L136.962 27.8592C137.391 25.8514 137.119 10.6863 137.104 7.14355L132.28 7.14862C131.267 9.04653 130.72 18.3025 129.767 21.0406C129.226 20.335 127.353 8.89086 127.151 7.15415L122.154 7.15715L122.162 27.8091Z" fill="white"/>
<path fill-rule="evenodd" clip-rule="evenodd" d="M92.7294 27.8376L95.7907 27.8436C96.1976 25.2989 95.4445 15.5498 96.1367 14.7713L98.5013 27.7954C102.946 28.3429 101.866 27.9144 102.727 22.7701C102.954 21.4096 103.174 20.0532 103.403 18.6891C103.58 17.641 103.811 15.1052 104.323 14.4991L104.321 27.8099L107.572 27.8546L107.676 7.17112L102.72 7.15603L100.465 20.6633C100.268 21.1314 100.441 20.8542 100.167 21.1741L97.7197 7.15959L92.7109 7.14404L92.7294 27.8376Z" fill="white"/>
<path fill-rule="evenodd" clip-rule="evenodd" d="M63.1174 10.1464C66.273 10.0214 66.631 10.1634 66.6225 13.3882C66.6141 16.3413 65.9114 16.4885 63.1144 16.4086L63.1174 10.1464ZM59.5588 8.15307C59.5578 13.3711 59.3688 23.1429 59.6117 27.8387L63.0256 27.8432L63.1049 19.4511C65.9372 19.3792 66.645 19.4622 66.6564 22.709C66.6619 24.3382 66.3098 26.5224 67.0774 27.8432L70.4838 27.8317C70.401 25.9719 70.4185 20.788 69.6689 19.3396C69.0679 18.1784 68.8644 18.4959 68.1108 17.7074C70.1227 15.8617 70.1686 15.9461 70.1785 12.2477C70.1946 6.43699 65.7194 6.81966 59.5514 7.17526L59.5588 8.15307Z" fill="white"/>
<path fill-rule="evenodd" clip-rule="evenodd" d="M156.126 10.1141C159.149 9.92989 159.586 10.0916 159.595 13.1551C159.605 16.1368 159.214 16.7485 156.029 16.3543L156.126 10.1141ZM152.488 27.7808L156.04 27.8165L156.074 19.4244C160.843 19.4661 159.099 20.9154 159.864 27.8216L163.409 27.8557C163.409 27.0627 163.16 25.9854 163.161 24.988C163.164 20.0411 163.584 20.1667 161.036 17.7073C163.136 15.8666 163.158 15.5246 163.158 12.2476C163.158 9.71937 162.317 8.01885 160.146 7.40722C158.86 7.04552 153.702 6.92961 152.484 7.29718L152.488 27.7808Z" fill="white"/>
<path fill-rule="evenodd" clip-rule="evenodd" d="M142.973 12.2475C142.973 10.8052 143.214 9.92367 144.705 9.88956C146.235 9.85441 146.614 10.7579 146.614 12.2475L146.613 22.7112C146.613 25.1355 145.6 25.3811 143.47 24.8306C142.565 23.1266 142.973 15.0925 142.973 12.2475ZM142.754 7.21571C138.223 8.7495 139.399 13.0606 139.399 19.7547C139.399 22.4215 139.118 24.9276 140.626 26.592C141.895 27.9927 144.79 28.4933 147.028 27.7797C151.369 26.3941 150.203 20.1259 150.203 15.2051C150.203 12.6774 150.375 9.99096 148.96 8.41799C147.748 7.07156 145.014 6.45129 142.754 7.21571Z" fill="white"/>
<path fill-rule="evenodd" clip-rule="evenodd" d="M51.4039 11.3736C51.8417 11.9591 53.1386 20.0344 53.1215 21.2613L49.796 21.2443L51.4039 11.3736ZM45.5875 27.8575L48.6154 27.849L49.367 24.1115L53.6277 24.1104L54.335 27.8641L57.8172 27.8394C57.8252 26.1851 54.5744 7.95201 54.12 7.17204L49.15 7.1499C48.7586 8.11021 45.4923 26.9902 45.5875 27.8575Z" fill="white"/>
<path fill-rule="evenodd" clip-rule="evenodd" d="M110.265 27.8494L119.99 27.8524L119.981 24.8847L113.911 24.8877L113.852 18.9289L118.678 18.7979L118.73 15.883L113.881 15.8412L113.853 10.2555C115.523 9.77488 118.097 10.2947 119.93 10.047L119.967 7.18999L110.455 7.13525C109.934 8.58458 110.302 24.8366 110.265 27.8494Z" fill="white"/>
<path fill-rule="evenodd" clip-rule="evenodd" d="M168.541 27.8163L171.942 27.8525C172.233 26.3002 171.986 23.4922 172.029 21.7896C172.081 19.7411 175.751 10.792 176.486 7.1358L173.166 7.16691L170.519 16.2587L167.735 7.17544L164.05 7.13477C164.595 9.87591 166.227 13.9264 167.119 16.7429C167.565 18.1541 168.413 20.1806 168.463 21.5617C168.528 23.3766 168.249 26.1599 168.541 27.8163Z" fill="white"/>
<path fill-rule="evenodd" clip-rule="evenodd" d="M71.5512 10.0889L75.2349 10.1069L75.2379 27.7822L78.6813 27.8606L78.8129 10.1371L82.4997 10.1035L82.4917 7.13281L71.5098 7.1448L71.5512 10.0889Z" fill="white"/>
</svg>
