<svg width="64" height="64" viewBox="0 0 64 64" fill="none" xmlns="http://www.w3.org/2000/svg">
<mask id="path-1-inside-1_340_2476" fill="white">
<path d="M32 64C14.3269 64 0 49.6731 0 32C0 14.3269 14.3269 0 32 0C49.6731 0 64 14.3269 64 32C64 49.6731 49.6731 64 32 64Z"/>
</mask>
<path d="M31.6464 53.3536C31.8417 53.5488 32.1583 53.5488 32.3536 53.3536L35.5355 50.1716C35.7308 49.9763 35.7308 49.6597 35.5355 49.4645C35.3403 49.2692 35.0237 49.2692 34.8284 49.4645L32 52.2929L29.1716 49.4645C28.9763 49.2692 28.6597 49.2692 28.4645 49.4645C28.2692 49.6597 28.2692 49.9763 28.4645 50.1716L31.6464 53.3536ZM31.5 10L31.5 53H32.5V10H31.5ZM32 63C14.8792 63 1 49.1208 1 32H-1C-1 50.2254 13.7746 65 32 65V63ZM1 32C1 14.8792 14.8792 1 32 1V-1C13.7746 -1 -1 13.7746 -1 32H1ZM32 1C49.1208 1 63 14.8792 63 32H65C65 13.7746 50.2254 -1 32 -1V1ZM63 32C63 49.1208 49.1208 63 32 63V65C50.2254 65 65 50.2254 65 32H63Z" fill="#F2F2F2" mask="url(#path-1-inside-1_340_2476)"/>
</svg>
