<svg width="28" height="29" viewBox="0 0 28 29" fill="none" xmlns="http://www.w3.org/2000/svg">
<path fill-rule="evenodd" clip-rule="evenodd" d="M10.6188 4.04545C9.91627 4.06016 8.56353 4.17381 7.87344 4.27609C5.99531 4.55443 4.83712 5.13934 4.17586 6.14348C3.73242 6.81681 3.43876 7.71528 3.25485 8.96138C3.08687 10.0993 3.03078 11.083 3.01374 13.1885L3 14.8862L3.21599 14.886C3.89229 14.8853 5.90261 14.7863 6.88111 14.7054C9.35925 14.5006 10.7613 13.9909 11.8623 12.8949C12.9285 11.8335 13.4446 10.4574 13.6676 8.0816C13.7357 7.35622 13.8618 4.84588 13.8618 4.21552V4.02637L12.412 4.03231C11.6147 4.03558 10.8077 4.04149 10.6188 4.04545ZM14.1367 4.26693C14.1371 5.03471 14.2599 7.39147 14.3427 8.21907C14.609 10.8811 15.2742 12.3231 16.7337 13.402C17.747 14.151 19.0292 14.531 21.131 14.705C22.0437 14.7805 24.1537 14.8855 24.7694 14.886L25 14.8862L24.9839 13.1747C24.9689 11.5728 24.9336 10.6754 24.8557 9.90695C24.8409 9.76171 24.8215 9.56994 24.8124 9.48081C24.6132 7.51791 24.0452 6.11604 23.1605 5.40383C21.904 4.39222 19.8868 4.02744 15.5451 4.02664L14.1366 4.02637L14.1367 4.26693ZM3.01352 16.9C3.03444 19.6454 3.16718 21.1173 3.50346 22.3325C3.92337 23.8499 4.58843 24.6862 5.79859 25.2189C6.77673 25.6494 8.28367 25.9114 10.0279 25.9541C10.3604 25.9623 10.6944 25.9752 10.7699 25.9828C10.8455 25.9904 11.5721 26.0034 12.3846 26.0115L13.8618 26.0264V25.8105C13.8617 25.084 13.7377 22.6971 13.6554 21.8391C13.4349 19.5413 12.9011 18.1676 11.815 17.1032C10.7813 16.0902 9.47597 15.6013 7.18342 15.3685C6.39213 15.2882 3.98463 15.1615 3.24364 15.1612L3.0003 15.1611L3.01352 16.9ZM23.4396 15.203C20.1558 15.3376 18.7493 15.5665 17.5307 16.1646C16.2265 16.8047 15.3155 17.8625 14.8315 19.2988C14.535 20.1787 14.3683 21.227 14.2609 22.8867C14.2155 23.5889 14.1369 25.4289 14.1367 25.7941L14.1366 26.0209L15.3939 26.0213C16.5671 26.0216 16.929 26.0114 18.3965 25.937C20.3718 25.8367 21.7646 25.5214 22.7093 24.9605C23.9462 24.2261 24.5683 22.8912 24.8275 20.4149C24.9333 19.4037 24.9697 18.5766 24.9846 16.845L24.9991 15.1611L24.6316 15.1651C24.4295 15.1674 23.893 15.1844 23.4396 15.203Z" fill="white"/>
</svg>
