<svg width="83" height="553" viewBox="0 0 83 553" fill="none" xmlns="http://www.w3.org/2000/svg">
<path opacity="0.5" fill-rule="evenodd" clip-rule="evenodd" d="M81 552.817H0L0 517.487C0 510.384 1.17001 504.151 3.5851 498.849C5.92671 493.546 9.35743 489.382 13.8911 486.44C18.4452 483.483 23.8244 482.047 29.94 482.047C35.9879 482.047 41.3289 483.486 45.8789 486.44C50.4098 489.381 53.8749 493.54 56.2898 498.838L56.2949 498.849L56.2998 498.86C58.6376 504.159 59.77 510.387 59.77 517.487V530.997H81V552.817ZM57.77 532.997V517.487C57.77 510.594 56.67 504.654 54.47 499.667C52.1967 494.68 48.97 490.83 44.79 488.117C40.61 485.404 35.66 484.047 29.94 484.047C24.1467 484.047 19.16 485.404 14.98 488.117C10.8 490.83 7.61 494.68 5.41 499.667C3.13667 504.654 2 510.594 2 517.487L2 550.817H79V532.997H57.77ZM43.25 518.477C43.25 512.977 42.0767 508.87 39.73 506.157C37.3833 503.444 34.12 502.087 29.94 502.087C25.6867 502.087 22.3867 503.444 20.04 506.157C17.6933 508.87 16.52 512.977 16.52 518.477V532.997H43.25V518.477ZM41.25 530.997V518.477C41.25 513.212 40.1195 509.665 38.2173 507.465C36.3148 505.266 33.6454 504.087 29.94 504.087C26.1488 504.087 23.4482 505.274 21.5527 507.465C19.6506 509.665 18.52 513.212 18.52 518.477V530.997H41.25ZM81 473.325H0L0 437.995C0 430.892 1.16999 424.659 3.58504 419.357C5.92666 414.054 9.3574 409.89 13.8911 406.947C18.4452 403.991 23.8244 402.555 29.94 402.555C35.9879 402.555 41.3289 403.994 45.8789 406.947L45.8857 406.952L45.8925 406.956C49.7672 409.516 52.8335 412.996 55.1044 417.339L81 399.294V423.426L59.55 438.204V451.505H81V473.325ZM57.55 453.505V437.995C57.55 437.714 57.5482 437.435 57.5445 437.157L79 422.375V403.125L54.3161 420.326C54.2942 420.276 54.2722 420.225 54.25 420.175C53.9959 419.599 53.729 419.038 53.4494 418.492C51.3087 414.314 48.4223 411.025 44.79 408.625C40.61 405.912 35.66 404.555 29.94 404.555C24.1467 404.555 19.16 405.912 14.98 408.625C10.8 411.338 7.61 415.188 5.41 420.175C3.13667 425.162 2 431.102 2 437.995L2 471.325H79V453.505H57.55ZM43.36 453.505V438.985C43.36 433.485 42.1867 429.378 39.84 426.665C37.42 423.952 34.12 422.595 29.94 422.595C25.6867 422.595 22.3867 423.952 20.04 426.665C17.6933 429.378 16.52 433.485 16.52 438.985V453.505H43.36ZM18.52 451.505H41.36V438.985C41.36 433.729 40.2334 430.185 38.3372 427.985C36.3561 425.77 33.6378 424.595 29.94 424.595C26.1488 424.595 23.4482 425.782 21.5527 427.973C19.6506 430.173 18.52 433.72 18.52 438.985V451.505ZM33.02 372.726V336.976H46.88V372.726H64.7V330.816H79V390.436H2L2 332.246H16.3V372.726H33.02ZM18.3 370.726V330.246H0L0 392.436H81V328.816H62.7V370.726H48.88V334.976H31.02V370.726H18.3ZM81 318.637H0L0 300.768L45.9158 273.07L0 245.837L0 228.073L81 227.842V248.563L40.0265 248.651L72.86 268.201V278.492L40.9177 297.917H81V318.637ZM33.7799 299.917L70.86 277.367V269.337L32.7843 246.666L79 246.567V229.847L2 230.067L2 244.697L49.8118 273.056L2 301.897L2 316.637H79V299.917H33.7799ZM81 213.579H0L0 191.759H81V213.579ZM0 178.145L0 156.325H44.46C51.6015 156.325 56.2592 154.847 58.9366 152.352C61.6666 149.808 63.14 146.174 63.14 141.165C63.14 136.156 61.6666 132.522 58.9366 129.978C56.2592 127.484 51.6015 126.005 44.46 126.005H0L0 104.405H45.12C56.7783 104.405 66.0458 107.593 72.6127 114.239C79.1599 120.866 82.32 129.967 82.32 141.275C82.32 152.583 79.1599 161.685 72.6127 168.311C66.0458 174.957 56.7783 178.145 45.12 178.145H0ZM81 90.7957H0L0 72.9265L45.9158 45.2282L0 17.9948L0 0.231417L81 -2.80847e-05V20.7214L40.0265 20.8091L72.86 40.3589V50.6502L40.9177 70.0757H81V90.7957ZM33.7799 72.0757L70.86 49.5257V41.4957L32.7842 18.8246L79 18.7257V2.00571L2 2.22568V16.8557L49.8118 45.2137L2 74.0557L2 88.7957H79V72.0757H33.7799ZM79 211.579V193.759H2L2 211.579H79ZM71.19 166.905C77.2767 160.745 80.32 152.202 80.32 141.275C80.32 130.348 77.2767 121.805 71.19 115.645C65.1033 109.485 56.4133 106.405 45.12 106.405H2L2 124.005H44.46C51.7933 124.005 57.0733 125.508 60.3 128.515C63.5267 131.522 65.14 135.738 65.14 141.165C65.14 146.592 63.5267 150.808 60.3 153.815C57.0733 156.822 51.7933 158.325 44.46 158.325H2L2 176.145H45.12C56.4133 176.145 65.1033 173.065 71.19 166.905Z" fill="#F2F2F2"/>
</svg>
