<svg width="426" height="432" viewBox="0 0 426 432" fill="none" xmlns="http://www.w3.org/2000/svg">
<g opacity="0.9">
<g opacity="0.2">
<path d="M198.07 413.619C146.122 410.438 98.8455 386.91 64.9292 347.364C31.013 307.818 14.5284 257 18.5094 204.253C22.4904 151.506 46.4588 103.166 86.0048 68.1186C125.551 33.0714 175.928 15.5236 227.875 18.7049C279.823 21.8862 327.1 45.4143 361.016 84.9603C394.932 124.506 411.417 175.324 407.436 228.071C403.455 280.818 379.487 329.158 339.941 364.205C300.394 399.253 250.017 416.8 198.07 413.619ZM197.851 416.526C306.827 423.2 401.947 338.901 410.299 228.246C418.65 117.592 337.072 22.4717 228.095 15.7979C119.118 9.12415 23.9979 93.4233 15.6465 204.078C7.295 314.732 88.8738 409.852 197.851 416.526Z" fill="#D7C09A"/>
</g>
<g opacity="0.2">
<path d="M203.019 347.967C131.449 343.587 77.6859 280.892 83.1743 208.215C88.6628 135.538 151.357 79.9713 222.926 84.3517C294.496 88.7321 348.259 151.426 342.771 224.104C337.282 296.781 274.588 352.347 203.019 347.967ZM202.799 350.874C276.057 355.358 340.014 298.686 345.633 224.279C351.252 149.872 296.419 85.9293 223.146 81.4446C149.873 76.9599 85.9306 133.633 80.3115 208.04C74.6925 282.447 129.526 346.389 202.799 350.874Z" fill="#D7C09A"/>
</g>
<path d="M327.079 20.3636L300.252 99.1738L381.967 83.2582L327.079 20.3636Z" fill="#D7C09A"/>
<path d="M274.666 52.0704L297.513 77.8919L308.562 45.2268L274.666 52.0704Z" stroke="#D7C09A" stroke-width="1.5" stroke-miterlimit="10"/>
</g>
</svg>
