<svg width="105" height="650" viewBox="0 0 105 650" fill="none" xmlns="http://www.w3.org/2000/svg">
<path opacity="0.5" fill-rule="evenodd" clip-rule="evenodd" d="M13.1801 25.6111L13.1835 25.5997C14.9164 19.7981 17.1719 15.0108 20.0021 11.3159L20.9663 10.0571L38.0495 17.7586L36.6397 19.7411C34.424 22.857 32.5642 26.5605 31.0773 30.8745C29.6764 35.2235 28.9798 39.5938 28.9798 43.9921C28.9798 47.4012 29.3014 49.994 29.8738 51.8494C30.5363 53.8286 31.3578 55.0554 32.2112 55.7582C33.1002 56.4903 34.0809 56.8421 35.2298 56.8421C36.6654 56.8421 37.6682 56.3239 38.4524 55.2457L38.4695 55.2222L38.4873 55.1992C39.5315 53.8479 40.4263 51.9782 41.1128 49.5068L41.1196 49.4821L41.1271 49.4577C41.9122 46.8883 42.6307 44.0174 43.2804 40.8413L43.2858 40.8151L43.2918 40.7891C44.0377 37.5818 44.932 34.3406 45.974 31.0657L45.978 31.0529C47.0496 27.7618 48.433 24.7215 50.1333 21.9392C51.9071 19.0366 54.2504 16.6548 57.143 14.8067L57.1599 14.7959L57.1769 14.7855C60.2178 12.9272 63.9824 12.0721 68.3398 12.0721C73.1178 12.0721 77.4963 13.3529 81.4234 15.9175L81.4315 15.9228C85.4702 18.5884 88.5914 22.5056 90.8435 27.5509C93.1945 32.7263 94.3198 39.078 94.3198 46.5221C94.3198 51.5207 93.7143 56.4455 92.5037 61.293C91.3594 66.169 89.595 70.5199 87.19 74.3214L86.2959 75.7346L69.0994 68.7442L70.2333 66.7598C72.2102 63.3003 73.6425 59.8672 74.5467 56.4592L74.5516 56.4409L74.5568 56.4226C75.5367 52.993 76.0198 49.658 76.0198 46.4121C76.0198 43.1 75.6293 40.5322 74.9321 38.6306C74.2052 36.6481 73.3324 35.4715 72.4488 34.8334L72.4267 34.8174L72.4049 34.8008C71.5339 34.1347 70.5023 33.7821 69.2198 33.7821C67.8892 33.7821 66.8571 34.2782 65.9797 35.4027C64.9962 36.7632 64.1343 38.6424 63.4469 41.1174C62.7226 43.7245 61.9965 46.5919 61.2689 49.7208C60.526 52.9889 59.6717 56.2203 58.7061 59.4148C57.7078 62.7919 56.3572 65.8854 54.6464 68.685C52.8711 71.5901 50.5226 73.9407 47.6196 75.7183C44.5806 77.6544 40.8484 78.5521 36.5498 78.5521C31.8246 78.5521 27.4757 77.223 23.5526 74.581C19.5908 71.9128 16.4795 67.9627 14.1614 62.8649C11.8037 57.7537 10.6798 51.3948 10.6798 43.8821C10.6798 37.5454 11.51 31.4566 13.1768 25.6226L13.1801 25.6111ZM15.9798 62.0321C18.1798 66.8721 21.0765 70.5021 24.6698 72.9221C28.2632 75.3421 32.2232 76.5521 36.5498 76.5521C40.5832 76.5521 43.9198 75.7088 46.5598 74.0221C49.1998 72.4087 51.3265 70.2821 52.9398 67.6421C54.5532 65.0021 55.8365 62.0688 56.7898 58.8421C57.7432 55.6888 58.5865 52.4988 59.3198 49.2721C60.0532 46.1188 60.7865 43.2221 61.5198 40.5821C62.2532 37.9421 63.2065 35.8154 64.3798 34.2021C65.6265 32.5888 67.2398 31.7821 69.2198 31.7821C70.9065 31.7821 72.3732 32.2588 73.6198 33.2121C74.9398 34.1654 76.0032 35.7421 76.8098 37.9421C77.6165 40.1421 78.0198 42.9654 78.0198 46.4121C78.0198 49.8588 77.5065 53.3788 76.4798 56.9721C75.6827 59.9766 74.5011 62.981 72.935 65.9855C72.628 66.5744 72.3063 67.1632 71.9698 67.7521L85.4998 73.2521C87.7732 69.6588 89.4598 65.5154 90.5598 60.8221C91.7332 56.1288 92.3198 51.3621 92.3198 46.5221C92.3198 39.2621 91.2198 33.2121 89.0198 28.3721C86.8932 23.6054 83.9965 20.0121 80.3298 17.5921C76.7365 15.2454 72.7398 14.0721 68.3398 14.0721C64.2332 14.0721 60.8598 14.8788 58.2198 16.4921C55.5798 18.1788 53.4532 20.3421 51.8398 22.9821C50.2265 25.6221 48.9065 28.5188 47.8798 31.6721C46.8532 34.8988 45.9732 38.0888 45.2398 41.2421C44.5798 44.4688 43.8465 47.4021 43.0398 50.0421C42.3065 52.6821 41.3165 54.8088 40.0698 56.4221C38.8965 58.0354 37.2832 58.8421 35.2298 58.8421C33.6165 58.8421 32.1865 58.3288 30.9398 57.3021C29.6932 56.2754 28.7032 54.6621 27.9698 52.4621C27.3098 50.3354 26.9798 47.5121 26.9798 43.9921C26.9798 39.3721 27.7132 34.7888 29.1798 30.2421C30.4653 26.5081 32.0318 23.1828 33.8794 20.2663C34.2452 19.6889 34.622 19.1275 35.0098 18.5821L21.5898 12.5321C18.9498 15.9788 16.7865 20.5254 15.0998 26.1721C13.4865 31.8188 12.6798 37.7221 12.6798 43.8821C12.6798 51.2154 13.7798 57.2654 15.9798 62.0321ZM11.9998 101.604L74.4798 101.604L74.4798 76.9644H92.9998V148.064H74.4798V123.424L11.9998 123.424V101.604ZM76.4798 121.424V146.064H90.9998V78.9644H76.4798L76.4798 103.604L13.9998 103.604V121.424L76.4798 121.424ZM11.9998 138.584L92.9998 174.687V194.882L11.9998 231.1V207.979L28.4998 201.144V168.121L11.9998 161.26V138.584ZM30.4998 166.787L30.4998 202.48L13.9998 209.315V228.015L90.9998 193.585V175.985L13.9998 141.665V159.925L30.4998 166.787ZM73.4989 184.668L44.0298 172.413V196.876L73.4989 184.668ZM46.0298 193.882L68.2816 184.665L46.0298 175.411V193.882ZM11.9998 234.004H92.9998V251.691L49.8814 287.024H92.9998V308.624H11.9998V291.049L55.1498 255.604H11.9998V234.004ZM60.7355 253.604L13.9998 291.994V306.624H90.9998V289.024H44.2853L90.9998 250.744V236.004H13.9998V253.604H60.7355ZM11.9998 322.842H92.9998L92.9998 359.822C92.9998 368.439 91.3363 376.124 87.9489 382.826C84.6412 389.515 79.9614 394.786 73.9137 398.585C67.8263 402.41 60.6609 404.282 52.4998 404.282C44.4074 404.282 37.2481 402.408 31.0956 398.591L31.0859 398.585C25.0401 394.787 20.3258 389.519 16.9451 382.834L16.9409 382.826L16.9369 382.818C13.6255 376.118 11.9998 368.436 11.9998 359.822L11.9998 322.842ZM86.1598 381.932C89.3865 375.552 90.9998 368.182 90.9998 359.822L90.9998 324.842H13.9998L13.9998 359.822C13.9998 368.182 15.5765 375.552 18.7298 381.932C21.9565 388.312 26.4298 393.299 32.1498 396.892C37.9432 400.485 44.7265 402.282 52.4998 402.282C60.3465 402.282 67.1298 400.485 72.8498 396.892C78.5698 393.299 83.0065 388.312 86.1598 381.932ZM40.8553 379.323L40.8685 379.331C44.1071 381.247 47.9604 382.242 52.4998 382.242C57.12 382.242 60.9636 381.244 64.1156 379.34L64.1364 379.327L64.1576 379.315C67.3973 377.464 69.8752 374.829 71.611 371.357L71.6214 371.337L71.6323 371.316C73.4304 367.92 74.3698 363.818 74.3698 358.942L74.3698 344.662H30.6298V358.942C30.6298 363.826 31.5358 367.936 33.2686 371.337C35.0783 374.82 37.598 377.462 40.8421 379.315L40.8553 379.323ZM28.6298 342.662H76.3698L76.3698 358.942C76.3698 364.075 75.3798 368.512 73.3998 372.252C71.4932 376.065 68.7432 378.999 65.1498 381.052C61.6298 383.179 57.4132 384.242 52.4998 384.242C47.6598 384.242 43.4432 383.179 39.8498 381.052C36.2565 378.999 33.4698 376.065 31.4898 372.252C29.5832 368.512 28.6298 364.075 28.6298 358.942V342.662ZM11.9998 401.445L92.9998 437.548L92.9998 457.743L11.9998 493.962V470.84L28.4998 464.005L28.4998 430.983L11.9998 424.121V401.445ZM30.4998 429.648V465.342L13.9998 472.177V490.877L90.9998 456.447L90.9998 438.847L13.9998 404.527V422.787L30.4998 429.648ZM73.4989 447.53L44.0298 435.275V459.737L73.4989 447.53ZM46.0298 456.744L68.2816 447.526L46.0298 438.272V456.744ZM11.9998 496.865H92.9998V532.195C92.9998 539.298 91.8298 545.531 89.4148 550.834C87.0731 556.136 83.6425 560.3 79.1088 563.243C74.5546 566.199 69.1755 567.635 63.0598 567.635C57.0119 567.635 51.671 566.196 47.1209 563.243L47.1141 563.238L47.1073 563.234C43.2326 560.674 40.1663 557.194 37.8955 552.851L11.9998 570.897V546.764L33.4498 531.986V518.685H11.9998V496.865ZM35.4498 516.685V532.195C35.4498 532.476 35.4517 532.755 35.4553 533.033L13.9998 547.815V567.065L38.6837 549.864C38.7056 549.915 38.7277 549.965 38.7498 550.015C39.004 550.591 39.2709 551.152 39.5505 551.698C41.6911 555.876 44.5776 559.165 48.2098 561.565C52.3898 564.279 57.3398 565.635 63.0598 565.635C68.8532 565.635 73.8398 564.279 78.0198 561.565C82.1998 558.852 85.3898 555.002 87.5898 550.015C89.8632 545.029 90.9998 539.089 90.9998 532.195V498.865H13.9998V516.685H35.4498ZM49.6398 516.685V531.205C49.6398 536.705 50.8132 540.812 53.1598 543.525C55.5798 546.239 58.8798 547.595 63.0598 547.595C67.3132 547.595 70.6132 546.239 72.9598 543.525C75.3065 540.812 76.4798 536.705 76.4798 531.205V516.685H49.6398ZM74.4798 518.685H51.6398V531.205C51.6398 536.462 52.7669 540.006 54.6637 542.207C56.6447 544.421 59.3627 545.595 63.0598 545.595C66.851 545.595 69.5516 544.409 71.4471 542.217C73.3493 540.018 74.4798 536.471 74.4798 531.205V518.685ZM11.9998 592.63H74.4798V567.99H92.9998L92.9998 639.09H74.4798V614.45H11.9998V592.63ZM76.4798 612.45V637.09H90.9998L90.9998 569.99H76.4798V594.63H13.9998V612.45H76.4798Z" fill="#F2F2F2"/>
</svg>
