<svg width="28" height="29" viewBox="0 0 28 29" fill="none" xmlns="http://www.w3.org/2000/svg">
<g clip-path="url(#clip0_243_1789)">
<path fill-rule="evenodd" clip-rule="evenodd" d="M23.0732 5.19466C23.3615 5.07332 23.677 5.03147 23.987 5.07346C24.297 5.11546 24.59 5.23977 24.8356 5.43346C25.0813 5.62715 25.2705 5.88313 25.3836 6.17476C25.4967 6.46639 25.5296 6.78301 25.4788 7.09166L22.8328 23.1415C22.5762 24.6897 20.8775 25.5775 19.4577 24.8063C18.27 24.1612 16.506 23.1672 14.9193 22.13C14.126 21.6108 11.6958 19.9483 11.9945 18.7653C12.2512 17.7538 16.3345 13.9528 18.6678 11.693C19.5837 10.8052 19.166 10.293 18.0845 11.1097C15.3977 13.1373 11.0868 16.2208 9.66117 17.0888C8.4035 17.8542 7.74784 17.9848 6.96384 17.8542C5.5335 17.6162 4.207 17.2475 3.12434 16.7983C1.66134 16.1917 1.7325 14.1803 3.12317 13.5947L23.0732 5.19466V5.19466Z" fill="white"/>
</g>
<defs>
<clipPath id="clip0_243_1789">
<rect width="28" height="28" fill="white" transform="translate(0 0.0263672)"/>
</clipPath>
</defs>
</svg>
