<svg width="838" height="67" viewBox="0 0 838 67" fill="none" xmlns="http://www.w3.org/2000/svg">
<path d="M10.0317 49.2905C11.9301 49.2905 14.085 49.118 15.6243 49.3192C18.754 49.7218 22.3456 49.6499 25.2702 50.1099C27.5277 50.455 29.9905 50.3974 32.2993 50.7425C35.4291 51.2025 37.3789 50.7712 39.0208 49.5636C39.7903 48.9886 42.0479 48.7154 44.1516 48.9454C45.0237 49.0461 45.7933 49.2473 46.6655 49.2473C53.2843 49.2761 59.903 49.3048 66.4704 49.2617C68.8819 49.2473 70.729 48.5141 73.4996 48.7154C74.2692 48.356 75.0388 47.9822 75.911 47.6372C76.6807 47.3353 78.1686 47.0334 79.0408 47.249C83.0941 48.1835 88.4815 47.249 92.5348 48.0829C92.7401 48.126 93.9714 47.8241 94.5871 47.6372C95.6133 47.3209 94.3306 47.1915 93.8175 47.019C92.9966 46.7171 91.8165 46.6308 90.4825 46.6164C88.6354 46.5877 86.737 46.5733 84.8899 46.5014C84.2229 46.4727 84.3255 46.3002 84.8899 46.1277C85.6595 45.8976 85.5569 45.7107 84.4282 45.5813C83.8638 45.5238 82.8376 45.4663 82.8376 45.3944C82.8376 45.0638 83.8125 45.1069 84.6334 45.0925C87.4041 45.0207 90.0721 45.0925 92.7401 44.6037C96.1264 43.9999 100.026 43.5686 104.028 44.4169C104.643 44.5462 105.824 44.4887 106.798 44.4887C109.928 44.4887 113.109 44.4887 116.239 44.4887C118.753 44.4887 121.267 44.5175 123.32 44.0143C126.808 44.0718 129.63 43.3386 133.222 43.4249C136.967 43.5255 140.764 43.468 144.561 43.4824C148.871 44.2587 153.694 43.8705 158.26 43.9712C160.928 44.0287 163.237 43.9712 164.93 43.3099C165.956 42.9073 167.547 42.8929 169.189 42.9217C170.369 42.9217 171.549 42.9073 172.729 42.893C172.678 42.6054 172.011 42.4473 171.087 42.4473C156.926 42.4185 142.765 42.4041 128.604 42.3898C127.732 42.3898 126.655 42.476 125.988 42.6198C124.654 42.9073 123.781 42.7348 122.909 42.4617C121.832 42.1166 120.805 41.8722 119.112 42.2604C118.497 42.4041 117.316 42.361 116.393 42.3754C111.16 42.476 105.721 42.1597 100.744 42.8786C94.4332 42.8929 88.1736 42.9217 81.8628 42.9217C80.9392 42.9217 79.8618 42.9073 79.1948 42.7635C77.5529 42.4041 75.7059 42.4041 73.8075 42.4185C70.3698 42.4473 67.6505 42.1885 66.7269 41.1246C66.5731 40.9665 65.9573 40.8515 65.5469 40.7077C64.9825 40.4921 64.9825 40.4777 62.571 40.6646C61.6475 40.7365 60.7752 40.8227 59.9543 40.6215C58.7742 40.3196 57.9533 40.4202 56.8759 40.7077C55.5419 41.0671 56.4654 41.2684 57.1837 41.5416C57.4915 41.6709 57.5942 41.901 57.4402 42.0304C56.8759 42.4041 55.9523 42.1885 55.3366 42.0304C54.4644 41.8147 53.6435 41.8866 52.7199 41.9441L45.7421 42.0304C44.5107 41.7716 43.4845 41.9585 42.3044 42.1166C41.1757 42.2604 39.226 41.9585 38.8668 41.5703C38.5077 41.2109 38.8668 40.8659 40.5599 40.8083C40.8677 40.8083 41.1757 40.7652 41.4322 40.7221C41.6887 40.679 41.9453 40.6071 42.0992 40.5352C42.0992 40.5065 41.7914 40.3771 41.5861 40.3771C39.1234 40.3196 36.6606 40.2764 34.1978 40.2045C33.1203 40.1758 32.5559 39.6151 31.1193 39.9889C29.0156 40.5352 26.1424 39.9889 23.9875 40.4058C23.5257 40.5064 22.8074 40.6933 22.4996 40.6502C20.5499 40.4058 18.7028 40.1183 16.8044 39.8451C15.3678 40.2908 14.239 39.9314 12.8024 39.802C11.3658 39.6582 9.67261 39.7733 8.13336 39.7157C7.67157 39.7157 7.26111 39.5288 6.85065 39.4426C7.10724 39.3851 7.31244 39.2988 7.56897 39.2844C10.237 39.0544 13.2129 39.3995 15.7783 38.9682C18.395 38.5081 21.3195 38.8244 24.0388 38.6663C24.6545 38.6375 25.4754 38.7094 25.8859 38.6087C28.913 37.8899 32.5046 38.1918 35.8909 38.1775C46.9221 38.1343 57.9532 38.1343 68.9332 38.1056C69.6515 38.1056 70.7803 38.0481 69.908 37.6455C69.2923 37.358 68.9332 37.013 68.8306 36.6679C68.6767 36.251 68.061 36.0354 66.5731 36.021C64.059 36.021 61.5449 36.021 59.0308 35.9779C58.569 35.9779 57.6968 35.7766 57.7481 35.6903C57.8507 35.4603 58.2612 35.2303 58.6203 35.0146C58.7229 34.9715 59.0821 34.9571 59.39 34.9428C60.1596 34.2527 62.3145 34.3821 63.905 34.5258C65.3416 34.6552 66.3679 34.9715 67.8044 34.4971C68.5741 34.2383 69.6515 34.0227 70.7803 33.8933C72.6786 33.6776 72.6786 33.577 70.7803 33.3614C69.7028 33.232 68.7793 32.9732 67.8044 32.7719L62.8276 31.9525C60.9805 31.6937 59.2873 31.7799 57.4915 32.0387C56.4141 32.1825 54.8235 32.3694 54.0026 32.24C51.1807 31.7943 47.9996 31.895 45.1263 31.5931C44.7672 31.5643 44.5106 31.2912 44.5619 31.1474C44.6132 31.0036 45.075 30.7736 45.4855 30.7592C47.3326 30.673 49.1797 30.6586 51.0267 30.5723C51.6425 30.5436 51.5398 30.3567 50.9241 30.1841C50.3084 30.026 50.2571 29.8679 50.7702 29.7816C53.1817 29.3791 56.5167 30.026 58.6203 29.2353C59.5438 29.4653 60.5187 29.6953 61.4423 29.9397C62.4684 30.1985 63.7511 30.1698 64.9825 30.1554C66.6757 30.1267 66.3679 29.5947 67.0861 29.4653C69.6516 28.9765 66.2139 28.1427 68.6767 27.6683C69.1384 27.582 68.8306 27.1651 68.7792 26.9063C68.7792 26.8344 68.4714 26.7482 68.2662 26.6907C67.8558 26.5757 67.394 26.6332 67.0861 26.8632C66.8296 27.0213 66.8295 27.2657 66.4704 27.3232C65.1364 27.5101 65.2391 27.1507 64.9825 26.9494C64.5208 26.5325 63.2893 26.4463 62.0579 26.4463C58.6203 26.4319 55.1314 26.4463 51.6938 26.4463C50.6163 26.4463 49.8466 26.0725 49.9493 25.6556C50.0519 25.2818 50.2571 24.9511 51.8477 24.8792C52.8738 24.8361 53.3869 24.678 53.5922 24.3617C53.7974 24.0167 53.079 23.7866 51.0781 23.8441C47.743 23.9304 44.1002 23.4416 41.2269 24.3042C36.8658 24.3617 32.5046 24.4767 28.5539 23.7866C27.6816 23.6285 27.3738 23.3841 27.579 23.1253C27.6816 22.9959 28.4 22.809 28.8104 22.8234C30.7601 22.8234 32.3506 22.7084 33.9925 22.3634C35.6343 22.0183 37.8406 23.0534 39.6877 22.3059C42.8688 22.5934 46.409 22.5934 49.3849 22.9384C54.9261 23.5997 60.4161 23.2691 65.9574 23.1972C66.3679 23.1972 66.8809 22.7803 66.9835 22.5503C67.1375 22.3059 67.3427 22.0183 66.3165 21.8314L59.6464 21.4001C58.3124 21.8889 56.3115 20.897 55.08 21.5583C53.1304 21.4001 51.1294 21.242 49.1797 21.0695C48.9232 21.0407 48.7179 20.9545 48.5126 20.897C48.7692 20.8395 48.9744 20.7532 49.231 20.7244C49.7953 20.6669 50.4111 20.6238 51.0267 20.6238C52.8225 20.6238 54.2078 20.6238 52.6173 19.9194C51.9503 19.6175 53.4895 19.6031 54.2078 19.6031C63.3406 19.5887 72.4734 19.5887 81.6062 19.5743C84.1203 19.5743 86.6344 19.5887 89.1485 19.5743C91.6625 19.5743 91.406 19.2724 90.2773 18.798C90.0207 18.6974 91.1495 18.3811 91.3547 18.1367C92.227 17.231 94.3306 16.8572 97.563 16.9003C99.4614 16.9147 101.36 16.9578 103.207 16.9147C107.465 16.814 111.929 17.1878 115.983 16.4546C116.393 16.3828 117.676 16.5984 118.394 16.7422C119.318 16.9147 120.19 16.9003 121.011 16.7709C122.037 16.6128 121.78 16.3109 121.37 16.0808C120.344 15.477 119.266 14.8732 118.189 14.2838C121.832 14.1544 121.986 14.1113 120.6 13.1337C119.985 12.688 121.062 12.7599 121.729 12.6593C123.833 12.3286 123.884 12.2855 123.063 11.7104C122.858 11.5666 122.55 11.4229 122.242 11.2935C122.807 11.2504 123.422 11.121 123.935 11.1641C124.807 11.2216 126.09 11.5379 126.295 11.4804C129.117 10.6897 131.375 11.5091 133.838 11.6673C134.659 11.7104 135.787 12.0554 136.095 11.9836C139.122 11.3654 143.432 11.8542 146.254 11.1066C145.844 10.4021 144.202 10.0427 141.79 10.014C139.328 9.98524 137.019 10.014 134.556 10.3303C130.092 10.9053 128.45 10.6322 126.501 9.53956C125.988 9.25203 126.09 9.07951 126.757 8.89262C127.886 8.57633 129.066 8.2313 130.708 8.60509C132.042 8.89262 133.735 9.1514 134.966 8.93575C138.096 8.38945 141.431 8.44695 144.818 8.4182C145.177 8.4182 145.485 8.21693 145.792 8.1163C145.536 8.05879 145.331 7.95815 145.074 7.94378C142.611 7.88627 140.149 7.85752 137.686 7.80001C137.481 7.80001 137.275 7.69938 137.019 7.64187C137.275 7.58437 137.532 7.48373 137.788 7.48373C141.431 7.4406 145.177 7.12432 148.666 7.74251C148.922 7.80001 149.743 7.69937 150.102 7.61311C151.59 7.2537 152.873 7.36872 154.258 7.685C155.438 7.95815 156.875 7.9294 157.285 7.54124C157.901 6.9518 158.414 6.9518 160.313 7.1962C162.981 7.54124 163.186 7.46936 165.238 6.67865C166.059 6.36237 166.675 6.50613 167.342 6.66427C168.676 6.98055 169.753 7.51248 171.857 6.9518C172.165 6.86554 173.191 6.85117 173.601 6.93743C177.962 7.75689 182.683 7.22495 187.249 7.22495C189.353 6.62114 191.097 7.08118 193.047 7.35434C194.432 7.54123 196.125 7.23933 197.408 6.76491C198.332 6.41987 199.255 5.9167 200.487 5.84481C203.155 5.68667 206.028 5.85919 208.491 5.34164C208.85 5.26976 210.081 5.52853 210.953 5.60042C212.082 5.68668 213.211 5.75855 214.34 5.83043C214.494 6.10359 215.058 6.30486 215.982 6.31924C221.01 6.44863 225.884 6.34799 230.194 5.44227C231.784 5.11162 233.016 5.37038 233.426 5.91669C233.632 6.20422 234.504 6.36236 235.53 6.2761C236.966 6.14671 238.352 5.95982 239.737 5.77293C240.558 5.67229 240.661 5.49978 240.045 5.39915C238.967 5.22663 237.839 5.09723 236.761 4.95347C235.684 4.8097 234.606 4.65156 233.529 4.49342C234.452 4.16276 235.735 4.24902 236.966 4.23465C238.044 4.23465 238.454 4.03338 239.019 3.80336C240.866 3.04141 241.636 2.99827 242.559 3.63084C244.304 4.7522 247.895 4.98222 251.384 5.26975C252.051 5.32726 253.128 5.12598 253.847 4.9966C254.462 4.88159 253.539 4.42154 252.308 4.22027C251.794 4.13401 251.128 4.09088 250.666 3.99025C250.153 3.87524 250.358 3.38644 250.922 3.31455C254.565 2.76825 258.362 2.48072 262.466 2.75387C262.877 2.78263 263.134 3.01265 263.339 3.15641C263.647 3.35768 263.339 3.54458 262.62 3.57333C261.081 3.64521 259.542 3.68835 258.003 3.70272C256.925 3.7171 256.053 3.84648 256.104 4.11963C256.104 4.34966 256.617 4.62281 257.182 4.79533C259.491 5.41352 262.21 5.77293 265.494 5.80169C268.521 5.83044 271.702 5.68667 274.421 6.2761C274.729 6.33361 275.55 6.2186 276.114 6.17547C275.96 6.0317 275.909 5.87357 275.601 5.74418C274.627 5.35601 274.78 4.68032 272.164 4.65156C271.445 4.65156 270.727 4.33529 270.009 4.16277C269.804 4.10526 269.496 3.9615 269.496 3.94712C269.906 3.84649 270.317 3.71709 270.83 3.67397C273.19 3.42957 274.627 4.07651 276.628 4.16277C276.679 3.67397 276.474 3.11329 279.295 3.17079C279.911 3.17079 280.783 3.21392 281.091 3.12766C282.784 2.65324 284.17 2.69637 285.504 3.2283C286.376 3.57333 287.3 3.5877 288.48 3.30017C289.66 3.01265 290.686 3.25705 291.763 3.41519C294.329 3.78898 296.894 3.83211 299.562 3.37206C301.717 2.99827 304.077 2.58135 306.848 3.0989C307.156 3.15641 307.977 3.02702 308.438 2.94076C311.004 2.45196 313.826 2.46635 316.288 2.88327C320.188 3.54458 325.062 2.66762 328.654 3.58771C329.885 3.34331 331.065 3.07015 331.476 2.63886C332.091 2.63886 332.656 2.62448 333.271 2.59573C333.733 2.58135 338.146 2.59573 338.813 2.61011C339.736 2.61011 340.711 2.61011 341.583 2.5526C342.456 2.50947 342.558 2.36571 342.096 2.19319C341.07 1.83378 341.122 1.63251 343.02 1.58938C345.688 1.5175 347.535 2.09256 349.895 2.26508C349.536 2.48073 348.715 2.76825 348.92 2.91201C349.485 3.27143 353.025 3.21393 353.795 2.88327C354.462 2.58136 353.795 2.9839 353.23 2.66762C352.82 2.40884 352.512 2.16443 353.692 2.12131C355.539 2.0638 357.437 2.12131 359.336 2.12131C360.926 2.12131 362.466 2.12131 364.056 2.07818C365.852 2.03505 367.699 2.17881 369.443 1.8194C371.188 1.47437 372.522 2.29382 374.42 2.07818C374.677 2.04942 375.087 2.07818 375.344 2.04943C376.267 1.93442 376.832 1.74752 376.729 1.45999C376.421 0.48239 376.37 0.48239 378.576 0.48239C380.782 0.48239 383.451 0.683664 385.041 0.396135C388.068 -0.135794 391.095 0.0511044 394.123 0.00797504C395.61 -0.00640142 397.355 -0.0207801 398.638 0.151737C400.279 0.381761 399.253 0.942437 399.51 1.35935C399.766 1.73314 400.331 2.02068 401.254 2.2507C401.613 2.33696 402.178 2.38009 402.691 2.40884C402.794 2.40884 403.153 2.27945 403.153 2.20757C403.255 2.03505 403.153 1.86253 403.255 1.67564C403.614 0.367381 403.768 0.33863 407.873 0.913688C409.464 1.12933 411.054 1.34499 412.645 1.54626C412.645 1.61814 412.696 1.71876 412.85 1.76189C415.21 2.5526 415.415 2.59573 417.622 1.96316C419.52 1.41686 421.367 1.44562 423.522 1.69002C424.651 1.81941 426.293 1.89128 426.806 2.13568C428.088 2.797 429.371 3.28581 432.398 3.18517C432.706 3.18517 433.373 3.41519 433.424 3.55895C433.681 4.019 434.348 4.20589 435.631 3.83211C437.478 3.31455 439.068 2.81137 441.839 3.50144C442.608 3.68834 444.866 3.76022 445.328 3.61646C447.431 2.92639 449.586 3.38643 450.972 3.65959C454.153 4.29215 457.796 4.37841 460.72 4.019C463.799 3.64521 466.723 3.67397 469.802 3.64522C472.316 3.61646 474.83 3.64521 477.344 3.61646C478.267 3.61646 478.832 3.40082 478.934 3.12766C480.782 3.11329 482.988 2.92639 484.322 3.15641C487.811 3.73147 491.505 3.57333 495.148 3.65959C496.328 3.68834 497.405 3.88961 498.534 4.019C499.406 4.11963 500.381 4.19152 501.048 3.9615C501.202 3.904 500.535 3.70272 500.432 3.54458C500.125 3.21392 499.868 2.88326 499.766 2.5526C499.766 2.42322 500.33 2.27945 500.638 2.15006C500.843 2.22195 501.151 2.27945 501.202 2.35133C502.023 3.42957 504.64 3.70272 508.18 3.61646C510.027 3.57333 511.874 3.63084 513.567 3.28581C514.132 3.17079 515.466 3.17079 516.081 3.28581C517.775 3.58771 519.929 3.8321 521.315 3.50144C523.418 2.98389 524.752 3.77461 526.086 3.60209C528.139 3.32894 529.832 3.45832 531.833 3.60209C533.834 3.74585 536.143 3.61646 538.298 3.55895C539.17 3.5302 539.067 3.38644 538.503 3.18517C537.99 2.99828 537.374 2.69637 537.579 2.50948C538.298 1.90566 539.324 2.45197 540.247 2.50948C542.915 2.68199 545.994 2.39446 548.251 3.07016C550.971 3.01265 553.793 3.3433 556.461 2.84013C557.384 2.66761 558.77 2.61011 559.95 2.61011C562.772 2.58136 565.593 2.61011 568.415 2.61011C572.777 2.59573 576.727 3.37206 581.191 3.18517C581.448 3.18517 581.755 3.25705 581.961 3.31455C582.115 3.35768 582.269 3.44394 582.217 3.4727C582.063 3.54458 581.807 3.63084 581.55 3.64522C580.781 3.70272 579.395 3.70272 579.652 3.97587C579.908 4.24902 580.935 4.6947 582.166 4.52218C583.449 4.33529 584.116 4.24902 585.244 4.57968C585.963 4.79532 586.578 5.22662 587.912 5.0541C588.425 4.98222 588.374 4.59406 588.528 4.33528C588.579 4.24902 588.374 4.13401 588.528 4.0765C588.836 3.97587 589.503 3.81773 589.657 3.84649C590.991 4.07651 592.53 4.39279 593.813 3.97587C595.352 3.47269 596.327 4.36403 597.61 4.019C598.944 3.65959 599.662 3.9615 600.585 4.19152C601.868 4.53655 601.612 4.98222 601.919 5.41352C602.125 5.68667 603.151 5.80168 604.126 5.7298C604.639 5.70105 605.152 5.5429 605.357 5.41352C605.562 5.25537 605.408 5.06848 605.46 4.89596C605.614 4.33528 605.716 4.40717 608.949 3.99025C610.744 3.74585 612.386 3.5302 614.131 3.84649C617.055 4.37842 619.877 4.46468 622.853 3.90399C625.111 4.03338 627.368 4.46467 629.472 3.76022C629.677 3.70271 630.806 3.76023 631.165 3.84649C632.704 4.2634 634.551 4.23464 636.45 4.22027C638.964 4.20589 641.478 4.22027 643.992 4.22027C645.788 4.22027 646.916 4.40716 647.224 4.93909C647.327 5.16911 647.943 5.22662 648.507 5.11161C649.584 4.91034 650.508 4.66594 650.918 5.2985C651.278 5.87356 653.176 6.30486 652.971 6.98056C652.868 7.33997 654.407 7.48373 655.793 7.29684C656.87 7.15307 657.948 6.72178 659.025 6.93743C660.872 7.32559 663.027 7.33996 665.079 7.52686C665.336 7.55561 665.49 7.64187 665.644 7.69938C665.131 7.78564 664.566 7.85752 664.053 7.95815C663.592 8.04441 662.719 8.13067 662.719 8.21693C662.719 8.57634 666.054 9.10827 667.08 8.92138C668.312 8.70573 669.441 8.43258 669.8 8.00128C670.826 8.14505 671.801 8.33194 672.878 8.40382C674.11 8.49008 675.136 8.36069 675.444 7.97252C678.625 8.36069 680.882 9.43893 685.192 9.03639C687.552 9.78397 691.144 9.35267 693.863 9.74083C696.89 10.1721 699.866 10.6034 702.893 11.0347C703.971 11.1929 705.1 11.3366 706.126 11.5235C706.69 11.6241 707.255 11.6385 707.614 11.4229C709.204 10.4021 714.745 10.9197 715.977 9.69771C716.233 9.42455 719.825 9.43893 720.082 9.74083C720.954 10.6034 723.417 10.5603 725.674 10.7616C726.033 10.7903 725.982 11.1929 726.136 11.4229C722.852 11.581 722.493 13.0474 718.234 12.7886C717.465 12.7455 717.311 12.9468 717.721 13.1337C718.132 13.3062 719.209 13.5218 717.721 13.7231C717.465 13.7519 717.106 13.7662 716.849 13.7662C714.386 13.7087 711.616 14.0106 709.615 13.5075C706.844 12.8174 705.254 13.9675 702.945 13.7519C702.38 13.6944 701.919 13.5506 701.405 13.45C700.841 13.3349 700.277 13.3925 700.174 13.6081C700.071 13.7519 700.225 14.0538 700.533 14.0681C703.714 14.3269 707.152 14.3557 710.179 14.8013C717.465 14.6288 723.519 16.2102 730.907 15.9371C731.164 15.9371 731.421 16.0377 731.728 16.0521C734.704 16.2246 737.013 17.4754 740.759 16.5121C742.093 16.7134 744.248 16.8284 744.658 17.1447C746.402 18.3523 750.661 18.1798 753.791 18.4961C756.818 18.798 760.563 18.2948 763.591 18.9705C765.848 18.0792 767.849 18.8843 770.004 19.0136C771.851 19.1287 774.673 18.1942 773.596 17.806C771.389 17.0153 772.21 16.1384 771.8 15.2901C771.697 15.0314 771.03 14.8732 770.107 14.8301C769.85 14.4707 769.029 14.3125 767.695 14.2982C766.259 14.2982 764.771 14.2982 764.36 13.795C762.308 13.6656 762.564 13.2199 762.667 12.7886C762.77 12.3717 763.642 12.1848 765.027 12.1705C766.772 12.1417 768.106 12.3861 769.029 12.7455C769.901 13.0762 770.415 13.5075 771.235 13.8525C771.954 14.14 773.134 14.3844 774.417 14.2263C775.032 14.1544 775.391 13.8381 775.699 13.6225C775.904 13.4643 775.699 13.2487 775.956 13.1049C776.212 12.9755 776.777 12.8605 777.29 12.803C778.367 12.7024 779.239 12.8893 779.342 13.1481C779.599 13.7662 779.342 14.4276 782.78 14.3125C783.344 14.2982 784.011 14.3701 784.473 14.4707C790.014 15.477 795.709 15.8652 801.969 14.9164C802.79 14.787 804.38 14.9595 805.509 15.0745C806.33 15.1608 807.048 15.3764 807.715 15.5633C809.049 15.9083 810.537 15.9802 811.769 15.5921C813.924 14.9164 815.925 14.5713 818.798 15.3477C819.824 15.6352 821.466 15.7646 822.902 15.9227C825.571 16.1959 826.751 16.699 826.853 17.5041C826.905 18.0792 826.186 18.7261 828.033 19.2581C828.803 19.4737 827.366 19.6462 826.905 19.8187C826.186 20.0775 825.417 20.02 824.698 19.8187C823.775 19.5743 823.056 19.3012 822.954 18.9274C822.954 18.8555 822.389 18.7405 822.389 18.7405C821.979 18.8268 821.363 18.913 821.312 19.0136C820.696 20.4369 820.953 20.5376 825.519 21.242C827.418 21.5295 829.265 21.8458 831.06 22.1765C831.522 22.2627 831.727 22.4496 832.087 22.579C831.522 22.6365 830.958 22.7515 830.393 22.7515C828.854 22.7803 827.264 22.7515 825.673 22.7803C823.569 22.809 823.569 22.8234 823.005 23.8441C822.492 23.916 821.774 23.9591 821.671 24.0598C821.312 24.3761 821.62 24.8074 820.953 25.0518C819.67 25.5549 819.362 25.9143 821.415 26.3169C822.646 26.5613 823.621 26.9351 824.698 27.237C822.287 28.1715 824.955 28.0133 826.905 28.114C828.033 28.1715 829.008 28.459 830.188 28.5596C832.497 28.7609 834.344 29.3216 837.012 29.2209C837.217 29.2209 837.474 29.3216 837.73 29.3791C837.32 29.4797 836.961 29.6522 836.55 29.6666C832.497 29.6953 828.444 29.681 824.39 29.7097C824.134 29.7097 823.518 29.9829 823.621 30.0116C824.544 30.3567 826.135 30.6442 826.494 31.0324C827.11 31.6937 828.341 31.8518 830.496 31.7943C831.42 31.7656 832.394 31.78 833.215 31.8662C834.755 32.0387 833.472 32.24 833.164 32.4269C832.908 32.5707 832.702 32.7288 832.446 32.8726C831.522 33.0307 830.65 33.2751 829.675 33.3039C826.905 33.3757 826.751 33.8789 826.751 34.4396C823.775 34.569 821.671 33.9508 819.311 33.6345C816.643 33.2895 814.591 33.2751 812.692 33.9364C811.666 34.2958 810.332 34.4683 808.588 34.4396C806.741 34.4108 804.842 34.4827 802.944 34.4827C800.789 34.4827 800.584 34.8565 800.378 35.3453C800.122 35.906 799.711 35.9922 798.583 35.7622C795.915 35.2159 792.169 35.906 789.809 35.1153C789.604 35.2734 789.193 35.4172 789.193 35.5753C789.193 35.8772 789.809 36.021 790.938 36.0641C791.502 36.0929 791.964 36.2223 792.528 36.3085C792.015 36.3948 791.605 36.5242 791.04 36.5529C790.117 36.5961 789.142 36.6104 788.218 36.5817C785.499 36.4954 783.652 36.7398 782.575 37.5018C782.164 37.7893 780.009 37.588 779.753 37.2142C779.599 36.9555 779.753 36.6823 779.599 36.4235C779.496 36.3085 778.829 36.2366 778.419 36.1648C778.367 36.1648 777.957 36.2798 777.803 36.3517C775.802 37.3005 773.75 37.4155 772.262 36.5961C770.979 35.8772 769.44 35.5322 766.566 35.5322C764.104 35.5322 761.23 35.8053 759.281 35.3309C756.459 34.6552 754.714 35.6328 752.405 35.5178C751.533 35.4747 750.61 35.4316 749.737 35.3597C748.865 35.2878 748.096 35.144 747.223 35.0865C746.043 35.0003 745.376 35.6185 744.042 35.3166C743.016 35.0865 741.631 35.1153 740.656 34.9571C737.167 34.4396 733.422 34.5115 729.727 34.4971C728.137 34.4971 726.598 34.4683 725.007 34.4971C723.827 34.4971 721.826 34.3677 721.672 34.7127C721.467 35.0865 723.417 34.9571 724.443 35.029C726.803 35.1872 728.701 35.6616 731.472 35.6041C734.191 35.5466 736.5 36.1648 739.476 36.1073C741.733 36.0641 742.041 36.3517 740.656 37.1567C740.04 37.5305 740.759 37.6312 741.528 37.6599C743.067 37.7174 744.658 37.703 746.197 37.7462C746.454 37.7462 746.71 37.8468 746.967 37.8899C746.608 37.9906 746.249 38.1343 745.838 38.1631C744.915 38.2062 743.991 38.1775 743.016 38.2062C742.76 38.2062 742.298 38.35 742.349 38.3787C742.554 38.4938 742.862 38.6807 743.221 38.695C744.453 38.7382 745.735 38.7238 746.967 38.7094C748.403 38.7094 748.968 38.4937 749.276 38.0768C750.148 36.9411 751.379 36.6248 754.458 36.6104C756.664 36.6104 758.87 36.6104 761.077 36.6104L769.748 37.3436C771.902 37.6743 771.902 38.3787 773.185 38.8531C773.647 39.0113 773.493 39.1838 772.621 39.2126C771.082 39.2701 769.491 39.2126 767.952 39.2701C767.028 39.2988 766.413 39.5001 766.413 39.7876C769.696 40.1758 772.621 40.7509 776.469 40.8946C780.112 41.0384 783.549 41.484 787.397 41.369C789.193 41.3259 791.092 41.2828 792.836 41.6278C794.683 42.0016 795.966 41.1965 797.916 41.3547C799.096 41.4553 800.635 41.3403 801.507 41.5128C803.816 41.9872 806.33 41.8435 808.793 41.8866C810.691 41.9297 812.59 41.9585 814.437 41.8866C816.848 41.8003 818.182 42.4329 820.542 42.4617C823.21 42.4904 823.21 42.6342 823.056 43.5399C822.902 44.4744 820.542 44.9632 817.002 44.7044C813.872 44.4744 810.896 44.3737 808.434 45.15C807.869 45.3369 806.843 45.5382 806.073 45.5238C802.687 45.4663 799.198 45.8257 795.966 45.2507C794.273 44.9488 792.374 45.0494 790.681 45.3657C790.168 45.452 789.347 45.5814 788.988 45.5238C786.115 45.035 783.909 45.5238 781.6 45.8545C780.214 46.0558 778.829 46.2427 777.495 46.4439C774.776 46.8609 771.389 46.4439 768.824 47.0334C766.72 46.4727 764.104 46.6021 761.641 46.6883C758.819 46.789 756.767 46.5014 755.125 45.8976C754.406 45.6388 753.586 45.7395 752.816 45.8976C751.687 46.1564 750.507 46.1564 749.43 45.8976C748.455 45.682 747.634 45.4088 746.608 45.2076C746.505 45.1932 746.454 45.1788 746.402 45.1644C746.402 45.1932 746.402 45.2507 745.941 45.2938C745.735 45.3226 745.53 45.4663 745.633 45.5095C746.197 45.8832 746.864 46.257 747.48 46.6308C748.403 46.8177 749.481 46.9902 750.251 47.2203C752.046 47.7378 751.225 48.3991 750.918 48.9742C750.712 49.3192 748.865 49.233 747.685 49.3048C746.813 49.348 745.992 49.4917 745.222 49.6355C744.709 49.7217 744.094 49.8943 744.094 50.0237C744.094 50.3399 745.12 50.3256 745.992 50.3399C747.223 50.3399 748.711 50.3399 749.07 50.7425C749.43 51.1019 750.148 51.3607 751.02 51.6051C751.995 51.8782 753.124 51.9357 754.458 51.907C755.894 51.8782 756.664 51.7057 756.921 51.2888C757.126 50.9725 757.947 50.9438 758.768 51.1594C759.435 51.3463 760.05 51.5619 760.82 51.6913C761.538 51.8063 762.564 51.8926 763.334 51.8351C764.36 51.7632 765.13 51.3175 766.413 51.6913C767.439 51.9932 769.594 51.8351 770.055 52.3958C770.158 52.5539 770.62 52.6977 770.928 52.8415C771.338 52.6258 771.749 52.4245 772.108 52.2089C772.569 51.9789 773.236 51.9501 773.39 52.1658C773.955 53.014 776.212 53.0427 778.316 52.899C785.499 52.3814 785.499 52.3527 791.502 52.8415C793.965 53.0427 796.376 53.1002 798.634 52.6402C800.07 52.3383 801.815 52.3527 802.995 52.5683C804.688 52.8702 806.381 52.9421 808.28 52.9996C809.511 53.0284 810.127 53.474 809.255 53.8047C807.921 54.3366 807.613 55.1417 804.586 55.2567C802.431 56.0043 799.557 56.1768 796.274 56.1337C792.836 56.0905 789.347 56.0186 785.91 56.1337C782.318 56.263 779.753 55.3286 776.058 55.5442C773.39 55.7024 772.416 54.4804 769.748 54.6241C767.131 54.7679 764.771 55.4005 762.051 54.7391C761.538 54.6097 761.179 54.696 760.512 54.811C757.895 55.2136 755.227 55.1704 752.559 54.7679C751.123 54.5522 751.379 54.9548 751.02 55.1561C750.764 55.2998 750.148 55.573 750.045 55.5586C747.736 55.2998 744.607 55.4436 743.427 54.581C740.656 54.5666 737.885 54.5523 735.115 54.5235C733.319 54.5091 732.139 54.696 731.985 55.2423C729.471 55.7024 726.854 56.4212 723.827 56.0043C721.364 55.6592 719.107 55.6592 716.644 55.6305C714.489 55.6017 711.975 55.7311 710.282 55.458C707.255 54.9692 704.125 55.0267 701.251 55.1273C698.276 55.2279 695.813 54.4229 692.58 54.9979C690.99 55.2711 688.322 55.0986 686.167 55.0698C683.602 55.0267 681.908 55.7886 679.292 55.5874C679.138 55.3861 678.984 55.1704 677.958 55.2423C677.65 55.2711 677.496 55.458 677.291 55.5874C676.778 55.6449 676.162 55.688 675.803 55.803C674.52 56.1768 673.186 56.2343 671.749 55.8749C670.826 55.6449 669.902 55.4148 668.928 55.1704C667.234 55.7311 665.798 55.228 664.207 55.1129C662.514 54.9979 659.897 55.8749 660.564 56.3206C660.77 56.4499 661.437 56.5937 661.95 56.6081C662.873 56.6512 664.156 56.6943 664.669 56.565C666.567 56.0905 667.901 56.2487 669.184 56.7375C670.056 57.0681 671.031 57.14 672.16 56.8237C672.93 56.6081 673.853 56.6368 674.674 56.7662C675.905 56.9675 675.136 57.6719 677.445 57.6719C678.984 57.6719 680.574 57.7007 682.114 57.7151C682.422 57.7151 682.729 57.7151 682.986 57.7151C684.525 58.362 685.295 58.362 686.731 57.7151C687.347 57.7151 687.963 57.6863 688.63 57.6719C689.245 57.1544 690.323 56.7662 692.427 56.6656C692.58 56.91 693.145 57.0825 694.017 57.14C694.941 57.1975 695.915 57.14 696.788 57.2119C697.249 57.2406 697.763 57.4275 697.917 57.5713C698.224 57.8445 697.66 58.0889 696.736 58.1607C695.864 58.2326 694.838 58.1607 693.966 58.2326C693.555 58.2614 693.196 58.4195 692.837 58.5202C694.171 58.8652 693.914 59.5696 695.915 59.7278C696.993 59.814 698.532 59.7565 699.456 59.584C701.867 59.1383 703.817 59.1958 706.228 59.6128C709.358 60.1591 712.847 60.461 716.746 60.3316C719.517 60.2453 722.698 60.5329 725.058 60.2453C728.086 59.8859 730.805 59.6128 733.781 60.0584C736.449 60.4466 739.886 60.3603 741.887 61.151C742.247 61.2948 743.888 61.3811 744.35 61.2804C745.838 60.9498 746.916 60.9785 748.147 61.3667C749.481 61.798 750.866 61.9274 753.021 61.6398C756.151 61.2373 759.537 61.1654 762.718 61.6974C764.514 61.9993 766.31 61.9417 767.9 61.6111C768.927 61.3954 769.388 61.6111 770.209 61.683C771.287 61.798 772.467 61.8411 773.647 61.913C774.468 62.6462 777.444 63.0056 778.008 63.8107C778.059 63.9113 779.701 64.0119 780.471 63.9688C781.651 63.9113 782.677 63.6813 783.857 63.595C785.961 63.4369 788.27 63.2356 790.117 63.6382C792.477 64.1413 794.478 64.1126 796.941 63.6813C798.172 63.4656 798.172 63.8826 798.223 64.0982C798.275 64.5295 798.429 64.9752 796.171 65.0614C794.991 65.1046 793.811 65.2196 792.682 65.349C789.604 65.7371 786.063 65.5502 783.036 66.0822C781.907 66.2834 779.958 66.0822 778.419 66.1253C777.033 66.1397 776.007 66.0247 775.135 65.7227C773.903 65.2915 772.569 65.0039 770.722 65.4927C769.081 65.2483 767.439 65.0327 765.848 64.7595C765.232 64.6445 764.976 64.6733 764.309 64.8027C763.334 64.9896 762.103 65.0902 760.974 65.2483C757.947 65.6796 755.125 66.2834 751.892 66.5135C748.506 66.7579 746.043 65.6796 742.657 65.579C741.785 65.5502 740.861 65.4783 740.04 65.3633C738.706 65.1764 736.808 65.0471 736.243 64.7308C735.371 64.2563 735.166 64.2132 733.165 64.3714C728.291 64.7451 727.419 64.6301 718.234 63.6382C716.9 63.4944 715.926 63.5088 714.899 63.7676C713.873 64.0263 712.693 64.0838 711.616 63.7963C710.384 63.4657 708.845 63.3794 707.255 63.4513C705.1 63.5663 703.612 63.2788 702.483 62.8331C701.046 62.2868 700.071 62.7181 698.737 62.8619C697.557 62.9912 696.429 62.8331 696.172 62.4306C694.376 62.4306 692.427 62.2293 690.887 62.6318C689.297 63.0487 687.347 62.9193 685.5 62.9193C684.115 62.9193 683.14 62.7756 682.883 62.3443C682.781 62.2005 682.268 61.9418 681.908 61.9418C678.779 61.9274 675.7 61.9417 672.57 61.9561C670.518 62.7612 668.928 61.8267 667.029 61.8411C666.311 61.8411 666.054 61.568 666.567 61.4961C668.466 61.2229 670.467 60.9929 672.416 60.7341C672.673 60.691 672.878 60.6191 673.135 60.5616C672.93 60.5041 672.776 60.4178 672.57 60.4035C669.184 60.1878 665.695 59.9722 662.976 60.8348C661.231 61.3811 659.179 61.3523 656.973 61.3236C656.665 61.3236 656.306 61.3236 656.049 61.3236C655.741 61.3092 655.28 61.2373 655.28 61.2085C655.28 61.0792 655.382 60.921 655.69 60.8204C656.255 60.6047 656.922 60.4179 657.589 60.231C658.307 60.0441 658.204 59.929 657.281 59.8572C654.407 59.6559 651.791 59.814 649.277 60.2597C648.917 60.3172 648.148 60.1878 647.583 60.1447C647.737 60.0009 647.737 59.814 648.097 59.7278C648.764 59.5265 648.764 59.4259 647.943 59.354C647.019 59.2821 646.249 59.3109 645.326 59.4402C642.863 59.7997 642.761 59.7709 641.273 59.1671C640.708 58.9371 640.195 58.7358 639.169 58.7789C638.605 58.8077 638.092 58.9227 637.527 58.9802C633.628 59.3252 629.677 59.4978 625.88 58.8796C624.957 58.7358 623.879 58.6208 623.315 58.7933C621.468 59.3684 618.441 59.0952 616.542 59.5696C615.413 59.8572 614.233 59.7565 613.207 59.5121C611.771 59.1671 610.385 58.8077 609.051 58.4339C607.922 58.1176 607.358 58.4626 606.845 58.6064C604.844 59.1815 604.947 59.4115 607.307 59.7709C609.051 60.0297 609.154 60.1159 607.923 60.4322C607.307 60.5904 606.742 60.8635 605.614 60.5904C603.767 60.1303 602.586 59.2965 599.867 59.3252C595.916 59.354 591.966 59.0089 587.912 59.5696C584.577 60.0297 580.627 60.0297 577.6 59.0952C577.035 58.9227 576.009 58.7502 575.188 58.7502C571.75 58.7214 568.313 58.7502 564.875 58.7502C563.336 59.4259 561.489 58.6064 560.257 58.7789C557.333 59.1958 555.024 58.8939 552.818 58.477C551.279 58.1895 550.201 58.1607 548.662 58.4339C547.687 58.6064 546.353 58.6352 545.122 58.6783C543.531 58.7358 543.069 58.9946 543.121 59.3828C543.121 59.5553 543.172 59.7422 543.069 59.9147C542.915 60.1591 542.608 60.4035 542.351 60.6479C540.914 60.4753 541.325 60.1159 541.274 59.7997C541.274 59.6271 541.376 59.4403 541.274 59.2677C541.171 59.1096 540.914 58.9227 540.504 58.8364C540.093 58.7502 539.324 58.707 538.759 58.7358C537.887 58.7789 537.785 58.9371 538.246 59.0952C538.606 59.239 539.119 59.3828 539.221 59.5409C539.426 59.7997 539.375 60.0872 538.349 60.2166C537.066 60.3747 534.398 60.2597 533.885 60.0584C533.167 59.7709 533.885 60.1591 534.398 59.8428C534.757 59.6271 535.63 59.4546 534.655 59.2102C532.038 58.5345 529.114 58.1464 525.419 58.1895C523.624 58.2183 522.444 58.3045 522.238 58.8796C522.136 59.124 521.52 59.1527 520.904 59.0089C520.391 58.9083 519.622 58.7071 519.365 58.7502C517.108 59.1096 513.824 58.9227 512.695 59.9003C512.131 60.3891 510.438 60.346 509.36 59.814C508.693 59.4977 508.539 59.0952 507.359 59.6846C507 59.8715 507.256 60.3172 505.769 60.0153C504.024 59.6703 501.459 59.6847 500.381 59.0665C499.971 58.8364 499.868 58.477 499.201 58.3908C497.816 58.1895 497.2 58.6352 496.379 58.8364C495.353 59.0808 494.224 59.239 492.942 59.1815C489.76 59.009 486.733 58.3333 483.398 59.0521C480.679 58.3908 477.395 58.6783 474.368 58.6783C470.982 58.6783 467.39 58.4626 464.414 59.1671C461.644 59.0808 458.822 59.3684 456.154 58.9371C455.384 58.8077 454.409 58.7358 453.537 58.7214C450.407 58.6783 447.175 58.5633 444.096 58.6927C440.454 58.8364 437.478 58.2758 434.143 58.2039C431.629 58.1464 429.115 58.1751 426.6 58.1751C424.394 58.1751 422.188 58.1464 419.982 58.1607C417.468 58.1607 414.594 57.9882 412.491 58.2614C410.028 58.5776 408.078 58.6639 405.769 58.3333C400.485 59.2246 395.508 58.4339 390.736 57.9738C386.067 57.5282 381.603 57.5426 377.14 57.9163C375.6 58.0457 374.215 58.1607 372.625 58.1607C370.726 58.1607 368.263 57.9738 367.083 58.247C364.723 58.7789 363.133 58.1607 361.183 58.1751C360.567 58.1751 359.9 58.1464 359.285 58.2039C352.922 58.7214 352.922 58.7502 345.996 58.3045C343.379 58.9083 340.916 57.8301 338.402 58.247C336.966 58.477 335.939 58.4051 334.349 58.3333C330.09 58.132 325.78 58.017 321.471 58.5202C318.289 58.8939 314.544 58.8939 311.414 58.5202C309.259 58.2614 307.207 58.2039 305.103 58.2182C300.794 58.2614 296.33 57.8732 292.328 58.6495C292.122 58.6927 291.609 58.6927 291.404 58.6495C288.48 57.9163 284.426 58.4914 281.604 58.0745C278.218 57.5713 274.883 57.7151 271.548 57.6719C268.11 57.6288 264.621 57.6719 261.133 57.6719C259.029 58.5058 256.104 57.7151 253.693 57.9738C250.666 58.2901 247.536 58.1176 244.457 58.2039C243.226 58.247 241.995 58.2901 240.866 58.4195C238.147 58.7645 235.53 58.8077 232.811 58.4051C230.091 57.9882 226.551 58.3476 224.037 57.6719C223.575 57.5426 221.882 57.5713 221.318 57.7151C218.855 58.3189 215.982 58.0889 213.211 58.1607C208.593 58.2901 203.77 57.8588 199.46 58.6495C194.176 58.6495 188.84 58.9802 183.812 58.2039C181.041 58.362 180.528 57.6432 179.091 57.255C176.936 57.7438 174.217 57.7438 171.857 57.6288C167.906 57.4563 164.725 58.1464 160.979 58.1464C154.669 58.1464 148.409 58.1464 142.098 58.1751C140.405 58.1751 139.071 58.0457 137.942 57.6863C136.916 57.3413 135.274 57.2406 134.043 57.0106C131.888 56.5937 130.451 56.5793 128.194 56.9531C126.244 57.2694 123.935 57.1544 122.447 56.5506C120.908 55.9468 118.548 55.8605 116.547 56.0905C113.366 56.4499 110.031 56.5218 106.85 56.7662C100.641 57.255 97.563 57.2694 90.5851 56.7087C89.6616 56.6368 88.8406 56.5793 87.9684 56.7519C84.5821 57.4707 80.6314 56.9531 76.9885 57.0825C75.1414 57.14 73.3457 57.14 71.6525 56.7519C70.3699 56.45 68.0096 56.4212 67.4453 56.7806C65.906 57.8301 63.5459 57.787 60.8779 57.3125C59.5439 57.0825 59.2874 57.3988 58.569 57.485C57.0298 57.6719 55.4392 57.7294 54.1566 57.4419C53.1817 57.2263 56.0549 56.91 54.3105 56.6656C53.2843 56.5218 51.5398 56.6656 50.7702 56.4787C47.897 55.803 45.2802 55.0267 42.5609 54.2935C43.0227 53.9053 43.6384 53.5315 43.895 53.129C44.2542 52.6402 42.8688 52.2664 41.1757 52.3527C38.1485 52.4964 35.3779 52.9708 32.1968 52.8702C31.9915 52.8702 31.6837 52.9565 31.4785 53.014C31.068 53.129 31.3245 53.3446 32.0941 53.3446C34.9161 53.3159 33.9413 54.4085 36.3015 54.466C36.3527 54.7104 36.3527 54.9692 36.5579 55.1992C36.7631 55.4436 37.225 55.4436 37.892 55.3286C38.559 55.2136 39.3798 54.926 40.0981 55.2998C40.8165 55.6736 41.4835 56.0618 41.9453 56.4643C42.2531 56.7375 41.6374 57.0106 40.7138 57.0681C38.918 57.1688 37.0197 57.1544 35.1727 57.255C33.9926 57.3125 32.915 57.5138 31.7349 57.5857C30.4009 57.6863 29.0157 57.4419 28.9131 57.1256C28.8105 56.68 28.8105 56.2487 28.7592 55.803C28.7078 55.2711 29.6827 55.0267 31.4785 54.9404C32.2994 54.8973 32.4533 54.6816 31.9402 54.5954C30.6575 54.3654 28.9131 54.2503 28.0921 53.9341C26.4503 53.3159 25.1675 53.704 23.577 53.8909C22.6022 54.0203 21.8326 53.819 21.9865 53.5315C22.0891 53.3302 23.6284 53.1721 22.1918 52.899C18.4976 52.1658 13.7259 52.5252 9.87781 51.8782C9.26215 51.7632 7.6203 52.1945 6.69678 52.1226C4.95227 51.9789 3.36176 51.6769 1.82251 51.3894C0.129333 51.0875 0.180664 50.3687 1.97644 50.0524C4.28528 49.6499 6.54285 49.1611 9.51868 49.1611L10.0317 49.2905ZM59.6978 35.0003L59.5952 34.9428L59.4412 34.9859H59.6978C59.8517 35.1153 60.0569 35.2303 60.2622 35.3309C60.2622 35.3453 60.8266 35.3309 60.8266 35.3166C60.9805 35.029 60.3648 35.0003 59.6978 34.9859V35.0003ZM66.2652 20.7963C66.2652 20.7963 65.906 20.8395 65.7521 20.8682V21.0264L66.8809 20.9257C66.8809 20.9257 66.5217 20.8107 66.2652 20.7963ZM96.229 19.2005L95.6646 19.3443L96.2803 19.4737L96.8447 19.4018L96.229 19.2005ZM97.4091 21.1845H97.3065V21.2133C96.3829 21.2133 95.4594 21.1989 94.5871 21.2133C92.0217 21.2708 90.4825 20.4513 87.6093 20.6382C85.5057 20.782 83.248 20.6813 81.0418 20.6957C78.5277 20.6957 76.0137 20.6813 73.5509 20.6957C71.1395 20.7101 70.2159 21.2707 71.2421 21.9896C71.3447 22.0615 71.6525 22.119 71.8577 22.1765C72.063 22.119 72.4734 22.0615 72.5248 21.9896C72.8326 21.5295 73.4996 21.1845 75.5006 21.242C76.7321 21.2708 78.1172 21.1557 79.1948 21.2707C80.58 21.4145 81.7088 21.7308 83.4533 21.7164C87.8145 21.6589 92.1757 21.6589 96.5368 21.6014C96.7933 21.6014 97.0499 21.3714 97.3065 21.2276H97.4091V21.1989C98.2812 21.1989 99.1536 21.1989 100.026 21.1845C100.282 21.1845 100.693 21.0263 100.641 21.012C100.385 20.897 100.077 20.7388 99.6666 20.7101C98.2813 20.6238 97.4603 20.782 97.4091 21.1989V21.1845ZM101.001 18.5967C100.539 18.6686 100.128 18.7549 99.6666 18.8268C100.539 19.028 101.462 19.2437 102.386 19.4306C102.386 19.4306 102.899 19.3156 102.95 19.2437C103.053 19.1574 103.053 19.0568 102.95 18.9849C102.796 18.7549 102.027 18.5823 100.949 18.5967H101.001ZM134.761 15.9227C133.992 15.9227 133.632 15.9227 133.325 15.9515C132.76 16.009 132.247 16.1096 131.734 16.1815C132.247 16.2677 132.76 16.354 133.325 16.4259C133.581 16.4546 133.992 16.4546 134.248 16.4259C135.12 16.354 135.941 16.2534 136.762 16.1671L134.761 15.9227ZM145.946 16.0521C145.946 16.0521 145.485 16.0233 145.331 16.0521C144.869 16.1384 144.971 16.2534 145.69 16.3253C145.792 16.3253 146.1 16.239 146.203 16.1671C146.203 16.1384 146.049 16.0808 145.946 16.0377V16.0521ZM147.947 11.3222C147.742 11.236 147.178 11.2072 146.716 11.1641C146.716 11.1497 146.716 11.121 146.665 11.1066L146.511 11.1497C146.511 11.1497 146.665 11.1497 146.716 11.1641C146.87 11.2935 146.972 11.4373 147.28 11.4948C147.793 11.581 148.255 11.4516 147.947 11.3222ZM155.643 15.6208C155.643 15.6208 149.076 16.0233 149.076 16.0377C149.025 16.0952 148.922 16.1527 148.922 16.2246C148.974 16.469 151.539 16.9434 152.565 16.9003C154.104 16.8428 155.746 16.3396 155.9 15.8652C155.9 15.7933 155.746 15.7071 155.592 15.6352L155.643 15.6208ZM158.722 16.009L158.158 16.1671L158.773 16.2965L159.338 16.2246L158.722 16.0233V16.009ZM715.002 12.0698C715.361 11.9979 715.464 11.811 715.669 11.6673C716.541 11.6529 717.465 11.6529 718.337 11.6098C718.594 11.6098 718.953 11.4516 718.953 11.4516C718.645 11.3366 718.337 11.1929 717.927 11.1641C716.49 11.0635 715.72 11.2504 715.669 11.6673C715.156 11.7392 714.489 11.7679 714.284 11.8686C713.976 12.0123 714.489 12.1561 715.002 12.0698ZM765.592 13.4068C765.284 13.4643 765.181 13.6081 765.027 13.7375C764.925 13.7375 764.873 13.7375 764.771 13.7519L764.925 13.795C764.925 13.795 764.925 13.7519 764.976 13.7231C765.438 13.68 765.951 13.6656 766.207 13.5793C766.566 13.45 766.105 13.3062 765.54 13.3925L765.592 13.4068ZM760.82 27.2801C760.358 27.2082 759.896 27.0932 759.383 27.0788C758.255 27.0357 757.382 27.237 757.895 27.3807C758.255 27.4814 758.922 27.5533 759.383 27.5245C759.896 27.5101 760.307 27.3664 760.769 27.2801H760.82ZM782.831 17.5616L781.959 17.9642C782.164 18.1079 782.369 18.2517 782.575 18.3955C782.934 18.3236 783.703 18.2373 783.652 18.1942C783.498 17.9785 783.088 17.7629 782.831 17.5616ZM790.835 17.7054C790.425 17.7341 789.706 17.7773 789.655 17.8492C789.501 18.0648 789.552 18.2948 789.604 18.5105C789.552 18.5105 789.501 18.5105 789.398 18.5105C789.398 18.5392 789.347 18.5536 789.296 18.5824C788.629 18.5824 788.013 18.6255 788.167 18.8986C788.167 18.913 788.731 18.9418 788.731 18.913C788.937 18.8124 789.091 18.683 789.296 18.5824H789.604C789.604 18.5824 789.604 18.5248 789.604 18.5105C790.835 18.4673 791.451 18.2517 791.297 17.8779C791.297 17.806 790.938 17.691 790.835 17.7054ZM799.865 18.1079L799.25 18.2948L799.917 18.453C799.917 18.453 800.43 18.3236 800.43 18.2805C800.43 18.2229 800.07 18.1654 799.814 18.1079H799.865ZM816.643 32.1681L817.464 32.01C817.464 32.01 817.053 31.8806 816.899 31.8806C816.694 31.8806 816.54 31.9812 816.386 32.0243L816.694 32.1681H816.643ZM814.693 29.5228C815.617 29.8535 816.643 30.1842 818.336 30.1266C818.798 30.1123 819.414 29.9685 819.567 29.8535C819.721 29.7241 819.619 29.4941 819.311 29.3935C818.182 29.0484 816.643 29.1203 815.155 29.1922C814.898 29.1922 814.693 29.2928 814.437 29.3359C814.539 29.4078 814.539 29.4797 814.693 29.5372V29.5228ZM814.488 28.3871C814.745 28.5596 815.258 28.5309 815.822 28.3584C817.002 28.0133 818.541 28.0852 820.029 28.0421C820.491 28.0421 820.901 27.8839 821.363 27.7977C820.85 27.7258 820.388 27.6108 819.875 27.5676C819.311 27.5245 818.695 27.5676 818.08 27.5676C817.207 27.5676 816.232 27.5389 815.412 27.5964C814.95 27.6252 814.437 27.7977 814.283 27.9271C814.129 28.0708 814.283 28.2433 814.539 28.3871H814.488ZM813.154 20.0344C813.411 19.8187 813.77 19.6175 813.924 19.4018C813.924 19.3731 813.205 19.2868 812.795 19.2437C812.59 19.3874 812.23 19.5312 812.282 19.6606C812.333 19.79 812.846 19.9194 813.154 20.0344ZM794.221 31.2624C794.529 31.3918 795.145 31.4637 795.504 31.5787C796.12 31.7512 796.53 31.7368 796.787 31.5068C796.889 31.4349 796.889 31.363 796.941 31.3055C796.992 30.9892 796.325 30.8455 795.401 30.8167C794.888 30.8023 794.324 30.8742 793.811 30.903C793.914 31.0324 793.914 31.1761 794.17 31.2768L794.221 31.2624ZM731.113 29.3503C731.574 29.5085 733.011 29.6666 733.473 29.5803C734.858 29.3503 735.782 29.1634 737.372 29.5516C738.552 29.8391 740.451 29.7816 741.733 29.4941C743.016 29.2066 743.734 29.336 744.761 29.5947C746.864 30.1123 747.018 30.1267 749.07 29.5947C750.815 29.1347 751.482 29.2353 751.892 29.8535C751.995 29.9829 752.713 30.1554 753.175 30.1698C754.714 30.2273 756.305 30.1985 757.895 30.2273C761.59 30.2704 765.232 30.1698 768.824 30.673C770.62 30.9174 773.955 31.0755 774.673 29.9829C774.878 29.7097 776.212 29.6666 777.085 29.7529C778.213 29.8679 779.342 30.0404 780.317 30.256C782.728 30.8023 785.55 30.7448 788.372 30.7736C790.219 30.8023 791.143 30.5579 791.605 30.0404C791.861 29.7241 792.682 29.4653 793.298 29.1778C797.608 29.1634 801.969 28.8759 806.022 29.6091C806.946 29.7816 808.434 29.4797 808.382 29.0484C808.331 28.4158 809.101 28.0708 811.358 27.9989C811.615 27.9989 811.769 27.8839 811.974 27.8264C811.717 27.7689 811.461 27.6827 811.204 27.6827C809.973 27.6683 808.742 27.6108 807.561 27.6827C806.227 27.7545 799.403 27.7402 797.916 27.6395C796.735 27.5676 795.401 27.5245 794.221 27.582C792.836 27.6395 791.451 27.8983 790.065 27.9127C788.937 27.9127 787.808 27.697 786.679 27.582C786.423 27.5533 786.012 27.5676 785.756 27.5964C785.191 27.6683 784.37 27.7258 784.268 27.8408C783.96 28.0708 783.857 28.3727 784.832 28.5309C785.602 28.6602 786.525 28.7178 787.295 28.8759C787.859 28.9909 787.551 29.5372 786.884 29.5516C785.037 29.5804 783.19 29.6522 781.343 29.6091C780.368 29.5803 780.163 29.2641 780.214 28.9909C780.214 28.7034 782.626 28.5165 780.881 28.1714C780.266 28.0564 779.188 28.1283 778.265 28.1283C778.265 28.1283 778.265 28.0996 778.265 28.0852H778.059C777.854 27.9271 777.7 27.7114 777.495 27.697C775.34 27.6251 773.185 27.5533 771.03 27.582C769.029 27.6108 767.387 27.5101 765.848 27.1507C765.181 26.9926 763.283 27.1795 763.488 27.2945C763.744 27.4526 764.258 27.5676 764.668 27.7114C765.54 27.9989 766.566 28.1139 767.952 28.0996C771.338 28.0852 774.724 28.0996 778.111 28.0852V28.1283C778.111 28.1283 778.265 28.1283 778.316 28.1283C778.316 28.3871 778.419 28.6603 778.059 28.8759C777.444 29.2497 776.007 29.1922 774.776 29.1778C773.852 29.1778 772.569 29.2497 772.005 29.1203C769.594 28.5452 766.72 28.6746 763.95 28.6459C761.179 28.6171 758.203 28.7896 755.997 28.114C751.636 28.1571 747.223 28.1571 742.914 28.3008C741.733 28.344 740.964 28.3583 739.732 28.3008C736.705 28.1427 733.524 28.1714 730.446 28.1427C730.138 28.1427 729.522 28.3871 729.625 28.459C729.984 28.7896 730.394 29.1347 731.164 29.3935L731.113 29.3503ZM723.93 28.4446C725.007 28.5021 725.058 28.3152 725.11 28.1283L725.264 28.0996C725.264 28.0996 725.264 28.0564 725.315 28.0421C725.777 27.9989 726.341 27.9846 726.598 27.8839C726.957 27.7545 726.444 27.6108 725.879 27.697C725.571 27.7545 725.469 27.9127 725.315 28.0421C725.264 28.0421 725.161 28.0421 725.11 28.0564V28.1283C724.648 28.1715 724.237 28.2146 723.827 28.2865C723.776 28.2865 723.827 28.4446 723.878 28.459L723.93 28.4446ZM766.156 40.1039C766.464 40.0464 766.566 39.9026 766.669 39.7876C766.772 39.7876 766.823 39.7876 766.926 39.7733L766.772 39.7301C766.772 39.7301 766.772 39.7732 766.72 39.802C766.259 39.8451 765.746 39.8739 765.54 39.9458C765.181 40.0895 765.694 40.2189 766.207 40.1183L766.156 40.1039ZM754.817 40.0608C755.073 40.0464 755.381 39.802 755.33 39.6726C755.33 39.5432 754.817 39.4282 754.509 39.3132C754.253 39.4282 753.842 39.5432 753.739 39.6582C753.637 39.8595 753.739 40.1183 754.766 40.0608H754.817ZM747.172 47.0046C747.48 46.9471 747.583 46.789 747.736 46.6596C747.788 46.6596 747.89 46.6596 747.942 46.6452L747.788 46.6021C747.788 46.6021 747.788 46.6452 747.736 46.6596C747.275 46.7027 746.71 46.7315 746.505 46.8177C746.146 46.9615 746.659 47.1053 747.172 47.0046ZM744.196 54.5954C744.196 54.5954 744.248 54.5523 744.299 54.5235C744.915 54.4947 745.633 54.4948 745.428 54.1928C745.428 54.1785 744.863 54.1641 744.812 54.1928C744.607 54.2935 744.453 54.4085 744.299 54.5235C744.196 54.5235 744.094 54.5235 743.991 54.5379L744.196 54.5954ZM741.579 46.4439C741.785 46.3002 742.144 46.1564 742.093 46.027C742.041 45.8976 741.528 45.7826 741.066 45.6101C740.81 45.8689 740.553 46.0701 740.502 46.2858C740.502 46.3289 741.22 46.3864 741.631 46.4439H741.579ZM730.035 49.7074L730.651 49.5205C730.651 49.5205 730.189 49.3624 729.984 49.3624C729.727 49.3624 729.573 49.4774 729.368 49.5349L730.087 49.693L730.035 49.7074ZM718.645 34.3389L719.261 34.1664C719.261 34.1664 718.799 34.0227 718.594 34.0227C718.337 34.0227 718.132 34.1233 717.927 34.1808L718.645 34.3389ZM690.22 30.6298C690.22 30.6298 690.631 30.5292 690.836 30.4717L690.169 30.2992L689.553 30.4861C689.553 30.4861 690.015 30.6442 690.169 30.6298H690.22ZM682.319 29.9973C682.524 30.0835 682.986 30.1123 683.448 30.141C683.448 30.1698 683.448 30.1985 683.499 30.2129H683.807C684.012 30.3279 684.166 30.4429 684.371 30.5579C684.371 30.5723 684.987 30.5436 684.987 30.5292C685.038 30.256 684.423 30.2273 683.807 30.2273C683.807 30.2129 683.756 30.1842 683.704 30.1698C683.602 30.1698 683.499 30.1554 683.448 30.141C683.345 30.026 683.242 29.8966 682.986 29.8391C682.473 29.7529 682.011 29.8679 682.319 29.9973ZM669.389 29.6522C669.851 29.7672 670.313 29.8823 670.826 29.9973C671.39 30.1267 671.955 30.0691 672.109 29.8247C672.365 29.4366 671.493 29.1634 670.108 29.1634C669.851 29.1922 669.543 29.2066 669.287 29.2497C668.722 29.3503 668.774 29.4941 669.441 29.6522H669.389ZM696.223 62.0711C696.48 62.2005 696.634 62.3443 696.839 62.4737H696.736L696.942 62.5312L696.839 62.4737C698.943 62.1718 701.098 61.8842 703.509 61.8699C703.766 61.8699 703.971 61.7692 704.227 61.7117C703.971 61.6542 703.766 61.5536 703.509 61.5536C701.046 61.5248 698.583 61.4386 696.172 61.5248C694.684 61.5823 695.864 61.8842 696.172 62.0711H696.223ZM690.631 57.9451C690.426 57.8588 689.861 57.8301 689.399 57.787C689.399 57.7582 689.399 57.7438 689.348 57.7151L689.194 57.7582C689.194 57.7582 689.348 57.7582 689.451 57.7726C689.605 57.902 689.707 58.0457 690.015 58.1032C690.528 58.2039 690.99 58.0601 690.682 57.9307L690.631 57.9451ZM685.962 61.2229C687.244 61.453 688.63 61.6111 690.118 61.8267C690.374 61.7692 691.041 61.683 691.041 61.5967C691.041 61.0648 691.093 60.5472 692.632 60.1447C692.17 60.0728 691.554 59.9003 691.298 59.929C689.399 60.1734 687.552 60.4466 685.757 60.7629C685.551 60.7916 685.705 61.1654 686.013 61.2229H685.962ZM648.507 55.5298C650.816 55.6736 652.56 56.3206 655.228 56.148C655.228 56.148 655.228 56.1624 655.228 56.1768C655.28 56.1768 655.382 56.1768 655.434 56.1912C655.587 56.3206 655.69 56.4643 655.998 56.5218C656.511 56.6081 656.973 56.4787 656.665 56.3493C656.408 56.2631 655.895 56.2343 655.485 56.1912C655.485 56.1768 655.485 56.148 655.434 56.1337H655.331C655.588 55.7599 656.665 55.6736 657.896 55.5874C658.666 55.5299 658.871 55.3142 658.358 55.2423C656.46 54.9979 654.561 54.7248 652.56 54.5666C650.918 54.4372 649.687 54.7679 648.712 55.1129C648.199 55.2855 648.097 55.4724 648.712 55.5155L648.507 55.5298ZM648.353 6.76491C648.815 6.86554 649.328 6.72178 649.02 6.57802C648.815 6.49176 648.25 6.463 647.789 6.41987C647.789 6.4055 647.789 6.37674 647.737 6.36237H647.583C647.481 5.95983 646.557 5.85919 645.275 5.90232C645.018 5.90232 644.556 5.98857 644.608 6.01732C644.71 6.13234 644.864 6.30486 645.121 6.31924C645.942 6.36237 646.763 6.34799 647.583 6.36237C647.583 6.37674 647.583 6.39112 647.583 6.40549C647.635 6.40549 647.737 6.4055 647.789 6.41987C647.943 6.54926 648.045 6.7074 648.353 6.77929V6.76491ZM643.068 29.0628C643.633 29.1059 644.248 29.1203 645.275 29.149L647.43 28.8903C646.557 28.8184 645.736 28.7178 644.864 28.6746C644.3 28.6459 643.684 28.689 643.068 28.7321C642.812 28.7465 642.607 28.8471 642.35 28.9046C642.607 28.9621 642.812 29.034 643.12 29.0628H643.068ZM634.141 6.04608C635.629 6.463 637.425 6.47738 639.22 6.24735C639.579 6.20422 639.682 6.03171 639.887 5.88794C639.99 5.88794 640.092 5.88794 640.195 5.88794C640.195 5.85919 640.246 5.84481 640.298 5.81605C640.965 5.81605 641.58 5.78731 641.478 5.49978C641.478 5.4854 640.913 5.45665 640.862 5.47102C640.657 5.58603 640.503 5.70104 640.298 5.81605H639.99C639.99 5.81605 639.939 5.85919 639.887 5.88794C638.04 5.94545 636.552 5.70105 635.116 5.39915C634.757 5.32726 633.73 5.38476 633.422 5.47102C632.55 5.7298 633.628 5.90232 634.141 6.04608ZM629.574 6.2761L630.087 6.20423L629.523 5.9742C629.523 5.9742 629.061 6.08921 629.061 6.13234C629.061 6.18984 629.42 6.23297 629.574 6.2761ZM621.776 6.2186C621.776 6.2186 622.032 6.2761 622.083 6.2761C622.956 6.14671 622.904 6.03171 622.032 5.94545L621.365 6.11797C621.365 6.11797 621.622 6.18985 621.776 6.2186ZM610.385 5.64354C610.385 5.64354 610.847 5.78731 611.104 5.78731C612.54 5.81606 613.977 5.81606 615.413 5.83043C615.413 5.83043 615.413 5.85919 615.413 5.87356H615.567C615.567 6.29048 616.594 6.40549 617.876 6.34799C618.081 6.34799 618.235 6.29048 618.389 6.23297C618.543 6.17547 618.697 6.11797 618.851 6.06046C618.851 6.06046 618.646 6.00296 618.492 5.95983C618.389 5.93108 618.235 5.90232 618.133 5.90232C617.261 5.87357 616.44 5.87357 615.567 5.85919C615.567 5.84482 615.567 5.83043 615.567 5.81605H615.413C615.26 5.42789 614.336 5.29851 613.053 5.34164C612.181 5.37039 611.36 5.4279 610.539 5.4854C610.437 5.4854 610.385 5.60041 610.437 5.62916L610.385 5.64354ZM523.778 11.0347C524.65 10.9197 524.598 10.8047 523.726 10.7328C523.624 10.7328 523.367 10.8334 523.162 10.891C523.367 10.9485 523.675 11.0491 523.778 11.0347ZM504.742 26.9351C504.742 26.9351 505.102 26.8201 505.307 26.7769C505.512 26.7194 505.615 26.6619 505.666 26.6044C505.666 26.4607 505.307 26.3169 505.101 26.1587L504.178 26.475C504.332 26.6044 504.537 26.7338 504.691 26.8632L504.794 26.9207L504.742 26.9351ZM496.379 11.5523C496.533 11.6385 496.738 11.8973 497.303 12.0698C497.611 12.1705 498.431 12.1705 498.996 12.1417C499.868 12.0986 499.868 11.9836 499.458 11.7967C498.842 11.5091 498.431 11.1929 497.867 10.891C497.713 10.8191 497.457 10.7616 497.251 10.7041C496.944 10.8478 496.584 10.9916 496.379 11.1354C496.277 11.2072 496.379 11.3079 496.379 11.5523ZM466.775 12.0554L467.595 11.8973C467.595 11.8973 467.185 11.7679 467.031 11.7679C466.826 11.7679 466.672 11.8542 466.518 11.9117L466.775 12.0411V12.0554ZM454.871 27.1507C454.922 27.2513 455.538 27.3232 455.897 27.3951C455.949 27.3951 456.41 27.2945 456.462 27.2226C456.564 26.9926 456.513 26.7769 456.564 26.5469C456.616 26.5469 456.667 26.5469 456.718 26.5469C456.718 26.5325 456.718 26.5038 456.769 26.475C457.231 26.4319 457.744 26.4031 457.95 26.3169C458.309 26.1875 457.847 26.0437 457.283 26.1444C456.975 26.2019 456.872 26.3456 456.718 26.475C456.616 26.475 456.564 26.475 456.462 26.4894V26.5469C455.128 26.5757 454.512 26.7769 454.768 27.1507H454.871ZM450.407 11.351C450.407 11.351 449.381 11.351 449.073 11.4373C448.406 11.5954 447.893 11.7967 447.329 11.9836C447.637 12.0411 447.842 12.0986 448.15 12.1273C449.381 12.2711 450.561 12.1273 450.818 11.7967C450.92 11.6529 450.715 11.4804 450.407 11.351ZM446.918 27.007C447.739 27.0645 448.714 27.0213 449.586 27.0213C450.202 27.0357 450.818 27.0788 451.382 27.0213C451.793 26.9782 452.1 26.8488 452.357 26.7194C452.408 26.6907 452.1 26.5757 451.947 26.5038C450.766 26.0437 449.176 25.9143 447.226 26.015C446.303 26.0725 445.687 26.1875 445.482 26.475C445.225 26.8344 446.149 26.9351 446.918 26.9926V27.007ZM439.889 26.475C440.248 26.475 440.556 26.3025 440.915 26.2019C440.351 26.1444 439.838 26.0437 439.273 26.0581C438.863 26.0581 438.555 26.2306 438.145 26.3313C438.76 26.3888 439.325 26.4894 439.889 26.475ZM432.963 11.581L433.219 11.5379L433.476 11.4948L432.911 11.2647L432.398 11.4229L432.963 11.5666V11.581ZM429.987 4.2059C430.5 4.2059 431.064 4.10526 431.577 4.04776C431.218 3.9615 430.859 3.80336 430.449 3.78898C429.935 3.78898 429.422 3.88962 428.807 3.9615C429.217 4.04776 429.576 4.2059 429.935 4.2059H429.987ZM413.927 3.86086L413.363 4.00463L413.979 4.13401L414.543 4.06214L413.927 3.84649V3.86086ZM412.08 12.5586C413.414 12.7743 414.954 12.8174 416.185 12.5586C416.595 12.458 416.801 12.0554 416.441 11.9404C415.415 11.6098 412.85 11.6385 411.619 11.9404C411.516 11.9548 411.516 11.9979 411.465 12.0411C411.465 12.0842 411.465 12.1273 411.413 12.1561C411.619 12.2998 411.67 12.5155 412.08 12.573V12.5586ZM398.945 4.68032C399.715 4.76658 400.536 4.86721 401.152 4.59406C401.254 4.55093 401.254 4.45029 401.152 4.43592C400.639 4.37841 400.126 4.33528 399.612 4.29215L398.279 4.52218C398.279 4.52218 398.689 4.65157 398.945 4.68032ZM393.969 1.05745C394.995 1.11496 395.918 0.899311 395.405 0.755546C395.097 0.654911 394.43 0.583028 393.969 0.597404C393.712 0.597404 393.507 0.640533 393.302 0.698039C393.096 0.741168 392.891 0.798672 392.635 0.841801C393.045 0.913684 393.456 1.04308 393.917 1.07183L393.969 1.05745ZM379.808 1.45999C379.808 1.45999 380.064 1.5175 380.167 1.53188C381.86 1.69002 383.81 1.575 385.298 1.96316C385.759 2.09255 387.76 1.67564 387.863 1.44562C387.863 1.38812 387.863 1.2731 387.812 1.25872C385.195 0.971191 382.578 0.971192 379.91 1.21559C379.808 1.21559 379.705 1.24435 379.654 1.28748C379.602 1.31623 379.5 1.34498 379.448 1.37373C379.551 1.40249 379.705 1.43124 379.808 1.45999ZM359.285 4.68032C359.285 4.68032 359.695 4.57969 359.9 4.52218C359.644 4.46468 359.438 4.36404 359.182 4.36404C358.925 4.36404 358.771 4.47905 358.566 4.55093C358.823 4.59406 359.028 4.69469 359.285 4.69469V4.68032ZM340.455 5.241C341.07 5.28413 341.686 5.2985 342.302 5.2985C343.225 5.2985 344.2 5.28413 345.124 5.26975V5.2985C346.663 5.25537 348.202 5.25538 349.741 5.16912C350.1 5.15474 350.511 4.89596 350.511 4.7522C350.511 4.62281 350.049 4.47905 349.793 4.34966C347.176 5.08286 343.892 4.72344 340.865 4.79533C340.454 4.79533 340.095 4.98223 339.685 5.08286C339.941 5.14037 340.147 5.21225 340.455 5.241ZM294.226 6.11797C294.226 6.11797 294.483 6.18985 294.637 6.2186C294.79 6.24736 294.893 6.2761 294.944 6.2761C295.868 6.14671 295.817 6.03171 294.893 5.94545L294.226 6.11797ZM289.968 6.33361C290.481 6.33361 291.404 6.24735 291.404 6.17547C291.558 5.85918 290.532 5.91669 289.865 5.87356L288.531 6.11797C288.993 6.18985 289.454 6.31923 289.968 6.33361ZM280.63 4.76658C280.63 4.76658 280.63 4.79533 280.63 4.80971L280.783 4.83845C280.886 5.25537 280.886 5.65792 281.091 6.06046C281.194 6.31924 281.656 6.30486 282.425 6.13234C284.375 5.70105 284.529 5.57166 282.938 5.16912C282.323 5.02535 281.553 4.9391 280.835 4.82409V4.7522C280.835 4.7522 280.681 4.7522 280.63 4.7522C280.322 4.09088 278.526 4.27778 277.038 4.26341C277.038 4.24903 277.038 4.23464 277.038 4.22027L276.884 4.26341C276.884 4.26341 276.987 4.26341 277.089 4.26341C277.294 4.96785 279.193 4.73782 280.681 4.7522L280.63 4.76658ZM203.411 7.02368C203.616 7.26808 204.232 7.38309 205.258 7.35434C206.182 7.32558 206.9 7.25371 206.9 6.92305C206.9 6.57801 205.771 6.33361 204.591 6.43424C203.719 6.5205 203.257 6.7074 203.462 7.0093L203.411 7.02368ZM173.653 43.3099C173.653 43.3099 174.268 43.3099 174.268 43.2955C174.474 43.008 173.807 42.9936 173.191 42.9792C173.191 42.9648 173.139 42.9361 173.088 42.9217L172.883 42.9792C172.883 42.9792 173.088 42.9792 173.191 42.9792C173.345 43.0942 173.499 43.2092 173.704 43.3099H173.653ZM165.341 54.0347C166.213 54.0778 167.136 54.0347 168.06 54.0347V53.9916C169.291 53.9916 170.471 53.9916 171.703 53.9916C171.959 53.9916 172.473 53.8765 172.421 53.8622C172.216 53.7184 172.011 53.5603 171.652 53.4596C170.574 53.1577 169.445 52.8702 167.701 53.1865C166.983 53.3302 166.11 53.4021 165.289 53.5315C164.776 53.6034 164.263 53.704 163.801 53.7903C164.315 53.8766 164.776 54.006 165.289 54.0347H165.341ZM147.28 53.4453C148.204 53.6465 149.179 53.9916 150.154 54.0203C153.54 54.0922 156.926 54.0491 160.313 54.0203C160.98 54.0203 161.8 53.589 161.493 53.4021C161.236 53.2584 160.826 53.0571 160.415 53.0571C158.26 53.0283 156.105 53.0427 153.95 53.0427V52.9565C151.795 52.9996 149.692 53.0283 147.537 53.0859C147.28 53.0859 146.87 53.1721 146.819 53.2296C146.819 53.2871 147.075 53.3878 147.28 53.4453ZM139.687 53.4453C140.405 53.7184 140.764 54.0635 141.38 54.351C141.996 54.6241 143.022 54.5379 143.791 54.4372C144.869 54.2935 144.715 53.9772 144.304 53.7759C143.535 53.4021 142.56 53.0571 140.867 53.0283C140.456 53.0427 140.148 53.0571 139.892 53.0715C139.02 53.1577 139.122 53.244 139.687 53.4596V53.4453ZM111.314 52.3239C113.52 52.8558 114.648 53.5171 114.956 54.3078C114.956 54.3941 116.085 54.5235 116.496 54.4804C121.267 53.9916 126.193 53.589 130.605 52.8702C131.221 52.7696 131.17 52.6402 130.451 52.482C127.219 51.7345 124.038 51.3894 120.549 51.4182C117.317 51.2169 115.008 52.137 111.775 51.9789C111.006 51.9357 110.749 52.1801 111.314 52.3239Z" fill="#F2F2F2"/>
</svg>
