<svg width="28" height="29" viewBox="0 0 28 29" fill="none" xmlns="http://www.w3.org/2000/svg">
<path fill-rule="evenodd" clip-rule="evenodd" d="M27.3409 7.0749C27.5485 6.38948 27.3409 5.89122 26.4221 5.89122H23.3672C22.5966 5.89122 22.2408 6.3275 22.0331 6.79417C22.0331 6.79417 20.4616 10.7803 18.2671 13.3646C17.5554 14.112 17.2294 14.3611 16.8438 14.3611C16.6361 14.3611 16.3689 14.112 16.3689 13.4272V7.04269C16.3689 6.23332 16.1321 5.85962 15.4794 5.85962H10.675C10.2002 5.85962 9.90385 6.23332 9.90385 6.60702C9.90385 7.3854 11.0011 7.57255 11.1195 9.75215V14.4881C11.1195 15.5156 10.9445 15.7034 10.556 15.7034C9.51826 15.7034 6.99768 11.6863 5.48567 7.10892C5.19167 6.20233 4.89301 5.85962 4.12184 5.85962H1.03775C0.148167 5.85962 0 6.2953 0 6.76257C0 7.60354 1.03775 11.8382 4.83351 17.443C7.35409 21.2712 10.9422 23.3286 14.1744 23.3286C16.1321 23.3286 16.3689 22.8614 16.3689 22.083V19.187C16.3689 18.253 16.5469 18.0975 17.1699 18.0975C17.6144 18.0975 18.4153 18.346 20.2242 20.1835C22.2997 22.3631 22.6555 23.3596 23.8123 23.3596H26.8666C27.7562 23.3596 28.1715 22.8923 27.9341 21.9894C27.6675 21.0864 26.659 19.7788 25.354 18.222C24.6424 17.3507 23.5749 16.3851 23.2488 15.9179C22.8043 15.295 22.9227 15.0459 23.2488 14.4857C23.219 14.4857 26.9559 8.94278 27.3409 7.07247" fill="white"/>
</svg>
