<svg width="28" height="29" viewBox="0 0 28 29" fill="none" xmlns="http://www.w3.org/2000/svg">
<path d="M3.00441 26.0264L4.49161 20.5616C3.51167 18.8817 2.99682 16.9712 3.00001 15.0264C3.00001 8.95106 7.92471 4.02637 14 4.02637C20.0753 4.02637 25 8.95106 25 15.0264C25 21.1017 20.0753 26.0264 14 26.0264C12.0561 26.0295 10.1463 25.515 8.46701 24.5359L3.00441 26.0264ZM10.0301 9.86516C9.88806 9.87398 9.74925 9.9114 9.62201 9.97516C9.50268 10.0427 9.39376 10.1272 9.29861 10.226C9.16661 10.3503 9.09181 10.4581 9.01151 10.5626C8.60496 11.0917 8.38628 11.7411 8.39001 12.4084C8.39221 12.9474 8.53301 13.4721 8.75301 13.9627C9.20291 14.9549 9.94321 16.0054 10.9211 16.9789C11.1565 17.2132 11.3864 17.4486 11.6339 17.6675C12.8476 18.7361 14.294 19.5067 15.8579 19.9181L16.4838 20.0138C16.6873 20.0248 16.8908 20.0094 17.0954 19.9995C17.4158 19.9829 17.7286 19.8962 18.0117 19.7454C18.1558 19.6712 18.2963 19.5904 18.433 19.5034C18.433 19.5034 18.4803 19.4726 18.5705 19.4044C18.719 19.2944 18.8103 19.2163 18.9335 19.0876C19.0248 18.993 19.104 18.8819 19.1645 18.7554C19.2503 18.5761 19.3361 18.234 19.3713 17.9491C19.3977 17.7313 19.39 17.6125 19.3867 17.5388C19.3823 17.4211 19.2844 17.299 19.1777 17.2473L18.5375 16.9602C18.5375 16.9602 17.5805 16.5433 16.9964 16.2771C16.9348 16.2502 16.8688 16.2349 16.8017 16.232C16.7264 16.2242 16.6504 16.2327 16.5787 16.2568C16.507 16.2809 16.4412 16.3201 16.3859 16.3717V16.3695C16.3804 16.3695 16.3067 16.4322 15.5114 17.3958C15.4658 17.4571 15.4029 17.5035 15.3308 17.5289C15.2587 17.5544 15.1807 17.5578 15.1066 17.5388C15.0349 17.5196 14.9647 17.4953 14.8965 17.4662C14.7601 17.409 14.7128 17.387 14.6193 17.3463L14.6138 17.3441C13.9845 17.0693 13.4019 16.6982 12.8868 16.2441C12.7482 16.1231 12.6195 15.9911 12.4875 15.8635C12.0547 15.449 11.6776 14.9802 11.3655 14.4687L11.3006 14.3642C11.254 14.2939 11.2163 14.2182 11.1884 14.1387C11.1466 13.977 11.2555 13.8472 11.2555 13.8472C11.2555 13.8472 11.5228 13.5546 11.6471 13.3962C11.7506 13.2645 11.8472 13.1276 11.9364 12.9859C12.0662 12.7769 12.1069 12.5624 12.0387 12.3963C11.7307 11.6439 11.4117 10.8948 11.0839 10.1512C11.019 10.0038 10.8265 9.89816 10.6516 9.87726C10.5922 9.87066 10.5328 9.86406 10.4734 9.85966C10.3257 9.85232 10.1777 9.85489 10.0301 9.86516Z" fill="white"/>
</svg>
