<svg width="28" height="29" viewBox="0 0 28 29" fill="none" xmlns="http://www.w3.org/2000/svg">
<g clip-path="url(#clip0_243_1783)">
<path fill-rule="evenodd" clip-rule="evenodd" d="M14.5 4.02637C15.5687 4.02637 16.665 4.05387 17.7275 4.09887L18.9825 4.15887L20.1837 4.23012L21.3087 4.30637L22.3362 4.38637C23.4513 4.47171 24.5006 4.94755 25.2994 5.73017C26.0983 6.51278 26.5955 7.55204 26.7037 8.66512L26.7537 9.19637L26.8475 10.3339C26.935 11.5126 27 12.7976 27 14.0264C27 15.2551 26.935 16.5401 26.8475 17.7189L26.7537 18.8564C26.7375 19.0389 26.7212 19.2151 26.7037 19.3876C26.5955 20.5009 26.098 21.5403 25.2989 22.3229C24.4998 23.1056 23.4503 23.5813 22.335 23.6664L21.31 23.7451L20.185 23.8226L18.9825 23.8939L17.7275 23.9539C16.6523 24.0006 15.5762 24.0248 14.5 24.0264C13.4238 24.0248 12.3477 24.0006 11.2725 23.9539L10.0175 23.8939L8.81625 23.8226L7.69125 23.7451L6.66375 23.6664C5.54869 23.581 4.49944 23.1052 3.70059 22.3226C2.90174 21.54 2.40447 20.5007 2.29625 19.3876L2.24625 18.8564L2.1525 17.7189C2.05692 16.4903 2.00606 15.2586 2 14.0264C2 12.7976 2.065 11.5126 2.1525 10.3339L2.24625 9.19637C2.2625 9.01387 2.27875 8.83762 2.29625 8.66512C2.40443 7.55224 2.90152 6.51314 3.70011 5.73055C4.49871 4.94796 5.54766 4.472 6.6625 4.38637L7.68875 4.30637L8.81375 4.23012L10.0162 4.15887L11.2712 4.09887C12.3469 4.05216 13.4234 4.02799 14.5 4.02637ZM12 10.9951V17.0576C12 17.6351 12.625 17.9951 13.125 17.7076L18.375 14.6764C18.4892 14.6106 18.5841 14.5159 18.6501 14.4018C18.7161 14.2877 18.7508 14.1582 18.7508 14.0264C18.7508 13.8946 18.7161 13.7651 18.6501 13.651C18.5841 13.5368 18.4892 13.4421 18.375 13.3764L13.125 10.3464C13.0109 10.2805 12.8816 10.2459 12.7499 10.2459C12.6182 10.2459 12.4888 10.2806 12.3748 10.3465C12.2608 10.4124 12.1661 10.5071 12.1003 10.6212C12.0345 10.7353 11.9999 10.8647 12 10.9964V10.9951Z" fill="white"/>
</g>
<defs>
<clipPath id="clip0_243_1783">
<rect width="28" height="28" fill="white" transform="translate(0 0.0263672)"/>
</clipPath>
</defs>
</svg>
