<svg xmlns="http://www.w3.org/2000/svg" width="99" height="28" fill="none"><g fill="#F2F2F2" fill-rule="evenodd" clip-path="url(#a)" clip-rule="evenodd"><path d="M66.857 27.5h7.035l3.023-8.493 3.143-2.603 2.476 7.68c.765 2.374 1.553 3.416 3.272 3.416h5.387l-5.557-15.072L99 .5h-8.63l-8.113 8.493c-.945.989-1.9 1.962-2.86 3.124h-.08L83.366.5H76.33l-9.474 27ZM66.554.501h6.138L71.24 4.96c-.456 1.4-1.615 2.07-4.168 2.07L51.645 7.03l1.452-4.458C53.553 1.17 54.712.5 57.265.5l9.289.001Zm-12.87 10.234c4.434 0 10.994 0 15.428.002l-1.453 4.457c-.456 1.402-1.615 2.071-4.168 2.071-4.433 0-10.993 0-15.427-.002l1.452-4.457c.456-1.401 1.615-2.071 4.168-2.071Zm11.67 10.236-15.426-.001c-2.554 0-3.712.67-4.168 2.07l-1.452 4.458 15.427.002c2.553 0 3.712-.67 4.168-2.071l1.452-4.458ZM34.956 7.003l3.776.002c3.217 0 2.483 3.889.855 7.679-1.435 3.34-3.978 6.288-7.01 6.288l-6.295-.001c-2.51 0-3.668.67-4.157 2.07L20.571 27.5l4.616.001 4.512-.036c4-.032 7.277-.312 11.107-3.644 4.048-3.52 8.768-12.664 7.96-17.953C48.132 1.723 45.83.502 40.26.502L30.106.5l-5.911 16.746 3.756.005c2.235.002 3.357.03 4.546-3.068l2.46-7.18ZM17.599 7.026l-2.84.001C9.07 7.03 4.195 20.974 10.922 20.972l4.322-.001c2.492 0 4.343.88 3.523 3.256L17.638 27.5l-4.583.001-3.729-.036c-4.77-.046-7.848-2.322-8.956-5.778-1.2-3.74.494-11.539 5.408-16.535C8.63 2.253 12.58.501 17.644.501L27 .5l-1.463 4.086c-.944 2.64-2.875 2.444-3.977 2.443L17.6 7.026Z"/></g><defs><clipPath id="a"><path fill="#fff" d="M0 .5h99v27H0z"/></clipPath></defs></svg>