<svg xmlns="http://www.w3.org/2000/svg" width="116" height="30" fill="none"><path fill="#F2F2F2" fill-rule="evenodd" d="M42.921 3.817H16.108l-.956-1.103h-3.07l.626-2.389h31.114l-.9 3.492ZM60.51 7.878v.037h-6.524c-.368 1.231-.68 2.481-.993 3.712l6.543.019-1.746 6.726v.037h-6.524c-.35 1.25-.662 2.499-.993 3.75l6.561.017-1.746 6.8v.037H40.495l.845-3.272 12.976-.018.33-1.158-13.011-.019c.33-1.268.662-2.554.992-3.84h6.267l.313-1.16-6.267-.017.974-3.749h12.974c.13-.385.203-.808.313-1.212l-12.975-.018c.294-1.25.661-2.482.956-3.73h6.266l.294-1.122-6.267-.018.956-3.731h12.975c.129-.404.203-.808.313-1.213l-12.975-.019.956-3.711H62.29L60.51 7.878Zm15.602 4.356.019.019.772-1.434h10.75l.295-1.14-10.384-.036 2.04-3.676 9.318-.037c.11-.404.202-.808.294-1.213L80.319 4.7l2.059-3.694h8.95l-7.186 27.989h-6.891c.294-1.084.551-2.188.845-3.29h5.733l.295-1.14-5.716-.018.9-3.823 5.79-.017c.129-.368.22-.772.312-1.16l-5.716-.017.938-3.749h5.753c.11-.404.202-.808.33-1.212l-5.862-.019c.129-.661.294-1.323.423-1.967L72.95 28.975l-2.59.018v-3.271h2.811c.203-.386.386-.772.588-1.158l-3.399-.018v-3.84h5.347c.203-.368.387-.773.59-1.16l-5.936-.017v-3.75h7.847c.202-.404.423-.808.606-1.212l-8.453-.019c0-.698.017-1.396 0-2.076l-4.3 16.521h-6.93l.844-3.271h5.256c.11-.368.202-.754.313-1.14l-5.274-.018.992-3.859h5.256c.091-.387.183-.772.293-1.159l-5.237-.017c.312-1.25.662-2.5.973-3.767h5.238c.129-.387.202-.81.313-1.196l-5.238-.018.956-3.73h10.77l.017-1.14-10.494-.019.956-3.693h9.263V4.734l-8.932-.018.956-3.712h9.097l.662 11.23Zm34.771-7.535-1.286 4.944-7.131.018c.147-.57.294-1.139.46-1.709l-2.316-.018c-.349 1.213-.643 2.463-.956 3.694l5.091.037 3.51 3.216-2.757 10.823-5.733 3.29h-6.837l-4.392-3.29-.018-.017h15.474l.313-1.121-15.511-.019 1.01-3.822 7.499-.018-.35 1.433 2.28.019.385-1.452h5.643c.11-.387.239-.755.331-1.159l-5.66-.017c.055-.368.201-.717.257-1.103l-5.789-.018c-.827-.883-1.709-1.746-2.554-2.629l14.683-.017c.11-.404.221-.81.349-1.195l-15.492-.019c.307-1.24.626-2.477.956-3.712l6.138-.018c.11-.368.183-.772.331-1.14l-6.175-.018c.293-1.25.662-2.463.955-3.694l15.474-.019.313-1.23-15.492-.02 6.267-3.693h6.799l3.931 3.693ZM41.598 8.908H20.5L19.103 7.29h-8.196l.514-1.985h31.114l-.937 3.603ZM40.33 13.85H24.763l-1.782-2.076H9.767l.386-1.526h31.114l-.937 3.602Zm-1.232 4.723H28.843l-2.113-2.462H8.647l.257-1.03h31.132l-.938 3.492ZM37.793 23.5H33.09l-2.518-2.922H7.507l.202-.88 19.59-.02h11.487l-.993 3.823Zm-1.102 4.227-2.188-2.573-28.19-.017.11-.534 31.095.019-.827 3.105Zm-.515 1.93-31.058.02.11-.498h31.114l-.166.478Z" clip-rule="evenodd"/></svg>