<svg xmlns="http://www.w3.org/2000/svg" width="16" height="16" fill="none"><path fill="#F2F2F2" fill-rule="evenodd" d="M1.885.51a1.745 1.745 0 0 1 2.61.164L6.29 2.98c.329.423.445.974.315 1.494l-.547 2.19a.678.678 0 0 0 .178.643l2.457 2.457a.678.678 0 0 0 .644.178l2.189-.547a1.745 1.745 0 0 1 1.494.315l2.306 1.794c.829.645.905 1.87.163 2.61l-1.034 1.035c-.74.74-1.846 1.065-2.877.702a18.635 18.635 0 0 1-7.01-4.42 18.634 18.634 0 0 1-4.42-7.01c-.362-1.03-.037-2.136.703-2.876L1.885.51Z" clip-rule="evenodd"/></svg>